<?xml version="1.0" encoding="UTF-8"?>
<!DOCTYPE svg PUBLIC "-//W3C//DTD SVG 1.1//EN" "http://www.w3.org/Graphics/SVG/1.1/DTD/svg11.dtd">
<!-- Creator: CorelDRAW -->
<svg xmlns="http://www.w3.org/2000/svg" xml:space="preserve" width="6.82666in" height="6.82666in" style="shape-rendering:geometricPrecision; text-rendering:geometricPrecision; image-rendering:optimizeQuality; fill-rule:evenodd; clip-rule:evenodd"
viewBox="0 0 6.82666 6.82666"
 xmlns:xlink="http://www.w3.org/1999/xlink">
 <defs>
  <style type="text/css">
   <![CDATA[
    .fil3 {fill:none}
    .fil0 {fill:#424242}
    .fil2 {fill:#FFFFFE}
    .fil1 {fill:#FFFFFE;fill-rule:nonzero}
   ]]>
  </style>
 </defs>
 <rect class="fil0" width="6.82666" height="6.82666"/>
 <g id="Layer_x0020_1">
  <metadata id="CorelCorpID_0Corel-Layer"/>
  <path class="fil1" d="M3.41333 1.84188c0.540654,0 1.04709,0.148744 1.48064,0.407594 0.448181,0.267594 0.817886,0.652949 1.06637,1.1133l0.000192913 -0.000106299c0.0189843,0.0351772 0.0161772,0.0762717 -0.00378346,0.107803 -0.248441,0.457429 -0.616732,0.840394 -1.06278,1.1067 -0.433555,0.258854 -0.939984,0.407594 -1.48064,0.407594 -0.540657,0 -1.04709,-0.14874 -1.48064,-0.407594 -0.448185,-0.267591 -0.81789,-0.652945 -1.06637,-1.11329l-0.000192913 0.000106299c-0.0189843,-0.0351772 -0.0161772,-0.0762717 0.00378346,-0.107803 0.248449,-0.457433 0.61674,-0.840398 1.06278,-1.10671 0.433551,-0.25885 0.939984,-0.407594 1.48064,-0.407594zm0.75426 0.817185c-0.193024,-0.19302 -0.459693,-0.312409 -0.75426,-0.312409 -0.294567,0 -0.561236,0.11939 -0.75426,0.312409 -0.19302,0.193024 -0.312409,0.459693 -0.312409,0.75426 0,0.294567 0.11939,0.561236 0.312409,0.75426 0.193024,0.19302 0.459693,0.312409 0.75426,0.312409 0.294567,0 0.561236,-0.11939 0.75426,-0.312409 0.19302,-0.193024 0.312409,-0.459693 0.312409,-0.75426 0,-0.294567 -0.11939,-0.561236 -0.312409,-0.75426z"/>
  <g id="_368961712">
   <path id="_368962600" class="fil2" d="M2.89873 3.74378c0.0570551,-0.120134 0.195921,-0.233335 0.306945,-0.303713 -0.00253937,-0.0195 -0.00234646,-0.0394921 0.00080315,-0.0594134 -0.108528,-0.0227638 -0.218004,-0.0141339 -0.330472,0.028126 -0.120177,0.0451654 -0.244343,0.128638 -0.374831,0.253031 -0.00383465,0.00366142 -0.00800787,0.00674409 -0.0124134,0.00925197 0.00929528,0.0332598 0.0203661,0.0659843 0.0331575,0.0980236 0.0587953,0.147307 0.153886,0.280134 0.279449,0.383925 0.0117126,-0.161756 0.0442008,-0.297295 0.0973622,-0.409232z"/>
   <path id="_368962120" class="fil1" d="M3.41343 3.20379c0.0578268,0 0.110193,0.0234488 0.148098,0.0613543 0.0379055,0.0379055 0.0613504,0.0902677 0.0613504,0.148098 0,0.0578307 -0.0234449,0.110193 -0.0613504,0.148098 -0.0379055,0.0379055 -0.0902717,0.0613543 -0.148098,0.0613543 -0.0578307,0 -0.110197,-0.0234488 -0.148102,-0.0613543 -0.0379055,-0.0379055 -0.0613504,-0.0902677 -0.0613504,-0.148098 0,-0.0578307 0.0234449,-0.110193 0.0613504,-0.148098 0.0379055,-0.0379055 0.0902717,-0.0613543 0.148102,-0.0613543zm0.0634764 0.145976c-0.0162402,-0.0162402 -0.038685,-0.0262874 -0.0634764,-0.0262874 -0.0247953,0 -0.0472402,0.0100472 -0.0634803,0.0262874 -0.0162362,0.0162362 -0.0262835,0.0386811 -0.0262835,0.0634764 0,0.0247953 0.0100472,0.0472402 0.0262835,0.0634764 0.0162402,0.0162402 0.038685,0.0262874 0.0634803,0.0262874 0.0247913,0 0.0472362,-0.0100472 0.0634764,-0.0262874 0.0162402,-0.0162362 0.0262835,-0.0386811 0.0262835,-0.0634764 0,-0.0247953 -0.0100433,-0.0472402 -0.0262835,-0.0634764z"/>
   <path id="_368962336" class="fil2" d="M3.75593 2.90642c-0.00501969,0.132902 -0.0879528,0.291709 -0.162201,0.400185 0.0100276,0.0169173 0.0177441,0.0353622 0.0227087,0.0549094 0.108701,-0.0219055 0.205894,-0.0730354 0.292555,-0.156244 0.0926102,-0.0889213 0.17376,-0.214614 0.244579,-0.380402 0.0020748,-0.00487795 0.00469291,-0.00935827 0.00775591,-0.0134016 -0.0216654,-0.0268937 -0.044752,-0.0525906 -0.0691457,-0.0769843 -0.112154,-0.112157 -0.251937,-0.196685 -0.408268,-0.242508 0.0530669,0.153252 0.0766929,0.290614 0.0720157,0.414445z"/>
   <path id="_368961376" class="fil2" d="M3.35863 2.804c0.0800866,0.106177 0.116161,0.281665 0.127161,0.412654 0.0184606,0.00677559 0.0360945,0.0162008 0.0522953,0.0282126 0.0704094,-0.0856693 0.113429,-0.186709 0.12802,-0.305965 0.0155866,-0.127437 -0.000940945,-0.276134 -0.050811,-0.449378 -0.00147244,-0.00509055 -0.00227559,-0.0102205 -0.00246063,-0.0152874 -0.0337835,-0.00715354 -0.0679173,-0.0124843 -0.102236,-0.0159764 -0.157795,-0.0160551 -0.319551,0.00675591 -0.469669,0.0700236 0.137969,0.085248 0.243079,0.176783 0.317701,0.275717z"/>
   <path id="_368961904" class="fil2" d="M2.98598 2.97567c0.129165,0.031685 0.268016,0.144906 0.359311,0.23948 0.0185906,-0.00641732 0.0382126,-0.0102559 0.0583583,-0.0111811 0.000437008,-0.110886 -0.030063,-0.216386 -0.0941142,-0.318035 -0.0684449,-0.108618 -0.175217,-0.213425 -0.323343,-0.316185 -0.00435827,-0.00301575 -0.00822047,-0.00648031 -0.011563,-0.0102953 -0.0307087,0.0158071 -0.0605276,0.0332441 -0.0893346,0.0522244 -0.132449,0.0872638 -0.243402,0.207157 -0.319772,0.351051 0.160799,-0.0211102 0.300106,-0.0165827 0.420457,0.0129409z"/>
   <path id="_368961616" class="fil2" d="M2.80564 3.34419c0.120134,-0.0570591 0.299291,-0.0570433 0.429811,-0.041437 0.0103543,-0.0167165 0.0231378,-0.0320945 0.0381654,-0.0455394 -0.0697283,-0.0862205 -0.160031,-0.148713 -0.273906,-0.187024 -0.121685,-0.040937 -0.270661,-0.0547008 -0.450402,-0.0407441 -0.00528346,0.000417323 -0.0104685,0.000169291 -0.0154685,-0.000673228 -0.013811,0.0316535 -0.0259094,0.0640118 -0.0362441,0.0969252 -0.0475079,0.151327 -0.0577441,0.314362 -0.0260118,0.47415 0.111291,-0.117972 0.222122,-0.202492 0.334055,-0.255657z"/>
   <path id="_368961928" class="fil2" d="M3.22337 3.99466c-0.0316929,-0.129165 0.00440945,-0.30465 0.0459882,-0.42935 -0.0142913,-0.0135079 -0.0267756,-0.029126 -0.0369213,-0.0465551 -0.0985,0.0509331 -0.177902,0.126799 -0.238362,0.230622 -0.0646063,0.110945 -0.108094,0.254098 -0.13063,0.432965 -0.000653543,0.00525984 -0.00194094,0.0102874 -0.00377165,0.0150157 0.0282205,0.0199055 0.0574803,0.0382717 0.0876378,0.0550236 0.138654,0.0770157 0.296287,0.119882 0.459189,0.12098 -0.0931339,-0.132772 -0.153598,-0.25835 -0.18313,-0.378701z"/>
   <path id="_368961304" class="fil2" d="M3.64554 3.97918c-0.10785,-0.0778189 -0.194098,-0.23485 -0.243264,-0.35676 -0.0196378,-0.00102756 -0.0392677,-0.00482677 -0.0582913,-0.0115236 -0.0419921,0.10263 -0.0532874,0.211866 -0.0320354,0.330114 0.0227126,0.126362 0.082378,0.263563 0.18115,0.414378 0.00290945,0.00442913 0.00519291,0.00909055 0.00685827,0.013878 0.0343937,-0.00313386 0.0685787,-0.00811024 0.102402,-0.0149016 0.155508,-0.0312205 0.303327,-0.100748 0.428094,-0.205496 -0.15698,-0.0407402 -0.284421,-0.0971811 -0.384913,-0.169689z"/>
   <path id="_368961760" class="fil2" d="M3.9561 3.69549c-0.132602,0.0102205 -0.299858,-0.0539921 -0.416114,-0.115339 -0.0156614,0.0118976 -0.0331024,0.0216732 -0.0519528,0.0288425 0.0342008,0.10548 0.0961142,0.196185 0.188697,0.272756 0.0989331,0.0818228 0.233087,0.148059 0.40589,0.199441 0.00508268,0.00150394 0.00983465,0.00359055 0.0142008,0.00616929 0.0242362,-0.0246024 0.047126,-0.0504764 0.0685669,-0.0775 0.0985827,-0.124252 0.166563,-0.272791 0.194197,-0.433339 -0.146177,0.0702559 -0.279929,0.109445 -0.403484,0.118969z"/>
   <path id="_368961496" class="fil2" d="M4.00762 3.26798c-0.0930079,0.0950591 -0.261134,0.156965 -0.389008,0.187421 -0.00393701,0.0192677 -0.0106181,0.0381142 -0.0200748,0.0559291 0.0952323,0.0568071 0.201571,0.0842402 0.321665,0.0808346 0.128335,-0.0036378 0.27289,-0.0422126 0.436732,-0.117425 0.00481496,-0.00221654 0.00976378,-0.00377953 0.0147441,-0.00471654 0.00202362,-0.0344724 0.00219291,-0.0690197 0.000511811,-0.103476 -0.0077126,-0.158421 -0.0544528,-0.314949 -0.139453,-0.453921 -0.0636654,0.149165 -0.138453,0.266776 -0.225118,0.355354z"/>
  </g>
 </g>
 <rect class="fil3" width="6.82666" height="6.82666"/>
</svg>
