<?xml version="1.0" encoding="UTF-8"?>
<!DOCTYPE svg PUBLIC "-//W3C//DTD SVG 1.1//EN" "http://www.w3.org/Graphics/SVG/1.1/DTD/svg11.dtd">
<!-- Creator: CorelDRAW -->
<svg xmlns="http://www.w3.org/2000/svg" xml:space="preserve" width="6.82666in" height="6.82666in" style="shape-rendering:geometricPrecision; text-rendering:geometricPrecision; image-rendering:optimizeQuality; fill-rule:evenodd; clip-rule:evenodd"
viewBox="0 0 6.82666 6.82666"
 xmlns:xlink="http://www.w3.org/1999/xlink">
 <defs>
  <style type="text/css">
   <![CDATA[
    .fil3 {fill:none}
    .fil0 {fill:#424242}
    .fil2 {fill:#FFFFFE}
    .fil1 {fill:#FFFFFE;fill-rule:nonzero}
   ]]>
  </style>
 </defs>
 <rect class="fil0" width="6.82666" height="6.82666"/>
 <g id="Layer_x0020_1">
  <metadata id="CorelCorpID_0Corel-Layer"/>
  <g id="_368962960">
   <path id="_368964928" class="fil1" d="M1.31595 1.69339l4.19476 0c0.127319,0 0.242996,0.0520157 0.326791,0.135811 0.0837953,0.0837953 0.135807,0.199472 0.135807,0.326791l0 2.486c0,0.127319 -0.0520118,0.242996 -0.135807,0.326791 -0.0837953,0.0837953 -0.199472,0.135811 -0.326791,0.135811l-4.19476 0c-0.127319,0 -0.242996,-0.0520157 -0.326791,-0.135811 -0.0837953,-0.0837953 -0.135807,-0.199472 -0.135807,-0.326791l0 -2.486c0,-0.127319 0.0520118,-0.242996 0.135807,-0.326791 0.0837953,-0.0837953 0.199472,-0.135811 0.326791,-0.135811zm4.19476 0.20215l-4.19476 0c-0.0715197,0 -0.136614,0.0293346 -0.183866,0.0765866 -0.047252,0.047248 -0.0765827,0.112343 -0.0765827,0.183866l0 2.486c0,0.0715236 0.0293307,0.136614 0.0765827,0.183866 0.047252,0.047252 0.112346,0.0765866 0.183866,0.0765866l4.19476 0c0.0715197,0 0.136614,-0.0293346 0.183866,-0.0765866 0.047252,-0.047252 0.0765827,-0.112343 0.0765827,-0.183866l0 -2.486c0,-0.0715236 -0.0293307,-0.136618 -0.0765827,-0.183866 -0.047252,-0.047252 -0.112346,-0.0765866 -0.183866,-0.0765866z"/>
   <path id="_368964304" class="fil1" d="M2.5242 1.76535c0,0.0719016 0.0501142,0.130197 0.111925,0.130197 0.061811,0 0.111925,-0.0582953 0.111925,-0.130197l0.0260709 0.00536614c0,-0.00754724 0.000334646,-0.0150157 0.000976378,-0.022378l1.51948 0c0.000645669,0.0073622 0.000980315,0.0148307 0.000980315,0.022378l-0.0260709 -0.00536614c0,0.0719016 0.0501142,0.130197 0.111925,0.130197 0.061811,0 0.111925,-0.0582953 0.111925,-0.130197l0 -0.107819c0,-0.132717 -0.0465984,-0.253283 -0.121661,-0.340602 -0.0750669,-0.0873189 -0.178713,-0.141528 -0.292799,-0.141528l-1.14022 0c-0.114091,0 -0.217736,0.0542087 -0.292799,0.141528 -0.075063,0.0873189 -0.121661,0.207886 -0.121661,0.340602l0 0.107819z"/>
   <path id="_368964400" class="fil1" d="M1.9541 1.89554l-0.489571 0c-0.0558189,0 -0.101075,-0.0452559 -0.101075,-0.101075l0 -0.243205c0,-0.0558189 0.0452559,-0.101075 0.101075,-0.101075l0.489571 0c0.0558189,0 0.101075,0.0452559 0.101075,0.101075l0 0.243205c0,0.0558189 -0.0452559,0.101075 -0.101075,0.101075z"/>
   <g>
    <path id="_368963992" class="fil2" d="M2.97868 3.67813c0.0481811,-0.101453 0.165449,-0.197047 0.259209,-0.256476 -0.00214567,-0.0164685 -0.00198031,-0.0333543 0.000677165,-0.0501772 -0.0916496,-0.0192205 -0.184102,-0.011937 -0.279075,0.0237559 -0.101492,0.0381378 -0.206346,0.10863 -0.316543,0.213677 -0.00323622,0.00309055 -0.00675984,0.00569685 -0.0104803,0.00781102 0.00785039,0.0280906 0.0172008,0.0557244 0.028,0.0827795 0.0496535,0.124402 0.129953,0.236571 0.235988,0.32422 0.0098937,-0.136602 0.0373307,-0.251059 0.0822244,-0.345591z"/>
    <path id="_368963896" class="fil1" d="M3.41333 2.18612c0.334917,0 0.638138,0.13576 0.857626,0.355248 0.219488,0.219488 0.355248,0.522709 0.355248,0.857626 0,0.334917 -0.13576,0.638138 -0.355248,0.857626 -0.219488,0.219488 -0.522709,0.355248 -0.857626,0.355248 -0.334917,0 -0.638138,-0.13576 -0.857626,-0.355248 -0.219488,-0.219488 -0.355248,-0.522709 -0.355248,-0.857626 0,-0.334917 0.13576,-0.638138 0.355248,-0.857626 0.219488,-0.219488 0.522709,-0.355248 0.857626,-0.355248zm0.643224 0.569646c-0.16461,-0.16461 -0.392024,-0.266429 -0.643224,-0.266429 -0.251201,0 -0.478614,0.101819 -0.643224,0.266429 -0.164614,0.164614 -0.266429,0.392028 -0.266429,0.643228 0,0.251197 0.101815,0.478614 0.266429,0.643224 0.16461,0.164614 0.392024,0.266429 0.643224,0.266429 0.251201,0 0.478614,-0.101815 0.643224,-0.266429 0.164614,-0.16461 0.266429,-0.392028 0.266429,-0.643224 0,-0.251201 -0.101815,-0.478614 -0.266429,-0.643228z"/>
    <path id="_368963656" class="fil1" d="M3.41333 3.22212c0.0488346,0 0.0930551,0.0197992 0.125067,0.051811 0.0320118,0.0320118 0.051811,0.0762283 0.051811,0.125067 0,0.0488346 -0.0197992,0.0930551 -0.051811,0.125067 -0.0320118,0.0320118 -0.0762323,0.051811 -0.125067,0.051811 -0.0488346,0 -0.0930551,-0.0197992 -0.125067,-0.051811 -0.0320118,-0.0320118 -0.051811,-0.0762323 -0.051811,-0.125067 0,-0.0488386 0.0197992,-0.0930551 0.051811,-0.125067 0.0320118,-0.0320118 0.0762323,-0.051811 0.125067,-0.051811zm0.0536063 0.123272c-0.0137126,-0.0137126 -0.0326693,-0.0221969 -0.0536063,-0.0221969 -0.020937,0 -0.0398937,0.00848425 -0.0536063,0.0221969 -0.0137126,0.0137126 -0.0221969,0.0326693 -0.0221969,0.0536063 0,0.020937 0.00848425,0.0398937 0.0221969,0.0536063 0.0137126,0.0137126 0.0326693,0.0221969 0.0536063,0.0221969 0.020937,0 0.0398937,-0.00848425 0.0536063,-0.0221969 0.0137126,-0.0137126 0.0221969,-0.0326693 0.0221969,-0.0536063 0,-0.020937 -0.00848425,-0.0398937 -0.0221969,-0.0536063z"/>
    <path id="_368963680" class="fil2" d="M3.70257 2.971c-0.00424016,0.112232 -0.0742756,0.246343 -0.136976,0.337949 0.0084685,0.0142874 0.0149843,0.0298661 0.0191772,0.0463701 0.0917953,-0.0185 0.173874,-0.0616732 0.247059,-0.131945 0.0782047,-0.0750906 0.146736,-0.181236 0.206543,-0.321244 0.00175197,-0.00411811 0.00396063,-0.00790157 0.00654724,-0.011315 -0.0182953,-0.0227126 -0.0377913,-0.0444134 -0.0583937,-0.0650118 -0.0947087,-0.0947165 -0.212756,-0.166098 -0.344772,-0.204795 0.044811,0.129421 0.0647638,0.245417 0.060815,0.349992z"/>
    <path id="_368964040" class="fil2" d="M3.36706 2.8845c0.0676339,0.0896654 0.0980945,0.237862 0.107386,0.34848 0.0155906,0.00572441 0.0304803,0.0136811 0.0441614,0.0238268 0.0594567,-0.0723465 0.0957913,-0.157673 0.10811,-0.258382 0.0131614,-0.107618 -0.000791339,-0.233193 -0.0429094,-0.379492 -0.00124409,-0.00429921 -0.00192126,-0.00862992 -0.0020748,-0.0129094 -0.0285315,-0.00604331 -0.0573583,-0.0105433 -0.0863386,-0.0134921 -0.133256,-0.0135591 -0.269854,0.00570472 -0.396626,0.0591339 0.116512,0.0719921 0.205276,0.149287 0.268291,0.232835z"/>
    <path id="_368964016" class="fil2" d="M3.05237 3.02947c0.109079,0.0267598 0.226331,0.122374 0.303433,0.20224 0.0156969,-0.00541732 0.0322677,-0.00866142 0.0492795,-0.00944488 0.000370079,-0.0936417 -0.0253898,-0.182732 -0.0794764,-0.268571 -0.0577992,-0.0917283 -0.147969,-0.180236 -0.273055,-0.267016 -0.0036811,-0.00254724 -0.00694488,-0.00547244 -0.00976772,-0.00869291 -0.0259291,0.0133465 -0.0511142,0.0280709 -0.0754409,0.0441024 -0.11185,0.073689 -0.205547,0.174937 -0.270043,0.296457 0.135795,-0.0178268 0.253437,-0.0140079 0.355071,0.0109252z"/>
    <path id="_368964112" class="fil2" d="M2.90007 3.34069c0.101449,-0.048185 0.252748,-0.0481732 0.362969,-0.0349921 0.00874409,-0.0141181 0.0195394,-0.0271024 0.0322283,-0.0384567 -0.0588819,-0.072811 -0.135146,-0.125587 -0.231307,-0.157937 -0.10276,-0.0345709 -0.228571,-0.0461929 -0.380358,-0.0344094 -0.00446063,0.000354331 -0.00883858,0.000145669 -0.013063,-0.000566929 -0.0116654,0.0267323 -0.021878,0.0540551 -0.0306063,0.0818504 -0.040122,0.127795 -0.0487638,0.265472 -0.0219646,0.400409 0.0939843,-0.099622 0.187575,-0.171 0.282102,-0.215898z"/>
    <path id="_368963512" class="fil2" d="M3.25284 3.88999c-0.0267638,-0.109075 0.00372047,-0.257268 0.0388346,-0.362579 -0.0120669,-0.0114094 -0.0226102,-0.0245984 -0.0311811,-0.039315 -0.0831772,0.0430118 -0.150232,0.107079 -0.201291,0.194756 -0.0545591,0.0936929 -0.0912835,0.214583 -0.110311,0.365634 -0.000555118,0.00444094 -0.00164173,0.00868504 -0.00318898,0.0126772 0.0238346,0.016811 0.0485433,0.0323189 0.0740118,0.0464685 0.117091,0.0650394 0.250205,0.101236 0.387776,0.102165 -0.0786535,-0.112122 -0.129713,-0.218173 -0.15465,-0.319807z"/>
    <path id="_368964208" class="fil2" d="M3.60935 3.87692c-0.0910787,-0.0657126 -0.163917,-0.198323 -0.205433,-0.301276 -0.0165866,-0.000866142 -0.0331614,-0.0040748 -0.0492244,-0.00973228 -0.0354646,0.0866693 -0.045,0.178917 -0.0270551,0.27878 0.0191772,0.106709 0.0695669,0.222571 0.152976,0.349929 0.00245669,0.00374409 0.00438583,0.0076811 0.00579134,0.0117244 0.0290472,-0.00264567 0.0579134,-0.00685039 0.0864764,-0.0125866 0.131323,-0.0263622 0.256154,-0.0850787 0.36152,-0.173535 -0.132567,-0.0344055 -0.240189,-0.0820709 -0.325051,-0.143303z"/>
    <path id="_368963128" class="fil2" d="M3.87161 3.63735c-0.11198,0.00862992 -0.253224,-0.0455984 -0.351402,-0.0974016 -0.0132244,0.0100472 -0.0279567,0.0182992 -0.043874,0.0243543 0.0288819,0.0890787 0.0811693,0.165673 0.15935,0.230339 0.0835472,0.0690984 0.196839,0.125031 0.342768,0.168421 0.00429134,0.00127165 0.00830315,0.00303543 0.0119921,0.0052126 0.0204685,-0.0207756 0.0397953,-0.042626 0.0579055,-0.0654488 0.083252,-0.104925 0.140657,-0.230366 0.163992,-0.365945 -0.123441,0.0593307 -0.236394,0.0924252 -0.340732,0.100469z"/>
    <path id="_368963008" class="fil2" d="M3.91512 3.27632c-0.0785472,0.0802756 -0.220524,0.132551 -0.328508,0.158276 -0.00332677,0.0162717 -0.00897244,0.032185 -0.0169528,0.0472283 0.0804173,0.0479724 0.17022,0.0711417 0.271638,0.0682638 0.108378,-0.00307087 0.230453,-0.0356457 0.368811,-0.0991614 0.00406693,-0.00187402 0.00824803,-0.00319291 0.0124528,-0.00398425 0.00170866,-0.0291142 0.00185039,-0.0582874 0.000433071,-0.0873858 -0.00651181,-0.133783 -0.0459843,-0.265965 -0.117768,-0.383327 -0.0537598,0.125965 -0.116921,0.225287 -0.190106,0.300091z"/>
   </g>
   <path id="_368963248" class="fil2" d="M2.315 2.68911c0.0502835,-0.0776417 0.108579,-0.149614 0.173709,-0.214744 0.236634,-0.23663 0.563547,-0.383004 0.924626,-0.383004 0.361079,0 0.687992,0.146374 0.924626,0.383004 0.065689,0.065685 0.124421,0.138335 0.174996,0.216736 0.00648819,-0.00130709 0.0131969,-0.00199213 0.0200709,-0.00199213l1.30605 0 0 -0.533114c0,-0.0715236 -0.0367126,-0.164165 -0.0839646,-0.211417 -0.047252,-0.047252 -0.112346,-0.0765827 -0.183866,-0.0765827l-1.39569 -0.0171732 -1.5761 0 -0.671181 0 -0.463752 0.00177953 -0.148575 0c-0.0715197,0 -0.183559,0.0722756 -0.230811,0.119528 -0.047252,0.047248 -0.0765827,0.112343 -0.0765827,0.183866l-0.0209685 0.533114 1.32741 0zm-0.427228 -0.258197l-0.382181 0c-0.0469567,0 -0.0896102,-0.0191772 -0.1205,-0.050063 -0.0308858,-0.0308858 -0.0500591,-0.0735433 -0.0500591,-0.1205 0,-0.0469528 0.0191732,-0.0896142 0.0500591,-0.1205 0.0308898,-0.0308858 0.0735472,-0.050063 0.1205,-0.050063l0.382181 0c0.0469567,0 0.0896102,0.0191772 0.120496,0.050063 0.0308898,0.0308858 0.050063,0.0735433 0.050063,0.120504 0,0.0469528 -0.0191732,0.0896102 -0.050063,0.120496 -0.0308858,0.0308858 -0.0735394,0.050063 -0.120496,0.050063zm3.38855 -0.291161c0.0308622,-0.0308622 0.0735118,-0.0499606 0.120602,-0.0499606 0.0470945,0 0.0897362,0.0190984 0.120598,0.0499606 0.0308622,0.0308622 0.0499606,0.0735079 0.0499606,0.120602 0,0.0470906 -0.0190984,0.0897362 -0.0499606,0.120598 -0.0308622,0.0308622 -0.0735039,0.0499606 -0.120598,0.0499606 -0.0470906,0 -0.0897402,-0.0190984 -0.120602,-0.0499606 -0.0308622,-0.0308622 -0.0499606,-0.0735079 -0.0499606,-0.120598 0,-0.0470945 0.0190984,-0.0897402 0.0499606,-0.120602z"/>
   <path id="_368962936" class="fil2" d="M2.1057 3.39899c0,-0.180059 0.0364016,-0.351626 0.10224,-0.507732l-1.18935 0 0 1.01547 1.18935 0c-0.0658425,-0.15611 -0.102244,-0.327677 -0.102244,-0.50774z"/>
   <path id="_368963056" class="fil2" d="M2.315 4.10888l-1.32344 0 0 0.533114c0,0.0715236 0.0293307,0.136614 0.0765827,0.183866 0.047252,0.047252 0.151965,0.090626 0.223484,0.090626l4.24518 0.0277165c0.0715197,0 0.136614,-0.0293307 0.183866,-0.0765827 0.047252,-0.047252 0.0765827,-0.112346 0.0765827,-0.183866l0.041815 -0.574874 -1.30605 0c-0.00687402,0 -0.0135866,-0.000685039 -0.0200748,-0.00199213 -0.0505748,0.0784016 -0.109303,0.151039 -0.174992,0.216728 -0.236634,0.23663 -0.563547,0.383004 -0.924626,0.383004 -0.361079,0 -0.687992,-0.146374 -0.924626,-0.383004 -0.065126,-0.0651299 -0.123421,-0.137102 -0.173705,-0.214736z"/>
   <path id="_368963200" class="fil2" d="M5.83907 3.90673l0 -1.01547 -1.22035 0c0.0658386,0.156106 0.10224,0.327673 0.10224,0.507732 0,0.180063 -0.0364016,0.35163 -0.102244,0.50774l1.22036 0z"/>
  </g>
 </g>
 <rect class="fil3" width="6.82666" height="6.82666"/>
</svg>
