<?xml version="1.0" encoding="UTF-8"?>
<!DOCTYPE svg PUBLIC "-//W3C//DTD SVG 1.1//EN" "http://www.w3.org/Graphics/SVG/1.1/DTD/svg11.dtd">
<!-- Creator: CorelDRAW -->
<svg xmlns="http://www.w3.org/2000/svg" xml:space="preserve" width="6.82666in" height="6.82666in" style="shape-rendering:geometricPrecision; text-rendering:geometricPrecision; image-rendering:optimizeQuality; fill-rule:evenodd; clip-rule:evenodd"
viewBox="0 0 6.82666 6.82666"
 xmlns:xlink="http://www.w3.org/1999/xlink">
 <defs>
  <style type="text/css">
   <![CDATA[
    .fil4 {fill:none}
    .fil1 {fill:none;fill-rule:nonzero}
    .fil0 {fill:#424242}
    .fil2 {fill:#FFFFFE}
    .fil3 {fill:#FFFFFE;fill-rule:nonzero}
   ]]>
  </style>
 </defs>
 <rect class="fil0" width="6.82666" height="6.82666"/>
 <g id="Layer_x0020_1">
  <metadata id="CorelCorpID_0Corel-Layer"/>
  <g id="_368965288">
   <path id="_368965888" class="fil1" d="M2.31449 3.33331c0.00069685,0.000275591 0.00138583,0.000566929 0.00207874,0.000862205"/>
   <g>
    <path id="_368965840" class="fil2" d="M3.967 4.76703c0.0483228,-0.00844094 0.0952087,-0.0342598 0.128618,-0.069878 0.0326614,-0.034815 0.054189,-0.0792559 0.054189,-0.127591l0 -0.0281811c0,-0.0533583 -0.0237323,-0.102996 -0.0617205,-0.139823 -0.0355276,-0.0344331 -0.0828307,-0.0568346 -0.132283,-0.0601535l-1.44206 0.00312205 0.203815 -0.584614c0.0163189,-0.046815 0.0447992,-0.116689 0.0431969,-0.165606 -0.00185039,-0.0564528 -0.021937,-0.0937165 -0.0740118,-0.118846l-0.00495276 -0.00238976c-0.000452756,-0.000200787 -0.000905512,-0.000401575 -0.00135827,-0.000610236l-0.000208661 -8.66142e-005 -0.000834646 -0.000326772c-0.05,-0.0195591 -0.106543,-0.0261732 -0.158004,-0.00824409 -0.0520709,0.0181457 -0.0924134,0.0579606 -0.118941,0.105563 -0.0797362,0.143059 -0.158894,0.284787 -0.245622,0.423921 -0.0724409,0.116217 -0.228685,0.367681 -0.355504,0.422071 -0.0662283,0.0284055 -0.139787,0.0356378 -0.210673,0.0240591 -1.9685e-005,0.000551181 -1.5748e-005,0.00111811 -1.5748e-005,0.00164173l0 1.31904c0.00136614,0.0013937 0.00401181,0.00275197 0.00547638,0.00331102l0.449469 0.17113c0.111768,0.0396339 0.116354,0.0398504 0.234929,0.0383661l0.823933 -0.0183465c0.0401693,-0.00312598 0.0825906,-0.0137598 0.114248,-0.0370945 0.0356063,-0.0262402 0.0507362,-0.0586535 0.0507362,-0.103154l0 -0.025752c0,-0.0276811 -0.00332283,-0.0567756 -0.0133583,-0.0827441l-0.029189 -0.0755276 0.0605669 -0.0537323c0.0038189,-0.00338189 0.00750787,-0.00691339 0.0110472,-0.0105827 0.0373583,-0.0387165 0.0562992,-0.0903268 0.0562992,-0.14385l0 -0.0288071c0,-0.0275827 -0.00495669,-0.0548583 -0.0156457,-0.0803307l-0.0403465 -0.0961654 0.0910787 -0.0507874c0.0145945,-0.0081378 0.0284173,-0.0177717 0.0409567,-0.0288228 0.0403622,-0.0355709 0.0662205,-0.0830433 0.0662205,-0.137728l0 -0.0287835c0,-0.0170512 -0.00251181,-0.0338701 -0.00754724,-0.0501614l-0.0465433 -0.150539 0.322335 -0.00101969c0.0646496,-0.000200787 0.13735,0.00218504 0.201705,-0.00194094z"/>
    <path id="_368965936" class="fil3" d="M1.37646 5.91419l-0.416465 0c-0.0589094,0 -0.106669,-0.0477598 -0.106669,-0.106669l0 -1.45764c0,-0.0589094 0.0477598,-0.106669 0.106669,-0.106669l0.416465 0c0.0589094,0 0.106669,0.0477598 0.106669,0.106669l0 1.45764c0,0.0589094 -0.0477598,0.106669 -0.106669,0.106669z"/>
   </g>
   <g>
    <path id="_368966152" class="fil2" d="M2.85967 2.05963c-0.0483228,0.00844094 -0.0952087,0.0342598 -0.128618,0.069878 -0.0326614,0.034815 -0.054189,0.0792559 -0.054189,0.127591l0 0.0281811c0,0.0533583 0.0237323,0.102996 0.0617205,0.139823 0.0355276,0.0344331 0.0828307,0.0568346 0.132283,0.0601535l1.44206 -0.00312205 -0.203815 0.584614c-0.0163189,0.046815 -0.0447992,0.116689 -0.0431969,0.165606 0.00185039,0.0564528 0.021937,0.0937165 0.0740118,0.118846l0.00495276 0.00238976c0.000452756,0.000200787 0.000905512,0.000401575 0.00135827,0.000610236l0.000208661 8.66142e-005 0.000834646 0.000326772c0.05,0.0195591 0.106543,0.0261732 0.158004,0.00824409 0.0520709,-0.0181457 0.0924134,-0.0579606 0.118941,-0.105563 0.0797362,-0.143059 0.158894,-0.284787 0.245622,-0.423921 0.0724409,-0.116217 0.228685,-0.367681 0.355504,-0.422071 0.0662283,-0.0284055 0.139787,-0.0356378 0.210673,-0.0240591 1.9685e-005,-0.000551181 1.5748e-005,-0.00111811 1.5748e-005,-0.00164173l0 -1.31904c-0.00136614,-0.0013937 -0.00401181,-0.00275197 -0.00547638,-0.00331102l-0.449469 -0.17113c-0.111768,-0.0396339 -0.116354,-0.0398504 -0.234929,-0.0383661l-0.823933 0.0183465c-0.0401693,0.00312598 -0.0825906,0.0137598 -0.114248,0.0370945 -0.0356063,0.0262402 -0.0507362,0.0586535 -0.0507362,0.103154l0 0.025752c0,0.0276811 0.00332283,0.0567756 0.0133583,0.0827441l0.029189 0.0755276 -0.0605669 0.0537323c-0.0038189,0.00338189 -0.00750787,0.00691339 -0.0110472,0.0105827 -0.0373583,0.0387165 -0.0562992,0.0903268 -0.0562992,0.14385l0 0.0288071c0,0.0275827 0.00495669,0.0548583 0.0156457,0.0803307l0.0403465 0.0961654 -0.0910787 0.0507874c-0.0145945,0.0081378 -0.0284173,0.0177717 -0.0409567,0.0288228 -0.0403622,0.0355709 -0.0662205,0.0830433 -0.0662205,0.137728l0 0.0287835c0,0.0170512 0.00251181,0.0338701 0.00754724,0.0501614l0.0465433 0.150539 -0.322335 0.00101969c-0.0646496,0.000200787 -0.13735,-0.00218504 -0.201705,0.00194094z"/>
    <path id="_368966536" class="fil3" d="M5.4502 0.912472l0.416465 0c0.0589094,0 0.106669,0.0477598 0.106669,0.106669l0 1.45764c0,0.0589094 -0.0477598,0.106669 -0.106669,0.106669l-0.416465 0c-0.0589094,0 -0.106669,-0.0477598 -0.106669,-0.106669l0 -1.45764c0,-0.0589094 0.0477598,-0.106669 0.106669,-0.106669z"/>
   </g>
  </g>
 </g>
 <rect class="fil4" width="6.82666" height="6.82666"/>
</svg>
