<?xml version="1.0" encoding="UTF-8"?>
<!DOCTYPE svg PUBLIC "-//W3C//DTD SVG 1.1//EN" "http://www.w3.org/Graphics/SVG/1.1/DTD/svg11.dtd">
<!-- Creator: CorelDRAW -->
<svg xmlns="http://www.w3.org/2000/svg" xml:space="preserve" width="6.82666in" height="6.82666in" style="shape-rendering:geometricPrecision; text-rendering:geometricPrecision; image-rendering:optimizeQuality; fill-rule:evenodd; clip-rule:evenodd"
viewBox="0 0 6.82666 6.82666"
 xmlns:xlink="http://www.w3.org/1999/xlink">
 <defs>
  <style type="text/css">
   <![CDATA[
    .fil3 {fill:none}
    .fil0 {fill:#424242}
    .fil1 {fill:#FFFFFE}
    .fil2 {fill:#FFFFFE;fill-rule:nonzero}
   ]]>
  </style>
 </defs>
 <rect class="fil0" width="6.82666" height="6.82666"/>
 <g id="Layer_x0020_1">
  <metadata id="CorelCorpID_0Corel-Layer"/>
  <g id="_368967136">
   <g>
    <path id="_368967352" class="fil1" d="M4.90106 2.11072c-0.00750394,-0.0429528 -0.0304528,-0.0846299 -0.0621142,-0.114327 -0.0309488,-0.0290315 -0.0704488,-0.0481654 -0.113413,-0.0481654l-0.0250512 0c-0.0474291,0 -0.0915512,0.0210945 -0.124283,0.0548622 -0.0306102,0.0315787 -0.0505236,0.073626 -0.0534724,0.117587l0.00277559 1.28183 -0.519657 -0.181173c-0.0416142,-0.0145039 -0.103724,-0.0398189 -0.147209,-0.0383937 -0.0501811,0.00164173 -0.0833031,0.0194961 -0.105638,0.0657874l-0.00212598 0.00440157c-0.000177165,0.000401575 -0.000358268,0.00080315 -0.000543307,0.00120866l-7.48031e-005 0.000185039 -0.000291339 0.000740157c-0.0173858,0.0444449 -0.0232677,0.0947087 -0.00733071,0.140449 0.0161299,0.0462874 0.0515236,0.0821457 0.0938346,0.105728 0.127165,0.070874 0.253146,0.141236 0.376823,0.218327 0.103299,0.0643937 0.326827,0.203276 0.375173,0.316004 0.025248,0.0588701 0.0316772,0.12426 0.0213858,0.187264 0.000488189,1.9685e-005 0.000992126,1.5748e-005 0.00146063,1.5748e-005l1.17247 0c0.00124016,-0.0012126 0.00244882,-0.00356299 0.00294488,-0.00486614l0.152118 -0.399528c0.0352283,-0.0993504 0.0354213,-0.103425 0.0340984,-0.208827l-0.0163071 -0.732386c-0.00277559,-0.0357047 -0.0122283,-0.0734134 -0.0329724,-0.101555 -0.0233228,-0.0316457 -0.0521339,-0.0450984 -0.0916929,-0.0450984l-0.0228898 0c-0.0246024,0 -0.0504685,0.00295276 -0.0735512,0.011874l-0.0671339 0.0259449 -0.0477638 -0.0538346c-0.00300394,-0.0033937 -0.00614173,-0.00667323 -0.00940551,-0.00982283 -0.0344134,-0.0332047 -0.0802913,-0.0500394 -0.127866,-0.0500394l-0.0256063 0c-0.0245197,0 -0.0487638,0.00440551 -0.0714055,0.0139055l-0.0854803 0.0358622 -0.0451457 -0.0809606c-0.00723228,-0.0129724 -0.0157953,-0.0252598 -0.0256181,-0.0364016 -0.0316181,-0.0358819 -0.0738189,-0.0588661 -0.122425,-0.0588661l-0.0255866 0c-0.0151575,0 -0.0301063,0.00223622 -0.0445866,0.0067126l-0.133815 0.0413701 -0.000905512 -0.28652c-0.000181102,-0.0574646 0.00194488,-0.122091 -0.00172441,-0.179295z"/>
    <path id="_368966944" class="fil2" d="M5.92076 4.41342l0 0.370193c0,0.0523622 -0.0424528,0.094815 -0.0948189,0.094815l-1.29568 0c-0.0523661,0 -0.0948189,-0.0424528 -0.0948189,-0.094815l0 -0.370193c0,-0.0523622 0.0424528,-0.094815 0.0948189,-0.094815l1.29568 0c0.0523661,0 0.0948189,0.0424528 0.0948189,0.094815z"/>
   </g>
   <g>
    <path id="_368967304" class="fil1" d="M1.92559 2.11072c0.00750394,-0.0429528 0.0304528,-0.0846299 0.0621142,-0.114327 0.0309488,-0.0290315 0.0704488,-0.0481654 0.113417,-0.0481654l0.0250472 0c0.0474291,0 0.0915512,0.0210945 0.124287,0.0548622 0.0306063,0.0315787 0.0505197,0.073626 0.0534685,0.117587l-0.00277559 1.28183 0.519657 -0.181173c0.0416142,-0.0145039 0.103724,-0.0398189 0.147209,-0.0383937 0.0501811,0.00164173 0.0833031,0.0194961 0.105638,0.0657874l0.00212598 0.00440157c0.000177165,0.000401575 0.000358268,0.00080315 0.000543307,0.00120866l7.48031e-005 0.000185039 0.000291339 0.000740157c0.0173858,0.0444449 0.0232677,0.0947087 0.00733071,0.140449 -0.0161299,0.0462874 -0.0515236,0.0821457 -0.0938346,0.105728 -0.127165,0.070874 -0.253146,0.141236 -0.376823,0.218327 -0.103299,0.0643937 -0.326823,0.203276 -0.375173,0.316004 -0.025248,0.0588701 -0.0316772,0.12426 -0.0213819,0.187264 -0.000492126,1.9685e-005 -0.000996063,1.5748e-005 -0.00146457,1.5748e-005l-1.17247 0c-0.00124016,-0.0012126 -0.00244882,-0.00356299 -0.00294488,-0.00486614l-0.152118 -0.399528c-0.0352283,-0.0993504 -0.0354213,-0.103425 -0.0340984,-0.208827l0.0163071 -0.732386c0.00277953,-0.0357047 0.0122323,-0.0734134 0.0329724,-0.101555 0.0233228,-0.0316457 0.0521339,-0.0450984 0.0916929,-0.0450984l0.0228898 0c0.0246024,0 0.0504685,0.00295276 0.0735512,0.011874l0.0671339 0.0259449 0.0477638 -0.0538346c0.00300787,-0.0033937 0.00614173,-0.00667323 0.00940551,-0.00982283 0.0344173,-0.0332047 0.0802913,-0.0500394 0.127866,-0.0500394l0.0256102 0c0.0245157,0 0.0487598,0.00440551 0.0714016,0.0139055l0.0854803 0.0358622 0.0451457 -0.0809606c0.00723228,-0.0129724 0.0157953,-0.0252598 0.0256181,-0.0364016 0.0316181,-0.0358819 0.0738189,-0.0588661 0.122425,-0.0588661l0.0255866 0c0.0151575,0 0.0301063,0.00223622 0.0445866,0.0067126l0.133815 0.0413701 0.000905512 -0.28652c0.000181102,-0.0574646 -0.00194094,-0.122091 0.00172441,-0.179295z"/>
    <path id="_368967064" class="fil2" d="M0.905898 4.41342l0 0.370193c0,0.0523622 0.0424567,0.094815 0.0948189,0.094815l1.29568 0c0.0523661,0 0.0948189,-0.0424528 0.0948189,-0.094815l0 -0.370193c0,-0.0523622 -0.0424528,-0.094815 -0.0948189,-0.094815l-1.29568 0c-0.0523622,0 -0.0948189,0.0424528 -0.0948189,0.094815z"/>
   </g>
  </g>
 </g>
 <rect class="fil3" width="6.82666" height="6.82666"/>
</svg>
