<?xml version="1.0" encoding="UTF-8"?>
<!DOCTYPE svg PUBLIC "-//W3C//DTD SVG 1.1//EN" "http://www.w3.org/Graphics/SVG/1.1/DTD/svg11.dtd">
<!-- Creator: CorelDRAW -->
<svg xmlns="http://www.w3.org/2000/svg" xml:space="preserve" width="6.82666in" height="6.82666in" style="shape-rendering:geometricPrecision; text-rendering:geometricPrecision; image-rendering:optimizeQuality; fill-rule:evenodd; clip-rule:evenodd"
viewBox="0 0 6.82666 6.82666"
 xmlns:xlink="http://www.w3.org/1999/xlink">
 <defs>
  <style type="text/css">
   <![CDATA[
    .fil3 {fill:none}
    .fil0 {fill:#424242}
    .fil2 {fill:#FFFFFE}
    .fil1 {fill:#FFFFFE;fill-rule:nonzero}
   ]]>
  </style>
 </defs>
 <rect class="fil0" width="6.82666" height="6.82666"/>
 <g id="Layer_x0020_1">
  <metadata id="CorelCorpID_0Corel-Layer"/>
  <path class="fil1" d="M1.2744 4.37174l0 -1.91682c0,-0.110122 0.0449764,-0.210161 0.117433,-0.282618 0.0724567,-0.0724567 0.172496,-0.117433 0.282618,-0.117433l3.89883 0c0.110122,0 0.210161,0.0449764 0.282618,0.117433 0.0724567,0.0724567 0.117433,0.172496 0.117433,0.282618l0 1.91682c0,0.110122 -0.0449764,0.210161 -0.117433,0.282618 -0.0724567,0.0724567 -0.172496,0.117433 -0.282618,0.117433l-3.89883 0c-0.110122,0 -0.210161,-0.0449764 -0.282618,-0.117433 -0.0724567,-0.0724567 -0.117433,-0.172496 -0.117433,-0.282618zm0.213339 -1.91682l0 1.91682c0,0.0512362 0.0210394,0.0978937 0.0549291,0.131783 0.0338898,0.0338898 0.0805472,0.0549291 0.131783,0.0549291l3.89883 0c0.0512362,0 0.0978937,-0.0210394 0.131783,-0.0549291 0.0338898,-0.0338898 0.0549291,-0.0805472 0.0549291,-0.131783l0 -1.91682c0,-0.0512362 -0.0210394,-0.0978937 -0.0549291,-0.131783 -0.0338898,-0.0338898 -0.0805472,-0.0549291 -0.131783,-0.0549291l-3.89883 0c-0.0512362,0 -0.0978937,0.0210394 -0.131783,0.0549291 -0.0338898,0.0338898 -0.0549291,0.0805472 -0.0549291,0.131783z"/>
  <path class="fil1" d="M0.853331 3.89254l0 -0.958409c0,-0.0697874 0.0284724,-0.133154 0.0743425,-0.17902 0.0458661,-0.0458661 0.109228,-0.0743425 0.179016,-0.0743425l0.274382 0c0.0589094,0 0.106669,0.0477598 0.106669,0.106669l0 1.2518c0,0.0589094 -0.0477598,0.106669 -0.106669,0.106669l-0.274382 0c-0.0697874,0 -0.13315,-0.0284764 -0.179016,-0.0743425 -0.0458701,-0.0458661 -0.0743425,-0.109232 -0.0743425,-0.17902z"/>
  <path class="fil2" d="M2.32084 4.45179l0 -2.07691 -0.64639 0c-0.0213425,0 -0.041311,0.0086378 -0.0563583,0.023689 -0.0150512,0.0150472 -0.023689,0.0350157 -0.023689,0.0563583l0 1.91682c0,0.0213425 0.0086378,0.041311 0.023689,0.0563583 0.0150472,0.0150512 0.0350157,0.023689 0.0563583,0.023689l0.64639 0z"/>
  <polygon class="fil2" points="3.15397,4.45179 3.15397,2.37487 2.42751,2.37487 2.42751,4.45179 "/>
  <polygon class="fil2" points="3.98709,4.45179 3.98709,2.37487 3.26064,2.37487 3.26064,4.45179 "/>
  <polygon class="fil2" points="4.82022,4.45179 4.82022,2.37487 4.09376,2.37487 4.09376,4.45179 "/>
  <path class="fil2" d="M5.65333 4.37174l0 -1.91682c0,-0.0213425 -0.0086378,-0.041311 -0.023689,-0.0563583 -0.0150472,-0.0150512 -0.0350157,-0.023689 -0.0563583,-0.023689l-0.646394 0 0 2.07691 0.646394 0c0.0213425,0 0.041311,-0.0086378 0.0563583,-0.023689 0.0150512,-0.0150472 0.023689,-0.0350157 0.023689,-0.0563583z"/>
 </g>
 <rect class="fil3" width="6.82666" height="6.82666"/>
</svg>
