<?xml version="1.0" encoding="UTF-8"?>
<!DOCTYPE svg PUBLIC "-//W3C//DTD SVG 1.1//EN" "http://www.w3.org/Graphics/SVG/1.1/DTD/svg11.dtd">
<!-- Creator: CorelDRAW -->
<svg xmlns="http://www.w3.org/2000/svg" xml:space="preserve" width="6.82666in" height="6.82666in" style="shape-rendering:geometricPrecision; text-rendering:geometricPrecision; image-rendering:optimizeQuality; fill-rule:evenodd; clip-rule:evenodd"
viewBox="0 0 6.82666 6.82666"
 xmlns:xlink="http://www.w3.org/1999/xlink">
 <defs>
  <style type="text/css">
   <![CDATA[
    .fil2 {fill:none}
    .fil0 {fill:#424242}
    .fil1 {fill:#FFFFFE;fill-rule:nonzero}
   ]]>
  </style>
 </defs>
 <rect class="fil0" width="6.82666" height="6.82666"/>
 <g id="Layer_x0020_1">
  <metadata id="CorelCorpID_0Corel-Layer"/>
  <g id="_368954200">
   <path id="_368964712" class="fil1" d="M2.79909 1.91237c0,-0.0589094 -0.0477598,-0.106669 -0.106669,-0.106669 -0.0589094,0 -0.106669,0.0477598 -0.106669,0.106669l0 3.62667c0,0.0589094 0.0477598,0.106669 0.106669,0.106669 0.0589094,0 0.106669,-0.0477598 0.106669,-0.106669l0 -3.62667z"/>
   <path id="_368951944" class="fil1" d="M1.53493 5.80363c-0.0306024,0.0501654 -0.014748,0.11565 0.0354173,0.146252 0.0501654,0.0306024 0.11565,0.014748 0.146252,-0.0354173l1.06666 -1.74952c0.0306024,-0.0501654 0.014748,-0.11565 -0.0354173,-0.146252 -0.0501654,-0.0306024 -0.11565,-0.014748 -0.146252,0.0354173l-1.06666 1.74952z"/>
   <path id="_368962456" class="fil1" d="M3.66825 5.91446c0.0306024,0.0501654 0.0960866,0.0660197 0.146252,0.0354173 0.0501654,-0.0306024 0.0660197,-0.0960866 0.0354173,-0.146252l-1.06666 -1.74952c-0.0306024,-0.0501654 -0.0960866,-0.0660197 -0.146252,-0.0354173 -0.0501654,0.0306024 -0.0660197,0.0960866 -0.0354173,0.146252l1.06666 1.74952z"/>
   <path id="_368956984" class="fil1" d="M2.56154 3.83237c-0.0589094,0 -0.106669,0.0477598 -0.106669,0.106669 0,0.0589094 0.0477598,0.106669 0.106669,0.106669l0.261756 0c0.0589094,0 0.106669,-0.0477598 0.106669,-0.106669 0,-0.0589094 -0.0477598,-0.106669 -0.106669,-0.106669l-0.261756 0z"/>
   <path id="_368953840" class="fil1" d="M2.56154 2.95761c-0.0589094,0 -0.106669,0.0477598 -0.106669,0.106669 0,0.0589094 0.0477598,0.106669 0.106669,0.106669l0.261756 0c0.0589094,0 0.106669,-0.0477598 0.106669,-0.106669 0,-0.0589094 -0.0477598,-0.106669 -0.106669,-0.106669l-0.261756 0z"/>
   <path id="_368953792" class="fil1" d="M2.6748 1.80515c-0.0561457,0.0174882 -0.0874882,0.077185 -0.07,0.133331 0.0174882,0.0561457 0.077185,0.0874882 0.133331,0.07l1.32083 -0.415563c0.0561457,-0.0174882 0.0874882,-0.077185 0.07,-0.133331 -0.0174882,-0.0561457 -0.077185,-0.0874882 -0.133331,-0.07l-1.32083 0.415563z"/>
   <path id="_368953936" class="fil1" d="M4.73267 2.16944c-0.0181772,-0.0559173 -0.078252,-0.0865118 -0.134169,-0.0683346 -0.0559173,0.0181772 -0.0865118,0.078252 -0.0683346,0.134169l0.0810433 0.248894c0.0181772,0.0559173 0.078252,0.0865118 0.134169,0.0683346 0.0559173,-0.0181772 0.0865118,-0.078252 0.0683346,-0.134169l-0.0810433 -0.248894z"/>
   <path id="_368954032" class="fil1" d="M4.76791 1.66949c0.0559173,-0.0181772 0.0865118,-0.078252 0.0683346,-0.134169l-0.145705 -0.447472c-0.0308307,-0.0946811 -0.104303,-0.164236 -0.197835,-0.200024 -0.0857441,-0.0327992 -0.189488,-0.0367126 -0.290512,-0.0038189 -0.100854,0.0328386 -0.182409,0.0972008 -0.232543,0.174421 -0.0545433,0.0840197 -0.0730236,0.18339 -0.0422795,0.277819l0.145705 0.447469c0.0181772,0.0559173 0.078252,0.0865118 0.134169,0.0683346 0.263894,-0.0857835 0.286709,-0.0935039 0.560665,-0.182559z"/>
   <path id="_368954104" class="fil1" d="M4.66433 2.30361l-0.569157 0.185331 6.29921e-005 0.000188976c-0.0526654,0.0171496 -0.109031,-0.00890551 -0.13074,-0.0586417l-0.000279528 -0.000649606 -0.000653543 -0.00154331c-0.00200394,-0.00485433 -0.00361811,-0.00978346 -0.0048622,-0.014748 -0.0575118,-0.183024 -0.0365787,-0.372236 0.0441654,-0.530953 0.080752,-0.158736 0.221429,-0.287094 0.403327,-0.348378 0.00461811,-0.00186614 0.00930315,-0.00338583 0.0140276,-0.00456693 0.18302,-0.0575157 0.37224,-0.0365827 0.530961,0.0441654 0.16074,0.0817717 0.290343,0.224984 0.350677,0.410236l0.000188976 -6.29921e-005c0.0182402,0.0560118 -0.0123858,0.116213 -0.0683976,0.134453 -0.00205118,0.000669291 -0.00411024,0.00126378 -0.00616929,0.00179921l-0.56315 0.18337z"/>
  </g>
 </g>
 <rect class="fil2" width="6.82666" height="6.82666"/>
</svg>
