<?xml version="1.0" encoding="UTF-8"?>
<!DOCTYPE svg PUBLIC "-//W3C//DTD SVG 1.1//EN" "http://www.w3.org/Graphics/SVG/1.1/DTD/svg11.dtd">
<!-- Creator: CorelDRAW -->
<svg xmlns="http://www.w3.org/2000/svg" xml:space="preserve" width="6.82666in" height="6.82666in" style="shape-rendering:geometricPrecision; text-rendering:geometricPrecision; image-rendering:optimizeQuality; fill-rule:evenodd; clip-rule:evenodd"
viewBox="0 0 6.82666 6.82666"
 xmlns:xlink="http://www.w3.org/1999/xlink">
 <defs>
  <style type="text/css">
   <![CDATA[
    .fil2 {fill:none}
    .fil0 {fill:#424242}
    .fil1 {fill:#FFFFFE;fill-rule:nonzero}
   ]]>
  </style>
 </defs>
 <rect class="fil0" width="6.82666" height="6.82666"/>
 <g id="Layer_x0020_1">
  <metadata id="CorelCorpID_0Corel-Layer"/>
  <path class="fil1" d="M3.83717 3.45273c0,-0.0589094 -0.0477598,-0.106669 -0.106669,-0.106669 -0.0589094,0 -0.106669,0.0477598 -0.106669,0.106669l0 2.12339c0,0.0589094 0.0477598,0.106669 0.106669,0.106669 0.0589094,0 0.106669,-0.0477598 0.106669,-0.106669l0 -2.12339z"/>
  <path class="fil1" d="M2.62854 5.91791c-0.0306024,0.0501654 -0.014748,0.11565 0.0354173,0.146252 0.0501654,0.0306024 0.11565,0.014748 0.146252,-0.0354173l1.01113 -1.65844c0.0306024,-0.0501654 0.014748,-0.11565 -0.0354173,-0.146252 -0.0501654,-0.0306024 -0.11565,-0.014748 -0.146252,0.0354173l-1.01113 1.65844z"/>
  <path class="fil1" d="M4.65081 6.02874c0.0306024,0.0501654 0.0960866,0.0660197 0.146252,0.0354173 0.0501654,-0.0306024 0.0660197,-0.0960866 0.0354173,-0.146252l-1.01113 -1.65844c-0.0306024,-0.0501654 -0.0960866,-0.0660197 -0.146252,-0.0354173 -0.0501654,0.0306024 -0.0660197,0.0960866 -0.0354173,0.146252l1.01113 1.65844z"/>
  <path class="fil1" d="M3.60644 4.04661c-0.0589094,0 -0.106669,0.0477598 -0.106669,0.106669 0,0.0589094 0.0477598,0.106669 0.106669,0.106669l0.24813 0c0.0589094,0 0.106669,-0.0477598 0.106669,-0.106669 0,-0.0589094 -0.0477598,-0.106669 -0.106669,-0.106669l-0.24813 0z"/>
  <path class="fil1" d="M3.67256 3.37397c-0.0434921,0.0393504 -0.0468504,0.106512 -0.0075,0.150004 0.0393504,0.0434921 0.106512,0.0468504 0.150004,0.0075l0.265488 -0.240264c0.0434921,-0.0393504 0.0468504,-0.106512 0.0075,-0.150004 -0.0393504,-0.0434921 -0.106512,-0.0468504 -0.150004,-0.0075l-0.265488 0.240264z"/>
  <path class="fil1" d="M3.57895 2.48152c0.0430315,0.0398071 0.110193,0.0371969 0.15,-0.00583465 0.0398071,-0.0430315 0.0371969,-0.110193 -0.00583465,-0.15l-0.143803 -0.13298c-0.0430315,-0.0398071 -0.110193,-0.0371969 -0.15,0.00583465 -0.0398071,0.0430315 -0.0371969,0.110193 0.00583465,0.15l0.143803 0.13298z"/>
  <path class="fil1" d="M3.92732 2.97614c-0.0213976,-0.0201339 -0.0550709,-0.0191063 -0.0752047,0.00229134 -0.0201339,0.0213976 -0.0191063,0.0550709 0.00229134,0.0752047l0.325016 0.305567c0.057626,0.0541811 0.136106,0.0744764 0.216106,0.0635236 0.0761496,-0.0104213 0.154035,-0.0494488 0.215252,-0.114563 0.0612953,-0.0651969 0.0954882,-0.145291 0.101189,-0.221795 0.00600394,-0.0805591 -0.0191063,-0.157677 -0.0767756,-0.211894l-0.325012 -0.305563c-0.0213976,-0.0201339 -0.0550709,-0.0191063 -0.0752047,0.00229134 -0.0201339,0.0213976 -0.0191063,0.0550709 0.00229134,0.0752047l-0.309949 0.329732z"/>
  <path class="fil1" d="M4.07716 2.10433l-0.350402 0.372705 -0.350378 0.372681c0.0965276,0.0737087 0.212681,0.108472 0.327665,0.104929 0.131398,-0.00405118 0.261335,-0.0583189 0.35865,-0.161827 0.0972953,-0.103492 0.143433,-0.236654 0.139378,-0.368276 -0.00353937,-0.114776 -0.0453976,-0.228437 -0.124913,-0.320213z"/>
  <path class="fil1" d="M3.64926 2.40413l0.388677 -0.413417 -9.44882e-005 -9.05512e-005c0.0201732,-0.0214606 0.0539291,-0.0225 0.0753898,-0.00232677 0.00100394,0.000944882 0.00196457,0.00192126 0.00287795,0.00292126 0.122886,0.117035 0.187354,0.272776 0.192213,0.430421 0.00488976,0.158685 -0.0507677,0.319264 -0.168134,0.444102 -0.117346,0.124815 -0.274323,0.190268 -0.433232,0.195165 -0.158677,0.00488976 -0.319252,-0.0507638 -0.444087,-0.168118l-9.05512e-005 9.44882e-005c-0.0214606,-0.0201732 -0.0225,-0.0539291 -0.00232677,-0.0753898 0.000854331,-0.000909449 0.00173622,-0.00177953 0.0026378,-0.00261417l0.386169 -0.410748z"/>
  <path class="fil1" d="M3.07689 1.97726c0.0437638,-0.00712992 0.0884488,-0.00709449 0.132157,9.84252e-005 -0.00719291,-0.0437047 -0.00722835,-0.0883937 -9.84252e-005,-0.132157 0.013248,-0.0813386 0.0511142,-0.159319 0.113567,-0.221772 0.0624567,-0.0624567 0.140437,-0.100323 0.221776,-0.113571 0.0437677,-0.00712598 0.0884488,-0.00708268 0.132154,0.000106299 -0.00718898,-0.0437047 -0.00722835,-0.0883937 -0.000102362,-0.132161 0.013248,-0.0813346 0.0511181,-0.159319 0.113571,-0.221772 0.0624528,-0.0624528 0.140433,-0.100319 0.221772,-0.113567 0.0135354,-0.00220472 0.0271496,-0.00372047 0.0408031,-0.00455512 -0.223661,-0.164307 -0.488799,-0.246457 -0.753929,-0.246457 -0.326413,0 -0.652827,0.12452 -0.901862,0.373555 -0.249035,0.249035 -0.373555,0.575449 -0.373555,0.901858 0,0.265134 0.0821575,0.530268 0.246457,0.753933 0.000834646,-0.0136535 0.00235039,-0.0272677 0.00455512,-0.0408031 0.013248,-0.0813386 0.0511142,-0.159319 0.113567,-0.221772 0.0624528,-0.0624528 0.140437,-0.100323 0.221772,-0.113571 0.0437677,-0.00712598 0.0884567,-0.00708661 0.132161,0.000102362 -0.00719291,-0.0437047 -0.00723228,-0.0883858 -0.000106299,-0.132154 0.0132441,-0.0813386 0.0511102,-0.159315 0.113571,-0.221776 0.0624528,-0.0624528 0.140433,-0.100319 0.221772,-0.113567z"/>
  <path class="fil1" d="M2.95061 1.67339c-0.0208228,-0.0208228 -0.0545945,-0.0208228 -0.0754173,0 -0.0208228,0.0208228 -0.0208228,0.0545945 0,0.0754173l0.47039 0.4405 0.118496 0.118496c0.0208228,0.0208228 0.0545945,0.0208228 0.0754173,0 0.0208228,-0.0208228 0.0208228,-0.0545945 0,-0.0754173l-0.118496 -0.118496 -0.47039 -0.4405z"/>
  <path class="fil1" d="M2.37433 1.06722c-0.0208228,-0.0208228 -0.0545945,-0.0208228 -0.0754173,0 -0.0208228,0.0208228 -0.0208228,0.0545945 0,0.0754173l0.0883228 0.0883228c0.0208228,0.0208228 0.0545945,0.0208228 0.0754173,0 0.0208228,-0.0208228 0.0208228,-0.0545945 0,-0.0754173l-0.0883228 -0.0883228z"/>
 </g>
 <rect class="fil2" width="6.82666" height="6.82666"/>
</svg>
