<?xml version="1.0" encoding="UTF-8"?>
<!DOCTYPE svg PUBLIC "-//W3C//DTD SVG 1.1//EN" "http://www.w3.org/Graphics/SVG/1.1/DTD/svg11.dtd">
<!-- Creator: CorelDRAW -->
<svg xmlns="http://www.w3.org/2000/svg" xml:space="preserve" width="6.82666in" height="6.82666in" style="shape-rendering:geometricPrecision; text-rendering:geometricPrecision; image-rendering:optimizeQuality; fill-rule:evenodd; clip-rule:evenodd"
viewBox="0 0 6.82666 6.82666"
 xmlns:xlink="http://www.w3.org/1999/xlink">
 <defs>
  <style type="text/css">
   <![CDATA[
    .fil2 {fill:none}
    .fil0 {fill:#424242}
    .fil1 {fill:#FFFFFE;fill-rule:nonzero}
   ]]>
  </style>
 </defs>
 <rect class="fil0" width="6.82666" height="6.82666"/>
 <g id="Layer_x0020_1">
  <metadata id="CorelCorpID_0Corel-Layer"/>
  <path class="fil1" d="M2.02949 0.811307l0.458697 0 0 2.45334 -0.458697 0c-0.0589094,0 -0.106669,-0.0477598 -0.106669,-0.106669l0 -2.24c0,-0.0589094 0.0477598,-0.106669 0.106669,-0.106669zm0.565366 0l0.0213031 0c0.0297913,0 0.0567205,0.0122165 0.0760748,0.0319094l0.692677 0.692677 7.87402e-006 -7.87402e-006c0.0208268,0.0208268 0.0312402,0.048126 0.0312402,0.0754252l3.93701e-006 0 0 0.853331c0,0.0297913 -0.0122165,0.0567205 -0.0319094,0.0760748l-0.692677 0.692677 7.87402e-006 7.87402e-006c-0.0208268,0.0208268 -0.048126,0.0312402 -0.0754252,0.0312402l0 3.93701e-006 -0.0213031 0 0 -2.45334z"/>
  <path class="fil1" d="M3.8927 2.32143c0,-0.0589094 -0.0477598,-0.106669 -0.106669,-0.106669 -0.0589094,0 -0.106669,0.0477598 -0.106669,0.106669l0 3.19004c0,0.0589094 0.0477598,0.106669 0.106669,0.106669 0.0589094,0 0.106669,-0.0477598 0.106669,-0.106669l0 -3.19004z"/>
  <path class="fil1" d="M2.68407 5.85326c-0.0306024,0.0501654 -0.014748,0.11565 0.0354173,0.146252 0.0501654,0.0306024 0.11565,0.014748 0.146252,-0.0354173l1.01113 -1.65844c0.0306024,-0.0501654 0.014748,-0.11565 -0.0354173,-0.146252 -0.0501654,-0.0306024 -0.11565,-0.014748 -0.146252,0.0354173l-1.01113 1.65844z"/>
  <path class="fil1" d="M4.70633 5.9641c0.0306024,0.0501654 0.0960866,0.0660197 0.146252,0.0354173 0.0501654,-0.0306024 0.0660197,-0.0960866 0.0354173,-0.146252l-1.01113 -1.65844c-0.0306024,-0.0501654 -0.0960866,-0.0660197 -0.146252,-0.0354173 -0.0501654,0.0306024 -0.0660197,0.0960866 -0.0354173,0.146252l1.01113 1.65844z"/>
  <path class="fil1" d="M3.66196 3.98196c-0.0589094,0 -0.106669,0.0477598 -0.106669,0.106669 0,0.0589094 0.0477598,0.106669 0.106669,0.106669l0.24813 0c0.0589094,0 0.106669,-0.0477598 0.106669,-0.106669 0,-0.0589094 -0.0477598,-0.106669 -0.106669,-0.106669l-0.24813 0z"/>
  <path class="fil1" d="M3.52283 2.42412l0.886248 0c0.0589094,0 0.106669,-0.0477598 0.106669,-0.106669l0 -0.558945c0,-0.0589094 -0.0477598,-0.106669 -0.106669,-0.106669l-0.886252 0 3.93701e-006 0.772283z"/>
  <path class="fil1" d="M4.67712 1.93131c0,-0.0589094 -0.0579724,-0.106669 -0.129484,-0.106669 -0.0715079,0 -0.12948,0.0477598 -0.12948,0.106669l0 0.213331c0,0.0589094 0.0579724,0.106669 0.12948,0.106669 0.0715118,0 0.129484,-0.0477598 0.129484,-0.106669l0 -0.213331z"/>
 </g>
 <rect class="fil2" width="6.82666" height="6.82666"/>
</svg>
