<?xml version="1.0" encoding="UTF-8"?>
<!DOCTYPE svg PUBLIC "-//W3C//DTD SVG 1.1//EN" "http://www.w3.org/Graphics/SVG/1.1/DTD/svg11.dtd">
<!-- Creator: CorelDRAW -->
<svg xmlns="http://www.w3.org/2000/svg" xml:space="preserve" width="6.82666in" height="6.82666in" style="shape-rendering:geometricPrecision; text-rendering:geometricPrecision; image-rendering:optimizeQuality; fill-rule:evenodd; clip-rule:evenodd"
viewBox="0 0 6.82666 6.82666"
 xmlns:xlink="http://www.w3.org/1999/xlink">
 <defs>
  <style type="text/css">
   <![CDATA[
    .fil3 {fill:none}
    .fil0 {fill:#424242}
    .fil1 {fill:#FFFFFE}
    .fil2 {fill:#FFFFFE;fill-rule:nonzero}
   ]]>
  </style>
 </defs>
 <rect class="fil0" width="6.82666" height="6.82666"/>
 <g id="Layer_x0020_1">
  <metadata id="CorelCorpID_0Corel-Layer"/>
  <g id="_366521104">
   <path id="_366522232" class="fil1" d="M1.61557 0.853331l0.689232 0 0 3.66852 3.66852 0 0 0.689232 -4.01314 0c-0.19024,0 -0.344614,-0.154374 -0.344614,-0.344614l0 -4.01314z"/>
   <path id="_366522112" class="fil1" d="M5.21109 5.97333l-0.689232 0 0 -3.66852 -3.66852 0 0 -0.689232 4.01314 0c0.19024,0 0.344614,0.154374 0.344614,0.344614l0 4.01314z"/>
  </g>
  <path class="fil2" d="M1.98857 4.68726c-0.0416496,0.0416496 -0.0416496,0.109185 0,0.150835 0.0416496,0.0416496 0.109185,0.0416496 0.150835,0l3.80268 -3.80268c0.0416496,-0.0416496 0.0416496,-0.109185 0,-0.150835 -0.0416496,-0.0416496 -0.109185,-0.0416496 -0.150835,0l-3.80268 3.80268z"/>
 </g>
 <rect class="fil3" width="6.82666" height="6.82666"/>
</svg>
