<?xml version="1.0" encoding="UTF-8"?>
<!DOCTYPE svg PUBLIC "-//W3C//DTD SVG 1.1//EN" "http://www.w3.org/Graphics/SVG/1.1/DTD/svg11.dtd">
<!-- Creator: CorelDRAW -->
<svg xmlns="http://www.w3.org/2000/svg" xml:space="preserve" width="6.82666in" height="6.82666in" style="shape-rendering:geometricPrecision; text-rendering:geometricPrecision; image-rendering:optimizeQuality; fill-rule:evenodd; clip-rule:evenodd"
viewBox="0 0 6.82666 6.82666"
 xmlns:xlink="http://www.w3.org/1999/xlink">
 <defs>
  <style type="text/css">
   <![CDATA[
    .fil2 {fill:none}
    .fil0 {fill:#424242}
    .fil1 {fill:#FFFFFE}
   ]]>
  </style>
 </defs>
 <rect class="fil0" width="6.82666" height="6.82666"/>
 <g id="Layer_x0020_1">
  <metadata id="CorelCorpID_0Corel-Layer"/>
  <path class="fil1" d="M3.41333 0.881689l0.236862 0.647823 -0.000208661 0.000437008c0.0234488,0.0641417 0.0944685,0.0971299 0.158606,0.0736811 0.0236378,-0.00864173 0.0430394,-0.0237441 0.0569488,-0.0425827l0.425894 -0.509398 -0.0134173 0.668843 -0.00046063 -7.87402e-006c-0.00135827,0.0682835 0.052878,0.124756 0.121165,0.126118 0.0267008,0.000535433 0.0515984,-0.00743701 0.0720984,-0.0214291l0.562386 -0.334602 -0.237559 0.617488 -0.000543307 -0.000212598c-0.0245157,0.0637402 0.00727559,0.135303 0.0710157,0.159819 0.0245512,0.00944882 0.0502638,0.0105276 0.0740039,0.00465354l0.645051 -0.127902 -0.430551 0.505343 -0.000417323 -1.1811e-005c-0.0442913,0.0519843 -0.0380472,0.130035 0.0139331,0.174327 0.0203228,0.0173189 0.0446339,0.0269055 0.0693465,0.029063l0.662283 0.108087 -0.591165 0.345768 -0.00023622 -0.000405512c-0.0589567,0.0344803 -0.0787913,0.110228 -0.044315,0.169181 0.0130748,0.0223543 0.0320827,0.0390748 0.0538661,0.0493583l0.58185 0.340307 -0.671228 0.109539 -0.00011811 -0.000314961c-0.0674055,0.011 -0.11313,0.0745591 -0.10213,0.141969 0.00429921,0.0263346 0.016622,0.0493622 0.0340669,0.0669921l0.424819 0.498618 -0.650618 -0.129008 2.75591e-005 -0.000129921c-0.0669961,-0.0132795 -0.132075,0.0302598 -0.145354,0.097248 -0.00555906,0.0280157 -0.00117323,0.0557008 0.0107165,0.0794016l0.233268 0.606339 -0.56889 -0.33848 0.000110236 -0.000188976c-0.0586929,-0.0349173 -0.134587,-0.0156457 -0.169504,0.0430472 -0.0142244,0.0239016 -0.0194449,0.0506654 -0.0166969,0.0763386l0.0132087 0.658205 -0.430598 -0.515012 0.000165354 -0.000141732c-0.0438071,-0.0523937 -0.121803,-0.0593622 -0.174197,-0.0155512 -0.0198583,0.0165984 -0.033185,0.0381102 -0.0396929,0.0612795l-0.233791 0.63939 -0.236862 -0.647823 0.000208661 -0.000437008c-0.0234488,-0.0641417 -0.0944685,-0.0971299 -0.158606,-0.0736811 -0.0236378,0.00864173 -0.0430394,0.0237441 -0.0569488,0.0425827l-0.425894 0.509398 0.0134173 -0.668843 0.00046063 7.87402e-006c0.00135827,-0.0682835 -0.052878,-0.124756 -0.121165,-0.126118 -0.0267008,-0.000535433 -0.0515984,0.00743701 -0.0720984,0.0214291l-0.562386 0.334602 0.237559 -0.617488 0.000543307 0.000212598c0.0245157,-0.0637402 -0.00727559,-0.135303 -0.0710157,-0.159819 -0.0245512,-0.00944882 -0.0502638,-0.0105276 -0.0740039,-0.00465354l-0.645051 0.127902 0.430551 -0.505343 0.000417323 1.1811e-005c0.0442913,-0.0519843 0.0380472,-0.130035 -0.0139331,-0.174327 -0.0203228,-0.0173189 -0.0446339,-0.0269055 -0.0693465,-0.029063l-0.662283 -0.108087 0.591165 -0.345768 0.00023622 0.000405512c0.0589567,-0.0344803 0.0787913,-0.110228 0.044315,-0.169181 -0.0130748,-0.0223543 -0.0320827,-0.0390748 -0.0538661,-0.0493583l-0.58185 -0.340307 0.671228 -0.109539 0.00011811 0.000314961c0.0674055,-0.011 0.11313,-0.0745591 0.10213,-0.141969 -0.00429921,-0.0263346 -0.016622,-0.0493622 -0.0340669,-0.0669921l-0.424819 -0.498618 0.650618 0.129008 -2.75591e-005 0.000129921c0.0669961,0.0132795 0.132075,-0.0302598 0.145354,-0.097248 0.00555906,-0.0280157 0.00117323,-0.0557008 -0.0107165,-0.0794016l-0.233268 -0.606339 0.56889 0.33848 -0.000110236 0.000188976c0.0586929,0.0349173 0.134587,0.0156457 0.169504,-0.0430472 0.0142244,-0.0239016 0.0194449,-0.0506654 0.0166969,-0.0763386l-0.0132087 -0.658205 0.430598 0.515012 -0.000165354 0.000141732c0.0438071,0.0523937 0.121803,0.0593622 0.174197,0.0155512 0.0198583,-0.0165984 0.033185,-0.0381102 0.0396929,-0.0612795l0.233791 -0.63939zm0 1.0597c-0.391768,0 -0.763835,0.154154 -1.04081,0.431126 -0.276972,0.27698 -0.431126,0.649047 -0.431126,1.04081 0,0.391768 0.154154,0.763835 0.431126,1.04081 0.27698,0.276972 0.649047,0.431126 1.04081,0.431126 0.391768,0 0.763835,-0.154154 1.04081,-0.431126 0.276972,-0.27698 0.431126,-0.649047 0.431126,-1.04081 0,-0.391768 -0.154154,-0.763835 -0.431126,-1.04081 -0.27698,-0.276972 -0.649047,-0.431126 -1.04081,-0.431126z"/>
  <path class="fil1" d="M4.77678 3.41333c0,-0.362795 -0.142843,-0.707618 -0.399339,-0.96411 -0.243673,-0.243681 -0.567071,-0.38478 -0.909866,-0.398272l0 2.72476c0.342791,-0.0134921 0.666193,-0.154591 0.909866,-0.398272 0.256496,-0.256492 0.399339,-0.601315 0.399339,-0.96411z"/>
 </g>
 <rect class="fil2" width="6.82666" height="6.82666"/>
</svg>
