<?xml version="1.0" encoding="UTF-8"?>
<!DOCTYPE svg PUBLIC "-//W3C//DTD SVG 1.1//EN" "http://www.w3.org/Graphics/SVG/1.1/DTD/svg11.dtd">
<!-- Creator: CorelDRAW -->
<svg xmlns="http://www.w3.org/2000/svg" xml:space="preserve" width="6.82666in" height="6.82666in" style="shape-rendering:geometricPrecision; text-rendering:geometricPrecision; image-rendering:optimizeQuality; fill-rule:evenodd; clip-rule:evenodd"
viewBox="0 0 6.82666 6.82666"
 xmlns:xlink="http://www.w3.org/1999/xlink">
 <defs>
  <style type="text/css">
   <![CDATA[
    .fil2 {fill:none}
    .fil0 {fill:#424242}
    .fil1 {fill:#FFFFFE;fill-rule:nonzero}
   ]]>
  </style>
 </defs>
 <rect class="fil0" width="6.82666" height="6.82666"/>
 <g id="Layer_x0020_1">
  <metadata id="CorelCorpID_0Corel-Layer"/>
  <path class="fil1" d="M0.926043 0.926043c0.155488,-0.155488 0.324106,-0.047063 0.499126,0.0654803 0.0889252,0.0571811 0.180272,0.115917 0.241724,0.114146 0.0804921,-0.00232283 0.160476,-0.0556535 0.239244,-0.108173 0.104894,-0.0699409 0.208193,-0.138815 0.34485,-0.138815 0.137028,0 0.243189,0.0706063 0.349335,0.141201 0.0792126,0.052685 0.158429,0.10537 0.231835,0.10537 0.0734055,0 0.152626,-0.052685 0.231839,-0.10537 0.10615,-0.0705984 0.212311,-0.141201 0.349335,-0.141201 0.137031,0 0.243185,0.0706024 0.349339,0.141201 0.0792126,0.052685 0.158433,0.10537 0.231835,0.10537 0.0734055,0 0.152626,-0.052685 0.231839,-0.10537 0.106146,-0.0705945 0.212307,-0.141201 0.349335,-0.141201 0.136657,0 0.239957,0.068874 0.34485,0.138815 0.0787677,0.0525197 0.158752,0.10585 0.239244,0.108173 0.0614528,0.00177165 0.152799,-0.0569646 0.241724,-0.114146 0.17502,-0.112543 0.343638,-0.220969 0.499126,-0.0654803 0.155484,0.155484 0.047063,0.324102 -0.0654803,0.499122 -0.0571811,0.0889252 -0.115917,0.18028 -0.114146,0.241728 0.00232283,0.0804843 0.0556535,0.160472 0.108169,0.239236 0.0699409,0.104894 0.138815,0.208201 0.138815,0.344854 0,0.137031 -0.0706063,0.243189 -0.141201,0.349339 -0.0526811,0.0792126 -0.105366,0.158433 -0.105366,0.231835 0,0.0734094 0.052685,0.152626 0.105366,0.231839 0.0705984,0.10615 0.141201,0.212311 0.141201,0.349335 0,0.137024 -0.0706024,0.243185 -0.141201,0.349335 -0.0526811,0.0792126 -0.105366,0.158429 -0.105366,0.231839 0,0.0734016 0.052685,0.152622 0.105366,0.231835 0.0705945,0.10615 0.141201,0.212307 0.141201,0.349339 0,0.136654 -0.068874,0.239961 -0.138815,0.344854 -0.0525157,0.0787638 -0.105846,0.158752 -0.108169,0.239236 -0.00177165,0.0614488 0.0569646,0.152803 0.114146,0.241728 0.112543,0.17502 0.220965,0.343638 0.0654803,0.499122 -0.155488,0.155488 -0.324106,0.047063 -0.499126,-0.0654803 -0.0889252,-0.0571811 -0.180272,-0.115917 -0.241724,-0.114146 -0.0804921,0.00232283 -0.160476,0.0556535 -0.239244,0.108173 -0.104894,0.0699409 -0.208193,0.138815 -0.34485,0.138815 -0.137028,0 -0.243189,-0.0706063 -0.349335,-0.141201 -0.0792126,-0.052685 -0.158433,-0.10537 -0.231839,-0.10537 -0.0734016,0 -0.152622,0.052685 -0.231835,0.10537 -0.106154,0.0705984 -0.212307,0.141201 -0.349339,0.141201 -0.137024,0 -0.243185,-0.0706024 -0.349335,-0.141201 -0.0792126,-0.052685 -0.158433,-0.10537 -0.231839,-0.10537 -0.0734055,0 -0.152622,0.052685 -0.231835,0.10537 -0.106146,0.0705945 -0.212307,0.141201 -0.349335,0.141201 -0.136657,0 -0.239957,-0.068874 -0.34485,-0.138815 -0.0787677,-0.0525197 -0.158752,-0.10585 -0.239244,-0.108173 -0.0614528,-0.00177165 -0.152799,0.0569646 -0.241724,0.114146 -0.17502,0.112543 -0.343638,0.220969 -0.499126,0.0654803 -0.155484,-0.155484 -0.047063,-0.324102 0.0654803,-0.499122 0.0571811,-0.0889252 0.115917,-0.18028 0.114146,-0.241728 -0.00232283,-0.0804843 -0.0556535,-0.160472 -0.108169,-0.239236 -0.0699409,-0.104894 -0.138815,-0.208201 -0.138815,-0.344854 0,-0.137031 0.0706063,-0.243189 0.141201,-0.349339 0.0526811,-0.0792126 0.105366,-0.158433 0.105366,-0.231835 0,-0.0734094 -0.052685,-0.152626 -0.105366,-0.231839 -0.0705984,-0.10615 -0.141201,-0.212311 -0.141201,-0.349335 0,-0.137024 0.0706024,-0.243185 0.141201,-0.349335 0.0526811,-0.0792126 0.105366,-0.158429 0.105366,-0.231839 0,-0.0734016 -0.052685,-0.152622 -0.105366,-0.231835 -0.0705945,-0.10615 -0.141201,-0.212307 -0.141201,-0.349339 0,-0.136654 0.068874,-0.239961 0.138815,-0.344854 0.0525157,-0.0787638 0.105846,-0.158752 0.108169,-0.239236 0.00177165,-0.0614488 -0.0569646,-0.152803 -0.114146,-0.241728 -0.112543,-0.17502 -0.220965,-0.343638 -0.0654803,-0.499122zm0.727287 0.727287l0 3.52 3.52 0 0 -3.52 -3.52 0z"/>
 </g>
 <rect class="fil2" width="6.82666" height="6.82666"/>
</svg>
