<?xml version="1.0" encoding="UTF-8"?>
<!DOCTYPE svg PUBLIC "-//W3C//DTD SVG 1.1//EN" "http://www.w3.org/Graphics/SVG/1.1/DTD/svg11.dtd">
<!-- Creator: CorelDRAW -->
<svg xmlns="http://www.w3.org/2000/svg" xml:space="preserve" width="6.82666in" height="6.82666in" style="shape-rendering:geometricPrecision; text-rendering:geometricPrecision; image-rendering:optimizeQuality; fill-rule:evenodd; clip-rule:evenodd"
viewBox="0 0 6.82666 6.82666"
 xmlns:xlink="http://www.w3.org/1999/xlink">
 <defs>
  <style type="text/css">
   <![CDATA[
    .fil2 {fill:none}
    .fil0 {fill:#424242}
    .fil1 {fill:#FFFFFE}
   ]]>
  </style>
 </defs>
 <rect class="fil0" width="6.82666" height="6.82666"/>
 <g id="Layer_x0020_1">
  <metadata id="CorelCorpID_0Corel-Layer"/>
  <path class="fil1" d="M0.853331 0.746661l5.12 0c0.0589094,0 0.106669,0.0477598 0.106669,0.106669l0 5.12c0,0.0589094 -0.0477598,0.106669 -0.106669,0.106669l-5.12 0c-0.0589094,0 -0.106669,-0.0477598 -0.106669,-0.106669l0 -5.12c0,-0.0589094 0.0477598,-0.106669 0.106669,-0.106669zm0.393606 0.438201l1.09869 0.102016 1.06172 -0.120118 -1.1811e-005 -9.44882e-005c0.00524016,-0.000594488 0.0103858,-0.000401575 0.0153228,0.000472441l1.05838 0.11974 1.10338 -0.102449 -1.9685e-005 -0.00019685c0.0293268,-0.00272047 0.055311,0.0188465 0.0580315,0.0481732 0.00046063,0.00497244 0.000224409,0.00984646 -0.000629921,0.0145276l-0.102016 1.09869 0.120118 1.06172 9.44882e-005 -1.1811e-005c0.000594488,0.00524016 0.000401575,0.0103858 -0.000472441,0.0153228l-0.11974 1.05838 0.102449 1.10338 0.00019685 -1.9685e-005c0.00272047,0.0293268 -0.0188465,0.055311 -0.0481732,0.0580315 -0.00497244,0.00046063 -0.00984646,0.000224409 -0.0145276,-0.000629921l-1.09869 -0.102016 -1.06172 0.120118 1.1811e-005 9.44882e-005c-0.00524016,0.000594488 -0.0103858,0.000401575 -0.0153228,-0.000472441l-1.05838 -0.11974 -1.10337 0.102449 1.9685e-005 0.00019685c-0.0293268,0.00272047 -0.055311,-0.0188465 -0.0580315,-0.0481732 -0.00046063,-0.00497244 -0.000224409,-0.00984646 0.000629921,-0.0145276l0.102016 -1.09869 -0.120118 -1.06172 -9.44882e-005 1.1811e-005c-0.000594488,-0.00524016 -0.000401575,-0.0103858 0.000472441,-0.0153228l0.11974 -1.05838 -0.102449 -1.10338 -0.00019685 1.9685e-005c-0.00272047,-0.0293268 0.0188465,-0.055311 0.0481732,-0.0580315 0.00497244,-0.00046063 0.00984646,-0.000224409 0.0145276,0.000629921zm1.09482 0.208382l-1.04559 -0.0970866 0.0966496 1.04087c0.000925197,0.0050315 0.00113386,0.0102874 0.000527559,0.0156339l-9.44882e-005 -1.1811e-005 -0.12 1.06068 0.11963 1.05741c0.00080315,0.00457874 0.00101969,0.00933465 0.000570866,0.014185l-0.00019685 -1.9685e-005 -0.0970866 1.0456 1.04087 -0.0966496c0.0050315,-0.000925197 0.0102874,-0.00113386 0.0156339,-0.000527559l-1.1811e-005 9.44882e-005 1.06068 0.12 1.05741 -0.11963c0.00457874,-0.00080315 0.00933465,-0.00101969 0.014185,-0.000570866l-1.9685e-005 0.00019685 1.0456 0.0970866 -0.0966496 -1.04087c-0.000925197,-0.0050315 -0.00113386,-0.0102874 -0.000527559,-0.0156339l9.44882e-005 1.1811e-005 0.12 -1.06068 -0.11963 -1.05741c-0.00080315,-0.00457874 -0.00101969,-0.00933465 -0.000570866,-0.014185l0.00019685 1.9685e-005 0.0970866 -1.0456 -1.04087 0.0966496c-0.0050315,0.000925197 -0.0102874,0.00113386 -0.0156339,0.000527559l1.1811e-005 -9.44882e-005 -1.06068 -0.12 -1.05741 0.11963c-0.00457874,0.00080315 -0.00933465,0.00101969 -0.014185,0.000570866l1.9685e-005 -0.00019685zm2.77824 0.313421l-3.41333 0 0 3.41333 3.41333 0 0 -3.41333z"/>
 </g>
 <rect class="fil2" width="6.82666" height="6.82666"/>
</svg>
