<?xml version="1.0" encoding="UTF-8"?>
<!DOCTYPE svg PUBLIC "-//W3C//DTD SVG 1.1//EN" "http://www.w3.org/Graphics/SVG/1.1/DTD/svg11.dtd">
<!-- Creator: CorelDRAW -->
<svg xmlns="http://www.w3.org/2000/svg" xml:space="preserve" width="6.82666in" height="6.82666in" style="shape-rendering:geometricPrecision; text-rendering:geometricPrecision; image-rendering:optimizeQuality; fill-rule:evenodd; clip-rule:evenodd"
viewBox="0 0 6.82666 6.82666"
 xmlns:xlink="http://www.w3.org/1999/xlink">
 <defs>
  <style type="text/css">
   <![CDATA[
    .fil3 {fill:none}
    .fil0 {fill:#424242}
    .fil2 {fill:#FFFFFE}
    .fil1 {fill:#FFFFFE;fill-rule:nonzero}
   ]]>
  </style>
 </defs>
 <rect class="fil0" width="6.82666" height="6.82666"/>
 <g id="Layer_x0020_1">
  <metadata id="CorelCorpID_0Corel-Layer"/>
  <path class="fil1" d="M5.50633 2.87124c0.0490157,0.0326732 0.0622598,0.0989016 0.0295866,0.147917 -0.0326732,0.0490157 -0.428268,-0.0155433 -0.477283,-0.0482165l-0.891469 -0.736087 -0.260835 0.17389c-0.0490157,0.0326732 -0.115244,0.0194291 -0.147917,-0.0295866 -0.0326732,-0.0490157 -0.0194291,-0.115244 0.0295866,-0.147917l0.318004 -0.212004c0.0349488,-0.024437 0.0827087,-0.0264094 0.120331,-0.00133071l1.28 0.853335z"/>
  <path class="fil1" d="M3.92969 2.8l1.19698 0c0.232941,0 0.444638,0.0952205 0.598039,0.248626 0.153406,0.153402 0.248626,0.365098 0.248626,0.598039l0 0.333343c0,0.232941 -0.0952205,0.444638 -0.248626,0.598039 -0.153402,0.153406 -0.365098,0.248626 -0.598039,0.248626l-0.380311 0c-0.334689,0 -0.638886,-0.136846 -0.85935,-0.357315 -0.220469,-0.220465 -0.357315,-0.524665 -0.357315,-0.859354l0 -0.410008c0,-0.110106 0.0449724,-0.210134 0.117417,-0.282579 0.0724449,-0.0724449 0.172476,-0.117417 0.282583,-0.117417zm1.19698 0.213339l-1.19698 0c-0.0512205,0 -0.0978701,0.0210354 -0.131748,0.0549134 -0.033878,0.033878 -0.0549134,0.0805236 -0.0549134,0.131744l0 0.410008c0,0.275807 0.112909,0.526622 0.294811,0.70852 0.181898,0.181902 0.432713,0.294811 0.708516,0.294811l0.380311 0c0.174055,0 0.33237,-0.0712835 0.447205,-0.186122 0.114839,-0.114835 0.186122,-0.27315 0.186122,-0.447205l0 -0.333343c0,-0.174055 -0.0712835,-0.33237 -0.186122,-0.447205 -0.114835,-0.114839 -0.27315,-0.186122 -0.447205,-0.186122z"/>
  <path class="fil1" d="M2.89697 3.01333l-1.19698 0c-0.174055,0 -0.33237,0.0712835 -0.447205,0.186122 -0.114839,0.114835 -0.186122,0.27315 -0.186122,0.447205l0 0.333343c0,0.174055 0.0712835,0.33237 0.186122,0.447205 0.114835,0.114839 0.27315,0.186122 0.447205,0.186122l0.380311 0c0.275803,0 0.526618,-0.112909 0.708516,-0.294811 0.181902,-0.181898 0.294811,-0.432713 0.294811,-0.70852l0 -0.410008c0,-0.0512205 -0.0210354,-0.0978661 -0.0549134,-0.131744 -0.033878,-0.033878 -0.0805276,-0.0549134 -0.131748,-0.0549134zm-1.19698 -0.213339l1.19698 0c0.110106,0 0.210138,0.0449724 0.282583,0.117417 0.0724449,0.0724449 0.117417,0.172472 0.117417,0.282579l0 0.410008c0,0.334689 -0.136846,0.63889 -0.357315,0.859354 -0.220465,0.220469 -0.524661,0.357315 -0.85935,0.357315l-0.380311 0c-0.232941,0 -0.444638,-0.0952205 -0.598039,-0.248626 -0.153406,-0.153402 -0.248626,-0.365098 -0.248626,-0.598039l0 -0.333343c0,-0.232941 0.0952205,-0.444638 0.248626,-0.598039 0.153402,-0.153406 0.365098,-0.248626 0.598039,-0.248626z"/>
  <path class="fil1" d="M3.1903 3.12l0.446055 0c0.0589094,0 0.106669,0.0477598 0.106669,0.106669l0 0.502543c0,0.0589094 -0.0477598,0.106669 -0.106669,0.106669l-0.446055 0c-0.0589094,0 -0.106669,-0.0477598 -0.106669,-0.106669l0 -0.502543c0,-0.0589094 0.0477598,-0.106669 0.106669,-0.106669z"/>
  <path class="fil1" d="M1.32033 2.87124c-0.0490157,0.0326732 -0.0622598,0.0989016 -0.0295866,0.147917 0.0326732,0.0490157 0.428268,-0.0155433 0.477283,-0.0482165l0.891469 -0.736087 0.260835 0.17389c0.0490157,0.0326732 0.115244,0.0194291 0.147917,-0.0295866 0.0326732,-0.0490157 0.0194291,-0.115244 -0.0295866,-0.147917l-0.318004 -0.212004c-0.0349488,-0.024437 -0.0827087,-0.0264094 -0.120331,-0.00133071l-1.28 0.853335z"/>
  <g id="_366524392">
   <rect id="_366524992" class="fil2" x="0.794402" y="3.33595" width="0.165598" height="0.430236" rx="0.0704961" ry="0.0704961"/>
   <rect id="_366524152" class="fil2" x="5.86667" y="3.33595" width="0.165598" height="0.430236" rx="0.0704961" ry="0.0704961"/>
  </g>
  <path class="fil2" d="M2.97697 3.61l0 -0.410008c0,-0.0213268 -0.00863386,-0.0412835 -0.0236732,-0.0563189 -0.0150354,-0.0150394 -0.0349961,-0.0236732 -0.0563228,-0.0236732l-0.196874 0 -0.0161417 0.0198543 -0.693539 1.06661 0.596232 -1.08647 -0.0884016 0 -0.366886 0.564244 0.309646 -0.564244 -0.741012 0c-0.140098,0 -0.272839,0.055937 -0.37178,0.154882 -0.0989449,0.0989409 -0.154882,0.231681 -0.154882,0.37178l0 0.333343c0,0.140098 0.055937,0.272839 0.154882,0.37178 0.0989409,0.0989449 0.231681,0.154882 0.37178,0.154882l0.380311 0c0.238476,0 0.46465,-0.095126 0.633091,-0.263571 0.168445,-0.168445 0.263571,-0.394614 0.263571,-0.633094z"/>
  <path class="fil2" d="M5.65333 3.64666c0,-0.140098 -0.055937,-0.272839 -0.154882,-0.37178 -0.0989409,-0.0989449 -0.231681,-0.154882 -0.37178,-0.154882l-0.031378 0 -0.0161417 0.0198543 -0.693539 1.06661 0.596232 -1.08647 -0.0884016 0 -0.366886 0.564244 0.309646 -0.564244 -0.906508 0c-0.0213268,0 -0.0412874,0.00863386 -0.0563228,0.0236732 -0.0150394,0.0150354 -0.0236732,0.0349921 -0.0236732,0.0563189l0 0.410008c0,0.23848 0.095126,0.46465 0.263571,0.633094 0.168441,0.168445 0.394614,0.263571 0.633091,0.263571l0.380311 0c0.140098,0 0.272839,-0.055937 0.37178,-0.154882 0.0989449,-0.0989409 0.154882,-0.231681 0.154882,-0.37178l0 -0.333343z"/>
 </g>
 <rect class="fil3" width="6.82666" height="6.82666"/>
</svg>
