<?xml version="1.0" encoding="UTF-8"?>
<!DOCTYPE svg PUBLIC "-//W3C//DTD SVG 1.1//EN" "http://www.w3.org/Graphics/SVG/1.1/DTD/svg11.dtd">
<!-- Creator: CorelDRAW -->
<svg xmlns="http://www.w3.org/2000/svg" xml:space="preserve" width="6.82666in" height="6.82666in" style="shape-rendering:geometricPrecision; text-rendering:geometricPrecision; image-rendering:optimizeQuality; fill-rule:evenodd; clip-rule:evenodd"
viewBox="0 0 6.82666 6.82666"
 xmlns:xlink="http://www.w3.org/1999/xlink">
 <defs>
  <style type="text/css">
   <![CDATA[
    .fil2 {fill:none}
    .fil0 {fill:#424242}
    .fil1 {fill:#FFFFFE;fill-rule:nonzero}
   ]]>
  </style>
 </defs>
 <rect class="fil0" width="6.82666" height="6.82666"/>
 <g id="Layer_x0020_1">
  <metadata id="CorelCorpID_0Corel-Layer"/>
  <path class="fil1" d="M1.29333 0.853331l4.24001 0c0.121114,0 0.231138,0.0494685 0.310831,0.129165 0.0796969,0.0796929 0.129165,0.189717 0.129165,0.310831l0 4.24001c0,0.121114 -0.0494685,0.231138 -0.129165,0.310831 -0.0796929,0.0796969 -0.189717,0.129165 -0.310831,0.129165l-4.24001 0c-0.121114,0 -0.231138,-0.0494685 -0.310831,-0.129165 -0.0796969,-0.0796929 -0.129165,-0.189717 -0.129165,-0.310831l0 -4.24001c0,-0.121114 0.0494685,-0.231138 0.129165,-0.310831 0.0796929,-0.0796969 0.189717,-0.129165 0.310831,-0.129165zm4.25776 4.88624c0.00987402,-0.056685 0.0137323,-0.11463 0.0137323,-0.172126 0,-0.160992 -0.029437,-0.328665 -0.0679409,-0.484591 -0.045311,-0.183484 -0.107181,-0.364646 -0.178787,-0.539472 -0.0362835,-0.0885866 -0.0753898,-0.176063 -0.117244,-0.262161 -0.0971024,-0.199748 -0.212665,-0.400965 -0.347839,-0.577524 -0.0842441,-0.110039 -0.213307,-0.257953 -0.342047,-0.315886 -0.036815,-0.0165669 -0.0766181,-0.0278228 -0.117232,-0.0278228 -0.231492,0 -0.42363,0.218362 -0.548417,0.38965 -0.0969921,0.133134 -0.181744,0.277803 -0.260386,0.422398 -0.0889055,0.163476 -0.171398,0.330657 -0.252823,0.497961l-0.0291535 0.0599016 -0.0520669 -0.0415591c-0.106795,-0.0852323 -0.22187,-0.165823 -0.342551,-0.230193 -0.109917,-0.0586299 -0.248606,-0.115969 -0.375118,-0.115969 -0.0870118,0 -0.169988,0.0175591 -0.24926,0.0534803 -0.147358,0.0667717 -0.265736,0.189425 -0.362823,0.315988 -0.115693,0.150827 -0.212461,0.32 -0.307807,0.484232 -0.0581142,0.100102 -0.116201,0.200453 -0.17878,0.29785 -0.0581024,0.0904331 -0.121,0.180138 -0.192839,0.260268 0.0165984,0.00391732 0.0338819,0.00599606 0.0516181,0.00599606l4.24001 0c0.00479528,0 0.00955512,-0.000153543 0.0142795,-0.000452756l0.00347638 -0.0199685zm-3.15488 -2.58912c0.100378,0.100374 0.23515,0.156213 0.377126,0.156213 0.141976,0 0.276744,-0.0558386 0.377122,-0.156213 0.100374,-0.100378 0.156213,-0.235146 0.156213,-0.377122 0,-0.141976 -0.0558386,-0.276748 -0.156213,-0.377126 -0.100378,-0.100374 -0.235146,-0.156213 -0.377122,-0.156213 -0.14198,0 -0.276744,0.0558346 -0.377126,0.156213 -0.100378,0.100382 -0.156213,0.235146 -0.156213,0.377126 0,0.141976 0.0558386,0.276744 0.156213,0.377122zm2.90383 -1.20684c0.213055,-0.330902 -0.275909,-0.00460236 -0.476969,-0.17798 -0.104953,-0.0905079 0.24685,-0.257094 -0.0879016,-0.257094 -0.157063,0 -0.405677,-0.00223228 -0.425689,0.20126 -0.00112992,0.0115079 -0.00351181,0.0225472 -0.00800787,0.033248 -0.0227087,0.0540512 -0.0855906,0.0797323 -0.139642,0.0570276 -0.132953,-0.0558465 -0.27865,-0.0896063 -0.398839,-0.00526378 -0.0450118,0.0315906 -0.119681,0.112681 -0.0556772,0.148803l1.59272 0z"/>
 </g>
 <rect class="fil2" width="6.82666" height="6.82666"/>
</svg>
