<?xml version="1.0" encoding="UTF-8"?>
<!DOCTYPE svg PUBLIC "-//W3C//DTD SVG 1.1//EN" "http://www.w3.org/Graphics/SVG/1.1/DTD/svg11.dtd">
<!-- Creator: CorelDRAW -->
<svg xmlns="http://www.w3.org/2000/svg" xml:space="preserve" width="6.82666in" height="6.82666in" style="shape-rendering:geometricPrecision; text-rendering:geometricPrecision; image-rendering:optimizeQuality; fill-rule:evenodd; clip-rule:evenodd"
viewBox="0 0 6.82666 6.82666"
 xmlns:xlink="http://www.w3.org/1999/xlink">
 <defs>
  <style type="text/css">
   <![CDATA[
    .fil3 {fill:none}
    .fil0 {fill:#424242}
    .fil2 {fill:#FFFFFE}
    .fil1 {fill:#FFFFFE;fill-rule:nonzero}
   ]]>
  </style>
 </defs>
 <rect class="fil0" width="6.82666" height="6.82666"/>
 <g id="Layer_x0020_1">
  <metadata id="CorelCorpID_0Corel-Layer"/>
  <path class="fil1" d="M3.89478 0.853327l1.11856 0c0.0589094,0 0.106669,0.0477598 0.106669,0.106669l0 0.533331c0,0.0589094 -0.0477598,0.106669 -0.106669,0.106669l-1.11856 0c-0.0589094,0 -0.106669,-0.0477598 -0.106669,-0.106669l0 -0.533331c0,-0.0589094 0.0477598,-0.106669 0.106669,-0.106669z"/>
  <path class="fil1" d="M3.98272 5.94693c-0.690016,-0.0380669 -0.834008,-0.17552 -1.04463,-0.376709 -0.040122,-0.0383189 -0.0829606,-0.0792402 -0.133709,-0.122213l0.068752 -0.081252 -0.0689331 0.0814016c-0.0449567,-0.0380669 -0.0505354,-0.105378 -0.0124685,-0.150335 0.0210827,-0.0249016 0.0511417,-0.0377126 0.0814016,-0.0377283l0 -7.87402e-006 3.1002 0c0.0589094,0 0.106669,0.0477598 0.106669,0.106669 0,0.0351063 -0.0169606,0.066248 -0.0431339,0.085685 -0.0484764,0.0413465 -0.089752,0.0807795 -0.128488,0.11778 -0.211461,0.201984 -0.355685,0.339744 -1.05279,0.377169l1.5748e-005 0.000279528c-0.0588268,0.00315354 -0.109075,-0.0419764 -0.112228,-0.100803 -0.000102362,-0.00191339 -0.000149606,-0.0038189 -0.000153543,-0.0057126l0 -0.12335 -0.639992 0 0 0.12335c0,0.0589094 -0.0477598,0.106669 -0.106669,0.106669 -0.00469291,0 -0.00931102,-0.000307087 -0.0138425,-0.000893701z"/>
  <path class="fil2" d="M0.923772 1.91999l2.02667 0 0 3.09334 -1.19953 0c-0.0589094,0 -0.106669,-0.0477598 -0.106669,-0.106669l0 -0.879992c0,-0.0622205 -0.0255315,-0.11887 -0.0666614,-0.16 -0.0411299,-0.0411299 -0.0977795,-0.0666614 -0.16,-0.0666614l-0.493803 0c-0.0589094,0 -0.106669,-0.0477598 -0.106669,-0.106669l0 -1.66668c0,-0.0589094 0.0477598,-0.106669 0.106669,-0.106669zm0.547539 0.426669l0 0.32c0,0.0589094 -0.0484331,0.106669 -0.108169,0.106669 -0.0597402,0 -0.108173,-0.0477598 -0.108173,-0.106669l0 -0.32c0,-0.0589094 0.0484331,-0.106669 0.108173,-0.106669 0.0597362,0 0.108169,0.0477598 0.108169,0.106669zm0.757181 1.81333c0.0597402,0 0.108173,0.0477598 0.108173,0.106669l0 0.32c0,0.0589094 -0.0484331,0.106669 -0.108173,0.106669 -0.0597362,0 -0.108169,-0.0477598 -0.108169,-0.106669l0 -0.32c0,-0.0589094 0.0484331,-0.106669 0.108169,-0.106669zm0.432677 0c0.0597402,0 0.108169,0.0477598 0.108169,0.106669l0 0.32c0,0.0589094 -0.0484291,0.106669 -0.108169,0.106669 -0.0597402,0 -0.108173,-0.0477598 -0.108173,-0.106669l0 -0.32c0,-0.0589094 0.0484331,-0.106669 0.108173,-0.106669zm-0.865354 -1.38666c-0.0597362,0 -0.108169,-0.0477598 -0.108169,-0.106669l0 -0.32c0,-0.0589094 0.0484331,-0.106669 0.108169,-0.106669 0.0597402,0 0.108173,0.0477598 0.108173,0.106669l0 0.32c0,0.0589094 -0.0484331,0.106669 -0.108173,0.106669zm0.757181 -0.106669l0 -0.32c0,-0.0589094 0.0484331,-0.106669 0.108173,-0.106669 0.0597402,0 0.108169,0.0477598 0.108169,0.106669l0 0.32c0,0.0589094 -0.0484291,0.106669 -0.108169,0.106669 -0.0597402,0 -0.108173,-0.0477598 -0.108173,-0.106669zm-0.216331 0c0,0.0589094 -0.0484331,0.106669 -0.108173,0.106669 -0.0597362,0 -0.108169,-0.0477598 -0.108169,-0.106669l0 -0.32c0,-0.0589094 0.0484331,-0.106669 0.108169,-0.106669 0.0597402,0 0.108173,0.0477598 0.108173,0.106669l0 0.32z"/>
  <path class="fil1" d="M3.16377 1.38484l2.51891 0c0.0589094,0 0.106669,0.0477598 0.106669,0.106669l0 3.87524c0,0.0589094 -0.0477598,0.106669 -0.106669,0.106669l-2.51891 0c-0.0589094,0 -0.106669,-0.0477598 -0.106669,-0.106669l0 -3.87524c0,-0.0589094 0.0477598,-0.106669 0.106669,-0.106669zm0.463307 0.591075c0,-0.0294724 -0.0238661,-0.0533386 -0.0533386,-0.0533386 -0.0294724,0 -0.0533386,0.0238661 -0.0533386,0.0533386l0 3.00331c0,0.0294724 0.0238661,0.0533386 0.0533386,0.0533386 0.0294724,0 0.0533386,-0.0238661 0.0533386,-0.0533386l0 -3.00331zm0.68948 0.317417c0,-0.0294724 -0.0238661,-0.0533386 -0.0533386,-0.0533386 -0.0294724,0 -0.0533386,0.0238661 -0.0533386,0.0533386l0 2.24c0,0.0294724 0.0238661,0.0533386 0.0533386,0.0533386 0.0294724,0 0.0533386,-0.0238661 0.0533386,-0.0533386l0 -2.24zm0.320008 0c0,-0.0294724 -0.0238661,-0.0533386 -0.0533386,-0.0533386 -0.0294724,0 -0.0533386,0.0238661 -0.0533386,0.0533386l0 2.24c0,0.0294724 0.0238661,0.0533386 0.0533386,0.0533386 0.0294724,0 0.0533386,-0.0238661 0.0533386,-0.0533386l0 -2.24z"/>
  <path class="fil1" d="M2.76989 1.38485c-0.0589094,0 -0.106669,0.0477598 -0.106669,0.106669 0,0.0589094 0.0477598,0.106669 0.106669,0.106669l3.30667 0c0.0589094,0 0.106669,-0.0477598 0.106669,-0.106669 0,-0.0589094 -0.0477598,-0.106669 -0.106669,-0.106669l-3.30667 0z"/>
 </g>
 <rect class="fil3" width="6.82666" height="6.82666"/>
</svg>
