<?xml version="1.0" encoding="UTF-8"?>
<!DOCTYPE svg PUBLIC "-//W3C//DTD SVG 1.1//EN" "http://www.w3.org/Graphics/SVG/1.1/DTD/svg11.dtd">
<!-- Creator: CorelDRAW -->
<svg xmlns="http://www.w3.org/2000/svg" xml:space="preserve" width="6.82666in" height="6.82666in" style="shape-rendering:geometricPrecision; text-rendering:geometricPrecision; image-rendering:optimizeQuality; fill-rule:evenodd; clip-rule:evenodd"
viewBox="0 0 6.82666 6.82666"
 xmlns:xlink="http://www.w3.org/1999/xlink">
 <defs>
  <style type="text/css">
   <![CDATA[
    .fil3 {fill:none}
    .fil0 {fill:#424242}
    .fil2 {fill:#FFFFFE}
    .fil1 {fill:#FFFFFE;fill-rule:nonzero}
   ]]>
  </style>
 </defs>
 <rect class="fil0" width="6.82666" height="6.82666"/>
 <g id="Layer_x0020_1">
  <metadata id="CorelCorpID_0Corel-Layer"/>
  <g id="_265309576">
   <path id="_265310224" class="fil1" d="M3.53417 1.18144l-0.232335 0c-0.0294528,0 -0.0533346,-0.0241339 -0.0533346,-0.0538976l0 -0.220315c0,-0.0297638 0.0238819,-0.0538976 0.0533346,-0.0538976l0.232335 0c0.0294528,0 0.0533346,0.0241339 0.0533346,0.0538976l0 0.220315c0,0.0297638 -0.0238819,0.0538976 -0.0533346,0.0538976z"/>
   <path id="_265310008" class="fil1" d="M3.19947 1.07365l0.437059 0c0.0345,0 0.0658307,0.0142283 0.0885039,0.0371417 0.0226732,0.0229134 0.036752,0.0545748 0.036752,0.089437l0 0.538528c0,0.0348622 -0.0140787,0.0665236 -0.036752,0.089437 -0.0226732,0.0229134 -0.0540039,0.0371417 -0.0885039,0.0371417l-0.437059 0c-0.0345,0 -0.0658307,-0.0142283 -0.0885039,-0.0371417 -0.0226732,-0.0229134 -0.036752,-0.0545748 -0.036752,-0.089437l0 -0.538528c0,-0.0348622 0.0140787,-0.0665236 0.036752,-0.089437 0.0226732,-0.0229134 0.0540039,-0.0371417 0.0885039,-0.0371417zm0.286488 0.312744c0,-0.0379291 -0.0304291,-0.0686811 -0.0679606,-0.0686811 -0.0375315,0 -0.0679606,0.030752 -0.0679606,0.0686811l0 0.166201c0,0.0379291 0.0304291,0.0686811 0.0679606,0.0686811 0.0375315,0 0.0679606,-0.030752 0.0679606,-0.0686811l0 -0.166201z"/>
   <path id="_265310416" class="fil1" d="M3.51999 1.97373c0,-0.0595315 -0.0477598,-0.107799 -0.106669,-0.107799 -0.0589094,0 -0.106669,0.0482677 -0.106669,0.107799l0 3.27869c0,0.0595315 0.0477598,0.107799 0.106669,0.107799 0.0589094,0 0.106669,-0.0482677 0.106669,-0.107799l0 -3.27869z"/>
   <path id="_265310320" class="fil1" d="M1.69776 5.80763c-0.0317559,0.0499961 -0.0173898,0.116543 0.0320827,0.148638 0.0494724,0.0320906 0.115327,0.0175709 0.147083,-0.0324213l1.62598 -2.56078c0.0317559,-0.0499961 0.0173898,-0.116547 -0.0320827,-0.148638 -0.0494724,-0.0320906 -0.115327,-0.0175748 -0.147083,0.0324213l-1.62598 2.56078z"/>
   <path id="_265310632" class="fil1" d="M4.94973 5.92385c0.0317559,0.0499921 0.0976102,0.0645118 0.147083,0.0324213 0.0494724,-0.0320945 0.0638386,-0.0986417 0.0320827,-0.148638l-1.62598 -2.56078c-0.0317559,-0.0499961 -0.0976102,-0.0645118 -0.147083,-0.0324213 -0.0494724,0.0320906 -0.0638386,0.0986417 -0.0320827,0.148638l1.62598 2.56078z"/>
   <path id="_265310080" class="fil1" d="M3.25918 2.94763c-0.0455157,0 -0.0824173,0.0482638 -0.0824173,0.107795 0,0.0595354 0.0369016,0.107799 0.0824173,0.107799l0.308287 0c0.0455157,0 0.0824173,-0.0482638 0.0824173,-0.107799 0,-0.0595315 -0.0369016,-0.107795 -0.0824173,-0.107795l-0.308287 0z"/>
   <path id="_265310440" class="fil1" d="M3.21381 1.86594c-0.0589094,0 -0.106669,0.0482677 -0.106669,0.107799 0,0.0595315 0.0477598,0.107795 0.106669,0.107795l0.399012 0c0.0589094,0 0.106669,-0.0482638 0.106669,-0.107795 0,-0.0595315 -0.0477598,-0.107799 -0.106669,-0.107799l-0.399012 0z"/>
   <path id="_265310176" class="fil1" d="M3.53527 2.00648c-0.0243898,-0.0166299 -0.0575039,-0.010122 -0.0739567,0.0145236 -0.0164528,0.0246496 -0.0100157,0.0581142 0.014374,0.0747402l0.494224 0.337142 -3.14961e-005 4.72441e-005c0.0104803,0.00714567 0.0225669,0.0100276 0.0342598,0.00903543l0.196189 0.000893701c0.0293386,0.000114173 0.0532205,-0.0238307 0.0533346,-0.0534764 0.000114173,-0.0296496 -0.0235787,-0.0537835 -0.0529173,-0.0539016l-0.184402 -0.000834646 -0.481075 -0.328169z"/>
   <path id="_265310152" class="fil1" d="M2.50822 1.12496l0.465874 0.132882c0.0241496,0.00514567 0.0422795,0.0268071 0.0422795,0.0527362l0 0.30637c0.000401575,0.0237047 -0.0148189,0.0457008 -0.0384291,0.0526457l-0.000114173 -0.000173228 -0.435031 0.127984c-0.00782283,0.00307087 -0.0164803,0.00432283 -0.0253976,0.00328346l7.87402e-006 -7.08661e-005 -0.227484 -0.0265709c-0.0278622,-0.00177953 -0.0499173,-0.0251811 -0.0499173,-0.0537835l0 -0.511776c-0.000188976,-0.0262835 0.0186929,-0.049437 0.0451575,-0.0535866l5.11811e-005 0.000200787 0.195689 -0.030689c0.00870866,-0.00219685 0.0180866,-0.00219685 0.0273425,0.000444882l-2.75591e-005 0.000102362z"/>
   <path id="_265310512" class="fil1" d="M3.73333 1.20288c-0.0294528,0 -0.0533346,0.0241339 -0.0533346,0.0539016 0,0.0297638 0.0238819,0.0538976 0.0533346,0.0538976l0.0364961 0c0.0294528,0 0.0533346,-0.0241339 0.0533346,-0.0538976 0,-0.0297677 -0.0238819,-0.0539016 -0.0533346,-0.0539016l-0.0364961 0z"/>
   <path id="_265309816" class="fil1" d="M3.73333 1.41559c-0.0294528,0 -0.0533346,0.0241339 -0.0533346,0.0538976 0,0.0297638 0.0238819,0.0539016 0.0533346,0.0539016l0.0364961 0c0.0294528,0 0.0533346,-0.0241378 0.0533346,-0.0539016 0,-0.0297638 -0.0238819,-0.0538976 -0.0533346,-0.0538976l-0.0364961 0z"/>
   <rect id="_265309600" class="fil2" x="2.98667" y="1.23061" width="0.195488" height="0.457385" rx="0.0315866" ry="0.0315866"/>
  </g>
 </g>
 <rect class="fil3" width="6.82666" height="6.82666"/>
</svg>
