<?xml version="1.0" encoding="UTF-8"?>
<!DOCTYPE svg PUBLIC "-//W3C//DTD SVG 1.1//EN" "http://www.w3.org/Graphics/SVG/1.1/DTD/svg11.dtd">
<!-- Creator: CorelDRAW -->
<svg xmlns="http://www.w3.org/2000/svg" xml:space="preserve" width="6.82666in" height="6.82666in" style="shape-rendering:geometricPrecision; text-rendering:geometricPrecision; image-rendering:optimizeQuality; fill-rule:evenodd; clip-rule:evenodd"
viewBox="0 0 6.82666 6.82666"
 xmlns:xlink="http://www.w3.org/1999/xlink">
 <defs>
  <style type="text/css">
   <![CDATA[
    .fil3 {fill:none}
    .fil0 {fill:#424242}
    .fil1 {fill:#FFFFFE}
    .fil2 {fill:#FFFFFE;fill-rule:nonzero}
   ]]>
  </style>
 </defs>
 <rect class="fil0" width="6.82666" height="6.82666"/>
 <g id="Layer_x0020_1">
  <metadata id="CorelCorpID_0Corel-Layer"/>
  <path class="fil1" d="M2.48442 4.36252l0 -0.801713 -0.299882 0c-0.0282756,0 -0.0512008,-0.0238819 -0.0512008,-0.0533346 0,-0.0294528 0.0229252,-0.0533346 0.0512008,-0.0533346l0.350197 0c0.000295276,-3.93701e-006 0.000590551,-7.87402e-006 0.000885827,-7.87402e-006l1.29562 0c0.000295276,0 0.000594488,3.93701e-006 0.000889764,7.87402e-006l0.37115 0c0.0282717,0 0.0512008,0.0238819 0.0512008,0.0533346 0,0.0294528 -0.0229291,0.0533346 -0.0512008,0.0533346l-0.320839 0 0 0.801713 0.320839 0c0.0282717,0 0.0512008,0.0238819 0.0512008,0.0533346 0,0.0294528 -0.0229291,0.0533346 -0.0512008,0.0533346l-0.37115 0c-0.000295276,3.93701e-006 -0.000594488,7.87402e-006 -0.000889764,7.87402e-006l-1.29562 0c-0.000295276,0 -0.000590551,-3.93701e-006 -0.000885827,-7.87402e-006l-0.350197 0c-0.0282756,0 -0.0512008,-0.0238819 -0.0512008,-0.0533346 0,-0.0294528 0.0229252,-0.0533346 0.0512008,-0.0533346l0.299882 0zm2.47336 -1.09419l-3.03656 0 0 -3.93701e-006c-0.0236929,1.1811e-005 -0.0475039,-0.00849606 -0.0668583,-0.025874l5.90551e-005 -0.000374016 -0.146307 -0.13137 -0.663567 0 0 0.0509528 0 1.6 0 0.0509488 0.663571 0 0.140433 -0.126094c0.0185551,-0.0194646 0.0442598,-0.0315236 0.0726693,-0.0315236l3.03656 0 0 -1.38666zm-3.49005 0.0433268c0.0565551,0 0.102406,0.0477598 0.102406,0.106669l0 1.06667c0,0.0589094 -0.0458504,0.106669 -0.102406,0.106669 -0.0565512,0 -0.102402,-0.0477598 -0.102402,-0.106669l0 -1.06667c0,-0.0589094 0.0458504,-0.106669 0.102402,-0.106669z"/>
  <path class="fil1" d="M2.27387 1.39167l1.40278 0c0.0530079,0 0.0966142,0.0419646 0.10187,0.0957323l0.174413 1.06978 0.000208661 -3.54331e-005c0.0094685,0.0580787 -0.0280551,0.113157 -0.083811,0.12302 -0.00627559,0.00111024 -0.0125079,0.00159449 -0.0186496,0.00150787l-1.75393 0c-0.0565512,0 -0.102402,-0.0477598 -0.102402,-0.106669 0,-0.00855512 0.000976378,-0.016874 0.00279921,-0.0248504l0.174343 -1.06931 -0.000153543 -0.000358268c0.00857874,-0.0526339 0.052811,-0.0896693 0.102528,-0.088811zm0.56861 0.350465l0.263984 0c0.0615157,0 0.117406,0.0261811 0.15789,0.0683504 0.0404803,0.0421693 0.0656142,0.100394 0.0656142,0.164472l0 0.129736c0,0.0640787 -0.0251339,0.122299 -0.0656142,0.164469 -0.0404843,0.0421693 -0.096374,0.0683504 -0.15789,0.0683504l-0.263984 0c-0.0615157,0 -0.117409,-0.0261811 -0.15789,-0.0683504 -0.0404843,-0.0421693 -0.0656181,-0.10039 -0.0656181,-0.164469l0 -0.129736c0,-0.0640787 0.0251339,-0.122303 0.0656181,-0.164472 0.0404803,-0.0421693 0.096374,-0.0683504 0.15789,-0.0683504z"/>
  <path class="fil2" d="M1.11574 2.48833l3.71748 0c0.0722717,0 0.137898,0.0307205 0.185398,0.0802087 0.0475118,0.0494882 0.077,0.11785 0.077,0.193126l0 2.40001c0,0.0752756 -0.0294882,0.143638 -0.077,0.193126 -0.0475,0.0494882 -0.113126,0.0802087 -0.185398,0.0802087l-3.71748 0c-0.0722638,0 -0.137898,-0.0307205 -0.185406,-0.0802087 -0.0475079,-0.0494882 -0.077,-0.11785 -0.077,-0.193126l0 -2.40001c0,-0.0752756 0.0294921,-0.143638 0.077,-0.193126 0.0475079,-0.0494882 0.113142,-0.0802087 0.185406,-0.0802087zm3.71748 0.213339l-3.71748 0c-0.0157362,0 -0.0301181,0.00678346 -0.0406024,0.0177047 -0.0104882,0.0109213 -0.017,0.0259016 -0.017,0.0422913l0 2.40001c0,0.0163898 0.00651181,0.0313701 0.017,0.0422913 0.0104843,0.0109213 0.0248661,0.0177047 0.0406024,0.0177047l3.71748 0c0.0157323,0 0.0301142,-0.00678346 0.0405984,-0.0177047 0.0104843,-0.0109213 0.0169961,-0.0259016 0.0169961,-0.0422913l0 -2.40001c0,-0.0163898 -0.00651181,-0.0313701 -0.0169961,-0.0422913 -0.0104843,-0.0109213 -0.0248661,-0.0177047 -0.0405984,-0.0177047z"/>
  <path class="fil2" d="M5.194 2.68167l0.623409 0c0.0382638,0 0.0734488,0.0146457 0.100646,0.0388189 0.00332283,0.00269685 0.00652362,0.00562992 0.00957874,0.00881496l-0.0724252 0.0754094 0.0724016 -0.075c0.0282008,0.0293898 0.0457205,0.0698819 0.0457205,0.114374l0 2.23518c0,0.0398583 -0.0140591,0.0765079 -0.0372677,0.104839 -0.00258661,0.00346063 -0.00540157,0.00679528 -0.00846063,0.00997638l-0.0723937 -0.0754409 0.072 0.0754173c-0.0282126,0.029378 -0.0670866,0.047626 -0.109799,0.047626l-0.623409 0c0.00547244,-0.026126 0.00827953,-0.0529252 0.00827953,-0.08l0 -2.40001c0,-0.0270748 -0.00280709,-0.053874 -0.00827953,-0.08zm0.51602 0.960004c0,-0.0589094 -0.0458504,-0.106669 -0.102402,-0.106669 -0.0565551,0 -0.102406,0.0477598 -0.102406,0.106669l0 0.64c0,0.0589094 0.0458504,0.106669 0.102406,0.106669 0.0565512,0 0.102402,-0.0477598 0.102402,-0.106669l0 -0.64z"/>
  <polygon class="fil2" points="1.73105,2.36167 1.32145,2.36167 1.32145,2.46833 1.73105,2.46833 "/>
  <path class="fil2" d="M1.21905 2.14833l0.614402 0c0.0565512,0 0.102402,0.0477598 0.102402,0.106669l0 0.32c0,0.0589094 -0.0458504,0.106669 -0.102402,0.106669l-0.614402 0c-0.0565512,0 -0.102402,-0.0477598 -0.102402,-0.106669l0 -0.32c0,-0.0589094 0.0458504,-0.106669 0.102402,-0.106669z"/>
  <polygon class="fil2" points="4.6275,2.36167 4.39345,2.36167 4.39345,2.46833 4.6275,2.46833 "/>
  <path class="fil2" d="M4.29105 2.14833l0.43885 0c0.0565512,0 0.102402,0.0477598 0.102402,0.106669l0 0.32c0,0.0589094 -0.0458504,0.106669 -0.102402,0.106669l-0.43885 0c-0.0565551,0 -0.102406,-0.0477598 -0.102406,-0.106669l0 -0.32c0,-0.0589094 0.0458504,-0.106669 0.102406,-0.106669z"/>
  <path class="fil2" d="M4.67486 2.07037c0,-0.0294528 -0.0229291,-0.0533346 -0.0512047,-0.0533346 -0.0282717,0 -0.0512008,0.0238819 -0.0512008,0.0533346l0 0.187504c0,0.0294528 0.0229291,0.0533346 0.0512008,0.0533346 0.0282756,0 0.0512047,-0.0238819 0.0512047,-0.0533346l0 -0.187504z"/>
  <path class="fil1" d="M4.91561 2.84408l0 -0.0949606c0,-0.0163898 -0.00651181,-0.0313701 -0.0169961,-0.0422913 -0.0104843,-0.0109213 -0.0248661,-0.0177047 -0.0405945,-0.0177047l-3.77633 0c-0.0157323,0 -0.0301181,0.00678346 -0.0406024,0.0177047 -0.0104843,0.0109213 -0.0169961,0.0259016 -0.0169961,0.0422913l0 0.148256 0.721583 0c0.0284094,0 0.0541142,0.0120591 0.0726693,0.0315236l0.140433 0.126098 2.95683 0 0 -0.210917z"/>
  <path class="fil1" d="M4.92988 4.86834l-2.97111 0 -0.146299 0.131366 5.51181e-005 0.000377953c-0.0193543,0.017378 -0.0431614,0.0258819 -0.0668543,0.025874l-0.710228 0 0 0.153657c0,0.0163898 0.00651575,0.0313701 0.017,0.0422913 0.0104843,0.0109213 0.0248661,0.0177047 0.0406024,0.0177047l3.77924 0c0.0157283,0 0.0301102,-0.00678346 0.0405945,-0.0177047 0.0104843,-0.0109213 0.0169961,-0.0259016 0.0169961,-0.0422913l0 -0.100354 0 -0.210921z"/>
  <rect class="fil1" x="5.08391" y="3.11643" width="0.22222" height="1.69048"/>
 </g>
 <rect class="fil3" width="6.82666" height="6.82666"/>
</svg>
