<?xml version="1.0" encoding="UTF-8"?>
<!DOCTYPE svg PUBLIC "-//W3C//DTD SVG 1.1//EN" "http://www.w3.org/Graphics/SVG/1.1/DTD/svg11.dtd">
<!-- Creator: CorelDRAW -->
<svg xmlns="http://www.w3.org/2000/svg" xml:space="preserve" width="6.82666in" height="6.82666in" style="shape-rendering:geometricPrecision; text-rendering:geometricPrecision; image-rendering:optimizeQuality; fill-rule:evenodd; clip-rule:evenodd"
viewBox="0 0 6.82666 6.82666"
 xmlns:xlink="http://www.w3.org/1999/xlink">
 <defs>
  <style type="text/css">
   <![CDATA[
    .fil3 {fill:none}
    .fil0 {fill:#424242}
    .fil1 {fill:#FFFFFE}
    .fil2 {fill:#FFFFFE;fill-rule:nonzero}
   ]]>
  </style>
 </defs>
 <rect class="fil0" width="6.82666" height="6.82666"/>
 <g id="Layer_x0020_1">
  <metadata id="CorelCorpID_0Corel-Layer"/>
  <g id="_265304752">
   <path id="_265305376" class="fil1" d="M2.67883 1.2397l1.47014 0c0.050126,0 0.0921732,0.0345827 0.103598,0.081189l0.225913 0.722925 0.884886 0c0.113776,0 0.217138,0.0464724 0.292,0.121335 0.0748622,0.0748583 0.121335,0.178217 0.121335,0.291996l0 0.343106 0.0896024 0c0.0589094,0 0.106669,0.0477598 0.106669,0.106669l0 1.86454c0,0.0589094 -0.0477598,0.106669 -0.106669,0.106669l-0.0896024 0 0 0.295492c0,0.113776 -0.0464724,0.217138 -0.121335,0.292 -0.0748622,0.0748622 -0.178224,0.121335 -0.292,0.121335l-3.9008 0c-0.113776,0 -0.217138,-0.0464724 -0.292,-0.121335 -0.0748622,-0.0748622 -0.121335,-0.178224 -0.121335,-0.292l0 -0.295492 -0.0895984 0c-0.0589094,0 -0.106669,-0.0477598 -0.106669,-0.106669l0 -1.86454c0,-0.0589094 0.0477598,-0.106669 0.106669,-0.106669l0.0895984 0 0 -0.343106c0,-0.11378 0.0464724,-0.217138 0.121335,-0.291996 0.0748622,-0.0748622 0.178224,-0.121335 0.292,-0.121335l0.884886 0 0.227846 -0.72911 -0.000145669 -0.000149606c0.0144606,-0.0462717 0.0575394,-0.0756811 0.103673,-0.0748543zm2.30106 1.13618c0.0307441,-0.0307362 0.0732165,-0.0497559 0.12011,-0.0497559 0.0469016,0 0.089374,0.0190197 0.12011,0.0497559 0.0307441,0.0307441 0.0497598,0.0732087 0.0497598,0.12011 0,0.0469016 -0.0190197,0.089374 -0.0497559,0.12011 -0.0307441,0.0307362 -0.0732165,0.0497559 -0.120114,0.0497559 -0.0468976,0 -0.0893661,-0.0190197 -0.12011,-0.0497559 -0.0307362,-0.0307362 -0.0497559,-0.0732087 -0.0497559,-0.12011 0,-0.0469016 0.0190197,-0.0893661 0.0497559,-0.12011zm-2.8423 1.38411c0,0.339602 0.133567,0.66198 0.373665,0.902075 0.240094,0.240098 0.562472,0.373665 0.902075,0.373665 0.339602,0 0.66198,-0.133567 0.902075,-0.373665 0.240098,-0.240094 0.373665,-0.562472 0.373665,-0.902075 0,-0.339602 -0.133567,-0.66198 -0.373665,-0.902075 -0.240094,-0.240098 -0.562472,-0.373665 -0.902075,-0.373665 -0.339602,0 -0.66198,0.133567 -0.902075,0.373665 -0.240098,0.240094 -0.373665,0.562472 -0.373665,0.902075zm0.777642 -2.06614l0.996197 0c0.0294528,0 0.0303898,0.0238819 0.0303898,0.0533346 0,0.0294528 -0.000937008,0.0533346 -0.0303898,0.0533346l-0.996197 0c-0.0294528,0 -0.0303898,-0.0238819 -0.0303898,-0.0533346 0,-0.0294528 0.000937008,-0.0533346 0.0303898,-0.0533346zm1.04976 0.0533346c0,-0.0737598 -0.0301378,-0.140776 -0.078685,-0.189323 -0.0485394,-0.0485472 -0.115563,-0.078685 -0.189315,-0.078685l-0.567331 0c-0.073752,0 -0.140776,0.0301378 -0.189315,0.078685 -0.0485472,0.0485472 -0.078685,0.115563 -0.078685,0.189315 0,0.0737598 0.0301378,0.14078 0.0786811,0.189327 0.0485472,0.0485433 0.115567,0.0786811 0.189319,0.0786811l0.567331 0c0.073752,0 0.140772,-0.0301378 0.189319,-0.0786811 0.0485433,-0.0485472 0.0786811,-0.115567 0.0786811,-0.189319zm0 0l0 0z"/>
   <path id="_265305328" class="fil2" d="M3.41333 2.59333c0.322157,0 0.613823,0.130591 0.824953,0.341717 0.211126,0.21113 0.341717,0.502795 0.341717,0.824953 0,0.322157 -0.130591,0.613823 -0.341717,0.824953 -0.21113,0.211126 -0.502795,0.341717 -0.824953,0.341717 -0.322157,0 -0.613823,-0.130591 -0.824953,-0.341717 -0.211126,-0.21113 -0.341717,-0.502795 -0.341717,-0.824953 0,-0.322157 0.130591,-0.613823 0.341717,-0.824953 0.21113,-0.211126 0.502795,-0.341717 0.824953,-0.341717zm0.697657 0.469012c-0.178539,-0.178535 -0.425197,-0.288965 -0.697657,-0.288965 -0.272461,0 -0.519118,0.110429 -0.697657,0.288965 -0.178535,0.178539 -0.288965,0.425197 -0.288965,0.697657 0,0.272461 0.110429,0.519118 0.288965,0.697657 0.178539,0.178535 0.425197,0.288965 0.697657,0.288965 0.272461,0 0.519118,-0.110429 0.697657,-0.288965 0.178535,-0.178539 0.288965,-0.425197 0.288965,-0.697657 0,-0.272461 -0.110429,-0.519118 -0.288965,-0.697657z"/>
   <path id="_265305232" class="fil2" d="M3.41333 2.96962c0.218252,0 0.41585,0.0884646 0.558882,0.2315 0.143035,0.143031 0.2315,0.340626 0.2315,0.558878 0,0.218252 -0.0884646,0.41585 -0.2315,0.558882 -0.143031,0.143035 -0.34063,0.2315 -0.558882,0.2315 -0.218252,0 -0.41585,-0.0884646 -0.558882,-0.2315 -0.143035,-0.143031 -0.2315,-0.34063 -0.2315,-0.558882 0,-0.218252 0.0884646,-0.415846 0.2315,-0.558878 0.143031,-0.143035 0.34063,-0.2315 0.558882,-0.2315zm0.495232 0.29515c-0.126732,-0.12674 -0.301831,-0.20513 -0.495232,-0.20513 -0.193402,0 -0.3685,0.0783898 -0.495232,0.20513 -0.126736,0.126728 -0.20513,0.301823 -0.20513,0.495228 0,0.193402 0.0783898,0.3685 0.20513,0.495232 0.126732,0.12674 0.301831,0.20513 0.495232,0.20513 0.193402,0 0.3685,-0.0783898 0.495232,-0.20513 0.12674,-0.126732 0.20513,-0.301831 0.20513,-0.495232 0,-0.193406 -0.0783937,-0.3685 -0.20513,-0.495228z"/>
   <path id="_265305112" class="fil2" d="M2.1376 2.22853l-0.588799 0c-0.0589094,0 -0.106669,-0.0327283 -0.106669,-0.0730984l0 -0.269008c0,-0.0403701 0.0477598,-0.0730984 0.106669,-0.0730984l0.588799 0c0.0589094,0 0.106669,0.0327283 0.106669,0.0730984l0 0.269008c0,0.0403701 -0.0477598,0.0730984 -0.106669,0.0730984z"/>
  </g>
 </g>
 <rect class="fil3" width="6.82666" height="6.82666"/>
</svg>
