<?xml version="1.0" encoding="UTF-8"?>
<!DOCTYPE svg PUBLIC "-//W3C//DTD SVG 1.1//EN" "http://www.w3.org/Graphics/SVG/1.1/DTD/svg11.dtd">
<!-- Creator: CorelDRAW -->
<svg xmlns="http://www.w3.org/2000/svg" xml:space="preserve" width="6.82666in" height="6.82666in" style="shape-rendering:geometricPrecision; text-rendering:geometricPrecision; image-rendering:optimizeQuality; fill-rule:evenodd; clip-rule:evenodd"
viewBox="0 0 6.82666 6.82666"
 xmlns:xlink="http://www.w3.org/1999/xlink">
 <defs>
  <style type="text/css">
   <![CDATA[
    .fil3 {fill:none}
    .fil0 {fill:#424242}
    .fil2 {fill:#FFFFFE}
    .fil1 {fill:#FFFFFE;fill-rule:nonzero}
   ]]>
  </style>
 </defs>
 <rect class="fil0" width="6.82666" height="6.82666"/>
 <g id="Layer_x0020_1">
  <metadata id="CorelCorpID_0Corel-Layer"/>
  <g id="_265305880">
   <path id="_265306672" class="fil1" d="M4.27451 1.64448c-0.0832244,-0.0832244 -0.134717,-0.198193 -0.134717,-0.325154 0,-0.126685 0.0516299,-0.241634 0.135083,-0.325055 0.0832362,-0.0831969 0.198083,-0.134665 0.324787,-0.134665 0.126941,0 0.24187,0.0514606 0.325063,0.134661 0.0831929,0.0831969 0.134654,0.19813 0.134654,0.325075 0,0.126701 -0.0514646,0.241543 -0.134665,0.32478 -0.0834213,0.0834488 -0.198362,0.135075 -0.325051,0.135075 -0.126961,0 -0.241929,-0.0514921 -0.325154,-0.134717z"/>
   <path id="_265306456" class="fil2" d="M3.41904 3.38207c0.0200236,0.0287835 0.047122,0.0521614 0.0781417,0.068437 0.0308858,0.0162047 0.0650354,0.0250512 0.0999606,0.0250512 0.165169,0 0.427551,-0.0709134 0.581024,-0.132524 0.0689094,-0.0276614 0.13565,-0.0615433 0.196335,-0.104531l0.132047 -0.0935315 0.0935709 0.436681c0.0353543,0.164996 0.073185,0.329102 0.11215,0.493272 0.0288937,0.12174 0.0583228,0.24372 0.0809331,0.366815 0.0278346,0.151539 0.0430787,0.301878 0.0517165,0.45565 0.0138819,0.247094 0.0146142,0.497154 0.0147638,0.744598l7.87402e-006 0.0160827c0.00369291,0.0690787 0.0311732,0.134024 0.0779921,0.185079l0.00877559 0.00876378c0.0523071,0.0522402 0.121067,0.0831024 0.194496,0.0869016l0.0152756 -1.9685e-005c0.0792126,-0.000102362 0.154244,-0.0312047 0.210236,-0.0872362 0.0521575,-0.0521969 0.0828228,-0.120854 0.0866496,-0.194106l-0.00103543 -1.50861c-0.000110236,-0.16102 0.0248661,-0.277795 0.0752126,-0.428283 0.0054252,-0.0162244 0.0108583,-0.0324488 0.0161024,-0.0487362 0.0234134,-0.0726654 0.0396693,-0.139681 0.044189,-0.216307 0.00666142,-0.112957 -0.0111063,-0.230933 -0.0347126,-0.341067l-0.205638 -0.959311c-0.0212598,-0.0991693 -0.077378,-0.178496 -0.159114,-0.23737 -0.087626,-0.063122 -0.201457,-0.0931811 -0.307902,-0.102008 -0.00153543,-0.000125984 -0.00309449,-0.000291339 -0.00464173,-0.000397638 -0.0413858,0.00159449 -0.0845591,0.00536614 -0.125429,0.0111496 -0.000224409,3.14961e-005 -0.000452756,6.29921e-005 -0.000677165,9.44882e-005l-0.00272047 0.000519685c-0.0392323,0.00752362 -0.0764173,0.0227874 -0.11239,0.0397638l-0.00427953 0.00223228c-0.0776299,0.0405512 -0.151764,0.0971496 -0.205287,0.166933 -0.0488661,0.0637087 -0.0755748,0.141953 -0.0911378,0.219929 -0.00165748,0.00829921 -0.00478346,0.0173898 -0.0059252,0.0255354 -0.0161063,0.114965 -0.0323425,0.234713 -0.0605,0.347343 -0.0179055,0.071622 -0.0435157,0.151413 -0.0925551,0.208146 -0.0378189,0.0437559 -0.0897717,0.0739094 -0.142264,0.0967087 -0.0812441,0.0352874 -0.15298,0.0619173 -0.24174,0.0710827 -0.0327441,0.00654331 -0.0663386,0.0085748 -0.0985433,0.0156063 -0.0294449,0.0064252 -0.0585354,0.0147559 -0.0870157,0.0245984 -0.0255433,0.00883071 -0.0509134,0.0190945 -0.0749528,0.0314803 -0.0210394,0.0108425 -0.0416811,0.0232795 -0.0603858,0.0378228 -0.022622,0.0175866 -0.0427953,0.0384055 -0.0577323,0.0629606 -0.0135984,0.0223504 -0.0217795,0.0462913 -0.0242756,0.0723976 -0.00204724,0.0214016 -0.000326772,0.0425945 0.0046378,0.0634921 0.00508661,0.0214173 0.0157835,0.0447047 0.0247441,0.0647874 0.000586614,0.00131102 0.0012126,0.0027874 0.0018937,0.00412992z"/>
   <g>
    <path id="_265306816" class="fil1" d="M2.89221 1.68903l-0.207421 0c-0.0262913,0 -0.0476142,-0.0215472 -0.0476142,-0.0481181l0 -0.196689c0,-0.0265748 0.0213228,-0.0481181 0.0476142,-0.0481181l0.207421 0c0.0262953,0 0.0476142,0.0215433 0.0476142,0.0481181l0 0.196689c0,0.0265709 -0.0213189,0.0481181 -0.0476142,0.0481181z"/>
    <path id="_265306552" class="fil1" d="M2.59341 1.5928l0.390189 0c0.0307992,0 0.0587717,0.0127008 0.0790118,0.0331575 0.0202441,0.0204567 0.032811,0.0487205 0.032811,0.0798465l0 0.480776c0,0.031126 -0.0125669,0.0593937 -0.032811,0.0798504 -0.0202402,0.0204528 -0.0482126,0.0331575 -0.0790118,0.0331575l-0.390189 0c-0.0308031,0 -0.0587717,-0.0127047 -0.0790157,-0.0331575 -0.0202402,-0.0204567 -0.032811,-0.0487244 -0.032811,-0.0798504l0 -0.480776c0,-0.031126 0.0125709,-0.0593898 0.032811,-0.0798465 0.0202441,-0.0204567 0.0482126,-0.0331575 0.0790157,-0.0331575zm0.255764 0.279205c0,-0.0338622 -0.0271654,-0.061315 -0.0606732,-0.061315 -0.0335039,0 -0.0606732,0.0274528 -0.0606732,0.061315l0 0.148378c0,0.0338622 0.0271693,0.061315 0.0606732,0.061315 0.0335079,0 0.0606732,-0.0274528 0.0606732,-0.061315l0 -0.148378z"/>
    <path id="_265306312" class="fil1" d="M2.87955 2.39635c0,-0.0531496 -0.0426378,-0.0962362 -0.0952283,-0.0962362 -0.0525945,0 -0.0952323,0.0430866 -0.0952323,0.0962362l0 2.92709c0,0.0531457 0.0426378,0.0962362 0.0952323,0.0962362 0.0525906,0 0.0952283,-0.0430906 0.0952283,-0.0962362l0 -2.92709z"/>
    <path id="_265306264" class="fil1" d="M1.25273 5.81913c-0.0283504,0.0446339 -0.0155236,0.104047 0.0286417,0.132697 0.0441693,0.0286496 0.102961,0.015689 0.131311,-0.0289449l1.45162 -2.28617c0.0283504,-0.0446339 0.0155276,-0.104047 -0.0286417,-0.132697 -0.0441654,-0.0286535 -0.102957,-0.015689 -0.131307,0.0289449l-1.45162 2.28617z"/>
    <path id="_265306576" class="fil1" d="M4.15597 5.92288c0.0283504,0.0446339 0.0871417,0.0575945 0.131311,0.0289449 0.0441654,-0.0286496 0.0569921,-0.088063 0.0286417,-0.132697l-1.45162 -2.28617c-0.0283504,-0.0446339 -0.0871417,-0.0575984 -0.131307,-0.0289449 -0.0441693,0.0286496 -0.0569921,0.088063 -0.0286417,0.132697l1.45162 2.28617z"/>
    <path id="_265306720" class="fil1" d="M2.6467 3.26582c-0.0406339,0 -0.0735787,0.0430906 -0.0735787,0.0962362 0,0.0531496 0.0329449,0.0962362 0.0735787,0.0962362l0.275228 0c0.0406378,0 0.0735787,-0.0430866 0.0735787,-0.0962362 0,-0.0531457 -0.0329409,-0.0962362 -0.0735787,-0.0962362l-0.275228 0z"/>
    <path id="_265306360" class="fil1" d="M2.60621 2.30013c-0.0525906,0 -0.0952323,0.0430866 -0.0952323,0.0962362 0,0.0531457 0.0426417,0.0962362 0.0952323,0.0962362l0.356224 0c0.0525906,0 0.0952283,-0.0430906 0.0952283,-0.0962362 0,-0.0531496 -0.0426378,-0.0962362 -0.0952283,-0.0962362l-0.356224 0z"/>
    <path id="_265305808" class="fil1" d="M2.89319 2.42559c-0.0217717,-0.0148425 -0.0513386,-0.00903543 -0.0660236,0.0129685 -0.014689,0.0220039 -0.00894488,0.051878 0.0128307,0.0667244l0.441224 0.300988 -2.75591e-005 4.33071e-005c0.00935827,0.00637795 0.0201496,0.00894882 0.0305866,0.00806693l0.17515 0.000795276c0.0261929,0.000102362 0.0475157,-0.0212756 0.0476181,-0.0477441 9.84252e-005,-0.0264685 -0.0210512,-0.0480157 -0.0472441,-0.0481181l-0.164626 -0.000744094 -0.429488 -0.29298z"/>
    <path id="_265305736" class="fil1" d="M1.97628 1.63861l0.415917 0.11863c0.0215591,0.00459449 0.0377441,0.0239291 0.0377441,0.0470827l0 0.273512c0.000358268,0.0211654 -0.0132283,0.0408031 -0.0343071,0.047l-0.000102362 -0.000153543 -0.388382 0.11426c-0.00698425,0.00274409 -0.0147126,0.00385827 -0.0226732,0.00293307l7.87402e-006 -6.69291e-005 -0.203091 -0.0237165c-0.024874,-0.00159449 -0.044563,-0.0224803 -0.044563,-0.0480157l0 -0.456898c-0.000169291,-0.0234646 0.016685,-0.0441339 0.040315,-0.0478386l4.33071e-005 0.000181102 0.174705 -0.0274016c0.00777559,-0.00196063 0.0161457,-0.00196063 0.0244094,0.000397638l-2.3622e-005 9.44882e-005z"/>
    <path id="_265305688" class="fil1" d="M3.07002 1.70817c-0.0262953,0 -0.0476142,0.0215472 -0.0476142,0.0481181 0,0.0265709 0.0213189,0.0481181 0.0476142,0.0481181l0.0325827 0c0.0262953,0 0.0476142,-0.0215472 0.0476142,-0.0481181 0,-0.0265709 -0.0213189,-0.0481181 -0.0476142,-0.0481181l-0.0325827 0z"/>
    <path id="_265306048" class="fil1" d="M3.07002 1.89807c-0.0262953,0 -0.0476142,0.0215472 -0.0476142,0.0481181 0,0.0265748 0.0213189,0.0481181 0.0476142,0.0481181l0.0325827 0c0.0262953,0 0.0476142,-0.0215433 0.0476142,-0.0481181 0,-0.0265709 -0.0213189,-0.0481181 -0.0476142,-0.0481181l-0.0325827 0z"/>
    <rect id="_265305976" class="fil2" x="2.40342" y="1.73293" width="0.174525" height="0.408337" rx="0.0282008" ry="0.0282008"/>
   </g>
  </g>
 </g>
 <rect class="fil3" width="6.82666" height="6.82666"/>
</svg>
