<?xml version="1.0" encoding="UTF-8"?>
<!DOCTYPE svg PUBLIC "-//W3C//DTD SVG 1.1//EN" "http://www.w3.org/Graphics/SVG/1.1/DTD/svg11.dtd">
<!-- Creator: CorelDRAW -->
<svg xmlns="http://www.w3.org/2000/svg" xml:space="preserve" width="6.82666in" height="6.82666in" style="shape-rendering:geometricPrecision; text-rendering:geometricPrecision; image-rendering:optimizeQuality; fill-rule:evenodd; clip-rule:evenodd"
viewBox="0 0 6.82666 6.82666"
 xmlns:xlink="http://www.w3.org/1999/xlink">
 <defs>
  <style type="text/css">
   <![CDATA[
    .fil2 {fill:none}
    .fil0 {fill:#424242}
    .fil1 {fill:#FFFFFE;fill-rule:nonzero}
   ]]>
  </style>
 </defs>
 <rect class="fil0" width="6.82666" height="6.82666"/>
 <g id="Layer_x0020_1">
  <metadata id="CorelCorpID_0Corel-Layer"/>
  <path class="fil1" d="M3.45686 2.32519c0,-0.0589094 -0.0477598,-0.106669 -0.106669,-0.106669 -0.0589094,0 -0.106669,0.0477598 -0.106669,0.106669l0 3.19235c0,0.0589094 0.0477598,0.106669 0.106669,0.106669 0.0589094,0 0.106669,-0.0477598 0.106669,-0.106669l0 -3.19235z"/>
  <path class="fil1" d="M2.19271 5.78213c-0.0306024,0.0501654 -0.014748,0.11565 0.0354173,0.146252 0.0501654,0.0306024 0.11565,0.014748 0.146252,-0.0354173l1.06666 -1.74952c0.0306024,-0.0501654 0.014748,-0.11565 -0.0354173,-0.146252 -0.0501654,-0.0306024 -0.11565,-0.014748 -0.146252,0.0354173l-1.06666 1.74952z"/>
  <path class="fil1" d="M4.32602 5.89296c0.0306024,0.0501654 0.0960866,0.0660197 0.146252,0.0354173 0.0501654,-0.0306024 0.0660197,-0.0960866 0.0354173,-0.146252l-1.06666 -1.74952c-0.0306024,-0.0501654 -0.0960866,-0.0660197 -0.146252,-0.0354173 -0.0501654,0.0306024 -0.0660197,0.0960866 -0.0354173,0.146252l1.06666 1.74952z"/>
  <path class="fil1" d="M3.21931 3.81087c-0.0589094,0 -0.106669,0.0477598 -0.106669,0.106669 0,0.0589094 0.0477598,0.106669 0.106669,0.106669l0.261756 0c0.0589094,0 0.106669,-0.0477598 0.106669,-0.106669 0,-0.0589094 -0.0477598,-0.106669 -0.106669,-0.106669l-0.261756 0z"/>
  <path class="fil1" d="M3.21931 2.93611c-0.0589094,0 -0.106669,0.0477598 -0.106669,0.106669 0,0.0589094 0.0477598,0.106669 0.106669,0.106669l0.261756 0c0.0589094,0 0.106669,-0.0477598 0.106669,-0.106669 0,-0.0589094 -0.0477598,-0.106669 -0.106669,-0.106669l-0.261756 0z"/>
  <path class="fil1" d="M4.20941 1.42272c-0.0517756,0.0278425 -0.0711772,0.0923937 -0.0433346,0.144169 0.0278425,0.0517756 0.0923937,0.0711772 0.144169,0.0433346l0.230591 -0.123874c0.0517756,-0.0278425 0.0711772,-0.0923937 0.0433346,-0.144169 -0.0278425,-0.0517756 -0.0923937,-0.0711772 -0.144169,-0.0433346l-0.230591 0.123874z"/>
  <path class="fil1" d="M3.71113 1.4765c-0.0278425,-0.0517756 -0.0923937,-0.0711772 -0.144169,-0.0433346l-0.414563 0.222705c-0.14726,0.0791102 -0.188795,0.224756 -0.162559,0.368512 0.00929528,0.0509409 0.0271654,0.101012 0.0516654,0.146618 0.0246024,0.0457992 0.0563504,0.0882559 0.0933031,0.123756 0.105516,0.101382 0.250059,0.147236 0.397465,0.0680512l0.414563 -0.222705c0.0517756,-0.0278425 0.0711772,-0.0923937 0.0433346,-0.144169 -0.135,-0.251039 -0.148256,-0.276224 -0.279039,-0.519433z"/>
  <path class="fil1" d="M4.39349 1.99022l-0.227421 -0.423335 -0.227469 -0.423437c-0.0723031,0.0621496 -0.123398,0.142811 -0.149902,0.230858 -0.035815,0.118965 -0.0270197,0.251248 0.0346024,0.369492 0.00224409,0.00362992 0.00427165,0.00740551 0.0060748,0.0113071 0.0645984,0.116575 0.16976,0.196803 0.288291,0.232488 0.0883346,0.0265906 0.184004,0.0285866 0.275823,0.00262598z"/>
  <path class="fil1" d="M4.35357 1.46605l0.283295 0.527339 -0.093752 0.0504173 0.0939646 -0.0504803c0.027878,0.0518937 0.00840945,0.116567 -0.0434843,0.144445 -0.000925197,0.000496063 -0.0018622,0.000976378 -0.00279528,0.00144488l3.93701e-006 3.93701e-006 -0.00119291 0.00057874 -0.00107874 0.000523622 -0.00127953 0.000586614 -0.000377953 0.000173228c-0.169909,0.0890079 -0.359709,0.101953 -0.530043,0.0506772 -0.172909,-0.0520591 -0.325945,-0.170031 -0.418098,-0.341567l0.093752 -0.0504173 -0.0437795 0.0235197 -0.0499803 0.026878 -1.1811e-005 -1.9685e-005 -0.000192913 0.000102362c-0.000496063,-0.000925197 -0.000976378,-0.0018622 -0.00144488,-0.00279528l-3.93701e-006 3.93701e-006 -0.00057874 -0.00119291 -0.000523622 -0.00107874 -0.000586614 -0.00127953 -0.000185039 -0.000405512c-0.0889961,-0.169909 -0.101941,-0.359713 -0.0506654,-0.530035 0.0520551,-0.172917 0.170035,-0.325953 0.341575,-0.418106l0.0504173 0.093752 -0.0504803 -0.0939646c0.0194961,-0.0104724 0.0407992,-0.0142677 0.0612756,-0.0121654 0.0157008,0.00157874 0.0303898,0.00656693 0.0433346,0.0142047l0.000133858 7.87402e-005 0.00165748 0.001 0.00122047 0.000759843 0.000598425 0.000385827 0.00181496 0.00119291 0.000149606 9.84252e-005c0.00969291,0.0065315 0.0184094,0.0147323 0.0256732,0.0244528l0.000940945 0.0012874 0.000511811 0.000700787c0.00401181,0.00561417 0.00750394,0.0116299 0.010378,0.0179803l0.279839 0.520921z"/>
 </g>
 <rect class="fil2" width="6.82666" height="6.82666"/>
</svg>
