<?xml version="1.0" encoding="UTF-8"?>
<!DOCTYPE svg PUBLIC "-//W3C//DTD SVG 1.1//EN" "http://www.w3.org/Graphics/SVG/1.1/DTD/svg11.dtd">
<!-- Creator: CorelDRAW -->
<svg xmlns="http://www.w3.org/2000/svg" xml:space="preserve" width="6.82666in" height="6.82666in" style="shape-rendering:geometricPrecision; text-rendering:geometricPrecision; image-rendering:optimizeQuality; fill-rule:evenodd; clip-rule:evenodd"
viewBox="0 0 6.82666 6.82666"
 xmlns:xlink="http://www.w3.org/1999/xlink">
 <defs>
  <style type="text/css">
   <![CDATA[
    .fil2 {fill:none}
    .fil0 {fill:#424242}
    .fil1 {fill:#FFFFFE;fill-rule:nonzero}
   ]]>
  </style>
 </defs>
 <rect class="fil0" width="6.82666" height="6.82666"/>
 <g id="Layer_x0020_1">
  <metadata id="CorelCorpID_0Corel-Layer"/>
  <g id="_265309216">
   <path id="_265307968" class="fil1" d="M4.10039 3.60814c0,-0.0589094 -0.0477598,-0.106669 -0.106669,-0.106669 -0.0589094,0 -0.106669,0.0477598 -0.106669,0.106669l0 1.98941c0,0.0589094 0.0477598,0.106669 0.106669,0.106669 0.0589094,0 0.106669,-0.0477598 0.106669,-0.106669l0 -1.98941z"/>
   <path id="_265307416" class="fil1" d="M4.90115 5.95245c0.0306024,0.0501654 0.0960866,0.0660197 0.146252,0.0354173 0.0501654,-0.0306024 0.0660197,-0.0960866 0.0354173,-0.146252l-0.998276 -1.63736c-0.0306024,-0.0501654 -0.0960866,-0.0660197 -0.146252,-0.0354173 -0.0501654,0.0306024 -0.0660197,0.0960866 -0.0354173,0.146252l0.998276 1.63736z"/>
   <path id="_265311304" class="fil1" d="M2.90461 5.84161c-0.0306024,0.0501654 -0.014748,0.11565 0.0354173,0.146252 0.0501654,0.0306024 0.11565,0.014748 0.146252,-0.0354173l0.998272 -1.63736c0.0306024,-0.0501654 0.014748,-0.11565 -0.0354173,-0.146252 -0.0501654,-0.0306024 -0.11565,-0.014748 -0.146252,0.0354173l-0.998272 1.63736z"/>
   <path id="_265309000" class="fil1" d="M4.11621 4.20679c0.0589094,0 0.106669,-0.0477598 0.106669,-0.106669 0,-0.0589094 -0.0477598,-0.106669 -0.106669,-0.106669l-0.244972 0c-0.0589094,0 -0.106669,0.0477598 -0.106669,0.106669 0,0.0589094 0.0477598,0.106669 0.106669,0.106669l0.244972 0z"/>
   <path id="_265308856" class="fil1" d="M3.94932 3.74538c0.0561457,0.0172598 0.115657,-0.0142677 0.132917,-0.0704134 0.0172598,-0.0561457 -0.0142677,-0.115657 -0.0704134,-0.132917l-1.19359 -0.366953c-0.0561457,-0.0172598 -0.115657,0.0142677 -0.132917,0.0704134 -0.0172598,0.0561457 0.0142677,0.115657 0.0704134,0.132917l1.19359 0.366953z"/>
   <path id="_265308784" class="fil1" d="M2.60057 2.35015c-0.0193268,0.0554567 0.00996063,0.116091 0.0654173,0.135417 0.0554567,0.0193268 0.116091,-0.00996063 0.135417,-0.0654173l0.0562913 -0.159949c0.0193268,-0.0554567 -0.00996063,-0.116091 -0.0654173,-0.135417 -0.0554567,-0.0193268 -0.116091,0.00996063 -0.135417,0.0654173l-0.0562913 0.159949z"/>
   <path id="_265309024" class="fil1" d="M2.829 3.06806c0.00908661,-0.0279567 -0.0062126,-0.0579961 -0.0341693,-0.0670827l-0.0670827 0.0341693 -0.423469 -0.137941c0.00908661,-0.0279567 -0.0062126,-0.0579961 -0.0341693,-0.0670827 -0.0279567,-0.00908661 -0.0579961,0.0062126 -0.0670827,0.0341693l-0.135287 0.415484c-0.000901575,0.00225984 -0.00164961,0.00459449 -0.00224016,0.00699606 -0.0225551,0.0733031 -0.0073937,0.150681 0.0354646,0.216713 0.0893425,0.13761 0.280803,0.200165 0.434126,0.1415 0.074748,-0.0285945 0.13328,-0.0836102 0.157547,-0.158138l0.136362 -0.418787z"/>
   <path id="_265309096" class="fil1" d="M2.1652 2.23405l0.532689 0.173457 0.529681 0.172472c0.0010315,0.000267717 0.00206299,0.000566929 0.00309055,0.000901575 0.0280039,0.00911811 0.0433189,0.0392205 0.0342008,0.0672244l-9.44882e-005 -3.14961e-005c-0.0524764,0.161134 -0.165248,0.285732 -0.305138,0.356898 -0.139902,0.0711693 -0.307,0.0889567 -0.468114,0.0365 -0.16115,-0.0524724 -0.285756,-0.165248 -0.356925,-0.305146 -0.0706732,-0.138925 -0.0887008,-0.304673 -0.0375669,-0.464752 0.000287402,-0.00114173 0.000614173,-0.00227953 0.000984252,-0.00341732 0.00911811,-0.0280039 0.0392205,-0.0433189 0.0672244,-0.0342008l-3.14961e-005 9.44882e-005z"/>
   <path id="_265308712" class="fil1" d="M2.66498 2.50876l-0.47948 -0.15613c-0.0249606,0.116713 -0.00718898,0.234555 0.0440945,0.335366 0.0588504,0.115681 0.161787,0.208902 0.294839,0.252224 0.133087,0.0433307 0.271189,0.0285984 0.38687,-0.030248 0.100827,-0.0512913 0.184583,-0.136075 0.233118,-0.245098l-0.479441 -0.156114z"/>
   <path id="_265308520" class="fil1" d="M2.84638 2.00497c0.0342992,-0.0232087 0.072063,-0.0409488 0.111827,-0.0525197 0.0770157,-0.0224094 0.161406,-0.0217717 0.242484,0.00697638 0.0812402,0.0288031 0.147287,0.0815394 0.193031,0.147539 0.0235591,0.0339961 0.0416811,0.0715276 0.0536693,0.111122 0.0342953,-0.0232126 0.072063,-0.0409567 0.111827,-0.0525236 0.0770236,-0.0224094 0.161406,-0.0217756 0.242484,0.00697638 0.0812441,0.0287992 0.147291,0.0815472 0.193031,0.147539 0.00554331,0.00800394 0.0107835,0.0161969 0.0157205,0.0245709 0.0470945,-0.258669 0.00832283,-0.518854 -0.0998858,-0.745961 -0.290744,-0.61022 -0.952882,-0.904547 -1.63478,-0.579654 -0.227157,0.108228 -0.421205,0.285882 -0.547543,0.516453 0.00918898,-0.00342913 0.0185,-0.00652756 0.0279331,-0.00926772 0.0770157,-0.0224094 0.161402,-0.0217795 0.24248,0.0069685 0.0812402,0.0288031 0.147287,0.0815551 0.193031,0.147547 0.0235591,0.0339921 0.0416811,0.0715315 0.0536693,0.111126 0.0342953,-0.0232126 0.072063,-0.0409567 0.111823,-0.0525236 0.0770197,-0.0224094 0.161406,-0.0217795 0.242484,0.00696457 0.0812402,0.0288071 0.147291,0.0815512 0.193035,0.147547 0.023563,0.0339921 0.0416811,0.0715236 0.0536732,0.111118z"/>
   <path id="_265308688" class="fil1" d="M2.92165 1.91909c0.00977953,-0.0277283 -0.00477165,-0.0581378 -0.0325,-0.0679173 -0.0277283,-0.00977953 -0.0581378,0.00477165 -0.0679173,0.0325l-0.0642953 0.181315 -0.0524134 0.147819c-0.00977953,0.0277283 0.00477165,0.0581378 0.0325,0.0679173 0.0277283,0.00977953 0.0581378,-0.00477165 0.0679173,-0.0325l0.0524134 -0.147819 0.0642953 -0.181315z"/>
   <path id="_265308568" class="fil1" d="M3.29548 0.894177c0.00977953,-0.0277283 -0.00477165,-0.0581378 -0.0325,-0.0679173 -0.0277283,-0.00977953 -0.0581378,0.00477165 -0.0679173,0.0325l-0.0390669 0.110173c-0.00977953,0.0277283 0.00477165,0.0581378 0.0325,0.0679173 0.0277283,0.00977953 0.0581378,-0.00477165 0.0679173,-0.0325l0.0390669 -0.110173z"/>
  </g>
 </g>
 <rect class="fil2" width="6.82666" height="6.82666"/>
</svg>
