<?xml version="1.0" encoding="UTF-8"?>
<!DOCTYPE svg PUBLIC "-//W3C//DTD SVG 1.1//EN" "http://www.w3.org/Graphics/SVG/1.1/DTD/svg11.dtd">
<!-- Creator: CorelDRAW -->
<svg xmlns="http://www.w3.org/2000/svg" xml:space="preserve" width="6.82666in" height="6.82666in" style="shape-rendering:geometricPrecision; text-rendering:geometricPrecision; image-rendering:optimizeQuality; fill-rule:evenodd; clip-rule:evenodd"
viewBox="0 0 6.82666 6.82666"
 xmlns:xlink="http://www.w3.org/1999/xlink">
 <defs>
  <style type="text/css">
   <![CDATA[
    .fil2 {fill:none}
    .fil0 {fill:#424242}
    .fil1 {fill:#FFFFFE;fill-rule:nonzero}
   ]]>
  </style>
 </defs>
 <rect class="fil0" width="6.82666" height="6.82666"/>
 <g id="Layer_x0020_1">
  <metadata id="CorelCorpID_0Corel-Layer"/>
  <g id="_368391888">
   <path id="_368392584" class="fil1" d="M4.46117 2.32552l-2.09568 0 0 2.17563 2.09568 0 0 -2.17563zm-1.04784 0.288886c0.219772,0 0.418957,0.0895866 0.563323,0.234429 0.144165,0.144642 0.233346,0.344244 0.233346,0.5645 0,0.220256 -0.0891772,0.419854 -0.233346,0.5645 -0.144366,0.144835 -0.343551,0.234425 -0.563323,0.234425 -0.219772,0 -0.418957,-0.0895906 -0.563323,-0.234425 -0.144169,-0.144646 -0.233346,-0.344244 -0.233346,-0.5645 0,-0.22026 0.0891772,-0.419858 0.233346,-0.564504 0.144366,-0.144835 0.343551,-0.234425 0.563323,-0.234425zm0.412488 0.384429c-0.105358,-0.105705 -0.251185,-0.171091 -0.412488,-0.171091 -0.161303,0 -0.30713,0.0653858 -0.412488,0.171087 -0.105551,0.105898 -0.170843,0.252437 -0.170843,0.414504 0,0.162063 0.0652913,0.308602 0.170843,0.4145 0.105358,0.105701 0.251185,0.171087 0.412488,0.171087 0.161303,0 0.30713,-0.0653858 0.412488,-0.171087 0.105551,-0.105898 0.170843,-0.252437 0.170843,-0.4145 0,-0.162063 -0.0652913,-0.308602 -0.170843,-0.4145z"/>
   <path id="_368392200" class="fil1" d="M2.08266 2.24267l-0.42972 -1.29341 -0.000444882 0.000145669c-0.0185709,-0.0559055 0.0116929,-0.116287 0.0675984,-0.134858 0.0118307,-0.00392913 0.0238622,-0.00566535 0.0356575,-0.00544094l3.31718 0c0.0589094,0 0.106669,0.0477598 0.106669,0.106669 0,0.016752 -0.00386614,0.0325984 -0.010748,0.0467047l-0.501846 1.2947 -0.0991654 -0.0383346 0.0994567 0.0385512c-0.016374,0.042248 -0.0567126,0.0681299 -0.0994606,0.0681378l0 -0.106685 -2.30901 0 0 0.106665 -0.0721654 0c-0.0507205,0 -0.0931732,-0.0354055 -0.103996,-0.0828504z"/>
   <path id="_368392536" class="fil1" d="M4.54233 2.11526l1.29058 -0.431598 0.033752 0.100835 -0.0338307 -0.101161c0.0558661,-0.0186811 0.116311,0.0114646 0.134992,0.0673307 0.00398031,0.0119016 0.00573622,0.0240157 0.00550787,0.0358858l0 3.32801c0,0.0589094 -0.0477598,0.106669 -0.106669,0.106669 -0.0161024,0 -0.0313661,-0.0035748 -0.0450551,-0.00996457l-1.29247 -0.504264 -7.08661e-005 0.000185039c-0.0421339,-0.016437 -0.0679094,-0.0567165 -0.0679213,-0.099374l0.106689 0 0 -2.38896 -0.106665 0 0 -3.93701e-006c0,-0.0501142 0.0345669,-0.0921535 0.0811575,-0.103591z"/>
   <path id="_368391240" class="fil1" d="M0.959996 1.78449l0.033752 -0.100835 1.29058 0.431598c0.0465906,0.011437 0.0811575,0.0534764 0.0811575,0.103591l0 3.93701e-006 -0.106665 0 0 2.38896 0.106689 0c-1.1811e-005,0.0426575 -0.0257874,0.082937 -0.0679213,0.099374l-7.08661e-005 -0.000185039 -1.29247 0.504264c-0.013689,0.00638976 -0.0289528,0.00996457 -0.0450551,0.00996457 -0.0589094,0 -0.106669,-0.0477598 -0.106669,-0.106669l0 -3.32801c-0.000228346,-0.0118701 0.00152756,-0.0239843 0.00550787,-0.0358858 0.0186811,-0.0558661 0.079126,-0.0860118 0.134992,-0.0673307l-0.0338307 0.101161z"/>
   <path id="_368391744" class="fil1" d="M1.65294 5.8774l0.42972 -1.29341c0.0108228,-0.0474449 0.0532756,-0.0828504 0.103996,-0.0828504l0.0721654 0 0 0.106665 2.30901 0 0 -0.106685c0.042748,7.87402e-006 0.0830866,0.0258898 0.0994606,0.0681378l-0.0994567 0.0385512 0.0991654 -0.0383346 0.501846 1.2947c0.00688189,0.0141063 0.010748,0.0299528 0.010748,0.0467047 0,0.0589094 -0.0477598,0.106669 -0.106669,0.106669l-3.31718 0c-0.0117953,0.000224409 -0.0238268,-0.00151181 -0.0356575,-0.00544094 -0.0559055,-0.0185709 -0.0861693,-0.0789528 -0.0675984,-0.134858l0.000444882 0.000145669z"/>
  </g>
 </g>
 <rect class="fil2" width="6.82666" height="6.82666"/>
</svg>
