<?xml version="1.0" encoding="UTF-8"?>
<!DOCTYPE svg PUBLIC "-//W3C//DTD SVG 1.1//EN" "http://www.w3.org/Graphics/SVG/1.1/DTD/svg11.dtd">
<!-- Creator: CorelDRAW -->
<svg xmlns="http://www.w3.org/2000/svg" xml:space="preserve" width="6.82666in" height="6.82666in" style="shape-rendering:geometricPrecision; text-rendering:geometricPrecision; image-rendering:optimizeQuality; fill-rule:evenodd; clip-rule:evenodd"
viewBox="0 0 6.82666 6.82666"
 xmlns:xlink="http://www.w3.org/1999/xlink">
 <defs>
  <style type="text/css">
   <![CDATA[
    .fil3 {fill:none}
    .fil0 {fill:#424242}
    .fil2 {fill:#FFFFFE}
    .fil1 {fill:#FFFFFE;fill-rule:nonzero}
   ]]>
  </style>
 </defs>
 <rect class="fil0" width="6.82666" height="6.82666"/>
 <g id="Layer_x0020_1">
  <metadata id="CorelCorpID_0Corel-Layer"/>
  <g id="_368394000">
   <path id="_368393736" class="fil1" d="M4.94244 5.8971c0.012189,0.0273031 -6.69291e-005,0.0593228 -0.0273701,0.0715118 -0.0273031,0.012185 -0.0593228,-7.08661e-005 -0.0715118,-0.027374l-0.734252 -1.64408c-0.012189,-0.0273031 6.69291e-005,-0.0593228 0.0273701,-0.0715118 0.0273031,-0.012185 0.0593228,7.08661e-005 0.0715118,0.027374l0.734252 1.64408z"/>
   <path id="_368394024" class="fil1" d="M4.47515 4.71333c0.0239291,0.0536142 -0.000133858,0.116488 -0.053748,0.140417 -0.0536142,0.0239291 -0.116488,-0.000133858 -0.140417,-0.053748l-0.950413 -2.11837c-0.0239291,-0.0536142 0.000133858,-0.116488 0.053748,-0.140417 0.0536142,-0.0239291 0.116488,0.000133858 0.140417,0.053748l0.950413 2.11837z"/>
  </g>
  <path class="fil1" d="M3.52001 2.34666c0,-0.0589094 -0.0477598,-0.106669 -0.106669,-0.106669 -0.0589094,0 -0.106669,0.0477598 -0.106669,0.106669l0 1.38667c0,0.0589094 0.0477598,0.106669 0.106669,0.106669 0.0589094,0 0.106669,-0.0477598 0.106669,-0.106669l0 -1.38667z"/>
  <path class="fil1" d="M3.54317 2.34666c0,-0.0589094 -0.0581299,-0.106669 -0.129827,-0.106669 -0.0716969,0 -0.129827,0.0477598 -0.129827,0.106669l0 1.92c0,0.0589094 0.0581299,0.106669 0.129827,0.106669 0.0716969,0 0.129827,-0.0477598 0.129827,-0.106669l0 -1.92z"/>
  <path class="fil1" d="M3.48001 1.00687c0,-0.0695551 -0.0298465,-0.125945 -0.0666654,-0.125945 -0.0368189,0 -0.0666654,0.0563898 -0.0666654,0.125945l0 4.25032c0,0.0695512 0.0298465,0.125941 0.0666654,0.125941 0.0368189,0 0.0666654,-0.0563898 0.0666654,-0.125941l0 -4.25032z"/>
  <g id="_368393712">
   <path id="_368393928" class="fil1" d="M1.89855 5.8971c-0.012189,0.0273031 6.69291e-005,0.0593228 0.0273701,0.0715118 0.0273031,0.012185 0.0593228,-7.08661e-005 0.0715118,-0.027374l0.734252 -1.64408c0.012189,-0.0273031 -6.69291e-005,-0.0593228 -0.0273701,-0.0715118 -0.0273031,-0.012185 -0.0593228,7.08661e-005 -0.0715118,0.027374l-0.734252 1.64408z"/>
   <path id="_368393904" class="fil1" d="M2.36583 4.71333c-0.0239291,0.0536142 0.000133858,0.116488 0.053748,0.140417 0.0536142,0.0239291 0.116488,-0.000133858 0.140417,-0.053748l0.950413 -2.11837c0.0239291,-0.0536142 -0.000133858,-0.116488 -0.053748,-0.140417 -0.0536142,-0.0239291 -0.116488,0.000133858 -0.140417,0.053748l-0.950413 2.11837z"/>
  </g>
  <path class="fil1" d="M3.50179 2.43037c0.0589094,0 0.106669,-0.0477598 0.106669,-0.106669 0,-0.0589094 -0.0477598,-0.106669 -0.106669,-0.106669l-0.176902 0c-0.0589094,0 -0.106669,0.0477598 -0.106669,0.106669 0,0.0589094 0.0477598,0.106669 0.106669,0.106669l0.176902 0z"/>
  <path class="fil1" d="M3.3687 1.09569c0.0210551,-0.0204764 0.0215197,-0.0541535 0.00104331,-0.0752087 -0.0204764,-0.0210551 -0.0541535,-0.0215197 -0.0752087,-0.00104331l-0.690047 0.669244 -0.265055 0.00170866c-0.0293386,0.000114173 -0.0530315,0.0239961 -0.0529173,0.0533346 0.000114173,0.0293386 0.0239961,0.0530315 0.0533346,0.0529173l0.282122 -0.0018189c0.0147638,0.0011811 0.0299409,-0.00375197 0.0414055,-0.0148701l0.705323 -0.684264z"/>
  <rect class="fil2" x="3.19772" y="0.853331" width="0.428941" height="0.213331"/>
  <rect class="fil2" x="3.09435" y="0.853331" width="0.635691" height="0.106665"/>
  <circle class="fil2" cx="2.2957" cy="1.74433" r="0.0709331"/>
 </g>
 <rect class="fil3" width="6.82666" height="6.82666"/>
</svg>
