<?xml version="1.0" encoding="UTF-8"?>
<!DOCTYPE svg PUBLIC "-//W3C//DTD SVG 1.1//EN" "http://www.w3.org/Graphics/SVG/1.1/DTD/svg11.dtd">
<!-- Creator: CorelDRAW -->
<svg xmlns="http://www.w3.org/2000/svg" xml:space="preserve" width="6.82666in" height="6.82666in" style="shape-rendering:geometricPrecision; text-rendering:geometricPrecision; image-rendering:optimizeQuality; fill-rule:evenodd; clip-rule:evenodd"
viewBox="0 0 6.82666 6.82666"
 xmlns:xlink="http://www.w3.org/1999/xlink">
 <defs>
  <style type="text/css">
   <![CDATA[
    .fil3 {fill:none}
    .fil0 {fill:#424242}
    .fil2 {fill:#FFFFFE}
    .fil1 {fill:#FFFFFE;fill-rule:nonzero}
   ]]>
  </style>
 </defs>
 <rect class="fil0" width="6.82666" height="6.82666"/>
 <g id="Layer_x0020_1">
  <metadata id="CorelCorpID_0Corel-Layer"/>
  <g id="_368394960">
   <path id="_368395128" class="fil1" d="M4.49348 0.834752c0.285236,0 0.54476,0.0697126 0.729579,0.217567 0.172551,0.138039 0.277909,0.339406 0.277909,0.60976 0,0.289154 -0.125709,0.660472 -0.325012,0.939492 -0.177433,0.248409 -0.415362,0.428315 -0.682476,0.428315 -0.26711,0 -0.505039,-0.179906 -0.682476,-0.428315 -0.199299,-0.279024 -0.325008,-0.650339 -0.325008,-0.939492 0,-0.270354 0.105358,-0.47172 0.277909,-0.60976 0.184815,-0.147854 0.444343,-0.217567 0.729575,-0.217567zm0.597075 0.383402c-0.144465,-0.115571 -0.357417,-0.170063 -0.597075,-0.170063 -0.239654,0 -0.45261,0.0544921 -0.597071,0.170063 -0.122362,0.0978898 -0.197075,0.244165 -0.197075,0.443925 0,0.248976 0.110236,0.571488 0.285,0.816161 0.14015,0.196205 0.319386,0.338307 0.509146,0.338307 0.189764,0 0.369,-0.142102 0.509146,-0.338307 0.174772,-0.244673 0.285004,-0.567185 0.285004,-0.816161 0,-0.19976 -0.0747126,-0.346035 -0.197075,-0.443925z"/>
   <path id="_368395536" class="fil1" d="M4.49348 0.834752c0.285236,0 0.54476,0.0697126 0.729579,0.217567 0.365705,0.292559 0.28815,0.753591 0.16689,0.749382 -0.00283465,-9.84252e-005 -0.00564173,-0.000307087 -0.00841732,-0.000622047 -0.210772,-0.0066378 -0.431,-0.0714409 -0.618752,-0.172402 -0.193717,-0.104161 -0.356043,-0.248724 -0.442642,-0.410406 -0.0255984,-0.0477913 -0.0434567,-0.0944213 -0.0540197,-0.139335 -0.0114291,-0.0485827 -0.0146299,-0.0961614 -0.0101417,-0.142035l-0.000326772 -0.000393701c0.00522835,-0.0534094 0.0490039,-0.0937402 0.101079,-0.0961614 0.0179055,-0.00144094 0.0399724,-0.00271654 0.0661457,-0.00380709 0.0286102,-0.00118898 0.0521614,-0.0017874 0.0706063,-0.0017874z"/>
   <path id="_368395392" class="fil1" d="M3.48658 1.64663c0.0036378,-0.240079 0.0910591,-0.424752 0.234882,-0.558102 0.156949,-0.14552 0.378433,-0.225949 0.628217,-0.247642l0 -1.9685e-005c0.058689,-0.00509449 0.110398,0.0383543 0.115492,0.0970433 0.00026378,0.00303937 0.000389764,0.00605906 0.000397638,0.00905512 0.00311811,0.0428346 -0.000413386,0.0870551 -0.0110197,0.132094 -0.0105748,0.0448898 -0.0284252,0.0914803 -0.0539921,0.139209 -0.0669449,0.124984 -0.178551,0.23935 -0.314744,0.332661 -0.136732,0.093685 -0.299492,0.167421 -0.466839,0.209925l-0.026252 -0.103335 0.0262598 0.103386c-0.0570945,0.0145 -0.115146,-0.0200315 -0.129646,-0.077126 -0.00317323,-0.0124921 -0.00400394,-0.0250315 -0.00275591,-0.0371496z"/>
   <path id="_368395152" class="fil1" d="M3.32935 3.45139c-0.0065315,0.010378 -0.0560945,0.0944213 -0.095626,0.165551l0.00959449 0.0307047 0.480413 0c0.0977008,0 0.190787,0.0388268 0.259831,0.107866 0.0690472,0.0690433 0.10787,0.16213 0.10787,0.259831l0 0.117335c0.071685,0.0215236 0.123949,0.0880433 0.123949,0.166713l0 0.532126 1.62933 0 0 -3.93701e-006c0.00218504,-3.93701e-006 0.00438976,-6.29921e-005 0.00660236,-0.000200787 0.0587953,-0.00364567 0.103508,-0.0542717 0.0998622,-0.113067l-0.000232283 1.5748e-005c-0.0304331,-0.490441 -0.0856024,-0.929693 -0.28524,-1.25442 -0.207201,-0.337028 -0.558059,-0.542941 -1.17222,-0.542941 -0.297846,0 -0.534193,0.0491732 -0.722886,0.138693 -0.194134,0.0921024 -0.336224,0.225736 -0.441248,0.391795z"/>
   <g>
    <path id="_368394600" class="fil2" d="M2.02837 3.24649l0.928433 0c0.0316575,0 0.0582126,0.0218386 0.0654252,0.0512717l0.142673 0.456551 0.558831 0c0.0718543,0 0.13713,0.0293465 0.184406,0.076626 0.0472795,0.0472756 0.076626,0.112547 0.076626,0.184402l0 0.216685 0.0565866 0c0.0372047,0 0.0673661,0.0301614 0.0673661,0.0673622l0 1.17751c0,0.0372008 -0.0301614,0.0673622 -0.0673661,0.0673622l-0.0565866 0 0 0.186614c0,0.0718504 -0.0293465,0.137126 -0.076626,0.184406 -0.0472756,0.0472756 -0.112551,0.076626 -0.184406,0.076626l-2.46347 0c-0.0718504,0 -0.137126,-0.0293504 -0.184406,-0.076626 -0.0472756,-0.0472795 -0.076626,-0.112555 -0.076626,-0.184406l0 -0.186614 -0.0565827 0c-0.0372047,0 -0.0673661,-0.0301614 -0.0673661,-0.0673622l0 -1.17751c0,-0.0372008 0.0301614,-0.0673622 0.0673661,-0.0673622l0.0565827 0 0 -0.216685c0,-0.0718543 0.0293504,-0.137126 0.076626,-0.184402 0.0472795,-0.0472795 0.112555,-0.076626 0.184406,-0.076626l0.558835 0 0.14389 -0.460457 -9.05512e-005 -9.44882e-005c0.00912992,-0.0292205 0.0363386,-0.0477953 0.0654724,-0.0472717zm1.45319 0.717528c0.0194134,-0.0194094 0.0462362,-0.0314213 0.0758504,-0.0314213 0.029622,0 0.0564449,0.0120118 0.0758543,0.0314213 0.0194173,0.0194173 0.0314252,0.0462362 0.0314252,0.0758543 0,0.0296181 -0.0120118,0.0564409 -0.0314213,0.0758543 -0.0194173,0.0194094 -0.0462402,0.0314213 -0.0758583,0.0314213 -0.0296142,0 -0.056437,-0.0120118 -0.0758504,-0.0314213 -0.0194134,-0.0194134 -0.0314252,-0.0462362 -0.0314252,-0.0758543 0,-0.0296181 0.0120118,-0.056437 0.0314252,-0.0758543zm-1.795 0.87411c0,0.214469 0.0843543,0.418059 0.23598,0.569685 0.15163,0.15163 0.35522,0.235984 0.569689,0.235984 0.214469,0 0.418059,-0.0843543 0.569685,-0.235984 0.15163,-0.151626 0.23598,-0.355217 0.23598,-0.569685 0,-0.214469 -0.0843504,-0.418059 -0.23598,-0.569685 -0.151626,-0.15163 -0.355217,-0.235984 -0.569685,-0.235984 -0.214469,0 -0.418059,0.0843543 -0.569689,0.235984 -0.151626,0.151626 -0.23598,0.355217 -0.23598,0.569685zm0.491106 -1.30483l0.629126 0c0.0186024,0 0.0191929,0.0150827 0.0191929,0.033685 0,0.0185984 -0.000590551,0.0336811 -0.0191929,0.0336811l-0.629126 0c-0.0186024,0 -0.0191929,-0.0150827 -0.0191929,-0.0336811 0,-0.0186024 0.000590551,-0.033685 0.0191929,-0.033685zm0.662957 0.033685c0,-0.0465827 -0.0190354,-0.0889055 -0.0496929,-0.119563 -0.0306535,-0.0306614 -0.0729803,-0.0496929 -0.119559,-0.0496929l-0.358283 0c-0.0465787,0 -0.0889055,0.0190315 -0.119559,0.0496929 -0.0306614,0.0306575 -0.0496929,0.0729803 -0.0496929,0.119555 0,0.0465827 0.0190315,0.0889094 0.049689,0.119567 0.0306614,0.0306575 0.0729843,0.049689 0.119563,0.049689l0.358283 0c0.0465787,0 0.0889016,-0.0190315 0.119563,-0.049689 0.0306535,-0.0306575 0.049689,-0.0729843 0.049689,-0.119559zm0 0l0 0z"/>
    <path id="_368394576" class="fil1" d="M2.49222 4.10135c0.203449,0 0.387646,0.0824685 0.52098,0.215803 0.133335,0.133331 0.215803,0.317528 0.215803,0.52098 0,0.203453 -0.0824685,0.387646 -0.215803,0.52098 -0.133335,0.133335 -0.317531,0.215803 -0.52098,0.215803 -0.203453,0 -0.38765,-0.0824685 -0.52098,-0.215803 -0.133335,-0.133335 -0.215803,-0.317528 -0.215803,-0.52098 0,-0.203453 0.0824685,-0.38765 0.215803,-0.52098 0.133331,-0.133335 0.317528,-0.215803 0.52098,-0.215803zm0.440591 0.296193c-0.112752,-0.112752 -0.268524,-0.182492 -0.440591,-0.182492 -0.172067,0 -0.327839,0.0697402 -0.440591,0.182492 -0.112752,0.112752 -0.182492,0.268524 -0.182492,0.440591 0,0.172067 0.0697402,0.327839 0.182492,0.440591 0.112752,0.112752 0.268524,0.182492 0.440591,0.182492 0.172067,0 0.327839,-0.0697402 0.440591,-0.182492 0.112752,-0.112752 0.182488,-0.268524 0.182488,-0.440591 0,-0.172067 -0.0697362,-0.327839 -0.182488,-0.440591z"/>
    <path id="_368394528" class="fil1" d="M2.49222 4.33898c0.137831,0 0.262622,0.0558701 0.352949,0.146201 0.0903307,0.0903307 0.146201,0.215118 0.146201,0.352949 0,0.137831 -0.0558701,0.262622 -0.146201,0.352949 -0.0903268,0.0903307 -0.215118,0.146201 -0.352949,0.146201 -0.137835,0 -0.262622,-0.0558701 -0.352949,-0.146201 -0.0903307,-0.0903268 -0.146201,-0.215118 -0.146201,-0.352949 0,-0.137831 0.0558701,-0.262618 0.146201,-0.352949 0.0903268,-0.0903307 0.215114,-0.146201 0.352949,-0.146201zm0.312752 0.186398c-0.0800354,-0.0800394 -0.190614,-0.129543 -0.312752,-0.129543 -0.122138,0 -0.23272,0.0495039 -0.312756,0.129543 -0.0800354,0.0800354 -0.129543,0.19061 -0.129543,0.312752 0,0.122138 0.0495079,0.232717 0.129543,0.312756 0.0800354,0.0800354 0.190618,0.129543 0.312756,0.129543 0.122138,0 0.232717,-0.0495079 0.312752,-0.129543 0.0800394,-0.0800394 0.129547,-0.190618 0.129547,-0.312756 0,-0.122142 -0.0495079,-0.232717 -0.129547,-0.312752z"/>
    <path id="_368394264" class="fil1" d="M1.68656 3.87096l-0.371846 0c-0.0372008,0 -0.0673622,-0.0206693 -0.0673622,-0.0461654l0 -0.169882c0,-0.0254961 0.0301614,-0.0461654 0.0673622,-0.0461654l0.371846 0c0.0372008,0 0.0673622,0.0206693 0.0673622,0.0461654l0 0.169882c0,0.0254961 -0.0301614,0.0461654 -0.0673622,0.0461654z"/>
   </g>
  </g>
 </g>
 <rect class="fil3" width="6.82666" height="6.82666"/>
</svg>
