<?xml version="1.0" encoding="UTF-8"?>
<!DOCTYPE svg PUBLIC "-//W3C//DTD SVG 1.1//EN" "http://www.w3.org/Graphics/SVG/1.1/DTD/svg11.dtd">
<!-- Creator: CorelDRAW -->
<svg xmlns="http://www.w3.org/2000/svg" xml:space="preserve" width="6.82666in" height="6.82666in" style="shape-rendering:geometricPrecision; text-rendering:geometricPrecision; image-rendering:optimizeQuality; fill-rule:evenodd; clip-rule:evenodd"
viewBox="0 0 6.82666 6.82666"
 xmlns:xlink="http://www.w3.org/1999/xlink">
 <defs>
  <style type="text/css">
   <![CDATA[
    .fil3 {fill:none}
    .fil0 {fill:#424242}
    .fil1 {fill:#FFFFFE}
    .fil2 {fill:#FFFFFE;fill-rule:nonzero}
   ]]>
  </style>
 </defs>
 <rect class="fil0" width="6.82666" height="6.82666"/>
 <g id="Layer_x0020_1">
  <metadata id="CorelCorpID_0Corel-Layer"/>
  <g id="_368395944">
   <path id="_368396232" class="fil1" d="M1.46293 2.32326l0.963114 0c0.0273543,0 0.0522953,0.0103031 0.0711772,0.0272323l0.225591 0.168941 1.39975 0 0.210862 -0.171917 -0.000212598 -0.000259843c0.019815,-0.0161575 0.0436811,-0.0240079 0.0674016,-0.0239961l0.00057874 0 0.962535 0c0.113776,0 0.217138,0.0464724 0.292,0.121335 0.0748622,0.0748583 0.121335,0.178217 0.121335,0.291996l0 0.343106 0.0896024 0c0.0589094,0 0.106669,0.0477598 0.106669,0.106669l0 1.86454c0,0.0589094 -0.0477598,0.106669 -0.106669,0.106669l-0.0896024 0 0 0.295492c0,0.113776 -0.0464724,0.217138 -0.121335,0.292 -0.0748622,0.0748622 -0.178224,0.121335 -0.292,0.121335l-3.9008 0c-0.113776,0 -0.217138,-0.0464724 -0.292,-0.121335 -0.0748622,-0.0748622 -0.121335,-0.178224 -0.121335,-0.292l0 -0.295492 -0.0895984 0c-0.0589094,0 -0.106669,-0.0477598 -0.106669,-0.106669l0 -1.86454c0,-0.0589094 0.0477598,-0.106669 0.106669,-0.106669l0.0895984 0 0 -0.343106c0,-0.11378 0.0464724,-0.217138 0.121335,-0.291996 0.0748622,-0.0748622 0.178224,-0.121335 0.292,-0.121335zm3.63706 0.282307c0.0469016,0 0.089374,0.0190197 0.12011,0.0497559 0.0307441,0.0307441 0.0497598,0.0732087 0.0497598,0.12011 0,0.0469016 -0.0190197,0.089374 -0.0497559,0.12011 -0.0307441,0.0307441 -0.0732126,0.0497598 -0.120114,0.0497598 -0.0469016,0 -0.0893661,-0.0190157 -0.12011,-0.0497598 -0.0307362,-0.0307362 -0.0497559,-0.0732087 -0.0497559,-0.12011 0,-0.0469016 0.0190197,-0.0893661 0.0497559,-0.12011 0.0307441,-0.0307362 0.0732165,-0.0497559 0.12011,-0.0497559zm0.0446929 0.125173c-0.0114291,-0.0114291 -0.0272362,-0.0185039 -0.0446929,-0.0185039 -0.0174567,0 -0.0332638,0.0070748 -0.0446929,0.0185039 -0.0114291,0.0114291 -0.0185039,0.0272362 -0.0185039,0.0446929 0,0.0174567 0.0070748,0.0332638 0.0185039,0.0446929 0.0114331,0.0114331 0.0272362,0.0185079 0.0446929,0.0185079 0.0174567,0 0.0332638,-0.0070748 0.0446969,-0.0185079 0.0114291,-0.0114291 0.0185039,-0.0272362 0.0185039,-0.0446929 0,-0.0174567 -0.0070748,-0.0332598 -0.0185079,-0.0446929zm-1.73136 0.322028c0.327087,0 0.623228,0.132594 0.837587,0.346953 0.214358,0.214358 0.346953,0.5105 0.346953,0.837587 0,0.327087 -0.132594,0.623224 -0.346953,0.837583 -0.214358,0.214358 -0.5105,0.346953 -0.837587,0.346953 -0.327087,0 -0.623224,-0.132594 -0.837583,-0.346953 -0.214358,-0.214358 -0.346953,-0.510496 -0.346953,-0.837583 0,-0.327087 0.132594,-0.623228 0.346953,-0.837587 0.214358,-0.214358 0.510496,-0.346953 0.837583,-0.346953zm0.686752 0.497787c-0.17574,-0.17574 -0.418551,-0.284449 -0.686752,-0.284449 -0.268201,0 -0.511008,0.108709 -0.686748,0.284449 -0.17574,0.17574 -0.284449,0.418551 -0.284449,0.686752 0,0.268201 0.108709,0.511008 0.284449,0.686748 0.17574,0.17574 0.418547,0.284449 0.686748,0.284449 0.268201,0 0.511012,-0.108709 0.686752,-0.284449 0.17574,-0.17574 0.284449,-0.418547 0.284449,-0.686748 0,-0.268201 -0.108709,-0.511012 -0.284449,-0.686752zm-0.686752 -0.112803c0.220783,0 0.420677,0.0895 0.565366,0.234189 0.144689,0.144689 0.234189,0.344583 0.234189,0.565366 0,0.220783 -0.0895,0.420677 -0.234189,0.565362 -0.144689,0.144689 -0.344583,0.234189 -0.565366,0.234189 -0.220783,0 -0.420673,-0.0895 -0.565362,-0.234189 -0.144689,-0.144685 -0.234189,-0.344579 -0.234189,-0.565362 0,-0.220783 0.0895,-0.420677 0.234189,-0.565366 0.144689,-0.144689 0.344579,-0.234189 0.565362,-0.234189zm0.489949 0.309606c-0.125382,-0.125382 -0.29861,-0.202937 -0.489949,-0.202937 -0.191339,0 -0.364563,0.0775551 -0.489945,0.202937 -0.125382,0.125382 -0.202937,0.29861 -0.202937,0.489949 0,0.191339 0.0775551,0.364567 0.202937,0.489945 0.125382,0.125382 0.298606,0.202937 0.489945,0.202937 0.191339,0 0.364567,-0.0775551 0.489949,-0.202937 0.125382,-0.125378 0.202937,-0.298606 0.202937,-0.489945 0,-0.191339 -0.0775551,-0.364567 -0.202937,-0.489949z"/>
   <path id="_368396352" class="fil2" d="M2.1376 2.50797l-0.588799 0c-0.0589094,0 -0.106669,-0.0477598 -0.106669,-0.106669l0 -0.392535c0,-0.0589094 0.0477598,-0.106669 0.106669,-0.106669l0.588799 0c0.0589094,0 0.106669,0.0477598 0.106669,0.106669l0 0.392535c0,0.0589094 -0.0477598,0.106669 -0.106669,0.106669z"/>
   <path id="_368396112" class="fil2" d="M3.9872 2.73433l-1.14681 0c-0.0541457,0.00053937 -0.100929,-0.040063 -0.106965,-0.0950276l0.106031 -0.0116417 -0.105835 0.011252 -0.105819 -0.963602c-0.00110236,-0.00615354 -0.0016811,-0.0124961 -0.0016811,-0.0189685 0,-0.0589094 0.0477598,-0.106669 0.106669,-0.106669l1.36091 0c0.00390157,0 0.00783465,0.000200787 0.0117992,0.000637795 0.0585591,0.00642913 0.100819,0.0591142 0.0943898,0.117673l-0.00023622 -2.75591e-005 -0.105898 0.964311c-0.00241339,0.0567717 -0.0491969,0.102063 -0.106563,0.102063z"/>
   <path id="_368396064" class="fil2" d="M2.83591 1.54968l1.1544 0 0 -0.188039c0,-0.0515984 -0.021189,-0.0985906 -0.055315,-0.13272 -0.0341299,-0.034126 -0.081122,-0.055315 -0.13272,-0.055315l-0.778331 0c-0.0515984,0 -0.0985906,0.021189 -0.13272,0.055315 -0.034126,0.0341299 -0.055315,0.081122 -0.055315,0.13272l0 0.188039zm1.26107 0.213339l-1.36774 0c-0.0589094,0 -0.106669,-0.0477598 -0.106669,-0.106669l0 -0.294709c0,-0.110488 0.045126,-0.210854 0.117819,-0.283555 0.0727008,-0.0726929 0.173067,-0.117819 0.283555,-0.117819l0.778331 0c0.110488,0 0.210854,0.045126 0.283555,0.117819 0.0726929,0.0727008 0.117819,0.173067 0.117819,0.283555l0 0.294709c0,0.0589094 -0.0477598,0.106669 -0.106669,0.106669z"/>
   <path id="_368396040" class="fil2" d="M3.73333 1.41093c0.0294528,0 0.0533346,-0.0238819 0.0533346,-0.0533346 0,-0.0294528 -0.0238819,-0.0533346 -0.0533346,-0.0533346l-0.682933 0c-0.0294528,0 -0.0533346,0.0238819 -0.0533346,0.0533346 0,0.0294528 0.0238819,0.0533346 0.0533346,0.0533346l0.682933 0z"/>
  </g>
 </g>
 <rect class="fil3" width="6.82666" height="6.82666"/>
</svg>
