<?xml version="1.0" encoding="UTF-8"?>
<!DOCTYPE svg PUBLIC "-//W3C//DTD SVG 1.1//EN" "http://www.w3.org/Graphics/SVG/1.1/DTD/svg11.dtd">
<!-- Creator: CorelDRAW -->
<svg xmlns="http://www.w3.org/2000/svg" xml:space="preserve" width="6.82666in" height="6.82666in" style="shape-rendering:geometricPrecision; text-rendering:geometricPrecision; image-rendering:optimizeQuality; fill-rule:evenodd; clip-rule:evenodd"
viewBox="0 0 6.82666 6.82666"
 xmlns:xlink="http://www.w3.org/1999/xlink">
 <defs>
  <style type="text/css">
   <![CDATA[
    .fil3 {fill:none}
    .fil0 {fill:#424242}
    .fil2 {fill:#FFFFFE}
    .fil1 {fill:#FFFFFE;fill-rule:nonzero}
   ]]>
  </style>
 </defs>
 <rect class="fil0" width="6.82666" height="6.82666"/>
 <g id="Layer_x0020_1">
  <metadata id="CorelCorpID_0Corel-Layer"/>
  <g id="_368398104">
   <path id="_368398056" class="fil1" d="M4.66371 5.90389c0.0111024,0.0248701 -6.29921e-005,0.0540394 -0.0249331,0.0651378 -0.0248701,0.0111024 -0.0540394,-5.90551e-005 -0.0651378,-0.0249331l-0.66885 -1.49763c-0.0110984,-0.024874 6.29921e-005,-0.0540394 0.0249331,-0.0651417 0.024874,-0.0110984 0.0540394,6.29921e-005 0.0651417,0.0249331l0.668846 1.49763z"/>
   <path id="_368398440" class="fil1" d="M4.23806 4.82557c0.0217953,0.0488386 -0.000122047,0.10611 -0.0489606,0.127909 -0.0488386,0.0217953 -0.106114,-0.000122047 -0.127909,-0.0489606l-0.865752 -1.92967c-0.0217992,-0.0488386 0.000122047,-0.10611 0.0489606,-0.127909 0.0488346,-0.0217953 0.10611,0.000122047 0.127906,0.0489606l0.865756 1.92967z"/>
  </g>
  <path class="fil1" d="M3.36799 2.66972c0,-0.0536614 -0.0435039,-0.0971654 -0.0971654,-0.0971654 -0.0536614,0 -0.0971693,0.0435039 -0.0971693,0.0971654l0 1.26315c0,0.0536614 0.0435079,0.0971654 0.0971693,0.0971654 0.0536614,0 0.0971654,-0.0435039 0.0971654,-0.0971654l0 -1.26315z"/>
  <path class="fil1" d="M3.38909 2.66972c0,-0.0536614 -0.0529528,-0.0971654 -0.118264,-0.0971654 -0.065311,0 -0.118264,0.0435039 -0.118264,0.0971654l0 1.74897c0,0.0536614 0.0529528,0.0971654 0.118264,0.0971654 0.065311,0 0.118264,-0.0435039 0.118264,-0.0971654l0 -1.74897z"/>
  <path class="fil1" d="M3.33156 2.16511c0,-0.0633583 -0.027189,-0.114724 -0.0607283,-0.114724 -0.0335394,0 -0.0607283,0.0513661 -0.0607283,0.114724l0 3.15588c0,0.0633583 0.027189,0.114724 0.0607283,0.114724 0.0335394,0 0.0607283,-0.0513661 0.0607283,-0.114724l0 -3.15588z"/>
  <g id="_368397720">
   <path id="_368397816" class="fil1" d="M1.89097 5.90389c-0.0110984,0.0248701 6.29921e-005,0.0540394 0.0249331,0.0651378 0.024874,0.0111024 0.0540394,-5.90551e-005 0.0651417,-0.0249331l0.668846 -1.49763c0.0111024,-0.024874 -6.29921e-005,-0.0540394 -0.0249331,-0.0651417 -0.0248701,-0.0110984 -0.0540394,6.29921e-005 -0.0651378,0.0249331l-0.66885 1.49763z"/>
   <path id="_368397480" class="fil1" d="M2.31663 4.82557c-0.0217992,0.0488386 0.000122047,0.10611 0.0489606,0.127909 0.0488346,0.0217953 0.10611,-0.000122047 0.127906,-0.0489606l0.865756 -1.92967c0.0217953,-0.0488386 -0.000122047,-0.10611 -0.0489606,-0.127909 -0.0488386,-0.0217953 -0.106114,0.000122047 -0.127909,0.0489606l-0.865752 1.92967z"/>
  </g>
  <path class="fil1" d="M3.3514 2.74597c0.0536614,0 0.0971654,-0.0435039 0.0971654,-0.0971654 0,-0.0536614 -0.0435039,-0.0971693 -0.0971654,-0.0971693l-0.161146 0c-0.0536614,0 -0.0971654,0.0435079 -0.0971654,0.0971693 0,0.0536614 0.0435039,0.0971654 0.0971654,0.0971654l0.161146 0z"/>
  <path class="fil1" d="M3.23017 2.25696c0.0191811,-0.0186535 0.0196024,-0.0493307 0.000948819,-0.0685118 -0.0186496,-0.0191772 -0.0493268,-0.0196024 -0.0685079,-0.000948819l-0.628579 0.60963 -0.241445 0.00155512c-0.0267244,0.000106299 -0.0483071,0.0218583 -0.0482047,0.0485866 0.000106299,0.0267244 0.0218583,0.0483071 0.0485827,0.0482008l0.256992 -0.00165748c0.0134488,0.00107874 0.0272756,-0.00341732 0.0377165,-0.0135433l0.642496 -0.623311z"/>
  <rect class="fil2" x="3.07442" y="2.0362" width="0.390732" height="0.194328"/>
  <rect class="fil2" x="2.98025" y="2.0362" width="0.579065" height="0.0971638"/>
  <circle class="fil2" cx="2.25274" cy="2.84783" r="0.0646145"/>
  <g id="_368397144">
   <path id="_368396640" class="fil2" d="M2.79954 1.18195l0.232205 0c0.00659449,0 0.0126102,0.00248425 0.0171614,0.00656693l0.0543898 0.0407283 0.33748 0 0.0508386 -0.0414488 -5.11811e-005 -6.29921e-005c0.00477559,-0.0038937 0.0105315,-0.0057874 0.016248,-0.00578346l0.000141732 0 0.232067 0c0.0274291,0 0.0523504,0.0112047 0.0704016,0.029252 0.0180472,0.0180512 0.029252,0.0429685 0.029252,0.0704016l0 0.0827244 0.0216063 0c0.0142008,0 0.0257165,0.0115118 0.0257165,0.0257165l0 0.449539c0,0.0142047 -0.0115157,0.0257165 -0.0257165,0.0257165l-0.0216063 0 0 0.0712441c0,0.0274331 -0.0112047,0.0523543 -0.029252,0.0704016 -0.0180512,0.0180512 -0.0429724,0.0292559 -0.0704016,0.0292559l-0.94048 0c-0.0274331,0 -0.0523543,-0.0112047 -0.0704016,-0.0292559 -0.0180512,-0.0180472 -0.0292559,-0.0429685 -0.0292559,-0.0704016l0 -0.0712441 -0.0216024 0c-0.0142008,0 -0.0257165,-0.0115118 -0.0257165,-0.0257165l0 -0.449539c0,-0.0142047 0.0115157,-0.0257165 0.0257165,-0.0257165l0.0216024 0 0 -0.0827244c0,-0.0274331 0.0112047,-0.0523504 0.0292559,-0.0704016 0.0180472,-0.0180472 0.0429685,-0.029252 0.0704016,-0.029252zm0.876894 0.068063c0.0113071,0 0.0215472,0.00458661 0.0289606,0.0119961 0.00740945,0.00741339 0.0119961,0.0176496 0.0119961,0.0289606 0,0.0113071 -0.00458661,0.0215472 -0.0119961,0.0289567 -0.00741339,0.00741339 -0.0176535,0.0119961 -0.0289606,0.0119961 -0.0113071,0 -0.0215472,-0.00458268 -0.0289567,-0.0119961 -0.00741339,-0.00740945 -0.0119961,-0.0176496 -0.0119961,-0.0289567 0,-0.011311 0.00458268,-0.0215472 0.0119961,-0.0289606 0.00740945,-0.00740945 0.0176496,-0.0119961 0.0289567,-0.0119961zm0.0107756 0.0301811c-0.00275591,-0.00275591 -0.00656693,-0.00446457 -0.0107756,-0.00446457 -0.00420866,0 -0.00801969,0.00170866 -0.0107756,0.00446457 -0.00275591,0.00275591 -0.00446063,0.00656693 -0.00446063,0.0107756 0,0.00420866 0.00170472,0.00801969 0.00446063,0.0107756 0.00275591,0.00275591 0.00656693,0.00446063 0.0107756,0.00446063 0.00420866,0 0.00801969,-0.00170472 0.0107756,-0.00446063 0.00275591,-0.00275591 0.00446457,-0.00656693 0.00446457,-0.0107756 0,-0.00420866 -0.00170866,-0.00801969 -0.00446457,-0.0107756zm-0.417433 0.0776378c0.0788622,0 0.150264,0.0319685 0.201945,0.0836535 0.0516811,0.0516811 0.0836496,0.123079 0.0836496,0.201941 0,0.0788622 -0.0319685,0.15026 -0.0836496,0.201941 -0.0516811,0.0516811 -0.123083,0.0836496 -0.201945,0.0836496 -0.0788583,0 -0.150256,-0.0319685 -0.201941,-0.0836496 -0.0516811,-0.0516811 -0.0836496,-0.123079 -0.0836496,-0.201941 0,-0.0788622 0.0319685,-0.15026 0.0836496,-0.201941 0.051685,-0.051685 0.123083,-0.0836535 0.201941,-0.0836535zm0.165579 0.12002c-0.0423701,-0.042374 -0.100913,-0.0685827 -0.165579,-0.0685827 -0.0646614,0 -0.123201,0.0262087 -0.165575,0.0685827 -0.0423701,0.0423701 -0.0685787,0.100909 -0.0685787,0.165575 0,0.0646614 0.0262087,0.123205 0.0685787,0.165575 0.042374,0.0423701 0.100913,0.0685787 0.165575,0.0685787 0.0646654,0 0.123209,-0.0262087 0.165579,-0.0685787 0.0423701,-0.0423701 0.0685787,-0.100913 0.0685787,-0.165575 0,-0.0646654 -0.0262087,-0.123205 -0.0685787,-0.165575zm-0.165579 -0.0271969c0.0532323,0 0.101429,0.0215787 0.136311,0.0564606 0.0348858,0.0348858 0.0564646,0.0830787 0.0564646,0.136311 0,0.0532323 -0.0215787,0.101425 -0.0564646,0.136307 -0.0348819,0.0348858 -0.0830787,0.0564646 -0.136311,0.0564646 -0.0532283,0 -0.101421,-0.0215787 -0.136307,-0.0564646 -0.0348858,-0.0348819 -0.0564646,-0.0830748 -0.0564646,-0.136307 0,-0.0532323 0.0215787,-0.101425 0.0564646,-0.136311 0.0348858,-0.0348819 0.0830787,-0.0564606 0.136307,-0.0564606zm0.11813 0.0746457c-0.0302323,-0.0302323 -0.0719961,-0.0489291 -0.11813,-0.0489291 -0.0461299,0 -0.0878937,0.0186969 -0.118122,0.0489291 -0.0302323,0.0302283 -0.0489291,0.0719921 -0.0489291,0.118126 0,0.0461299 0.0186969,0.0878976 0.0489291,0.118126 0.0302283,0.0302283 0.0719921,0.0489291 0.118122,0.0489291 0.0461339,0 0.0878976,-0.0187008 0.11813,-0.0489291 0.0302283,-0.0302283 0.0489252,-0.0719961 0.0489252,-0.118126 0,-0.0461339 -0.0186969,-0.0878976 -0.0489252,-0.118126z"/>
   <path id="_368396952" class="fil1" d="M2.9622 1.22648l-0.141961 0c-0.0142047,0 -0.0257165,-0.0115157 -0.0257165,-0.0257205l0 -0.0946417c0,-0.0142008 0.0115118,-0.0257165 0.0257165,-0.0257165l0.141961 0c0.0142008,0 0.0257165,0.0115157 0.0257165,0.0257165l0 0.0946417c0,0.0142047 -0.0115157,0.0257205 -0.0257165,0.0257205z"/>
   <path id="_368396880" class="fil1" d="M3.40814 1.28106l-0.276496 0c-0.0130512,0.000129921 -0.0243307,-0.00966142 -0.0257874,-0.0229134l0.025563 -0.00280709 -0.0255157 0.0027126 -0.0255118 -0.232323c-0.000267717,-0.00148425 -0.000405512,-0.00301181 -0.000405512,-0.0045748 0,-0.0142008 0.0115157,-0.0257165 0.0257165,-0.0257165l0.328118 0c0.000940945,0 0.00188583,4.72441e-005 0.00284252,0.000153543 0.0141181,0.00155118 0.0243071,0.014252 0.0227598,0.0283701l-5.90551e-005 -7.87402e-006 -0.0255315 0.232496c-0.000582677,0.013689 -0.0118622,0.0246102 -0.0256929,0.0246102z"/>
   <path id="_368396784" class="fil1" d="M3.13056 0.995437l0.278327 0 0 -0.0453346c0,-0.0124409 -0.00511024,-0.0237717 -0.0133386,-0.032 -0.00822835,-0.00822835 -0.0195551,-0.0133386 -0.0319961,-0.0133386l-0.187657 0c-0.0124409,0 -0.0237677,0.00511024 -0.032,0.0133386 -0.00822441,0.00822835 -0.0133346,0.0195591 -0.0133346,0.032l0 0.0453346zm0.304043 0.051437l-0.32976 0c-0.0142047,0 -0.0257205,-0.0115157 -0.0257205,-0.0257205l0 -0.0710512c0,-0.0266417 0.0108819,-0.0508386 0.0284055,-0.0683661 0.0175315,-0.0175276 0.0417283,-0.0284055 0.0683661,-0.0284055l0.187657 0c0.0266378,0 0.0508346,0.010878 0.0683622,0.0284055 0.0175276,0.0175276 0.0284094,0.0417244 0.0284094,0.0683661l0 0.0710512c0,0.0142047 -0.0115157,0.0257205 -0.0257205,0.0257205z"/>
   <path id="_368396544" class="fil1" d="M3.34693 0.961984c0.00709843,0 0.0128583,-0.00575591 0.0128583,-0.0128583 0,-0.00710236 -0.00575984,-0.0128583 -0.0128583,-0.0128583l-0.164657 0c-0.00710236,0 -0.0128583,0.00575591 -0.0128583,0.0128583 0,0.00710236 0.00575591,0.0128583 0.0128583,0.0128583l0.164657 0z"/>
  </g>
 </g>
 <rect class="fil3" width="6.82666" height="6.82666"/>
</svg>
