<?xml version="1.0" encoding="UTF-8"?>
<!DOCTYPE svg PUBLIC "-//W3C//DTD SVG 1.1//EN" "http://www.w3.org/Graphics/SVG/1.1/DTD/svg11.dtd">
<!-- Creator: CorelDRAW -->
<svg xmlns="http://www.w3.org/2000/svg" xml:space="preserve" width="6.82666in" height="6.82666in" style="shape-rendering:geometricPrecision; text-rendering:geometricPrecision; image-rendering:optimizeQuality; fill-rule:evenodd; clip-rule:evenodd"
viewBox="0 0 6.82666 6.82666"
 xmlns:xlink="http://www.w3.org/1999/xlink">
 <defs>
  <style type="text/css">
   <![CDATA[
    .fil3 {fill:none}
    .fil0 {fill:#424242}
    .fil2 {fill:#FFFFFE}
    .fil1 {fill:#FFFFFE;fill-rule:nonzero}
   ]]>
  </style>
 </defs>
 <rect class="fil0" width="6.82666" height="6.82666"/>
 <g id="Layer_x0020_1">
  <metadata id="CorelCorpID_0Corel-Layer"/>
  <g id="_368390688">
   <path id="_368390856" class="fil1" d="M3.10956 2.7981l0.684622 0.57052 -0.0365433 0.0439409 0.0367402 -0.0440906c0.0243504,0.0202913 0.0276417,0.0564843 0.00735433,0.0808307 -0.0034685,0.00416142 -0.0073937,0.00770472 -0.0116535,0.010622l-0.684559 0.570472 0.000153543 0.000185039c-0.0243504,0.0202874 -0.0605433,0.0169961 -0.0808307,-0.00735039 -0.00894882,-0.0107362 -0.0133031,-0.0237756 -0.0132992,-0.0367402l-3.93701e-006 0 0 -1.14785c0,-0.0316969 0.0256969,-0.0573937 0.0573937,-0.0573937 0.0158701,0 0.0302362,0.00644094 0.040626,0.0168583z"/>
   <path id="_368390424" class="fil2" d="M2.02735 4.33085l0 -1.83657c0,-0.0810039 0.0330591,-0.154575 0.086311,-0.207827 0.0532559,-0.0532559 0.126823,-0.086315 0.207827,-0.086315l2.18359 0c0.0810079,0 0.154571,0.0330591 0.207827,0.086315 0.0532559,0.053252 0.086315,0.126823 0.086315,0.207827l0 1.83657c0,0.0810079 -0.0330591,0.154575 -0.086315,0.207831 -0.0532559,0.0532559 -0.126819,0.086315 -0.207827,0.086315l-2.18359 0c-0.0810039,0 -0.154571,-0.0330591 -0.207827,-0.086315 -0.053252,-0.0532559 -0.086311,-0.126823 -0.086311,-0.207831zm3.3063 0l0 -1.83657c0,-0.145094 0.113846,-0.294142 0.267563,-0.294142l0.372736 0 0 -0.554472 -5.12 0 0 0.554472 0.371402 0c0.0770827,0 0.145992,0.0356339 0.19489,0.0930433l0.000393701 -7.87402e-006c0.0465394,0.0546457 0.0722835,0.129709 0.0722835,0.201106l0 1.83657c0,0.077185 -0.0278425,0.148461 -0.0726811,0.201102 -0.0489016,0.0574055 -0.117799,0.0930433 -0.194886,0.0930433l-0.371402 0 0 0.57626 5.12 0 0 -0.57626 -0.372736 0c-0.0770827,0 -0.145984,-0.0356378 -0.194886,-0.0930433 -0.0448386,-0.0526417 -0.0726772,-0.123917 -0.0726772,-0.201102zm-0.331441 -2.30273c-0.0633937,0 -0.114787,-0.0513937 -0.114787,-0.114787 0,-0.0633937 0.0513937,-0.114791 0.114787,-0.114791l0.195567 0c0.0633898,0 0.114787,0.0513976 0.114787,0.114791 0,0.0633937 -0.0513976,0.114787 -0.114787,0.114787l-0.195567 0zm0.447453 -0.114787c0,-0.0633937 0.0513937,-0.114791 0.114787,-0.114791l0.195559 0c0.0633937,0 0.114787,0.0513976 0.114787,0.114791 0,0.0633937 -0.0513937,0.114787 -0.114787,0.114787l-0.195559 0c-0.0633937,0 -0.114787,-0.0513937 -0.114787,-0.114787zm-1.57192 0.114787c-0.0633937,0 -0.114787,-0.0513937 -0.114787,-0.114787 0,-0.0633937 0.0513937,-0.114791 0.114787,-0.114791l0.195559 0c0.0633937,0 0.114791,0.0513976 0.114791,0.114791 0,0.0633937 -0.0513976,0.114787 -0.114791,0.114787l-0.195559 0zm0.447441 -0.114787c0,-0.0633937 0.0513976,-0.114791 0.114791,-0.114791l0.195563 0c0.0633937,0 0.114787,0.0513976 0.114787,0.114791 0,0.0633937 -0.0513937,0.114787 -0.114787,0.114787l-0.195563 0c-0.0633937,0 -0.114791,-0.0513937 -0.114791,-0.114787zm-1.26157 0c0,0.0633937 -0.0513937,0.114787 -0.114787,0.114787l-0.195563 0c-0.0633937,0 -0.114787,-0.0513937 -0.114787,-0.114787 0,-0.0633937 0.0513937,-0.114791 0.114787,-0.114791l0.195563 0c0.0633937,0 0.114787,0.0513976 0.114787,0.114791zm0.137098 0c0,-0.0633937 0.0513976,-0.114791 0.114787,-0.114791l0.195563 0c0.0633937,0 0.114787,0.0513976 0.114787,0.114791 0,0.0633937 -0.0513937,0.114787 -0.114787,0.114787l-0.195563 0c-0.0633898,0 -0.114787,-0.0513937 -0.114787,-0.114787zm-1.00969 0.114787c-0.0633937,0 -0.114787,-0.0513937 -0.114787,-0.114787 0,-0.0633937 0.0513937,-0.114791 0.114787,-0.114791l0.195567 0c0.0633898,0 0.114787,0.0513976 0.114787,0.114791 0,0.0633937 -0.0513976,0.114787 -0.114787,0.114787l-0.195567 0zm-0.562232 0c-0.0633937,0 -0.114787,-0.0513937 -0.114787,-0.114787 0,-0.0633937 0.0513937,-0.114791 0.114787,-0.114791l0.195559 0c0.0633937,0 0.114787,0.0513976 0.114787,0.114791 0,0.0633937 -0.0513937,0.114787 -0.114787,0.114787l-0.195559 0zm3.82087 2.87666c0,-0.0633937 0.0513937,-0.114787 0.114787,-0.114787l0.195559 0c0.0633937,0 0.114787,0.0513937 0.114787,0.114787 0,0.0633937 -0.0513937,0.114787 -0.114787,0.114787l-0.195559 0c-0.0633937,0 -0.114787,-0.0513937 -0.114787,-0.114787zm-0.56224 0c0,-0.0633937 0.0513937,-0.114787 0.114787,-0.114787l0.195567 0c0.0633898,0 0.114787,0.0513937 0.114787,0.114787 0,0.0633937 -0.0513976,0.114787 -0.114787,0.114787l-0.195567 0c-0.0633937,0 -0.114787,-0.0513937 -0.114787,-0.114787zm-0.56224 0c0,-0.0633937 0.0513976,-0.114787 0.114791,-0.114787l0.195563 0c0.0633937,0 0.114787,0.0513937 0.114787,0.114787 0,0.0633937 -0.0513937,0.114787 -0.114787,0.114787l-0.195563 0c-0.0633937,0 -0.114791,-0.0513937 -0.114791,-0.114787zm-0.562228 0c0,-0.0633937 0.0513937,-0.114787 0.114787,-0.114787l0.195559 0c0.0633937,0 0.114791,0.0513937 0.114791,0.114787 0,0.0633937 -0.0513976,0.114787 -0.114791,0.114787l-0.195559 0c-0.0633937,0 -0.114787,-0.0513937 -0.114787,-0.114787zm-0.56224 0c0,-0.0633937 0.0513976,-0.114787 0.114787,-0.114787l0.195563 0c0.0633937,0 0.114787,0.0513937 0.114787,0.114787 0,0.0633937 -0.0513937,0.114787 -0.114787,0.114787l-0.195563 0c-0.0633898,0 -0.114787,-0.0513937 -0.114787,-0.114787zm-0.562236 0c0,-0.0633937 0.0513937,-0.114787 0.114787,-0.114787l0.195563 0c0.0633937,0 0.114787,0.0513937 0.114787,0.114787 0,0.0633937 -0.0513937,0.114787 -0.114787,0.114787l-0.195563 0c-0.0633937,0 -0.114787,-0.0513937 -0.114787,-0.114787zm-0.562236 0c0,-0.0633937 0.0513937,-0.114787 0.114787,-0.114787l0.195567 0c0.0633898,0 0.114787,0.0513937 0.114787,0.114787 0,0.0633937 -0.0513976,0.114787 -0.114787,0.114787l-0.195567 0c-0.0633937,0 -0.114787,-0.0513937 -0.114787,-0.114787zm-0.562232 0c0,-0.0633937 0.0513937,-0.114787 0.114787,-0.114787l0.195559 0c0.0633937,0 0.114787,0.0513937 0.114787,0.114787 0,0.0633937 -0.0513937,0.114787 -0.114787,0.114787l-0.195559 0c-0.0633937,0 -0.114787,-0.0513937 -0.114787,-0.114787zm-0.562236 0c0,-0.0633937 0.0513937,-0.114787 0.114787,-0.114787l0.195559 0c0.0633937,0 0.114791,0.0513937 0.114791,0.114787 0,0.0633937 -0.0513976,0.114787 -0.114791,0.114787l-0.195559 0c-0.0633937,0 -0.114787,-0.0513937 -0.114787,-0.114787zm0.310346 -2.87666l-0.195559 0c-0.0633937,0 -0.114787,-0.0513937 -0.114787,-0.114787 0,-0.0633937 0.0513937,-0.114791 0.114787,-0.114791l0.195559 0c0.0633937,0 0.114791,0.0513976 0.114791,0.114791 0,0.0633937 -0.0513976,0.114787 -0.114791,0.114787z"/>
  </g>
 </g>
 <rect class="fil3" width="6.82666" height="6.82666"/>
</svg>
