<?xml version="1.0" encoding="UTF-8"?>
<!DOCTYPE svg PUBLIC "-//W3C//DTD SVG 1.1//EN" "http://www.w3.org/Graphics/SVG/1.1/DTD/svg11.dtd">
<!-- Creator: CorelDRAW -->
<svg xmlns="http://www.w3.org/2000/svg" xml:space="preserve" width="6.82666in" height="6.82666in" style="shape-rendering:geometricPrecision; text-rendering:geometricPrecision; image-rendering:optimizeQuality; fill-rule:evenodd; clip-rule:evenodd"
viewBox="0 0 6.82666 6.82666"
 xmlns:xlink="http://www.w3.org/1999/xlink">
 <defs>
  <style type="text/css">
   <![CDATA[
    .fil3 {fill:none}
    .fil0 {fill:#424242}
    .fil2 {fill:#FFFFFE}
    .fil1 {fill:#FFFFFE;fill-rule:nonzero}
   ]]>
  </style>
 </defs>
 <rect class="fil0" width="6.82666" height="6.82666"/>
 <g id="Layer_x0020_1">
  <metadata id="CorelCorpID_0Corel-Layer"/>
  <g id="_264089984">
   <path id="_264089360" class="fil1" d="M2.93286 2.4194l1.09863 0.915535 -0.0652008 0.0783976 0.0655591 -0.0786693c0.0434449,0.0362047 0.049315,0.10078 0.0131102,0.144224 -0.00618898,0.00743307 -0.0132165,0.0137638 -0.0208228,0.0189724l-1.09848 0.915413 0.000275591 0.000334646c-0.0434449,0.0362047 -0.10802,0.0303346 -0.144224,-0.0131102 -0.0159646,-0.0191614 -0.023748,-0.0424252 -0.0237323,-0.0655591l-3.93701e-006 0 0 -1.84321c0,-0.0565551 0.0458504,-0.102406 0.102406,-0.102406 0.0283189,0 0.0539528,0.0115 0.0724882,0.0300787z"/>
   <path id="_264089864" class="fil2" d="M5.97333 5.97333l-5.12 0 0 -5.12 5.12 0 0 5.12zm-3.98081 -4.09602c-0.0308268,0 -0.0594213,0.0122717 -0.0811772,0.0340236 -0.021752,0.0217559 -0.0340236,0.0503504 -0.0340236,0.0811772l0 2.84163c0,0.0308228 0.0122717,0.0594213 0.0340197,0.0811732 0.0217598,0.0217559 0.0503543,0.0340276 0.0811811,0.0340276l2.84163 0c0.0308307,0 0.0594173,-0.0122677 0.0811772,-0.0340236 0.0217559,-0.0217598 0.0340236,-0.0503465 0.0340236,-0.0811772l0 -2.84163c0,-0.0308268 -0.0122717,-0.0594213 -0.0340276,-0.0811811 -0.021752,-0.021748 -0.0503504,-0.0340197 -0.0811732,-0.0340197l-2.84163 0z"/>
  </g>
 </g>
 <rect class="fil3" width="6.82666" height="6.82666"/>
</svg>
