<?xml version="1.0" encoding="UTF-8"?>
<!DOCTYPE svg PUBLIC "-//W3C//DTD SVG 1.1//EN" "http://www.w3.org/Graphics/SVG/1.1/DTD/svg11.dtd">
<!-- Creator: CorelDRAW -->
<svg xmlns="http://www.w3.org/2000/svg" xml:space="preserve" width="6.82666in" height="6.82666in" style="shape-rendering:geometricPrecision; text-rendering:geometricPrecision; image-rendering:optimizeQuality; fill-rule:evenodd; clip-rule:evenodd"
viewBox="0 0 6.82666 6.82666"
 xmlns:xlink="http://www.w3.org/1999/xlink">
 <defs>
  <style type="text/css">
   <![CDATA[
    .fil3 {fill:none}
    .fil0 {fill:#424242}
    .fil2 {fill:#FFFFFE}
    .fil1 {fill:#FFFFFE;fill-rule:nonzero}
   ]]>
  </style>
 </defs>
 <rect class="fil0" width="6.82666" height="6.82666"/>
 <g id="Layer_x0020_1">
  <metadata id="CorelCorpID_0Corel-Layer"/>
  <g id="_264090776">
   <path id="_264090416" class="fil1" d="M4.6926 3.79496c-0.0241614,-0.00959843 -0.0495787,-0.0210118 -0.0760315,-0.0343425 -0.0966102,-0.048689 -0.202866,-0.121744 -0.307642,-0.223413l-0.0836063 0.0859567 0.0837323 -0.0862953c-0.0476535,-0.0462402 -0.123787,-0.0450945 -0.170028,0.00256299 -0.0130591,0.0134606 -0.0223346,0.0291929 -0.0278583,0.045878 -0.0580748,0.134268 -0.273248,0.364232 -0.515815,0.57711 -0.159457,0.139941 -0.327913,0.269783 -0.469047,0.357953l1.37882 0c0.0499252,0 0.0971339,-0.0195669 0.132402,-0.0544173 0.0352717,-0.0348465 0.0550748,-0.0814961 0.0550748,-0.130823l0 -0.540169z"/>
   <path id="_264090656" class="fil1" d="M3.81704 3.92406c-0.0896024,-0.0177717 -0.170571,-0.0376693 -0.25348,-0.0751654 -0.0838071,-0.0378937 -0.173189,-0.0949961 -0.281126,-0.187831l0.000204724 -0.000240157c-0.0503346,-0.0433071 -0.126264,-0.0376063 -0.169571,0.0127283 -0.00330709,0.00385039 -0.00633071,0.00785433 -0.0090748,0.0119803 -0.123539,0.160457 -0.303705,0.333106 -0.48198,0.459039 -0.0861732,0.0608701 -0.3055,0.171146 -0.479232,0.246295 0.00900787,0.0280512 0.0247874,0.0537795 0.0463583,0.0750906 0.0352677,0.0348465 0.0824803,0.0544134 0.132402,0.0544134l0.917917 0c0.302764,-0.204555 0.77837,-0.557114 0.577583,-0.596311z"/>
   <path id="_264090032" class="fil1" d="M2.98885 2.81939c0.0745906,0 0.142138,0.0302441 0.191024,0.0791339 0.0488898,0.0488858 0.0791378,0.116425 0.0791378,0.191024 0,0.0745906 -0.030248,0.142142 -0.0791378,0.191024 -0.0488858,0.0488898 -0.116433,0.0791378 -0.191024,0.0791378 -0.0745984,0 -0.142138,-0.030248 -0.191024,-0.0791378 -0.0488898,-0.0488819 -0.0791339,-0.116433 -0.0791339,-0.191024 0,-0.0745984 0.0302441,-0.142138 0.0791339,-0.191024 0.0488858,-0.0488898 0.116425,-0.0791339 0.191024,-0.0791339z"/>
   <path id="_264090080" class="fil2" d="M2.02673 4.32072l0 -1.83657c0,-0.0810039 0.0330591,-0.154575 0.086311,-0.207827 0.0532559,-0.0532559 0.126823,-0.086315 0.207827,-0.086315l2.18359 0c0.0810079,0 0.154571,0.0330591 0.207827,0.086315 0.0532559,0.053252 0.086315,0.126823 0.086315,0.207827l0 1.83657c0,0.0810079 -0.0330591,0.154575 -0.086315,0.207831 -0.0532559,0.0532559 -0.126819,0.086315 -0.207827,0.086315l-2.18359 0c-0.0810039,0 -0.154571,-0.0330591 -0.207827,-0.086315 -0.053252,-0.0532559 -0.086311,-0.126823 -0.086311,-0.207831zm3.3063 0l0 -1.83657c0,-0.145094 0.113846,-0.294142 0.267563,-0.294142l0.372736 0 0 -0.554472 -5.12 0 0 0.554472 0.371402 0c0.0770827,0 0.145992,0.0356339 0.19489,0.0930433l0.000393701 -7.87402e-006c0.0465394,0.0546457 0.0722835,0.129709 0.0722835,0.201106l0 1.83657c0,0.077185 -0.0278425,0.148461 -0.0726811,0.201102 -0.0489016,0.0574055 -0.117799,0.0930433 -0.194886,0.0930433l-0.371402 0 0 0.57626 5.12 0 0 -0.57626 -0.372736 0c-0.0770827,0 -0.145984,-0.0356378 -0.194886,-0.0930433 -0.0448386,-0.0526417 -0.0726772,-0.123917 -0.0726772,-0.201102zm-0.331441 -2.30273c-0.0633937,0 -0.114787,-0.0513937 -0.114787,-0.114787 0,-0.0633937 0.0513937,-0.114791 0.114787,-0.114791l0.195567 0c0.0633898,0 0.114787,0.0513976 0.114787,0.114791 0,0.0633937 -0.0513976,0.114787 -0.114787,0.114787l-0.195567 0zm0.447453 -0.114787c0,-0.0633937 0.0513937,-0.114791 0.114787,-0.114791l0.195559 0c0.0633937,0 0.114787,0.0513976 0.114787,0.114791 0,0.0633937 -0.0513937,0.114787 -0.114787,0.114787l-0.195559 0c-0.0633937,0 -0.114787,-0.0513937 -0.114787,-0.114787zm-1.57192 0.114787c-0.0633937,0 -0.114787,-0.0513937 -0.114787,-0.114787 0,-0.0633937 0.0513937,-0.114791 0.114787,-0.114791l0.195559 0c0.0633937,0 0.114791,0.0513976 0.114791,0.114791 0,0.0633937 -0.0513976,0.114787 -0.114791,0.114787l-0.195559 0zm0.447441 -0.114787c0,-0.0633937 0.0513976,-0.114791 0.114791,-0.114791l0.195563 0c0.0633937,0 0.114787,0.0513976 0.114787,0.114791 0,0.0633937 -0.0513937,0.114787 -0.114787,0.114787l-0.195563 0c-0.0633937,0 -0.114791,-0.0513937 -0.114791,-0.114787zm-1.26157 0c0,0.0633937 -0.0513937,0.114787 -0.114787,0.114787l-0.195563 0c-0.0633937,0 -0.114787,-0.0513937 -0.114787,-0.114787 0,-0.0633937 0.0513937,-0.114791 0.114787,-0.114791l0.195563 0c0.0633937,0 0.114787,0.0513976 0.114787,0.114791zm0.137098 0c0,-0.0633937 0.0513976,-0.114791 0.114787,-0.114791l0.195563 0c0.0633937,0 0.114787,0.0513976 0.114787,0.114791 0,0.0633937 -0.0513937,0.114787 -0.114787,0.114787l-0.195563 0c-0.0633898,0 -0.114787,-0.0513937 -0.114787,-0.114787zm-1.00969 0.114787c-0.0633937,0 -0.114787,-0.0513937 -0.114787,-0.114787 0,-0.0633937 0.0513937,-0.114791 0.114787,-0.114791l0.195567 0c0.0633898,0 0.114787,0.0513976 0.114787,0.114791 0,0.0633937 -0.0513976,0.114787 -0.114787,0.114787l-0.195567 0zm-0.562232 0c-0.0633937,0 -0.114787,-0.0513937 -0.114787,-0.114787 0,-0.0633937 0.0513937,-0.114791 0.114787,-0.114791l0.195559 0c0.0633937,0 0.114787,0.0513976 0.114787,0.114791 0,0.0633937 -0.0513937,0.114787 -0.114787,0.114787l-0.195559 0zm3.82087 2.87666c0,-0.0633937 0.0513937,-0.114787 0.114787,-0.114787l0.195559 0c0.0633937,0 0.114787,0.0513937 0.114787,0.114787 0,0.0633937 -0.0513937,0.114787 -0.114787,0.114787l-0.195559 0c-0.0633937,0 -0.114787,-0.0513937 -0.114787,-0.114787zm-0.56224 0c0,-0.0633937 0.0513937,-0.114787 0.114787,-0.114787l0.195567 0c0.0633898,0 0.114787,0.0513937 0.114787,0.114787 0,0.0633937 -0.0513976,0.114787 -0.114787,0.114787l-0.195567 0c-0.0633937,0 -0.114787,-0.0513937 -0.114787,-0.114787zm-0.56224 0c0,-0.0633937 0.0513976,-0.114787 0.114791,-0.114787l0.195563 0c0.0633937,0 0.114787,0.0513937 0.114787,0.114787 0,0.0633937 -0.0513937,0.114787 -0.114787,0.114787l-0.195563 0c-0.0633937,0 -0.114791,-0.0513937 -0.114791,-0.114787zm-0.562228 0c0,-0.0633937 0.0513937,-0.114787 0.114787,-0.114787l0.195559 0c0.0633937,0 0.114791,0.0513937 0.114791,0.114787 0,0.0633937 -0.0513976,0.114787 -0.114791,0.114787l-0.195559 0c-0.0633937,0 -0.114787,-0.0513937 -0.114787,-0.114787zm-0.56224 0c0,-0.0633937 0.0513976,-0.114787 0.114787,-0.114787l0.195563 0c0.0633937,0 0.114787,0.0513937 0.114787,0.114787 0,0.0633937 -0.0513937,0.114787 -0.114787,0.114787l-0.195563 0c-0.0633898,0 -0.114787,-0.0513937 -0.114787,-0.114787zm-0.562236 0c0,-0.0633937 0.0513937,-0.114787 0.114787,-0.114787l0.195563 0c0.0633937,0 0.114787,0.0513937 0.114787,0.114787 0,0.0633937 -0.0513937,0.114787 -0.114787,0.114787l-0.195563 0c-0.0633937,0 -0.114787,-0.0513937 -0.114787,-0.114787zm-0.562236 0c0,-0.0633937 0.0513937,-0.114787 0.114787,-0.114787l0.195567 0c0.0633898,0 0.114787,0.0513937 0.114787,0.114787 0,0.0633937 -0.0513976,0.114787 -0.114787,0.114787l-0.195567 0c-0.0633937,0 -0.114787,-0.0513937 -0.114787,-0.114787zm-0.562232 0c0,-0.0633937 0.0513937,-0.114787 0.114787,-0.114787l0.195559 0c0.0633937,0 0.114787,0.0513937 0.114787,0.114787 0,0.0633937 -0.0513937,0.114787 -0.114787,0.114787l-0.195559 0c-0.0633937,0 -0.114787,-0.0513937 -0.114787,-0.114787zm-0.562236 0c0,-0.0633937 0.0513937,-0.114787 0.114787,-0.114787l0.195559 0c0.0633937,0 0.114791,0.0513937 0.114791,0.114787 0,0.0633937 -0.0513976,0.114787 -0.114791,0.114787l-0.195559 0c-0.0633937,0 -0.114787,-0.0513937 -0.114787,-0.114787zm0.310346 -2.87666l-0.195559 0c-0.0633937,0 -0.114787,-0.0513937 -0.114787,-0.114787 0,-0.0633937 0.0513937,-0.114791 0.114787,-0.114791l0.195559 0c0.0633937,0 0.114791,0.0513976 0.114791,0.114791 0,0.0633937 -0.0513976,0.114787 -0.114791,0.114787z"/>
  </g>
 </g>
 <rect class="fil3" width="6.82666" height="6.82666"/>
</svg>
