<?xml version="1.0" encoding="UTF-8"?>
<!DOCTYPE svg PUBLIC "-//W3C//DTD SVG 1.1//EN" "http://www.w3.org/Graphics/SVG/1.1/DTD/svg11.dtd">
<!-- Creator: CorelDRAW -->
<svg xmlns="http://www.w3.org/2000/svg" xml:space="preserve" width="6.82666in" height="6.82666in" style="shape-rendering:geometricPrecision; text-rendering:geometricPrecision; image-rendering:optimizeQuality; fill-rule:evenodd; clip-rule:evenodd"
viewBox="0 0 6.82666 6.82666"
 xmlns:xlink="http://www.w3.org/1999/xlink">
 <defs>
  <style type="text/css">
   <![CDATA[
    .fil3 {fill:none}
    .fil0 {fill:#424242}
    .fil2 {fill:#FFFFFE}
    .fil1 {fill:#FFFFFE;fill-rule:nonzero}
   ]]>
  </style>
 </defs>
 <rect class="fil0" width="6.82666" height="6.82666"/>
 <g id="Layer_x0020_1">
  <metadata id="CorelCorpID_0Corel-Layer"/>
  <path class="fil1" d="M3.7664 3.76639c0.112866,-0.112866 0.220567,-0.139823 0.327579,-0.116937 0.0947323,0.0202638 0.177075,0.080626 0.259717,0.152142l1.49443 1.29339c0.00859843,0.00744488 0.0148031,0.0130787 0.018626,0.0169016 0.0838504,0.0838504 0.116287,0.200669 0.10372,0.3225 -0.0115157,0.11163 -0.0619291,0.228575 -0.145539,0.325169 -0.0119173,0.0137677 -0.022378,0.0251732 -0.0312874,0.0340827 -0.00891339,0.00891339 -0.0203386,0.0193937 -0.0341142,0.031315 -0.0965945,0.0835984 -0.213528,0.134008 -0.325146,0.14552 -0.121819,0.012563 -0.238634,-0.0198701 -0.322484,-0.103717 -0.00385039,-0.00385039 -0.00948031,-0.0100512 -0.0169134,-0.0186417l-1.29341 -1.49442c-0.0715197,-0.0826378 -0.13189,-0.16498 -0.152142,-0.259713 -0.0228819,-0.107024 0.00409449,-0.214732 0.116969,-0.327591z"/>
  <path class="fil2" d="M1.31704 1.31704c0.291409,-0.291413 0.683484,-0.453799 1.09554,-0.453799 0.41402,0 0.819146,0.151984 1.10194,0.460492l4.33071e-005 4.72441e-005c0.274406,0.29935 0.447366,0.679386 0.447366,1.08881 0,0.409417 -0.172961,0.789457 -0.447366,1.08881l-4.33071e-005 4.72441e-005c-0.282803,0.308512 -0.687921,0.460492 -1.10194,0.460492 -0.412051,0 -0.804122,-0.162382 -1.09553,-0.453795 -0.291417,-0.291413 -0.453803,-0.683492 -0.453803,-1.09555 0,-0.412059 0.162382,-0.80413 0.453799,-1.09555zm1.09554 0.155657c-0.25028,0 -0.487602,0.0982756 -0.664606,0.275276 -0.177004,0.177004 -0.275272,0.414335 -0.275272,0.664614 0,0.250287 0.0982756,0.48761 0.27528,0.664618 0.177,0.177 0.414319,0.275272 0.664598,0.275272 0.25028,0 0.487598,-0.0982756 0.664602,-0.275276l4.33071e-005 -4.33071e-005c0.176992,-0.176992 0.275252,-0.414307 0.275252,-0.664571 0,-0.250264 -0.0982598,-0.487579 -0.275252,-0.664571l-4.33071e-005 -4.33071e-005c-0.177,-0.176996 -0.414327,-0.275276 -0.664602,-0.275276zm1.1811e-005 -0.233445c0.323996,0 0.617335,0.131331 0.829669,0.343665 0.212327,0.212331 0.343665,0.505673 0.343665,0.829669 0,0.323996 -0.131339,0.617339 -0.343665,0.829669 -0.212331,0.212327 -0.505673,0.343665 -0.829669,0.343665 -0.323996,0 -0.617339,-0.131339 -0.829669,-0.343665 -0.212335,-0.212335 -0.343665,-0.505673 -0.343665,-0.829669 0,-0.323996 0.131331,-0.617335 0.343665,-0.829669 0.212335,-0.212335 0.505673,-0.343665 0.829669,-0.343665zm0.754252 0.419083c-0.193024,-0.193024 -0.459697,-0.312413 -0.754252,-0.312413 -0.294555,0 -0.561228,0.11939 -0.754252,0.312413 -0.193024,0.193024 -0.312413,0.459697 -0.312413,0.754252 0,0.294555 0.11939,0.561228 0.312413,0.754252 0.193024,0.19302 0.459697,0.312413 0.754252,0.312413 0.294555,0 0.561228,-0.119394 0.754252,-0.312413 0.19302,-0.193024 0.312413,-0.459697 0.312413,-0.754252 0,-0.294555 -0.119394,-0.561228 -0.312413,-0.754252z"/>
  <path class="fil1" d="M3.56021 3.40941c-0.0416496,-0.0416496 -0.109185,-0.0416496 -0.150835,0 -0.0416496,0.0416496 -0.0416496,0.109185 0,0.150835l0.29 0.289972c0.0416496,0.0416496 0.109185,0.0416496 0.150835,0 0.0416496,-0.0416496 0.0416496,-0.109185 0,-0.150835l-0.29 -0.289972z"/>
 </g>
 <rect class="fil3" width="6.82666" height="6.82666"/>
</svg>
