<?xml version="1.0" encoding="UTF-8"?>
<!DOCTYPE svg PUBLIC "-//W3C//DTD SVG 1.1//EN" "http://www.w3.org/Graphics/SVG/1.1/DTD/svg11.dtd">
<!-- Creator: CorelDRAW -->
<svg xmlns="http://www.w3.org/2000/svg" xml:space="preserve" width="6.82666in" height="6.82666in" style="shape-rendering:geometricPrecision; text-rendering:geometricPrecision; image-rendering:optimizeQuality; fill-rule:evenodd; clip-rule:evenodd"
viewBox="0 0 6.82666 6.82666"
 xmlns:xlink="http://www.w3.org/1999/xlink">
 <defs>
  <style type="text/css">
   <![CDATA[
    .fil3 {fill:none}
    .fil0 {fill:#424242}
    .fil1 {fill:#FFFFFE}
    .fil2 {fill:#FFFFFE;fill-rule:nonzero}
   ]]>
  </style>
 </defs>
 <rect class="fil0" width="6.82666" height="6.82666"/>
 <g id="Layer_x0020_1">
  <metadata id="CorelCorpID_0Corel-Layer"/>
  <path class="fil1" d="M2.02673 4.32072l0 -1.83657c0,-0.0810039 0.0330591,-0.154575 0.086311,-0.207827 0.0532559,-0.0532559 0.126823,-0.086315 0.207827,-0.086315l0.970224 0c0.0385394,-0.00366142 0.0774055,-0.00553543 0.116504,-0.00553543 0.0403543,0 0.0805827,0.00185039 0.12052,0.00553543l0.976343 0c0.0810079,0 0.154571,0.0330591 0.207827,0.086315 0.0532559,0.053252 0.086315,0.126823 0.086315,0.207827l0 1.78246c0.0268819,0.0187402 0.0525472,0.0396063 0.0775827,0.0612756l0.588335 0.509189c0.019878,-0.0342008 0.0569055,-0.0572047 0.099311,-0.0572047l0.195559 0c0.0633937,0 0.114787,0.0513937 0.114787,0.114787 0,0.0633937 -0.0513937,0.114787 -0.114787,0.114787l-0.0957087 0 0.209933 0.181689 0.0997165 0 0 -0.57626 -0.372736 0c-0.0770827,0 -0.145984,-0.0356378 -0.194886,-0.0930433 -0.0448386,-0.0526417 -0.0726772,-0.123917 -0.0726772,-0.201102l0 -1.83657c0,-0.145094 0.113846,-0.294142 0.267563,-0.294142l0.372736 0 0 -0.554472 -5.12 0 0 0.554472 0.371402 0c0.0770827,0 0.145992,0.0356339 0.19489,0.0930433l0.000393701 -7.87402e-006c0.0465394,0.0546457 0.0722835,0.129709 0.0722835,0.201106l0 1.83657c0,0.077185 -0.0278425,0.148461 -0.0726811,0.201102 -0.0489016,0.0574055 -0.117799,0.0930433 -0.194886,0.0930433l-0.371402 0 0 0.57626 3.74712 0 -0.157252 -0.181689 -0.00384252 0c-0.0633937,0 -0.114791,-0.0513937 -0.114791,-0.114787 0,-0.00690551 0.000610236,-0.0136654 0.00177953,-0.0202362 -0.059315,-0.0687323 -0.112398,-0.142291 -0.131764,-0.232886 -0.00190945,-0.00893701 -0.00346457,-0.0178228 -0.00466142,-0.0266614l-0.57913 0c-0.0669291,0.0105866 -0.134933,0.015874 -0.203189,0.015874 -0.0665039,0 -0.132358,-0.00537402 -0.197012,-0.015874l-0.889717 0c-0.0810039,0 -0.154571,-0.0330591 -0.207827,-0.086315 -0.053252,-0.0532559 -0.086311,-0.126823 -0.086311,-0.207831zm2.97486 -2.30273c-0.0633937,0 -0.114787,-0.0513937 -0.114787,-0.114787 0,-0.0633937 0.0513937,-0.114791 0.114787,-0.114791l0.195567 0c0.0633898,0 0.114787,0.0513976 0.114787,0.114791 0,0.0633937 -0.0513976,0.114787 -0.114787,0.114787l-0.195567 0zm0.447453 -0.114787c0,-0.0633937 0.0513937,-0.114791 0.114787,-0.114791l0.195559 0c0.0633937,0 0.114787,0.0513976 0.114787,0.114791 0,0.0633937 -0.0513937,0.114787 -0.114787,0.114787l-0.195559 0c-0.0633937,0 -0.114787,-0.0513937 -0.114787,-0.114787zm-1.57192 0.114787c-0.0633937,0 -0.114787,-0.0513937 -0.114787,-0.114787 0,-0.0633937 0.0513937,-0.114791 0.114787,-0.114791l0.195559 0c0.0633937,0 0.114791,0.0513976 0.114791,0.114791 0,0.0633937 -0.0513976,0.114787 -0.114791,0.114787l-0.195559 0zm0.447441 -0.114787c0,-0.0633937 0.0513976,-0.114791 0.114791,-0.114791l0.195563 0c0.0633937,0 0.114787,0.0513976 0.114787,0.114791 0,0.0633937 -0.0513937,0.114787 -0.114787,0.114787l-0.195563 0c-0.0633937,0 -0.114791,-0.0513937 -0.114791,-0.114787zm-1.26157 0c0,0.0633937 -0.0513937,0.114787 -0.114787,0.114787l-0.195563 0c-0.0633937,0 -0.114787,-0.0513937 -0.114787,-0.114787 0,-0.0633937 0.0513937,-0.114791 0.114787,-0.114791l0.195563 0c0.0633937,0 0.114787,0.0513976 0.114787,0.114791zm0.137098 0c0,-0.0633937 0.0513976,-0.114791 0.114787,-0.114791l0.195563 0c0.0633937,0 0.114787,0.0513976 0.114787,0.114791 0,0.0633937 -0.0513937,0.114787 -0.114787,0.114787l-0.195563 0c-0.0633898,0 -0.114787,-0.0513937 -0.114787,-0.114787zm-1.00969 0.114787c-0.0633937,0 -0.114787,-0.0513937 -0.114787,-0.114787 0,-0.0633937 0.0513937,-0.114791 0.114787,-0.114791l0.195567 0c0.0633898,0 0.114787,0.0513976 0.114787,0.114791 0,0.0633937 -0.0513976,0.114787 -0.114787,0.114787l-0.195567 0zm-0.562232 0c-0.0633937,0 -0.114787,-0.0513937 -0.114787,-0.114787 0,-0.0633937 0.0513937,-0.114791 0.114787,-0.114791l0.195559 0c0.0633937,0 0.114787,0.0513976 0.114787,0.114791 0,0.0633937 -0.0513937,0.114787 -0.114787,0.114787l-0.195559 0zm2.13416 2.87666c0,-0.0633937 0.0513937,-0.114787 0.114787,-0.114787l0.195559 0c0.0633937,0 0.114791,0.0513937 0.114791,0.114787 0,0.0633937 -0.0513976,0.114787 -0.114791,0.114787l-0.195559 0c-0.0633937,0 -0.114787,-0.0513937 -0.114787,-0.114787zm-0.56224 0c0,-0.0633937 0.0513976,-0.114787 0.114787,-0.114787l0.195563 0c0.0633937,0 0.114787,0.0513937 0.114787,0.114787 0,0.0633937 -0.0513937,0.114787 -0.114787,0.114787l-0.195563 0c-0.0633898,0 -0.114787,-0.0513937 -0.114787,-0.114787zm-0.562236 0c0,-0.0633937 0.0513937,-0.114787 0.114787,-0.114787l0.195563 0c0.0633937,0 0.114787,0.0513937 0.114787,0.114787 0,0.0633937 -0.0513937,0.114787 -0.114787,0.114787l-0.195563 0c-0.0633937,0 -0.114787,-0.0513937 -0.114787,-0.114787zm-0.562236 0c0,-0.0633937 0.0513937,-0.114787 0.114787,-0.114787l0.195567 0c0.0633898,0 0.114787,0.0513937 0.114787,0.114787 0,0.0633937 -0.0513976,0.114787 -0.114787,0.114787l-0.195567 0c-0.0633937,0 -0.114787,-0.0513937 -0.114787,-0.114787zm-0.562232 0c0,-0.0633937 0.0513937,-0.114787 0.114787,-0.114787l0.195559 0c0.0633937,0 0.114787,0.0513937 0.114787,0.114787 0,0.0633937 -0.0513937,0.114787 -0.114787,0.114787l-0.195559 0c-0.0633937,0 -0.114787,-0.0513937 -0.114787,-0.114787zm-0.562236 0c0,-0.0633937 0.0513937,-0.114787 0.114787,-0.114787l0.195559 0c0.0633937,0 0.114791,0.0513937 0.114791,0.114787 0,0.0633937 -0.0513976,0.114787 -0.114791,0.114787l-0.195559 0c-0.0633937,0 -0.114787,-0.0513937 -0.114787,-0.114787zm0.310346 -2.87666l-0.195559 0c-0.0633937,0 -0.114787,-0.0513937 -0.114787,-0.114787 0,-0.0633937 0.0513937,-0.114791 0.114787,-0.114791l0.195559 0c0.0633937,0 0.114791,0.0513976 0.114791,0.114791 0,0.0633937 -0.0513976,0.114787 -0.114791,0.114787z"/>
  <path class="fil2" d="M4.38317 4.38317c0.0813307,-0.0813346 0.158941,-0.10076 0.236055,-0.0842677 0.0682677,0.0146024 0.127602,0.0581024 0.187154,0.109634l1.0769 0.932028c0.00619685,0.00536614 0.0106693,0.0094252 0.0134213,0.0121811 0.0604252,0.0604213 0.0837992,0.144602 0.0747441,0.232394 -0.00829921,0.0804409 -0.044626,0.164713 -0.104878,0.234319 -0.00858661,0.00992126 -0.016126,0.0181417 -0.0225472,0.024563 -0.00642126,0.00642126 -0.0146535,0.0139724 -0.0245827,0.022563 -0.0696063,0.0602441 -0.15387,0.0965669 -0.234299,0.104862 -0.0877874,0.00905512 -0.171965,-0.014315 -0.232386,-0.0747362 -0.00277559,-0.00277559 -0.00683071,-0.00724409 -0.012189,-0.0134331l-0.932043 -1.07689c-0.0515394,-0.0595472 -0.0950394,-0.118886 -0.109634,-0.18715 -0.0164882,-0.077122 0.00294882,-0.154736 0.0842874,-0.236063z"/>
  <path class="fil1" d="M2.61815 2.61815c0.209992,-0.209992 0.492528,-0.327008 0.789453,-0.327008 0.298346,0 0.590283,0.10952 0.794071,0.331831l3.14961e-005 3.54331e-005c0.197736,0.215717 0.322374,0.489571 0.322374,0.784602 0,0.295031 -0.124638,0.56889 -0.322374,0.784602l-3.14961e-005 3.54331e-005c-0.203791,0.222315 -0.49572,0.331835 -0.794071,0.331835 -0.296925,0 -0.579457,-0.117016 -0.789449,-0.327008 -0.209996,-0.209996 -0.327012,-0.492531 -0.327012,-0.789465 0,-0.296933 0.117012,-0.579461 0.327008,-0.789461zm0.789453 0.112169c-0.180354,0 -0.35137,0.0708189 -0.478921,0.198366 -0.127551,0.127551 -0.198362,0.298571 -0.198362,0.478925 0,0.180358 0.0708189,0.351378 0.19837,0.478929 0.127547,0.127547 0.298559,0.198362 0.478913,0.198362 0.180354,0 0.351366,-0.070815 0.478917,-0.198366l3.14961e-005 -3.14961e-005c0.127543,-0.127539 0.19835,-0.298551 0.19835,-0.478894 0,-0.180343 -0.0708071,-0.35135 -0.19835,-0.478894l-3.14961e-005 -3.14961e-005c-0.127547,-0.127543 -0.298567,-0.198366 -0.478917,-0.198366zm7.87402e-006 -0.16822c0.233476,0 0.444858,0.0946378 0.597866,0.247646 0.153004,0.153008 0.24765,0.364394 0.24765,0.597866 0,0.233476 -0.0946457,0.444858 -0.24765,0.597866 -0.153008,0.153004 -0.36439,0.24765 -0.597866,0.24765 -0.233472,0 -0.444858,-0.0946457 -0.597866,-0.24765 -0.153008,-0.153008 -0.247646,-0.36439 -0.247646,-0.597866 0,-0.233472 0.0946378,-0.444854 0.247646,-0.597866 0.153012,-0.153008 0.364394,-0.247646 0.597866,-0.247646zm0.54352 0.301992c-0.139094,-0.139094 -0.33126,-0.225126 -0.54352,-0.225126 -0.212256,0 -0.404425,0.0860315 -0.54352,0.225126 -0.139094,0.139094 -0.225126,0.331264 -0.225126,0.54352 0,0.21226 0.0860315,0.404425 0.225126,0.54352 0.139094,0.139091 0.331264,0.22513 0.54352,0.22513 0.21226,0 0.404425,-0.0860394 0.54352,-0.22513 0.139091,-0.139094 0.22513,-0.33126 0.22513,-0.54352 0,-0.212256 -0.0860394,-0.404425 -0.22513,-0.54352z"/>
  <path class="fil2" d="M4.23459 4.12592c-0.0300118,-0.0300118 -0.0786772,-0.0300118 -0.108693,0 -0.0300118,0.0300157 -0.0300118,0.0786811 0,0.108693l0.208976 0.208957c0.0300157,0.0300118 0.0786811,0.0300118 0.108693,0 0.0300118,-0.0300118 0.0300118,-0.0786772 0,-0.108693l-0.208976 -0.208957z"/>
  <circle class="fil3" cx="3.40515" cy="3.40514" r="0.73848"/>
  <path class="fil1" d="M4.12733 3.55991c-0.0578268,0.271122 -0.264429,0.487106 -0.530268,0.558469l-0.372508 0c0.0939016,-0.0586614 0.20598,-0.145051 0.312075,-0.238157 0.161386,-0.141638 0.293909,-0.42489 0.332551,-0.514224 0.00367323,-0.0111024 0.00984646,-0.0215669 0.0185354,-0.0305236 0.0281575,-0.0290236 0.123858,0.128283 0.123677,0.128772 0.0387638,0.0376142 0.0778386,0.0693386 0.115937,0.0956654z"/>
  <path class="fil1" d="M3.21323 4.11838c-0.142472,-0.038252 -0.267933,-0.11802 -0.362602,-0.225583 0.0151575,-0.00897638 0.028189,-0.0172362 0.0384016,-0.0244488 0.118614,-0.0837874 0.281016,-0.233213 0.363209,-0.339972 0.00182677,-0.00274409 0.00383858,-0.00540945 0.00603937,-0.0079685 0.028811,-0.0334921 0.0341417,-0.0479173 0.0676299,-0.0191024l-0.000133858 0.00015748c0.071815,0.0617677 0.133941,0.144949 0.189701,0.170161 0.0551614,0.0249449 0.109031,0.038185 0.16865,0.0500079 0.133591,0.0260787 -0.182846,0.26065 -0.384287,0.396748l-0.0866063 0z"/>
  <path class="fil1" d="M3.1331 2.98666c0.049626,0 0.0945669,0.020122 0.127094,0.0526496 0.0325276,0.0325236 0.0526535,0.0774606 0.0526535,0.127094 0,0.049626 -0.020126,0.0945709 -0.0526535,0.127094 -0.0325276,0.0325276 -0.0774685,0.0526535 -0.127094,0.0526535 -0.0496339,0 -0.0945709,-0.020126 -0.127094,-0.0526535 -0.0325276,-0.0325236 -0.0526535,-0.0774685 -0.0526535,-0.127094 0,-0.0496339 0.020126,-0.0945709 0.0526535,-0.127094 0.0325236,-0.0325276 0.0774606,-0.0526496 0.127094,-0.0526496z"/>
 </g>
 <rect class="fil3" width="6.82666" height="6.82666"/>
</svg>
