<?xml version="1.0" encoding="UTF-8"?>
<!DOCTYPE svg PUBLIC "-//W3C//DTD SVG 1.1//EN" "http://www.w3.org/Graphics/SVG/1.1/DTD/svg11.dtd">
<!-- Creator: CorelDRAW -->
<svg xmlns="http://www.w3.org/2000/svg" xml:space="preserve" width="6.82666in" height="6.82666in" style="shape-rendering:geometricPrecision; text-rendering:geometricPrecision; image-rendering:optimizeQuality; fill-rule:evenodd; clip-rule:evenodd"
viewBox="0 0 6.82666 6.82666"
 xmlns:xlink="http://www.w3.org/1999/xlink">
 <defs>
  <style type="text/css">
   <![CDATA[
    .fil3 {fill:none}
    .fil0 {fill:#424242}
    .fil2 {fill:#FFFFFE}
    .fil1 {fill:#FFFFFE;fill-rule:nonzero}
   ]]>
  </style>
 </defs>
 <rect class="fil0" width="6.82666" height="6.82666"/>
 <g id="Layer_x0020_1">
  <metadata id="CorelCorpID_0Corel-Layer"/>
  <g id="_264093200">
   <path id="_264094376" class="fil1" d="M0.946795 3.94501l0.86524 0c-0.0185472,-0.0357559 -0.0356535,-0.0722402 -0.0513307,-0.109476 -0.026685,-0.0633858 -0.0488937,-0.128252 -0.0666811,-0.194685 -0.0320276,-0.119638 -0.0488819,-0.240626 -0.0510591,-0.364445 -0.000161417,-0.00907087 -0.000267717,-0.0181378 -0.000240157,-0.0272087l1.9685e-005 -0.00675591c0.00015748,-0.0504173 0.00286614,-0.100614 0.00804331,-0.150429l-0.189965 0c-0.0516181,0 -0.0934685,0.0190984 -0.0934685,0.0426535l-0.514024 0.767697c0,0.0235551 0.0418465,0.0426496 0.0934646,0.0426496zm1.19148 0l1.15626 0c0.0103583,-0.0640827 0.0406575,-0.123575 0.0872087,-0.170126 0.0329803,-0.0329724 0.0724409,-0.0577953 0.115433,-0.0731496l0 -0.00734252c0,-0.0810236 0.074626,-0.131902 0.149559,-0.131902l0.309638 0c0.0257598,0 0.0514843,0.00601181 0.0741535,0.0171969l0.0491142 -0.157165 -8.66142e-005 -7.87402e-005 0.0177126 -0.0566654c0.0196693,-0.0629173 0.0781299,-0.104941 0.143728,-0.104941l0.15972 0 -0.0844843 -0.126173c0,-0.0235551 -0.0418465,-0.0426535 -0.0934646,-0.0426535l-2.28969 0c-0.00667323,0.0519528 -0.0100354,0.1045 -0.00996457,0.157346 0.000102362,0.0772953 0.00705512,0.153567 0.0213819,0.229535 0.0313465,0.166248 0.094815,0.319945 0.189634,0.460039l0.0041378 0.00607874z"/>
   <path id="_264093392" class="fil1" d="M1.46082 1.18622l2.76194 0c0.0516181,0 0.0934646,0.0418465 0.0934646,0.0934646l0 1.68235c0,0.0516181 -0.0418465,0.0934685 -0.0934646,0.0934685l-2.28443 0c0.0101142,-0.0634764 0.0252087,-0.125961 0.0450906,-0.186933l2.14587 0 0 -1.49542 -2.57501 0 0 1.49542 0.137016 0c-0.016,0.0613819 -0.028126,0.123811 -0.0362598,0.186933l-0.19422 0c-0.0516181,0 -0.0934685,-0.0418504 -0.0934685,-0.0934685l0 -1.68235c0,-0.0516181 0.0418504,-0.0934646 0.0934685,-0.0934646z"/>
   <path id="_264093104" class="fil1" d="M3.11421 4.62558l-0.159953 -0.212551 0.00222441 0.146461c-0.0892087,-0.0135354 -0.174898,-0.0354528 -0.260524,-0.0667283 -0.125791,-0.046748 -0.239409,-0.109346 -0.346165,-0.190646 -0.114898,-0.0883937 -0.211512,-0.190953 -0.293055,-0.310799 -0.101799,-0.151217 -0.169843,-0.316039 -0.204075,-0.49511 -0.0152992,-0.0822756 -0.0227795,-0.163039 -0.023,-0.246724 0,-0.254004 0.072748,-0.501031 0.209106,-0.714331l0.113539 0.0927913 -0.0592835 -0.254961 -0.248189 0.0423031 0.117445 0.0659685c-0.14624,0.227047 -0.224673,0.490685 -0.226063,0.761472l-2.3622e-005 0.00675591c2.75591e-005,0.00842913 0.000102362,0.0168425 0.000224409,0.0252756 0.00239764,0.116972 0.0179409,0.228815 0.0478976,0.341917 0.0169646,0.0627008 0.0374882,0.122665 0.0625354,0.182594 0.0261614,0.061689 0.0556614,0.119941 0.0899016,0.177535 0.0343346,0.0570709 0.0714803,0.11039 0.113138,0.162354 0.116476,0.143862 0.254587,0.260327 0.416165,0.350661 0.0569094,0.0314213 0.114272,0.0583346 0.174811,0.0820236 0.0642283,0.024748 0.128382,0.0444134 0.195429,0.0599803 0.0368425,0.00835039 0.0733583,0.015185 0.110346,0.020685l-0.0350866 0.131925 0.202654 -0.158854z"/>
   <g>
    <path id="_264093776" class="fil2" d="M4.241 3.3543l0.773122 0c0.0263583,0 0.0484724,0.018189 0.0544803,0.0426969l0.118803 0.380173 0.465346 0c0.0598307,0 0.114189,0.0244409 0.153559,0.0638071 0.0393661,0.0393701 0.0638071,0.0937244 0.0638071,0.153559l0 0.180433 0.0471181 0c0.0309803,0 0.0560984,0.0251142 0.0560984,0.0560945l0 0.980528c0,0.0309764 -0.0251181,0.0560945 -0.0560984,0.0560945l-0.0471181 0 0 0.155394c0,0.0598307 -0.0244409,0.114189 -0.0638071,0.153559 -0.0393701,0.0393661 -0.0937283,0.0638071 -0.153559,0.0638071l-2.05136 0c-0.0598346,0 -0.114189,-0.0244409 -0.153559,-0.0638071 -0.0393701,-0.0393701 -0.0638071,-0.0937283 -0.0638071,-0.153559l0 -0.155394 -0.0471181 0c-0.0309803,0 -0.0560984,-0.0251181 -0.0560984,-0.0560945l0 -0.980528c0,-0.0309803 0.0251181,-0.0560945 0.0560984,-0.0560945l0.0471181 0 0 -0.180433c0,-0.0598346 0.024437,-0.114189 0.0638071,-0.153559 0.0393701,-0.0393661 0.0937244,-0.0638071 0.153559,-0.0638071l0.465343 0 0.119823 -0.383425 -7.87402e-005 -7.87402e-005c0.0076063,-0.0243346 0.0302598,-0.0397992 0.0545197,-0.0393661zm1.21009 0.597496c0.0161654,-0.0161614 0.0385039,-0.0261654 0.0631614,-0.0261654 0.0246654,0 0.0470039,0.0100039 0.0631654,0.0261654 0.0161693,0.0161693 0.0261693,0.0385 0.0261693,0.0631654 0,0.0246654 -0.0100039,0.047 -0.0261654,0.0631654 -0.0161693,0.0161614 -0.0385039,0.0261654 -0.0631693,0.0261654 -0.0246614,0 -0.0469961,-0.0100039 -0.0631614,-0.0261654 -0.0161654,-0.0161654 -0.0261654,-0.0385 -0.0261654,-0.0631654 0,-0.0246654 0.01,-0.0469961 0.0261654,-0.0631654zm-1.49471 0.727882c0,0.178591 0.0702402,0.348126 0.196504,0.474386 0.12626,0.126264 0.295795,0.196504 0.474386,0.196504 0.178591,0 0.348122,-0.0702402 0.474382,-0.196504 0.126264,-0.12626 0.196508,-0.295795 0.196508,-0.474386 0,-0.178591 -0.0702441,-0.348122 -0.196508,-0.474386 -0.12626,-0.126264 -0.295791,-0.196504 -0.474382,-0.196504 -0.178591,0 -0.348126,0.0702402 -0.474386,0.196504 -0.126264,0.126264 -0.196504,0.295795 -0.196504,0.474386zm0.408949 -1.08655l0.523882 0c0.0154882,0 0.0159803,0.0125591 0.0159803,0.0280472 0,0.0154882 -0.000492126,0.0280472 -0.0159803,0.0280472l-0.523882 0c-0.0154921,0 -0.0159843,-0.0125591 -0.0159843,-0.0280472 0,-0.0154882 0.000492126,-0.0280472 0.0159843,-0.0280472zm0.552051 0.0280472c0,-0.0387874 -0.0158504,-0.0740315 -0.041378,-0.0995591 -0.0255276,-0.0255315 -0.0607756,-0.0413819 -0.0995591,-0.0413819l-0.29835 0c-0.0387835,0 -0.0740315,0.0158504 -0.0995551,0.0413819 -0.0255315,0.0255276 -0.0413819,0.0607717 -0.0413819,0.0995551 0,0.0387913 0.0158504,0.0740354 0.041378,0.099563 0.0255315,0.0255276 0.0607756,0.041378 0.0995591,0.041378l0.29835 0c0.0387835,0 0.0740276,-0.0158504 0.0995591,-0.041378 0.0255276,-0.0255276 0.041378,-0.0607717 0.041378,-0.0995591zm0 0l0 0z"/>
    <path id="_264093416" class="fil1" d="M4.62726 4.06615c0.169413,0 0.322799,0.0686732 0.433827,0.179701 0.111028,0.111028 0.179701,0.264409 0.179701,0.433827 0,0.169417 -0.0686732,0.322799 -0.179701,0.433827 -0.111028,0.111031 -0.264413,0.179705 -0.433827,0.179705 -0.169417,0 -0.322799,-0.0686732 -0.433831,-0.179705 -0.111028,-0.111028 -0.179701,-0.264409 -0.179701,-0.433827 0,-0.169417 0.0686732,-0.322799 0.179701,-0.433827 0.111031,-0.111028 0.264413,-0.179701 0.433831,-0.179701zm0.366882 0.246642c-0.0938858,-0.0938898 -0.223602,-0.151961 -0.366882,-0.151961 -0.143283,0 -0.272996,0.0580709 -0.366886,0.151961 -0.0938898,0.0938898 -0.151965,0.223606 -0.151965,0.366886 0,0.143283 0.0580748,0.272996 0.151965,0.366886 0.0938898,0.0938898 0.223602,0.151961 0.366886,0.151961 0.14328,0 0.272996,-0.0580709 0.366882,-0.151961 0.0938898,-0.0938898 0.151965,-0.223602 0.151965,-0.366886 0,-0.14328 -0.0580748,-0.272996 -0.151965,-0.366886z"/>
    <path id="_264093584" class="fil1" d="M4.62726 4.26403c0.114772,0 0.218685,0.0465236 0.293906,0.121744 0.0752165,0.0752165 0.12174,0.179126 0.12174,0.293902 0,0.114776 -0.0465236,0.218689 -0.12174,0.293906 -0.0752205,0.0752205 -0.179134,0.121744 -0.293906,0.121744 -0.114776,0 -0.218689,-0.0465236 -0.293906,-0.121744 -0.0752205,-0.0752165 -0.121744,-0.17913 -0.121744,-0.293906 0,-0.114776 0.0465236,-0.218685 0.121744,-0.293902 0.0752165,-0.0752205 0.17913,-0.121744 0.293906,-0.121744zm0.260433 0.155213c-0.0666457,-0.0666496 -0.158728,-0.10787 -0.260433,-0.10787 -0.101709,0 -0.193787,0.0412205 -0.260437,0.10787 -0.0666457,0.0666457 -0.10787,0.158724 -0.10787,0.260433 0,0.101709 0.0412205,0.193787 0.10787,0.260437 0.0666496,0.0666457 0.158728,0.10787 0.260437,0.10787 0.101705,0 0.193787,-0.0412244 0.260433,-0.10787 0.0666496,-0.0666496 0.107874,-0.158728 0.107874,-0.260437 0,-0.101709 -0.0412283,-0.193787 -0.107874,-0.260433z"/>
    <path id="_264093512" class="fil1" d="M3.95637 3.8743l-0.309642 0c-0.0309764,0 -0.0560945,-0.0172126 -0.0560945,-0.0384409l0 -0.141465c0,-0.0212323 0.0251181,-0.0384449 0.0560945,-0.0384449l0.309642 0c0.0309803,0 0.0560945,0.0172126 0.0560945,0.0384449l0 0.141465c0,0.0212283 -0.0251142,0.0384409 -0.0560945,0.0384409z"/>
   </g>
  </g>
 </g>
 <rect class="fil3" width="6.82666" height="6.82666"/>
</svg>
