<?xml version="1.0" encoding="UTF-8"?>
<!DOCTYPE svg PUBLIC "-//W3C//DTD SVG 1.1//EN" "http://www.w3.org/Graphics/SVG/1.1/DTD/svg11.dtd">
<!-- Creator: CorelDRAW -->
<svg xmlns="http://www.w3.org/2000/svg" xml:space="preserve" width="6.82666in" height="6.82666in" style="shape-rendering:geometricPrecision; text-rendering:geometricPrecision; image-rendering:optimizeQuality; fill-rule:evenodd; clip-rule:evenodd"
viewBox="0 0 6.82666 6.82666"
 xmlns:xlink="http://www.w3.org/1999/xlink">
 <defs>
  <style type="text/css">
   <![CDATA[
    .fil3 {fill:none}
    .fil0 {fill:#424242}
    .fil2 {fill:#FFFFFE}
    .fil1 {fill:#FFFFFE;fill-rule:nonzero}
   ]]>
  </style>
 </defs>
 <rect class="fil0" width="6.82666" height="6.82666"/>
 <g id="Layer_x0020_1">
  <metadata id="CorelCorpID_0Corel-Layer"/>
  <g id="_264094040">
   <path id="_264094688" class="fil1" d="M2.56 1.44079l1.17493 0c0.116961,0 0.22322,0.0477756 0.300193,0.12474 0.0769606,0.0769724 0.12474,0.183228 0.12474,0.300189l0 0.961307c0,0.116961 -0.0477795,0.22322 -0.124744,0.300189 -0.0769646,0.0769606 -0.183228,0.124736 -0.300189,0.124736l-1.17493 0c-0.116965,0 -0.22322,-0.0477756 -0.300185,-0.12474 -0.0769685,-0.0769646 -0.124744,-0.183228 -0.124744,-0.300185l0 -0.961307c0,-0.116961 0.0477756,-0.22322 0.12474,-0.300185 0.0769685,-0.0769685 0.183228,-0.124744 0.300189,-0.124744z"/>
   <path id="_264094544" class="fil1" d="M1.15009 1.76123l0.890925 0c-0.00688583,0.0341102 -0.0104291,0.0690906 -0.0104291,0.104492l0 0.961307c0,0.0354094 0.00354331,0.0703858 0.0104291,0.104492l-0.890925 0c-0.0817205,0 -0.155933,-0.0333543 -0.209665,-0.0870906 -0.0537323,-0.0537362 -0.0870906,-0.127953 -0.0870906,-0.209661l0 -0.576783c0,-0.0817205 0.0333583,-0.155933 0.0870906,-0.209665 0.0537323,-0.0537323 0.127945,-0.0870906 0.209665,-0.0870906zm0.289547 0.529429c0.0577087,0 0.104492,-0.0467874 0.104492,-0.104492 0,-0.0577087 -0.0467835,-0.104492 -0.104492,-0.104492l-0.211291 0c-0.0577087,0 -0.104496,0.0467835 -0.104496,0.104492 0,0.0577047 0.0467874,0.104492 0.104496,0.104492l0.211291 0zm0 0.320689c0.0577087,0 0.104492,-0.0467874 0.104492,-0.104492 0,-0.0577087 -0.0467835,-0.104496 -0.104492,-0.104496l-0.211291 0c-0.0577087,0 -0.104496,0.0467874 -0.104496,0.104496 0,0.0577047 0.0467874,0.104492 0.104496,0.104492l0.211291 0z"/>
   <path id="_264094256" class="fil2" d="M4.05002 2.08399l0.272374 0c0.438909,0 0.856047,0.174701 1.16615,0.484795 0.310094,0.310098 0.484795,0.727236 0.484795,1.16615 0,0.438906 -0.174701,0.856047 -0.484795,1.16615 -0.310094,0.310094 -0.727236,0.484795 -1.16615,0.484795l-3.15094 0c-0.115382,0 -0.20898,-0.0936024 -0.20898,-0.20898 0,-0.115382 0.0935984,-0.20898 0.20898,-0.20898l3.15094 0c0.327902,0 0.639004,-0.13074 0.870618,-0.362362 0.231622,-0.231618 0.362362,-0.542717 0.362362,-0.870618 0,-0.327902 -0.13074,-0.639004 -0.362362,-0.870618 -0.231614,-0.231618 -0.542717,-0.362362 -0.870618,-0.362362l-0.272374 0c-0.115382,0 -0.20898,-0.0935984 -0.20898,-0.20898 0,-0.115378 0.0935984,-0.20898 0.20898,-0.20898z"/>
  </g>
 </g>
 <rect class="fil3" width="6.82666" height="6.82666"/>
</svg>
