<?xml version="1.0" encoding="UTF-8"?>
<!DOCTYPE svg PUBLIC "-//W3C//DTD SVG 1.1//EN" "http://www.w3.org/Graphics/SVG/1.1/DTD/svg11.dtd">
<!-- Creator: CorelDRAW -->
<svg xmlns="http://www.w3.org/2000/svg" xml:space="preserve" width="6.82666in" height="6.82666in" style="shape-rendering:geometricPrecision; text-rendering:geometricPrecision; image-rendering:optimizeQuality; fill-rule:evenodd; clip-rule:evenodd"
viewBox="0 0 6.82666 6.82666"
 xmlns:xlink="http://www.w3.org/1999/xlink">
 <defs>
  <style type="text/css">
   <![CDATA[
    .fil2 {fill:none}
    .fil0 {fill:#424242}
    .fil1 {fill:#FFFFFE}
   ]]>
  </style>
 </defs>
 <rect class="fil0" width="6.82666" height="6.82666"/>
 <g id="Layer_x0020_1">
  <metadata id="CorelCorpID_0Corel-Layer"/>
  <path class="fil1" d="M1.65333 0.853327l2.4 0c0.0269016,0 0.0514803,0.00996457 0.0702441,0.0263976l1.11425 0.848953 0.000149606 -0.00019685c0.0275276,0.0209724 0.0419921,0.0527205 0.0420236,0.0848465l0 0.00103937 0 1.25831c0,0.0589094 -0.0477598,0.106669 -0.106669,0.106669l-0.0533346 0c-0.0292244,0 -0.0558701,0.0120354 -0.075252,0.0314134 -0.019378,0.0193819 -0.0314134,0.0460276 -0.0314134,0.075252l0 1.28c0,0.0292244 0.0120354,0.0558701 0.0314134,0.075252 0.0193819,0.019378 0.0460276,0.0314134 0.075252,0.0314134l0.0533346 0c0.0589094,0 0.106669,0.0477598 0.106669,0.106669l0 1.08731c0,0.0589094 -0.0477598,0.106669 -0.106669,0.106669l-3.52 0c-0.0589094,0 -0.106669,-0.0477598 -0.106669,-0.106669l0 -1.08731c0,-0.0589094 0.0477598,-0.106669 0.106669,-0.106669l0.0533346 0c0.0292244,0 0.0558701,-0.0120354 0.075252,-0.0314134 0.019378,-0.0193819 0.0314134,-0.0460276 0.0314134,-0.075252l0 -1.28c0,-0.0292244 -0.0120354,-0.0558701 -0.0314134,-0.075252 -0.0193819,-0.019378 -0.0460276,-0.0314134 -0.075252,-0.0314134l-0.0533346 0c-0.0589094,0 -0.106669,-0.0477598 -0.106669,-0.106669l0 -2.11268c0,-0.0589094 0.0477598,-0.106669 0.106669,-0.106669zm0.906665 1.86667l1.70667 0c0.0294528,0 0.0533346,0.0238819 0.0533346,0.0533346l0 2.24c0,0.0294528 -0.0238819,0.0533346 -0.0533346,0.0533346l-1.70667 0c-0.0294528,0 -0.0533346,-0.0238819 -0.0533346,-0.0533346l0 -2.24c0,-0.0294528 0.0238819,-0.0533346 0.0533346,-0.0533346zm1.65333 0.106669l-1.6 0 0 2.13333 1.6 0 0 -2.13333zm-2.188 -1.65272l0.213331 0 0 0.747287 -0.213331 0 0 -0.747287zm1.70657 0l0.213331 0 0 0.747287 -0.213331 0 0 -0.747287zm-0.426642 0l0.213331 0 0 0.747287 -0.213331 0 0 -0.747287zm-0.426642 0l0.213331 0 0 0.747287 -0.213331 0 0 -0.747287zm-0.426642 0l0.213331 0 0 0.747287 -0.213331 0 0 -0.747287zm0.785035 1.96644c0,-0.0294528 -0.0238819,-0.0533346 -0.0533346,-0.0533346 -0.0294528,0 -0.0533346,0.0238819 -0.0533346,0.0533346l0 1.50589c0,0.0294528 0.0238819,0.0533346 0.0533346,0.0533346 0.0294528,0 0.0533346,-0.0238819 0.0533346,-0.0533346l0 -1.50589zm0.459323 0c0,-0.0294528 -0.0238819,-0.0533346 -0.0533346,-0.0533346 -0.0294528,0 -0.0533346,0.0238819 -0.0533346,0.0533346l0 1.50589c0,0.0294528 0.0238819,0.0533346 0.0533346,0.0533346 0.0294528,0 0.0533346,-0.0238819 0.0533346,-0.0533346l0 -1.50589z"/>
 </g>
 <rect class="fil2" width="6.82666" height="6.82666"/>
</svg>
