<?xml version="1.0" encoding="UTF-8"?>
<!DOCTYPE svg PUBLIC "-//W3C//DTD SVG 1.1//EN" "http://www.w3.org/Graphics/SVG/1.1/DTD/svg11.dtd">
<!-- Creator: CorelDRAW -->
<svg xmlns="http://www.w3.org/2000/svg" xml:space="preserve" width="6.82666in" height="6.82666in" style="shape-rendering:geometricPrecision; text-rendering:geometricPrecision; image-rendering:optimizeQuality; fill-rule:evenodd; clip-rule:evenodd"
viewBox="0 0 6.82666 6.82666"
 xmlns:xlink="http://www.w3.org/1999/xlink">
 <defs>
  <style type="text/css">
   <![CDATA[
    .fil2 {fill:none}
    .fil0 {fill:#424242}
    .fil1 {fill:#FFFFFE;fill-rule:nonzero}
   ]]>
  </style>
 </defs>
 <rect class="fil0" width="6.82666" height="6.82666"/>
 <g id="Layer_x0020_1">
  <metadata id="CorelCorpID_0Corel-Layer"/>
  <g id="_264088304">
   <path id="_264087944" class="fil1" d="M1.42941 1.38952l3.96783 0c0.061689,0 0.117693,0.0251614 0.158232,0.0656929 0.0405354,0.0405354 0.0656929,0.0965433 0.0656929,0.158228l0 2.16683c0,0.061689 -0.0251575,0.117693 -0.0656929,0.158228 -0.0405354,0.0405354 -0.0965433,0.0656929 -0.158232,0.0656929l-1.73181 0 0 -0.213339 1.73181 0c0.00280315,0 0.00543307,-0.00122441 0.00739764,-0.00318898 0.00196457,-0.00196457 0.00318898,-0.00459055 0.00318898,-0.0073937l0 -2.16683c0,-0.00279921 -0.00122441,-0.00542913 -0.00318898,-0.0073937 -0.00196457,-0.00196457 -0.00459449,-0.00318898 -0.00739764,-0.00318898l-3.96783 0c-0.00280315,0 -0.00543307,0.00122441 -0.00739764,0.00318898 -0.00196457,0.00196457 -0.00318898,0.00459055 -0.00318898,0.0073937l0 2.16683c0,0.00280315 0.00122441,0.00542913 0.00318898,0.0073937 0.00196457,0.00196457 0.00459449,0.00318898 0.00739764,0.00318898l1.73181 0 0 0.213339 -1.73181 0c-0.061689,0 -0.117697,-0.0251575 -0.158232,-0.0656929 -0.0405354,-0.0405354 -0.0656929,-0.0965394 -0.0656929,-0.158228l0 -2.16683c0,-0.061689 0.0251575,-0.117693 0.0656929,-0.158228 0.0405354,-0.0405354 0.0965433,-0.0656929 0.158232,-0.0656929z"/>
   <path id="_264087728" class="fil1" d="M2.57334 4.79141l1.5748e-005 0 0.000153543 0.000177165 0.00139764 0.00158661 0.00015748 0.000177165 0.000153543 0.000177165 0.00015748 0.000173228 0.00015748 0.000177165 0.000944882 0.00105118 0.000161417 0.000173228 0.00015748 0.000173228 3.93701e-006 3.93701e-006 0.00240157 0.00259843 0.000161417 0.000173228 0.000161417 0.000169291 0.000165354 0.000173228 0.000161417 0.000173228 0.000161417 0.000169291 0.000165354 0.000173228c0.00103543,0.00108661 0.00208661,0.00216142 0.00314961,0.00323228l0.000165354 0.000169291 0.000169291 0.000169291 0.202268 0.202268 -1.80276 0c-0.0169409,0 -0.0335984,-0.00343307 -0.0494646,-0.00975591 -0.0252598,-0.0100591 -0.0454409,-0.0267992 -0.0595,-0.0484921 -0.0135984,-0.0209449 -0.0208819,-0.0448386 -0.0208819,-0.0700709 0,-0.0163346 0.00338189,-0.0337992 0.0105118,-0.0517126l0.251575 -0.631992c0.0115118,-0.0289488 0.0323976,-0.0542402 0.0567441,-0.0716496 0.0259134,-0.0185433 0.0579449,-0.0300512 0.0898189,-0.0300512l1.89924 0 0 0.213339 0 0.135929 -0.00244882 -7.87402e-006 -0.024122 -9.05512e-005 -0.00664567 -2.75591e-005 -0.00664173 -2.75591e-005 -0.0048622 -1.9685e-005 -0.00177953 -3.93701e-006 -0.00664567 -2.75591e-005 -0.00664173 -2.75591e-005 -0.00606693 -2.75591e-005 -0.000574803 0 -0.00664567 -2.75591e-005 -0.00664173 -3.14961e-005 -0.00664173 -2.75591e-005 -0.000629921 -3.93701e-006 -0.00601181 -2.3622e-005 -0.00664567 -2.75591e-005 -0.00664173 -3.14961e-005 -0.00183858 -7.87402e-006 -0.00480315 -1.9685e-005 -0.00664567 -3.14961e-005 -0.00664173 -2.75591e-005 -0.00304331 -1.5748e-005 -0.00359843 -1.5748e-005 -0.00664567 -2.75591e-005 -0.00664173 -3.14961e-005 -0.00424803 -1.9685e-005 -0.0023937 -1.1811e-005 -0.00664567 -3.14961e-005 -0.00664173 -2.75591e-005 -0.00545669 -2.75591e-005 -0.00118504 -3.93701e-006 -0.00664567 -3.14961e-005 -0.00664173 -3.14961e-005 -0.00664173 -3.14961e-005 -1.9685e-005 0 -0.00662598 -3.14961e-005 -0.00664173 -3.14961e-005 -0.00664173 -3.14961e-005 -0.00122441 -7.87402e-006 -0.00542126 -2.3622e-005 -0.00664173 -3.14961e-005 -0.0090748 -4.72441e-005 -0.0042126 -1.9685e-005 -0.00664173 -3.14961e-005 -0.00664173 -3.14961e-005 -0.0036378 -1.9685e-005 -0.00300787 -1.1811e-005 -0.00664173 -3.54331e-005 -0.00664173 -3.14961e-005 -0.00484252 -2.3622e-005 -0.00180315 -7.87402e-006 -0.00664173 -3.14961e-005 -0.00664173 -3.54331e-005 -0.00605118 -2.75591e-005 -0.000594488 -3.93701e-006 -0.00664173 -3.14961e-005 -0.00664173 -3.54331e-005 -0.00664173 -3.14961e-005 -0.000614173 -3.93701e-006 -0.0060315 -3.14961e-005 -0.00664173 -3.14961e-005 -0.00664173 -3.14961e-005 -0.0018189 -1.1811e-005 -0.00482677 -2.3622e-005 -0.00664173 -3.14961e-005 -0.00664173 -3.14961e-005 -0.00302362 -1.5748e-005 -0.00361811 -1.9685e-005 -0.00664567 -3.14961e-005 -0.00664173 -3.54331e-005 -0.00423228 -1.9685e-005 -0.00240945 -1.1811e-005 -0.00664567 -3.14961e-005 -0.00664173 -3.54331e-005 -0.00543701 -2.75591e-005 -0.00120472 -3.93701e-006 -0.00664173 -3.14961e-005 -0.00664567 -3.54331e-005 -0.00664173 -3.14961e-005c-0.0571929,-0.000279528 -0.111929,0.0219961 -0.152409,0.0624724 -0.00129921,0.00129921 -0.00257874,0.0026063 -0.00383465,0.00393307l-0.00015748 0.000169291c-0.00116929,0.00123622 -0.00232677,0.00248031 -0.00346063,0.00373622l-0.00107874 0.00122047c-0.000811024,0.000913386 -0.00162598,0.00182677 -0.00242126,0.00274803l-0.00122835 0.00145276 -0.00223228 0.00266929 -0.00116535 0.00144882 -0.00211024 0.00265748 -0.00127559 0.00166929c-0.000629921,0.000826772 -0.00125984,0.00164961 -0.00187402,0.00248425l-0.00138189 0.00190157 -0.00165748 0.00231496 -0.00144488 0.00209449 -0.00147244 0.00217323 -0.00131496 0.00200787 -0.00162205 0.00251969 -0.0011063 0.00178346 -0.00161811 0.00266929 -0.00102362 0.00173622 -0.00154724 0.00269291 -0.0011063 0.00198425 -0.00125591 0.00232283 -0.00124016 0.00235433 -0.00109843 0.00214961 -0.0011811 0.00238583 -0.00109449 0.00228346 -0.00108661 0.00232283 -0.00105512 0.00235039 -0.00100787 0.00229921 -0.000925197 0.00219291 -0.00107874 0.00262205 -0.000767717 0.00197244 -0.00105512 0.00274409 -0.000751969 0.00207087 -0.000937008 0.00262205 -0.000925197 0.00275984 -0.000633858 0.00190157 -0.00088189 0.00284252 -0.000649606 0.00213386 -5.11811e-005 0.000161417c-0.000440945,0.0015 -0.000866142,0.00299606 -0.00126772,0.00450394l-1.5748e-005 6.69291e-005c-0.000425197,0.00157087 -0.000830709,0.00315748 -0.00121654,0.00473622l-4.72441e-005 0.000185039 -7.87402e-006 3.14961e-005c-0.000385827,0.00159449 -0.00076378,0.00319291 -0.00111417,0.00479528l-3.93701e-005 0.000181102c-0.000338583,0.00154331 -0.000661417,0.00308661 -0.000956693,0.00463386l-3.14961e-005 0.000177165 -0.00038189 0.00207087 -0.000527559 0.0028937 -0.000318898 0.00200787 -0.000472441 0.00302756 -0.00026378 0.00193307 -0.000397638 0.00302362 -0.000224409 0.00194488 -0.000326772 0.00305118 -0.000204724 0.00227165 -0.000220472 0.00264173 -0.00015748 0.00234252 -0.000161417 0.00264961 -0.000106299 0.00244488 -9.44882e-005 0.00262598 -4.72441e-005 0.00227165 -3.54331e-005 0.00267323 3.93701e-006 0.00252756 3.14961e-005 0.00246063 6.29921e-005 0.00251575 8.26772e-005 0.0024252 0.000122047 0.00258661 0.000153543 0.00256299 0.000169291 0.00240157 0.000204724 0.00244488 0.000240157 0.00261024 0.000283465 0.00260236 0.000251969 0.00219685 0.000374016 0.00284646 0.000314961 0.00224016 0.00038189 0.00245276 0.00042126 0.00258268 0.000492126 0.00273228 0.000374016 0.00201181c0.000204724,0.00105118 0.000429134,0.00209843 0.000649606,0.00314961l0.000389764 0.00185039c0.00023622,0.0010748 0.000488189,0.00214567 0.000744094,0.00321654l0.000397638 0.00168504c0.000314961,0.0012874 0.000649606,0.0025748 0.000988189,0.00385827l0.000255906 0.000984252c0.000389764,0.00145276 0.000799213,0.00290157 0.00122441,0.00434252l0.00015748 0.000555118 1.9685e-005 6.69291e-005c0.000468504,0.00157874 0.000952756,0.00315354 0.00146063,0.00472047l4.72441e-005 0.000145669 0.000307087 0.000913386c0.00042126,0.00129134 0.000846457,0.00257874 0.00129528,0.0038622l0.000472441 0.00130709 0.00125591 0.00346063 0.000795276 0.00205512 0.000992126 0.00253543 0.0010315 0.00248425 0.00096063 0.00228346 0.000956693 0.00216535 0.00112205 0.00250394 0.000996063 0.00211811 0.0012126 0.00253543 0.00103543 0.00206693 0.00126772 0.00249213 0.00115354 0.00216929 0.00127559 0.00235039 0.0011378 0.00203543 0.00148425 0.00258268 0.00106299 0.00179528 0.00156693 0.00257874 0.00129528 0.00207087 0.0013622 0.00212205 0.00150787 0.00229134 0.00138189 0.00203543 0.00160236 0.00230315 0.00138189 0.00193307 0.00161024 0.00220866 0.00166929 0.0022126 0.00148425 0.00192913 0.0017874 0.00224803 0.0015 0.00185827 0.00194882 0.00233071 0.00145276 0.0017126 0.00046063 0.000543307zm1.09209 -0.487047l0 0.136567 0.000586614 0 0.00602756 -1.1811e-005 0.0132283 -2.75591e-005 0.00187795 -7.87402e-006 0.00473622 -7.87402e-006 0.00661417 -1.9685e-005 0.00661024 -1.5748e-005 0.00317323 -7.87402e-006 0.00344094 -1.1811e-005 0.00661417 -1.9685e-005 0.00661417 -1.9685e-005 0.0044685 -1.1811e-005 0.00214567 -7.87402e-006 0.00661417 -1.9685e-005 0.00661417 -2.3622e-005 0.00575984 -1.9685e-005 0.000854331 -3.93701e-006 0.00661417 -2.3622e-005 0.00661417 -2.3622e-005 0.00661417 -2.75591e-005 0.000437008 0 0.00617717 -2.3622e-005 0.00661024 -2.75591e-005 0.00661417 -2.75591e-005 0.00173622 -7.87402e-006 0.00487795 -2.3622e-005 0.00661417 -2.75591e-005 0.00661417 -3.14961e-005 0.00302756 -1.1811e-005 0.00358661 -1.9685e-005 0.00661417 -3.14961e-005 0.00661417 -3.14961e-005 0.0043189 -2.3622e-005 0.00229528 -1.1811e-005 0.00661417 -3.54331e-005 0.00661417 -3.54331e-005 0.00561024 -2.75591e-005 0.00100394 -7.87402e-006 0.00661417 -3.54331e-005 0.00661024 -3.93701e-005 0.00661417 -3.93701e-005 0.000295276 0 0.0063189 -3.93701e-005 0.00661417 -3.93701e-005 0.00661417 -4.33071e-005 0.00158661 -7.87402e-006 0.00502756 -3.54331e-005 0.00661417 -4.33071e-005 0.00661417 -4.33071e-005 0.00287795 -1.9685e-005 0.00373622 -2.3622e-005 0.00661417 -4.72441e-005 0.00661417 -4.72441e-005 0.00417323 -3.14961e-005 0.00244094 -1.5748e-005 0.00661024 -5.11811e-005 0.00661417 -5.11811e-005 0.0054685 -3.93701e-005 0.00114567 -1.1811e-005 0.00661417 -5.11811e-005 0.00661417 -5.11811e-005 0.00661417 -5.51181e-005 0.000145669 0 0.0064685 -5.51181e-005 0.00661417 -5.51181e-005 0.00661417 -5.90551e-005 0.00143701 -1.1811e-005 0.00517323 -4.33071e-005 0.00661417 -5.90551e-005 0.00661417 -5.90551e-005 0.00273228 -2.75591e-005 0.00388189 -3.54331e-005 0.00661417 -6.29921e-005 0.00661417 -6.29921e-005 0.00402756 -3.54331e-005 0.00258661 -2.75591e-005 0.00661417 -6.29921e-005 0.00661417 -6.69291e-005 0.0053189 -5.51181e-005 0.00129134 -1.1811e-005 0.00661417 -7.08661e-005 0.00661417 -6.69291e-005 0.00661417 -7.08661e-005c0.0578071,-0.000622047 0.113323,0.0214961 0.154276,0.0624449 0.00129921,0.00129921 0.0025748,0.00261024 0.00383465,0.00393307l0.00015748 0.000169291c0.00117323,0.00123622 0.00233071,0.00248819 0.0034685,0.00374409l0.000834646 0.000940945c0.00092126,0.0010315 0.00183858,0.00206299 0.00273622,0.0031063l0.00103543 0.00122835c0.000767717,0.000905512 0.0015315,0.00181102 0.00227953,0.00272441l0.00138583 0.00172835 0.00195669 0.00246063 0.00127559 0.00166929 0.0018622 0.0024685 0.00151575 0.00209055 0.0014685 0.00205118 0.00156299 0.00225984 0.00140551 0.00207874 0.00141339 0.00214961 0.00147638 0.00230709 0.00120472 0.00192913 0.00158268 0.00261417 0.00102362 0.00173622 0.00154724 0.00269291 0.0011063 0.00198425 0.00127559 0.00235433 0.00117717 0.00223622 0.00117323 0.00230315 0.00118504 0.00238583 0.0010315 0.00215748 0.00108268 0.00230709 0.00118898 0.00265748 0.000858268 0.00194882 0.00103937 0.00247638 0.00100394 0.00244488 0.000858268 0.00219291 0.000913386 0.00237402c0.000374016,0.000996063 0.000728346,0.00199606 0.00108661,0.00299606l0.000602362 0.0016811 0.00107874 0.0032126 0.000551181 0.00166535 0.000771654 0.00248819 0.00076378 0.0025 3.54331e-005 0.000114173c0.000440945,0.0015 0.000862205,0.00299606 0.00126772,0.0045l6.69291e-005 0.000248031c0.000425197,0.0015748 0.000822835,0.00315748 0.0012126,0.00474016 0.000389764,0.0016063 0.000767717,0.0032126 0.00112205,0.00482677l3.93701e-005 0.000181102c0.000338583,0.00154331 0.000653543,0.00308661 0.000956693,0.00463386l3.14961e-005 0.000177165 0.00038189 0.00207087c0.000177165,0.00096063 0.000362205,0.0019252 0.000523622,0.00288976l0.000334646 0.00209055 0.000456693 0.0029252 0.000275591 0.00201575 0.000385827 0.00293701 0.000271654 0.0023937 0.00026378 0.00243701 0.000244094 0.00271654 0.000200787 0.00237402 0.000161417 0.0023937 0.000153543 0.00260236 0.000110236 0.00247638 9.44882e-005 0.00260236 4.72441e-005 0.00227953 3.54331e-005 0.00266929 -3.93701e-006 0.00252756 -3.14961e-005 0.00246063 -6.29921e-005 0.00251575 -8.26772e-005 0.0024252 -0.000122047 0.00258661 -0.000153543 0.00257087 -0.000169291 0.00237795 -0.000204724 0.00248819 -0.000240157 0.00257874 -0.00026378 0.00244882 -0.000295276 0.00253937 -0.000291339 0.00219291 -0.000409449 0.00294094 -0.000255906 0.00164173 -0.000543307 0.00333858 -0.000279528 0.00155512 -0.000629921 0.0033622 -0.000244094 0.00120079c-0.000255906,0.00127165 -0.000523622,0.00253937 -0.00080315,0.00380709l-9.44882e-005 0.000401575c-0.000322835,0.00144488 -0.00065748,0.00288976 -0.00101181,0.00432677l-0.000251969 0.000988189c-0.00191339,0.00761417 -0.00424409,0.0151417 -0.00700394,0.0225472l-6.29921e-005 0.000177165c-0.00110236,0.00295276 -0.00228346,0.00588189 -0.00352362,0.00879528l-0.000220472 0.000519685c-0.000535433,0.00124803 -0.00108661,0.00249606 -0.00164961,0.00373622l-0.000417323 0.000925197c-0.000590551,0.00129134 -0.00120079,0.00257874 -0.0018189,0.0038622l-0.000291339 0.000606299c-0.000625984,0.0012874 -0.00126378,0.00256299 -0.00191732,0.00383858l-0.000362205 0.000708661c-0.00065748,0.00127165 -0.00133465,0.00253543 -0.00201575,0.00379528l-0.000354331 0.000653543c-0.00069685,0.00127559 -0.00141339,0.00254331 -0.0021378,0.00380709l-0.000334646 0.000586614c-0.000720472,0.00124803 -0.00146063,0.00248819 -0.00220866,0.00372441l-0.00042126 0.000692913c-0.000748031,0.00122441 -0.00150394,0.00244094 -0.00227953,0.00364961l-0.000429134 0.000665354c-0.000775591,0.00120472 -0.00156693,0.00240551 -0.00237008,0.00359843l-0.000456693 0.000677165c-0.000866142,0.00127559 -0.00174803,0.00253937 -0.00264567,0.00379921l-5.11811e-005 7.08661e-005c-0.00394094,0.00554331 -0.00818898,0.0109331 -0.0127283,0.0161575l-0.000153543 0.000177165 -0.000153543 0.000177165 -0.00015748 0.000177165 -0.000153543 0.000177165 -0.000153543 0.000173228 -0.00015748 0.000177165 -0.000153543 0.000177165 -0.000311024 0.000350394 -0.00015748 0.000177165 -0.000153543 0.000177165 -0.00015748 0.000173228 -0.00015748 0.000177165 -0.00141732 0.0015748 -0.00015748 0.000173228 -0.000161417 0.000173228 -0.00015748 0.000173228 -0.000161417 0.000173228 -0.00144488 0.00155906 -0.000161417 0.000173228 -0.000161417 0.000173228 -0.000161417 0.000173228 -0.000161417 0.000173228 -0.000488189 0.000511811 -0.000165354 0.000173228 -2.75591e-005 2.75591e-005c-0.000972441,0.00101969 -0.00194882,0.00202756 -0.00295276,0.00303543l-0.000169291 0.000169291 -0.000165354 0.000169291 -0.000169291 0.000169291 0 3.93701e-006 -0.202268 0.202268 1.80276 0c0.0169488,0 0.0336102,-0.00342913 0.0494606,-0.00975591 0.0252362,-0.0100512 0.0454134,-0.0267638 0.0595039,-0.0484921 0.0135984,-0.0209449 0.0208819,-0.0448386 0.0208819,-0.0700709 0,-0.0163346 -0.00338189,-0.0337992 -0.0105118,-0.0517126l-0.251575 -0.631992c-0.0115118,-0.0289488 -0.0323976,-0.0542402 -0.0567441,-0.0716496 -0.0259134,-0.0185433 -0.0579449,-0.0300512 -0.0898189,-0.0300512l-1.89924 0 0 0.213339z"/>
   <path id="_264088280" class="fil1" d="M3.55877 3.50571c0,-0.0526024 -0.0651181,-0.095252 -0.145441,-0.095252 -0.0803228,0 -0.145441,0.0426496 -0.145441,0.095252l0 1.61923c0,0.0526024 0.0651181,0.095252 0.145441,0.095252 0.0803228,0 0.145441,-0.0426496 0.145441,-0.095252l0 -1.61923z"/>
   <path id="_264088208" class="fil1" d="M4.16757 4.72706c0.0416496,-0.0416496 0.0416496,-0.109185 0,-0.150835 -0.0214173,-0.0214173 -0.0496535,-0.031815 -0.0777087,-0.0312126 -0.451441,-1.5748e-005 -0.902886,-1.9685e-005 -1.35433,-1.9685e-005l0.00126378 1.9685e-005c-0.0280551,-0.000598425 -0.0562992,0.00980315 -0.0777087,0.0312126 -0.0416496,0.0416496 -0.0416496,0.109185 0,0.150835l0.663331 0.663327c0.00742126,0.0074252 0.0155118,0.0162559 0.0237126,0.0229291 0.0177441,0.0144213 0.0390472,0.0223031 0.0606693,0.0236181 0.0327047,0.00198819 0.0610315,-0.0101378 0.0839055,-0.0330118l0.676862 -0.676862z"/>
  </g>
 </g>
 <rect class="fil2" width="6.82666" height="6.82666"/>
</svg>
