<?xml version="1.0" encoding="UTF-8"?>
<!DOCTYPE svg PUBLIC "-//W3C//DTD SVG 1.1//EN" "http://www.w3.org/Graphics/SVG/1.1/DTD/svg11.dtd">
<!-- Creator: CorelDRAW -->
<svg xmlns="http://www.w3.org/2000/svg" xml:space="preserve" width="6.82666in" height="6.82666in" style="shape-rendering:geometricPrecision; text-rendering:geometricPrecision; image-rendering:optimizeQuality; fill-rule:evenodd; clip-rule:evenodd"
viewBox="0 0 6.82666 6.82666"
 xmlns:xlink="http://www.w3.org/1999/xlink">
 <defs>
  <style type="text/css">
   <![CDATA[
    .fil3 {fill:none}
    .fil0 {fill:#424242}
    .fil2 {fill:#FFFFFE}
    .fil1 {fill:#FFFFFE;fill-rule:nonzero}
   ]]>
  </style>
 </defs>
 <rect class="fil0" width="6.82666" height="6.82666"/>
 <g id="Layer_x0020_1">
  <metadata id="CorelCorpID_0Corel-Layer"/>
  <path class="fil1" d="M1.11097 1.39431l4.60472 0c0.0752756,0 0.143638,0.0307205 0.193126,0.0802087 0.0494882,0.0494882 0.0802087,0.11785 0.0802087,0.193126l0 2.72624c0,0.0752756 -0.0307205,0.143638 -0.0802087,0.193126 -0.0494882,0.0494882 -0.11785,0.0802087 -0.193126,0.0802087l-4.60472 0c-0.0752756,0 -0.143638,-0.0307205 -0.193126,-0.0802087 -0.0494882,-0.0494882 -0.0802087,-0.11785 -0.0802087,-0.193126l0 -2.72624c0,-0.0752756 0.0307205,-0.143638 0.0802087,-0.193126 0.0494882,-0.0494882 0.11785,-0.0802087 0.193126,-0.0802087zm4.60472 0.213339l-4.60472 0c-0.0163898,0 -0.0313701,0.00678346 -0.0422913,0.0177047 -0.0109213,0.0109213 -0.0177047,0.0259016 -0.0177047,0.0422913l0 2.72624c0,0.0163898 0.00678346,0.0313701 0.0177047,0.0422913 0.0109213,0.0109213 0.0259016,0.0177047 0.0422913,0.0177047l4.60472 0c0.0163898,0 0.0313701,-0.00678346 0.0422913,-0.0177047 0.0109213,-0.0109213 0.0177047,-0.0259016 0.0177047,-0.0422913l0 -2.72624c0,-0.0163898 -0.00678346,-0.0313701 -0.0177047,-0.0422913 -0.0109213,-0.0109213 -0.0259016,-0.0177047 -0.0422913,-0.0177047z"/>
  <path class="fil1" d="M3.52 4.64461c0,-0.0589094 -0.0477598,-0.106669 -0.106669,-0.106669 -0.0589094,0 -0.106669,0.0477598 -0.106669,0.106669l0 0.448335c0,0.0589094 0.0477598,0.106669 0.106669,0.106669 0.0589094,0 0.106669,-0.0477598 0.106669,-0.106669l0 -0.448335z"/>
  <path class="fil1" d="M2.67173 5.00762c-0.073311,0 -0.132744,0.0797283 -0.132744,0.178071 0,0.00468898 0.000137795,0.00932677 0.000401575,0.0139213l1.74789 0c0.00026378,-0.00459449 0.000401575,-0.00923228 0.000401575,-0.0139213 0,-0.0983425 -0.0594331,-0.178071 -0.132744,-0.178071l-1.4832 0z"/>
  <path class="fil1" d="M1.28 1.81794l0.426665 0c0.0294528,0 0.0533346,0.0238819 0.0533346,0.0533346l0 1.92c0,0.0294528 -0.0238819,0.0533346 -0.0533346,0.0533346l-0.426665 0c-0.0294528,0 -0.0533346,-0.0238819 -0.0533346,-0.0533346l0 -1.92c0,-0.0294528 0.0238819,-0.0533346 0.0533346,-0.0533346zm0.373331 0.106669l-0.319996 0 0 1.81333 0.319996 0 0 -1.81333z"/>
  <path class="fil1" d="M5.08489 1.83128l0.461772 0c0.0220906,0 0.04,0.0179094 0.04,0.04l0 1.92c0,0.0220906 -0.0179094,0.04 -0.04,0.04l-0.461772 0c-0.0220906,0 -0.04,-0.0179094 -0.04,-0.04l0 -1.92c0,-0.0220906 0.0179094,-0.04 0.04,-0.04zm0.421772 0.08l-0.381772 0 0 1.84 0.381772 0 0 -1.84z"/>
  <path class="fil1" d="M5.35578 1.91161c0,-0.0220906 -0.0179094,-0.04 -0.04,-0.04 -0.0220906,0 -0.04,0.0179094 -0.04,0.04l0 1.83935c0,0.0220906 0.0179094,0.04 0.04,0.04 0.0220906,0 0.04,-0.0179094 0.04,-0.04l0 -1.83935z"/>
  <path class="fil1" d="M5.53946 3.55699c0.0220906,0 0.04,-0.0179094 0.04,-0.04 0,-0.0220906 -0.0179094,-0.04 -0.04,-0.04l-0.447358 0c-0.0220906,0 -0.04,0.0179094 -0.04,0.04 0,0.0220906 0.0179094,0.04 0.04,0.04l0.447358 0z"/>
  <path class="fil1" d="M5.53946 3.83128c0.0220906,0 0.04,-0.0179094 0.04,-0.04 0,-0.0220906 -0.0179094,-0.04 -0.04,-0.04l-0.447358 0c-0.0220906,0 -0.04,0.0179094 -0.04,0.04 0,0.0220906 0.0179094,0.04 0.04,0.04l0.447358 0z"/>
  <path class="fil1" d="M5.53946 1.91129c0.0220906,0 0.04,-0.0179094 0.04,-0.04 0,-0.0220906 -0.0179094,-0.04 -0.04,-0.04l-0.447358 0c-0.0220906,0 -0.04,0.0179094 -0.04,0.04 0,0.0220906 0.0179094,0.04 0.04,0.04l0.447358 0z"/>
  <path class="fil1" d="M5.53946 2.45986c0.0220906,0 0.04,-0.0179094 0.04,-0.04 0,-0.0220906 -0.0179094,-0.04 -0.04,-0.04l-0.447358 0c-0.0220906,0 -0.04,0.0179094 -0.04,0.04 0,0.0220906 0.0179094,0.04 0.04,0.04l0.447358 0z"/>
  <path class="fil1" d="M5.53946 3.28271c0.0220906,0 0.04,-0.0179094 0.04,-0.04 0,-0.0220906 -0.0179094,-0.04 -0.04,-0.04l-0.447358 0c-0.0220906,0 -0.04,0.0179094 -0.04,0.04 0,0.0220906 0.0179094,0.04 0.04,0.04l0.447358 0z"/>
  <path class="fil1" d="M5.53946 3.00843c0.0220906,0 0.04,-0.0179094 0.04,-0.04 0,-0.0220906 -0.0179094,-0.04 -0.04,-0.04l-0.447358 0c-0.0220906,0 -0.04,0.0179094 -0.04,0.04 0,0.0220906 0.0179094,0.04 0.04,0.04l0.447358 0z"/>
  <path class="fil1" d="M5.53946 2.73415c0.0220906,0 0.04,-0.0179094 0.04,-0.04 0,-0.0220906 -0.0179094,-0.04 -0.04,-0.04l-0.447358 0c-0.0220906,0 -0.04,0.0179094 -0.04,0.04 0,0.0220906 0.0179094,0.04 0.04,0.04l0.447358 0z"/>
  <path class="fil1" d="M5.53946 2.18558c0.0220906,0 0.04,-0.0179094 0.04,-0.04 0,-0.0220906 -0.0179094,-0.04 -0.04,-0.04l-0.447358 0c-0.0220906,0 -0.04,0.0179094 -0.04,0.04 0,0.0220906 0.0179094,0.04 0.04,0.04l0.447358 0z"/>
  <path class="fil1" d="M1.49341 2.04685c-0.0112008,-0.0112008 -0.0293898,-0.0112008 -0.0405906,0 -0.0112008,0.0112008 -0.0112008,0.0293898 0,0.0405906l0.0550551 0.057563c0.0112008,0.0112008 0.0293858,0.0112008 0.0405866,0 0.0112047,-0.0112047 0.0112047,-0.0293898 0,-0.0405906l-0.0550512 -0.057563z"/>
  <polygon class="fil1" points="1.44196,2.03843 1.44196,2.08721 1.49074,2.03843 "/>
  <path class="fil1" d="M1.42363 2.13995l-0.0162598 -0.121882c0,-0.00920472 0.00746457,-0.0166693 0.0166693,-0.0166693 0.000503937,0 0.001,2.3622e-005 0.00149606,6.69291e-005l0.120382 0.0162638 0 -6.29921e-005c0.00920079,0 0.0166654,0.00746457 0.0166654,0.0166654 0,0.00459843 -0.00186614,0.00876772 -0.00488189,0.0117835l-0.105618 0.105618 3.93701e-006 3.93701e-006c-0.00650787,0.00650787 -0.0170669,0.00650787 -0.0235748,0 -0.00325591,-0.00325591 -0.00488189,-0.00751969 -0.00488189,-0.0117874z"/>
  <polygon class="fil1" points="1.51861,2.46693 1.51861,2.51571 1.56739,2.46693 "/>
  <path class="fil1" d="M1.50055 2.57123l-0.0199843 -0.131484c0,-0.00920472 0.00746457,-0.0166693 0.0166693,-0.0166693 0.000503937,0 0.001,2.3622e-005 0.00149606,6.69291e-005l0.124106 0.0258661 0 -6.29921e-005c0.00920079,0 0.0166654,0.00746457 0.0166654,0.0166654 0,0.00459843 -0.00186614,0.00876772 -0.00488189,0.0117835l-0.105618 0.105618 3.93701e-006 3.93701e-006c-0.00650787,0.00650787 -0.0170669,0.00650787 -0.0235748,0 -0.00325591,-0.00325591 -0.00488189,-0.00751969 -0.00488189,-0.0117874z"/>
  <path class="fil1" d="M1.53359 2.28786c0.00866142,-0.00305512 0.0132087,-0.012563 0.0101535,-0.0212244 -0.00305512,-0.00866142 -0.012563,-0.0132087 -0.0212244,-0.0101535l-0.00514567 0.00181496 -7.87402e-006 -2.75591e-005c-0.000401575,0.000141732 -0.000795276,0.000299213 -0.0011811,0.000468504 -0.0314016,0.0110197 -0.0963543,0.0344252 -0.0879488,0.0779134 0.00200787,0.0104016 0.00740945,0.0233504 0.0128976,0.0365315 0.00448425,0.0107638 0.00904724,0.0217126 0.0110748,0.0295276 -0.0484567,0.00919291 -0.0474803,0.0324055 -0.0463386,0.0593465 0.000338583,0.00811417 0.000704724,0.0168189 -0.00224016,0.023626 -0.00362992,0.00841339 0.000248031,0.0181811 0.00866142,0.021811 0.00841339,0.00362992 0.0181811,-0.000248031 0.021811,-0.00866142 0.00599213,-0.0138465 0.00546457,-0.0263819 0.00497244,-0.0380748 -0.000519685,-0.0122638 -0.00096063,-0.0227441 0.0266339,-0.026563 0.0177874,-0.00246063 0.0227323,-0.0144173 0.0203465,-0.0316969 -0.00166929,-0.0120433 -0.00799606,-0.0272126 -0.014189,-0.0420787 -0.00483465,-0.0116102 -0.00959449,-0.0230236 -0.0109449,-0.0300197 -0.0030315,-0.0156969 0.0434803,-0.032311 0.0662559,-0.0403031 0.000425197,-0.000114173 0.000850394,-0.000244094 0.00127559,-0.000393701l-0.00554331 -0.0157165 0.00553543 0.015689 0.00514567 -0.00181496z"/>
  <path class="fil1" d="M1.3927 3.45461l0.141024 0c0.00920472,0 0.0166693,0.00746457 0.0166693,0.0166693l0 0.141024c0,0.00920472 -0.00746457,0.0166693 -0.0166693,0.0166693l-0.141024 0c-0.00920472,0 -0.0166693,-0.00746457 -0.0166693,-0.0166693l0 -0.141024c0,-0.00920472 0.00746457,-0.0166693 0.0166693,-0.0166693zm0.124354 0.0333386l-0.107685 0 0 0.107685 0.107685 0 0 -0.107685z"/>
  <path class="fil1" d="M1.55039 3.51119l0.0435827 0c0.00920472,0 0.0166693,0.00746457 0.0166693,0.0166693l0 0.141024c0,0.00920472 -0.00746457,0.0166693 -0.0166693,0.0166693l-0.141024 0c-0.00920472,0 -0.0166693,-0.00746457 -0.0166693,-0.0166693l0 -0.0399094 0.0333386 0 0.0641024 0c0.00920472,0 0.0166693,-0.00746457 0.0166693,-0.0166693l0 -0.0677756 0 -0.0333386z"/>
  <polygon class="fil1" points="1.60577,2.68902 1.60235,2.68631 1.59956,2.68933 1.60347,2.69243 "/>
  <path class="fil1" d="M1.61477 2.66922l0.00257874 0.00204724 2.75591e-005 -1.9685e-005 0.00474803 0.0037874c0.00288583,0.00230315 0.00462205,0.00557087 0.00507087,0.00899213 0.000429134,0.00330315 -0.000338583,0.00677165 -0.00237402,0.00966929l1.1811e-005 7.87402e-006 -0.117295 0.174067 3.93701e-006 3.93701e-006 -0.00383858 0.00569291c-0.00211811,0.00314173 -0.00532283,0.00514173 -0.00877559,0.00581496 -0.00344094,0.000673228 -0.00714961,1.9685e-005 -0.0102992,-0.00209449l-0.000358268 -0.000228346 -0.000311024 -0.000232283 -0.000358268 -0.000295276 -0.000149606 -0.000125984 -0.0277913 -0.0220315 -0.000653543 0.000653543 -0.00588976 -0.00588976 -3.93701e-006 -3.93701e-006 7.87402e-006 -7.87402e-006c-0.0025315,-0.00230709 -0.00402756,-0.00537008 -0.00440157,-0.00856693l-3.93701e-006 0c-0.000401575,-0.00346457 0.00053937,-0.00710236 0.0028937,-0.0100866l0.000212598 -0.000255906 -1.1811e-005 -7.87402e-006 0.000255906 -0.000299213 0.000425197 -0.000488189 0.000279528 -0.000279528 3.93701e-006 3.93701e-006 0.142642 -0.153791 -7.87402e-006 -7.87402e-006 0.00448031 -0.00483465c0.00253543,-0.00273228 0.0059685,-0.00420866 0.00946457,-0.00436614l3.14961e-005 0c0.0032874,-0.000137795 0.00665354,0.000909449 0.00937402,0.00318504l1.1811e-005 -1.1811e-005z"/>
  <path class="fil1" d="M1.46514 2.92214l-0.00172835 0.00217323 -0.00609055 -0.00482677 -0.000433071 -0.000330709 -0.00651181 -0.00516142 7.87402e-006 -1.1811e-005 -0.0330827 -0.0262283 3.93701e-006 -3.93701e-006 -0.000133858 -0.000102362 -0.000846457 -0.000716535 -3.93701e-006 -3.93701e-006 7.87402e-006 -7.87402e-006c-0.00253937,-0.00231102 -0.00403937,-0.00538189 -0.00440945,-0.00856693l0 -3.54331e-005c-7.08661e-005,-0.000610236 -9.84252e-005,-0.00122441 -8.26772e-005,-0.00184252l-0.00217323 -0.00173228 0.00516535 -0.00651575 0.017248 -0.021752 3.93701e-006 3.93701e-006 0.000102362 -0.000133858 0.000716535 -0.000846457 7.87402e-006 -7.87402e-006 7.87402e-006 7.87402e-006c0.00231496,-0.00254331 0.00538189,-0.00403937 0.00856299,-0.00440157 0.000625984,-7.48031e-005 0.00125591,-0.000102362 0.00188583,-8.66142e-005l0.00172835 -0.00217323 0.00610236 0.00483858 0.000366142 0.000279528 0.000161417 0.000137795 0.0393346 0.0311929 0.000240157 0.000181102 0.000165354 0.000129921c0.00296063,0.00235433 0.00470472,0.00570079 0.00511024,0.00920079l0 3.54331e-005c6.69291e-005,0.000610236 9.44882e-005,0.00122441 8.26772e-005,0.00183858l0.00217717 0.00173228 -0.00516929 0.00651575 -0.0024252 0.00306299 -0.00270472 0.0034252 -7.87402e-006 -7.87402e-006 -0.0121063 0.0152717 -3.93701e-006 -3.93701e-006 -0.000102362 0.000133858 -9.44882e-005 0.000133858c-0.00234252,0.00295669 -0.00568504,0.00470079 -0.00920079,0.00511024l0 3.93701e-006c-0.000622047,7.08661e-005 -0.00124803,0.000106299 -0.00187795,9.05512e-005z"/>
  <path class="fil1" d="M1.41681 2.88706l0.0394921 0.031311 0.00011811 7.48031e-005c0.00296457,0.00235827 0.00470866,0.0057126 0.0051063,0.00920079 0.000405512,0.00348819 -0.00053937,0.00714961 -0.0028937,0.0101142l-3.14961e-005 -2.3622e-005 -0.000106299 0.000161417 -9.44882e-005 0.000114173 1.5748e-005 1.1811e-005 -0.0285197 0.0359646 7.87402e-006 1.9685e-005 -0.00279134 0.00351181c-0.00193701,0.00244094 -0.00457087,0.00405906 -0.0074252,0.00477559l3.93701e-006 7.87402e-006c-0.00272441,0.000681102 -0.00566535,0.000511811 -0.00837402,-0.000547244l-3.93701e-006 3.93701e-006 -0.0421693 -0.0154685 -7.87402e-006 1.9685e-005 -0.00781496 -0.00288189 -0.000413386 -0.00015748 -0.0073937 -0.0027126 0.000956693 -0.00261417c-0.000338583,-0.000527559 -0.000637795,-0.00106693 -0.000897638,-0.00162992l0 -3.14961e-005c-0.00146457,-0.00317323 -0.00172047,-0.00690157 -0.000440945,-0.0104331l-1.9685e-005 -7.87402e-006c0.000299213,-0.00084252 0.00069685,-0.00164173 0.00112598,-0.00236614l3.14961e-005 -6.29921e-005c0.000389764,-0.000645669 0.000846457,-0.00127165 0.00135039,-0.0018622l0.0378346 -0.0477165 -3.93701e-006 -7.87402e-006 0.00377559 -0.00476772c0.00235433,-0.00297244 0.00570472,-0.00470866 0.00920079,-0.00511417 0.00348031,-0.000405512 0.00714567,0.000535433 0.010126,0.00289764l0.000192913 0.000165354 6.29921e-005 5.11811e-005z"/>
  <path class="fil1" d="M1.60419 3.027l0.00623622 0.00623228 0 0c0.0017874,0.0017874 0.00179528,0.00468898 1.5748e-005,0.00648425l-0.128681 0.150327 -0.00348425 -0.00298031 0.00349213 0.00298819c-0.00164961,0.00192913 -0.00455512,0.00215748 -0.00648425,0.000503937 -0.000102362,-9.05512e-005 -0.000204724,-0.000181102 -0.000295276,-0.000279528l-0.0279134 -0.0279094 0 0c-0.00179528,-0.00179528 -0.00179528,-0.00470866 0,-0.00650394 0.000165354,-0.000169291 0.00034252,-0.000318898 0.000527559,-0.000456693l0.150319 -0.128673 -7.87402e-006 -7.87402e-006c0.00185039,-0.00158661 0.00459843,-0.00144488 0.00627559,0.000275591zm-0.00327165 0.00973622l-0.00026378 -0.000267717 -0.143571 0.122898 0.020937 0.020937 0.122898 -0.143567z"/>
  <path class="fil1" d="M1.61014 3.0212l0.0061378 0.0061378 3.14961e-005 0c0.00248819,0.00248819 0.00374803,0.00580315 0.00375591,0.00912992l3.54331e-005 0c0,0.00311811 -0.00114567,0.00626772 -0.00345276,0.00876772l-0.123177 0.143894 0.000535433 0.000456693 -0.00635433 0.00635039 -3.93701e-006 3.93701e-006 -3.93701e-006 -3.93701e-006 -0.00497638 0.0058189 -0.00228346 -0.00195276c-0.000366142,6.29921e-005 -0.000740157,0.000106299 -0.00111024,0.000133858l0 3.93701e-006c-0.00328346,0.00026378 -0.00667323,-0.000751969 -0.0093937,-0.00307087l-0.000488189 -0.000425197 -3.93701e-006 -3.93701e-006 2.3622e-005 -2.3622e-005 -0.000125984 -0.000122047 -0.000192913 -0.000133858 -0.0279134 -0.0279094c-0.00252362,-0.00252362 -0.00379134,-0.00583858 -0.00379134,-0.00914173 0,-0.00330315 0.00126772,-0.00661811 0.00379134,-0.00914173l0.000192913 -0.000165354 0.000255906 -0.000240157 0.000519685 -0.000456693 0.000271654 -0.000216535 3.93701e-006 3.93701e-006 0.14563 -0.124661 0.00445276 -0.00382677c0.00257874,-0.0022126 0.00579134,-0.00322835 0.00895276,-0.00308661 0.00318504,0.000137795 0.00631496,0.00146063 0.0086811,0.00388189z"/>
  <path class="fil1" d="M1.43623 3.17481l0.0263465 0.0263465 0.0116417 -0.0116457 -0.0263425 -0.0263465 -0.0116457 0.0116457zm0.0230945 0.0361024l-0.0328228 -0.0328268 -2.75591e-005 -2.3622e-005c-0.00179528,-0.00179528 -0.00179528,-0.00470866 0,-0.00650394l0 0 0.018122 -0.018122 2.3622e-005 -2.75591e-005c0.00179921,-0.00179528 0.00470866,-0.00179528 0.00650787,0l0 0 0.0328228 0.0328268 2.3622e-005 2.3622e-005c0.00179921,0.00179528 0.00179921,0.00470866 0,0.00650394l0 0 -0.018122 0.018122 -2.3622e-005 2.75591e-005c-0.00179528,0.00179528 -0.00470866,0.00179528 -0.00650394,0l0 0z"/>
  <path class="fil1" d="M1.45343 3.2168l-0.0328189 -0.0328228 -3.14961e-005 -2.75591e-005c-0.00252362,-0.00252362 -0.00379134,-0.00583858 -0.00379134,-0.00914173 0,-0.00330315 0.00126772,-0.00661811 0.00379134,-0.00914173l0.0181181 -0.0181181 2.75591e-005 -3.14961e-005c0.00252362,-0.00252362 0.00583858,-0.00379134 0.00914173,-0.00379134 0.00327559,0 0.00657874,0.00126378 0.00911417,0.00379134l3.14961e-005 0 0.0328228 0.0328268 2.3622e-005 2.3622e-005 7.87402e-006 7.87402e-006 0 3.14961e-005c0.00251575,0.00252756 0.0037874,0.00582283 0.0037874,0.00910236 0,0.00327559 -0.00126772,0.00657087 -0.0037874,0.00910236l0 3.14961e-005 -7.87402e-006 7.87402e-006 -0.0181181 0.0181181 -2.75591e-005 3.14961e-005c-0.00252362,0.00252362 -0.00583858,0.00379134 -0.00914173,0.00379134 -0.00330315,0 -0.00661811,-0.00126772 -0.00914173,-0.00379134z"/>
  <path class="fil1" d="M1.41998 3.19424c-0.00808268,0.00924803 -0.0110748,0.0193504 -0.0142835,0.0301969 -0.00102756,0.00347638 -0.00207874,0.00702756 -0.0033189,0.0106693l0.00143307 -0.000362205c0.0153583,-0.00388189 0.0294567,-0.00744488 0.0364882,-0.0144724 0.0073937,-0.0073937 0.00866535,-0.0144882 0.0066063,-0.019937 -0.000870079,-0.00229921 -0.00232283,-0.00435433 -0.00415354,-0.00605512 -0.00187008,-0.00173622 -0.0041063,-0.00307874 -0.00650394,-0.00392126 -0.00551575,-0.00193307 -0.011878,-0.00114173 -0.0162677,0.00388189zm-0.0230866 0.0276102c0.00350394,-0.0118386 0.00676772,-0.0228701 0.016189,-0.0336457 0.0071811,-0.00822047 0.0174016,-0.00958268 0.026185,-0.00650394 0.00359449,0.00125984 0.00694882,0.00327165 0.00973622,0.0058622 0.00283071,0.00262598 0.00510236,0.0058622 0.00648819,0.00953937 0.00324016,0.00857874 0.00171654,0.0192638 -0.00868898,0.0296732 -0.00880709,0.00880709 -0.0241024,0.0126693 -0.0407638,0.016878 -0.0031811,0.00080315 -0.00640945,0.00161811 -0.00969685,0.0025 -0.00101969,0.000326772 -0.00215748,0.00030315 -0.00322047,-0.000149606 -0.00233465,-0.001 -0.00341732,-0.00370079 -0.00242126,-0.00603937l1.1811e-005 3.93701e-006c0.00265748,-0.0062126 0.00444882,-0.0122717 0.0061811,-0.0181181z"/>
  <path class="fil1" d="M1.38893 3.21944c0.00375984,-0.0127047 0.00727953,-0.0245669 0.0178976,-0.0367047 0.00460236,-0.00527165 0.0101929,-0.00847638 0.0160748,-0.00993307 0.0063622,-0.00157874 0.0130157,-0.0010748 0.0190906,0.00105512 0.00234646,0.000818898 0.00461417,0.00188976 0.0067126,0.00314961l3.14961e-005 0c0.00209449,0.00125984 0.00409449,0.00276772 0.0059252,0.0044685 0.00187795,0.00174409 0.00358268,0.00370866 0.00503937,0.00585039l0 3.54331e-005c0.00145276,0.0021378 0.00266535,0.00442913 0.00356299,0.00681102 0.00231496,0.00613386 0.00283858,0.0130748 0.000720472,0.020311l0 3.14961e-005c-0.00176772,0.00602362 -0.00537008,0.012185 -0.0112992,0.0181181l0 3.14961e-005c-0.0104134,0.0104134 -0.0267913,0.0145551 -0.044622,0.0190551l-3.93701e-006 -1.5748e-005 -3.14961e-005 7.87402e-006 3.93701e-006 1.5748e-005 -0.000366142 9.05512e-005 -7.87402e-006 3.93701e-006 -3.93701e-006 0c-0.00294094,0.000744094 -0.00594488,0.00150787 -0.00916929,0.00237008l-3.93701e-006 -1.9685e-005c-0.00133071,0.00038189 -0.00272835,0.000555118 -0.00409843,0.000496063l-3.14961e-005 0c-0.00149606,-6.29921e-005 -0.00302362,-0.000409449 -0.00445669,-0.00101575l-3.54331e-005 0c-0.00327165,-0.00140157 -0.0056811,-0.00401181 -0.00691732,-0.0070748l0 -3.14961e-005c-0.00122047,-0.00306299 -0.0012874,-0.00658268 0.000102362,-0.00983858l0.000574803 -0.00134646c0.00215748,-0.00527953 0.00373622,-0.0105787 0.00524803,-0.0157047l-1.1811e-005 -3.93701e-006 2.3622e-005 -8.26772e-005 5.11811e-005 -0.000129921z"/>
  <path class="fil1" d="M2.02667 3.52729c-0.0294528,0 -0.0533346,0.0247008 -0.0533346,0.0551654 0,0.0304646 0.0238819,0.0551654 0.0533346,0.0551654l2.88 0c0.0294528,0 0.0533346,-0.0247008 0.0533346,-0.0551654 0,-0.0304646 -0.0238819,-0.0551654 -0.0533346,-0.0551654l-2.88 0z"/>
  <path class="fil1" d="M3.10388 3.50936c-0.0271496,0.0113583 -0.0401142,0.0429764 -0.0289567,0.0706102 0.0111575,0.0276339 0.0422244,0.0408307 0.069374,0.0294724 0.0671457,-0.028252 0.0822126,-0.0262244 0.141724,-0.0668307l1.18646 0c0.0373504,0.0337559 0.0259291,0.0102087 0.0676142,0.0415118 0.0235866,0.0176772 0.0567953,0.0125551 0.0741654,-0.0114528 0.0173701,-0.0240079 0.0632205,-0.00156299 0.0396339,-0.0192441 -0.17002,-0.127689 -0.301106,-0.280465 -0.400402,-0.433646 -0.133827,-0.206449 -0.209669,-0.413154 -0.245346,-0.560378 -0.000114173,-0.000716535 -0.000240157,-0.00143701 -0.00038189,-0.00215354 -0.00586614,-0.029374 -0.0340276,-0.0483504 -0.0628898,-0.042378l0.010626 0.0531929 -0.010626 -0.0530079c-0.0295315,0.00611024 -0.0460866,0.0398543 -0.0738504,0.0964528 -0.0939882,0.191614 -0.317846,0.708791 -0.767142,0.89785z"/>
  <path class="fil1" d="M3.53646 3.20046c0.0219724,0.0195591 0.0556496,0.0175984 0.0752087,-0.00437402 0.0195591,-0.0219724 0.0175984,-0.0556496 -0.00437402,-0.0752087 -0.0733307,-0.0654409 -0.159776,-0.153205 -0.231,-0.236803 -0.0594449,-0.0697756 -0.107673,-0.135508 -0.127181,-0.180508l0.000185039 -0.000173228c-0.0117165,-0.0270236 -0.043126,-0.0394331 -0.0701496,-0.0277165 -0.0139567,0.00605118 -0.0240157,0.0173583 -0.0288661,0.0305984 -0.0807717,0.172004 -0.14824,0.305937 -0.239102,0.431154 -0.0911535,0.125618 -0.20661,0.243402 -0.384098,0.383787 -0.0230079,0.0181772 -0.0269252,0.0515748 -0.00874803,0.0745827 0.0181772,0.0230079 0.0515748,0.0269252 0.0745827,0.00874803 0.0236654,-0.0187205 0.0462874,-0.037063 0.0679449,-0.0550984l0.402181 0c0.182472,-0.0780354 0.337362,-0.21115 0.464622,-0.35689 0.00294882,0.00266535 0.00588583,0.00530315 0.00879528,0.00790157z"/>
  <path class="fil1" d="M2.38314 2.29164c0.0620197,0 0.118185,0.0251496 0.158843,0.0657992 0.0406496,0.0406496 0.0657992,0.0968189 0.0657992,0.158843 0,0.0620197 -0.0251496,0.118185 -0.0657992,0.158843 -0.0406575,0.0406496 -0.0968228,0.0657992 -0.158843,0.0657992 -0.0620236,0 -0.118193,-0.0251496 -0.158843,-0.0657992 -0.0406496,-0.0406575 -0.0657992,-0.0968228 -0.0657992,-0.158843 0,-0.0620236 0.0251496,-0.118193 0.0657992,-0.158843 0.0406496,-0.0406496 0.0968189,-0.0657992 0.158843,-0.0657992z"/>
  <path class="fil1" d="M2.93935 1.88024c0.123909,0.0627913 0.237472,0.182075 0.271677,0.25678 0.0248543,-0.014878 0.133882,-0.149398 0.33337,-0.245575 0.0146614,-0.0302441 -0.263591,0.0826654 -0.316433,0.124 -0.0323898,-0.0394606 -0.124531,-0.143114 -0.288614,-0.135205z"/>
  <path class="fil2" d="M5.85481 4.5024c0.011374,-0.0157953 0.018437,-0.0374606 0.018437,-0.0611654l0 -0.485874 -4.91983 0 0 0.485874c0,0.0237047 0.00706299,0.0453701 0.018437,0.0611654 0.0113701,0.0157953 0.0269685,0.0256063 0.0440354,0.0256063l4.79488 0c0.0170669,0 0.0326654,-0.00981102 0.0440354,-0.0256063z"/>
  <path class="fil1" d="M3.49958 2.04434c0.0779843,0.0496969 0.145421,0.136146 0.163197,0.18787 0.017437,-0.00822835 0.0984606,-0.0902205 0.236909,-0.140898 0.011689,-0.0190787 -0.180031,0.0375354 -0.21774,0.0614646 -0.018878,-0.0282598 -0.0731457,-0.102953 -0.182366,-0.108437z"/>
 </g>
 <rect class="fil3" width="6.82666" height="6.82666"/>
</svg>
