<?xml version="1.0" encoding="UTF-8"?>
<!DOCTYPE svg PUBLIC "-//W3C//DTD SVG 1.1//EN" "http://www.w3.org/Graphics/SVG/1.1/DTD/svg11.dtd">
<!-- Creator: CorelDRAW -->
<svg xmlns="http://www.w3.org/2000/svg" xml:space="preserve" width="6.82666in" height="6.82666in" style="shape-rendering:geometricPrecision; text-rendering:geometricPrecision; image-rendering:optimizeQuality; fill-rule:evenodd; clip-rule:evenodd"
viewBox="0 0 6.82666 6.82666"
 xmlns:xlink="http://www.w3.org/1999/xlink">
 <defs>
  <style type="text/css">
   <![CDATA[
    .fil2 {fill:none}
    .fil0 {fill:#424242}
    .fil1 {fill:#FFFFFE;fill-rule:nonzero}
   ]]>
  </style>
 </defs>
 <rect class="fil0" width="6.82666" height="6.82666"/>
 <g id="Layer_x0020_1">
  <metadata id="CorelCorpID_0Corel-Layer"/>
  <g id="_264019760">
   <path id="_264013040" class="fil1" d="M5.57459 5.64756l-0.309071 0.279461 -0.071252 -0.078752 0.0715394 0.0791181c-0.0436929,0.0395079 -0.11115,0.0361142 -0.150657,-0.00757874 -0.00224803,-0.00248425 -0.00435039,-0.00504724 -0.0063189,-0.0076811l-0.409882 -0.453319 0.473327 -0.429382 0.41722 0.461433 -0.078752 0.071252 0.079122 -0.0715394c0.0395079,0.0436969 0.0361142,0.111154 -0.00758268,0.150661 -0.00248819,0.00225197 -0.00505906,0.00435433 -0.00769291,0.00632677zm-0.949331 -0.270248l-1.73003 -1.91336c0.00057874,-0.000480315 0.00114567,-0.000968504 0.00170866,-0.00147638l0.484457 -0.413705 1.71719 1.89916 -0.473331 0.429378zm-1.80368 -1.99481l-0.424547 -0.469535 0.078752 -0.071252 -0.079122 0.0715394c-0.0395079,-0.0436969 -0.0361142,-0.111154 0.00758268,-0.150661 0.00248819,-0.00225197 0.00505906,-0.00435433 0.00769685,-0.00632677l0.309067 -0.279457 0.071252 0.078752 -0.0715394 -0.079122c0.0436969,-0.0395079 0.111154,-0.0361142 0.150661,0.00758268 0.00225197,0.00248819 0.00435433,0.00505906 0.00632677,0.00769685l0.429969 0.475531 -0.48448 0.41372c-0.000555118,0.0005 -0.00108661,0.00101181 -0.00161811,0.0015315z"/>
   <path id="_264012872" class="fil1" d="M3.26924 1.34196c-0.0350984,0.060311 -0.0778543,0.115665 -0.126906,0.164717 -0.0496772,0.0496772 -0.105823,0.0928937 -0.167031,0.128248 0.0612047,0.0353543 0.117354,0.0785709 0.167031,0.128248 0.0490512,0.0490512 0.0918031,0.104409 0.126906,0.16472 0.0351024,-0.060311 0.0778543,-0.115669 0.126906,-0.16472 0.0496772,-0.0496772 0.105827,-0.0928937 0.167031,-0.128248 -0.0612087,-0.0353543 -0.117354,-0.0785709 -0.167031,-0.128248 -0.0490512,-0.0490512 -0.0918071,-0.104406 -0.126906,-0.164717z"/>
   <path id="_264012704" class="fil1" d="M3.26924 2.35791c-0.104449,-0.351744 -0.462843,-0.708346 -0.69198,-0.708346 0.357063,-0.136787 0.574744,-0.428323 0.69198,-0.777831 0.117236,0.349508 0.334917,0.641043 0.69198,0.777831 -0.229138,0 -0.587531,0.356602 -0.69198,0.708346z"/>
   <path id="_264020096" class="fil1" d="M1.78772 1.8576c-0.0252913,0.0434646 -0.0561063,0.0833583 -0.0914567,0.118709 -0.0358031,0.0357992 -0.0762638,0.0669449 -0.120378,0.0924252 0.0441102,0.0254803 0.0845748,0.056626 0.120378,0.0924252 0.0353504,0.0353504 0.0661614,0.075248 0.0914567,0.118713 0.0252992,-0.0434646 0.0561102,-0.0833622 0.0914606,-0.118713 0.0358031,-0.0357992 0.0762677,-0.0669449 0.120378,-0.0924252 -0.0441142,-0.0254803 -0.0845748,-0.056626 -0.120378,-0.0924252 -0.0353504,-0.0353504 -0.0661654,-0.0752441 -0.0914606,-0.118709z"/>
   <path id="_264020432" class="fil1" d="M1.78772 2.58977c-0.0752717,-0.253496 -0.333559,-0.510492 -0.498697,-0.510492 0.257331,-0.0985827 0.414209,-0.308685 0.498697,-0.560571 0.0844921,0.251886 0.24137,0.461988 0.498701,0.560571 -0.165138,0 -0.423425,0.256996 -0.498701,0.510492z"/>
   <path id="_264020336" class="fil1" d="M1.55528 3.31356c-0.0175512,0.0301614 -0.0389331,0.0578425 -0.0634606,0.0823701 -0.0248425,0.0248425 -0.0529173,0.0464528 -0.0835276,0.0641339 0.0306063,0.0176772 0.058685,0.0392874 0.0835276,0.0641299 0.0245276,0.0245276 0.0459094,0.0522126 0.0634606,0.0823701 0.0175551,-0.0301575 0.0389331,-0.0578425 0.0634606,-0.0823701 0.0248425,-0.0248425 0.0529213,-0.0464528 0.0835276,-0.0641299 -0.0306063,-0.0176811 -0.058685,-0.0392913 -0.0835276,-0.0641339 -0.0245276,-0.0245276 -0.0459094,-0.0522087 -0.0634606,-0.0823701z"/>
   <path id="_264019856" class="fil1" d="M1.55528 3.8216c-0.0522283,-0.175894 -0.231449,-0.35422 -0.346035,-0.35422 0.178555,-0.0684016 0.287409,-0.214189 0.346035,-0.388965 0.058626,0.174776 0.16748,0.320563 0.346035,0.388965 -0.114583,0 -0.293803,0.178327 -0.346035,0.35422z"/>
  </g>
 </g>
 <rect class="fil2" width="6.82666" height="6.82666"/>
</svg>
