<?xml version="1.0" encoding="UTF-8"?>
<!DOCTYPE svg PUBLIC "-//W3C//DTD SVG 1.1//EN" "http://www.w3.org/Graphics/SVG/1.1/DTD/svg11.dtd">
<!-- Creator: CorelDRAW -->
<svg xmlns="http://www.w3.org/2000/svg" xml:space="preserve" width="6.82666in" height="6.82666in" style="shape-rendering:geometricPrecision; text-rendering:geometricPrecision; image-rendering:optimizeQuality; fill-rule:evenodd; clip-rule:evenodd"
viewBox="0 0 6.82666 6.82666"
 xmlns:xlink="http://www.w3.org/1999/xlink">
 <defs>
  <style type="text/css">
   <![CDATA[
    .fil3 {fill:none}
    .fil0 {fill:#424242}
    .fil2 {fill:#FFFFFE}
    .fil1 {fill:#FFFFFE;fill-rule:nonzero}
   ]]>
  </style>
 </defs>
 <rect class="fil0" width="6.82666" height="6.82666"/>
 <g id="Layer_x0020_1">
  <metadata id="CorelCorpID_0Corel-Layer"/>
  <polygon class="fil1" points="0.853327,3.25422 0.853327,1.75878 0.853327,1.59878 1.01333,1.59878 2.50877,1.59878 2.50877,1.91878 1.17333,1.91878 1.17333,3.25422 "/>
  <polygon class="fil1" points="5.97333,3.25422 5.97333,1.75878 5.97333,1.59878 5.81333,1.59878 4.31789,1.59878 4.31789,1.91878 5.65333,1.91878 5.65333,3.25422 "/>
  <polygon class="fil1" points="0.853327,3.57244 0.853327,5.06788 0.853327,5.22788 1.01333,5.22788 2.50877,5.22788 2.50877,4.90788 1.17333,4.90788 1.17333,3.57244 "/>
  <polygon class="fil1" points="5.97333,3.57244 5.97333,5.06788 5.97333,5.22788 5.81333,5.22788 4.31789,5.22788 4.31789,4.90788 5.65333,4.90788 5.65333,3.57244 "/>
  <g id="_264013472">
   <rect id="_264013280" class="fil2" x="2.77315" y="3.30054" width="1.28036" height="0.225581"/>
   <rect id="_264013760" class="fil2" transform="matrix(2.88082E-014 -1.08278 1.08774 2.8677E-014 3.30003 4.05059)" width="1.17709" height="0.208335"/>
  </g>
 </g>
 <rect class="fil3" width="6.82666" height="6.82666"/>
</svg>
