<?xml version="1.0" encoding="UTF-8"?>
<!DOCTYPE svg PUBLIC "-//W3C//DTD SVG 1.1//EN" "http://www.w3.org/Graphics/SVG/1.1/DTD/svg11.dtd">
<!-- Creator: CorelDRAW -->
<svg xmlns="http://www.w3.org/2000/svg" xml:space="preserve" width="6.82666in" height="6.82666in" style="shape-rendering:geometricPrecision; text-rendering:geometricPrecision; image-rendering:optimizeQuality; fill-rule:evenodd; clip-rule:evenodd"
viewBox="0 0 6.82666 6.82666"
 xmlns:xlink="http://www.w3.org/1999/xlink">
 <defs>
  <style type="text/css">
   <![CDATA[
    .fil2 {fill:none}
    .fil0 {fill:#424242}
    .fil1 {fill:#FFFFFE;fill-rule:nonzero}
   ]]>
  </style>
 </defs>
 <rect class="fil0" width="6.82666" height="6.82666"/>
 <g id="Layer_x0020_1">
  <metadata id="CorelCorpID_0Corel-Layer"/>
  <path class="fil1" d="M5.92 1.23617c0.0589094,0 0.0533425,-0.023878 0.0533425,-0.0533307 0,-0.0294528 0.00556693,-0.0533307 -0.0533425,-0.0533307 -1.67111,0 -3.34222,0 -5.01333,0 -0.0589094,0 -0.0627874,0.023878 -0.0627874,0.0533307 0,0.0294528 0.00387795,0.0533307 0.0627874,0.0533307 1.67111,0 3.34222,0 5.01333,0z"/>
  <path class="fil1" d="M1.22666 1.01333c0,-0.0589094 -0.0477598,-0.106669 -0.106669,-0.106669 -0.0589094,0 -0.106669,0.0477598 -0.106669,0.106669l0 3.30667c0,0.0589094 0.0477598,0.106669 0.106669,0.106669 0.0589094,0 0.106669,-0.0477598 0.106669,-0.106669l0 -3.30667z"/>
  <path class="fil1" d="M5.81334 1.01333c0,-0.0589094 -0.0477598,-0.106669 -0.106669,-0.106669 -0.0589094,0 -0.106669,0.0477598 -0.106669,0.106669l0 3.30667c0,0.0589094 0.0477598,0.106669 0.106669,0.106669 0.0589094,0 0.106669,-0.0477598 0.106669,-0.106669l0 -3.30667z"/>
  <path class="fil1" d="M0.80115 4.57598c-0.0130709,0.0198425 -0.020311,0.0428583 -0.0220276,0.0661693l0.248516 0 0.0923543 -0.140126 0.0923543 0.140126 0.248516 0c-0.00171654,-0.023311 -0.00895669,-0.0463268 -0.0220276,-0.0661693l-0.233244 -0.353894c-0.00312992,-0.00496457 -0.00659843,-0.00970079 -0.0104055,-0.0141614l-0.000228346 -0.00026378c-0.000503937,-0.000586614 -0.00100394,-0.00117323 -0.00151969,-0.00174409 -0.00727165,-0.00817323 -0.0153425,-0.0149331 -0.0239449,-0.020248l-0.002 -0.00120866 -0.000133858 -7.48031e-005c-0.0139685,-0.00819685 -0.0290118,-0.0124803 -0.0440551,-0.0130157l-0.000456693 -1.5748e-005 -0.00179921 -3.93701e-005 -0.00105512 -3.93701e-006 -0.00105512 3.93701e-006 -0.00179921 3.93701e-005 -0.000456693 1.5748e-005c-0.0150394,0.00053937 -0.0300827,0.00482283 -0.0440551,0.0130157l-0.000133858 7.48031e-005 -0.002 0.00120866c-0.00860236,0.00531102 -0.0166772,0.0120748 -0.0239449,0.020248l-0.00151969 0.00174409 -0.000228346 0.00026378c-0.00380709,0.00446063 -0.00727559,0.00919685 -0.0104055,0.0141614l-0.233244 0.353894z"/>
  <path class="fil1" d="M5.38783 4.57598c-0.0130709,0.0198425 -0.020311,0.0428583 -0.0220276,0.0661693l0.248516 0 0.0923543 -0.140126 0.0923543 0.140126 0.248516 0c-0.00171654,-0.023311 -0.00895669,-0.0463268 -0.0220276,-0.0661693l-0.233244 -0.353894c-0.00312992,-0.00496457 -0.00659843,-0.00970079 -0.0104055,-0.0141614l-0.000228346 -0.00026378c-0.000503937,-0.000586614 -0.00100394,-0.00117323 -0.00151969,-0.00174409 -0.00727165,-0.00817323 -0.0153425,-0.0149331 -0.0239449,-0.020248l-0.002 -0.00120866 -0.000133858 -7.48031e-005c-0.0139685,-0.00819685 -0.0290118,-0.0124803 -0.0440551,-0.0130157l-0.000456693 -1.5748e-005 -0.00179921 -3.93701e-005 -0.00105512 -3.93701e-006 -0.00105512 3.93701e-006 -0.00179921 3.93701e-005 -0.000456693 1.5748e-005c-0.0150394,0.00053937 -0.0300827,0.00482283 -0.0440551,0.0130157l-0.000133858 7.48031e-005 -0.002 0.00120866c-0.00860236,0.00531102 -0.0166772,0.0120748 -0.0239449,0.020248l-0.00151969 0.00174409 -0.000228346 0.00026378c-0.00380709,0.00446063 -0.00727559,0.00919685 -0.0104055,0.0141614l-0.233244 0.353894z"/>
  <path class="fil1" d="M3.40868 0.959472l-1.57658 0 0 3.12898c0,0.356059 -0.00872047,0.582323 -0.0483504,0.776823 -0.0403976,0.198248 -0.110815,0.35422 -0.233791,0.567217l-0.311327 0.538815 2.17005 0 2.17005 0 -0.310512 -0.537402c-0.289165,-0.500472 -0.288197,-0.615039 -0.283748,-1.14078 0.000370079,-0.0442362 0.000791339,-0.0928307 0.000791339,-0.230161l0 -3.1035 -1.57658 0z"/>
 </g>
 <rect class="fil2" width="6.82666" height="6.82666"/>
</svg>
