<?xml version="1.0" encoding="UTF-8"?>
<!DOCTYPE svg PUBLIC "-//W3C//DTD SVG 1.1//EN" "http://www.w3.org/Graphics/SVG/1.1/DTD/svg11.dtd">
<!-- Creator: CorelDRAW -->
<svg xmlns="http://www.w3.org/2000/svg" xml:space="preserve" width="6.82666in" height="6.82666in" style="shape-rendering:geometricPrecision; text-rendering:geometricPrecision; image-rendering:optimizeQuality; fill-rule:evenodd; clip-rule:evenodd"
viewBox="0 0 6.82666 6.82666"
 xmlns:xlink="http://www.w3.org/1999/xlink">
 <defs>
  <style type="text/css">
   <![CDATA[
    .fil3 {fill:none}
    .fil0 {fill:#424242}
    .fil1 {fill:#FFFFFE}
    .fil2 {fill:#FFFFFE;fill-rule:nonzero}
   ]]>
  </style>
 </defs>
 <rect class="fil0" width="6.82666" height="6.82666"/>
 <g id="Layer_x0020_1">
  <metadata id="CorelCorpID_0Corel-Layer"/>
  <path class="fil1" d="M1.06667 0.853327l4.69333 0c0.0589094,0 0.106669,0.0477598 0.106669,0.106669l0 3.06667c0,0.0589094 -0.0477598,0.106669 -0.106669,0.106669l-4.69333 0c-0.0589094,0 -0.106669,-0.0477598 -0.106669,-0.106669l0 -3.06667c0,-0.0589094 0.0477598,-0.106669 0.106669,-0.106669zm0.106661 0.213331l0 2.85335 4.48001 0 0 -2.85335 -4.48001 0z"/>
  <path class="fil1" d="M1.27999 1.17332l0 2.64002 4.26668 0 0 -2.64002 -4.26668 0zm2.13334 1.80011c0.0441654,0 0.0841732,0.0171693 0.11313,0.0449134 0.0289528,0.027752 0.0468701,0.0660906 0.0468701,0.108417 0,0.0423346 -0.0179173,0.0806693 -0.0468701,0.108417 -0.0289567,0.027752 -0.0689646,0.0449173 -0.11313,0.0449173 -0.0441732,0 -0.0841732,-0.0171654 -0.11313,-0.0449173 -0.0289606,-0.027748 -0.0468701,-0.0660827 -0.0468701,-0.108417 0,-0.0423268 0.0179094,-0.0806654 0.0468701,-0.108417 0.0289567,-0.0277441 0.0689567,-0.0449134 0.11313,-0.0449134zm0.158724 -1.34971c0,-0.0733583 -0.071063,-0.132827 -0.158724,-0.132827 -0.0876575,0 -0.158724,0.0594685 -0.158724,0.132827l0.0697717 1.16255c0,0.0411102 0.0398268,0.0744409 0.0889528,0.0744409 0.049126,0 0.0889567,-0.0333307 0.0889567,-0.0744409l0.0697677 -1.16255z"/>
  <path class="fil2" d="M0.906665 4.22285c-0.0589094,0 -0.106669,0.0477598 -0.106669,0.106669 0,0.0589094 0.0477598,0.106669 0.106669,0.106669l5.01333 0c0.0589094,0 0.106669,-0.0477598 0.106669,-0.106669 0,-0.0589094 -0.0477598,-0.106669 -0.106669,-0.106669l-5.01333 0z"/>
  <path class="fil2" d="M1.51301 5.82166c-0.0248504,0.0531575 -0.00190551,0.116402 0.051252,0.141252 0.0531575,0.0248504 0.116402,0.00190551 0.141252,-0.051252l0.716535 -1.5268c0.0248504,-0.0531575 0.00190551,-0.116402 -0.051252,-0.141252 -0.0531575,-0.0248504 -0.116402,-0.00190551 -0.141252,0.051252l-0.716535 1.5268z"/>
  <path class="fil2" d="M5.12115 5.91166c0.0248504,0.0531575 0.0880945,0.0761024 0.141252,0.051252 0.0531575,-0.0248504 0.0761024,-0.0880945 0.051252,-0.141252l-0.716535 -1.5268c-0.0248504,-0.0531575 -0.0880945,-0.0761024 -0.141252,-0.051252 -0.0531575,0.0248504 -0.0761024,0.0880945 -0.051252,0.141252l0.716535 1.5268z"/>
 </g>
 <rect class="fil3" width="6.82666" height="6.82666"/>
</svg>
