<?xml version="1.0" encoding="UTF-8"?>
<!DOCTYPE svg PUBLIC "-//W3C//DTD SVG 1.1//EN" "http://www.w3.org/Graphics/SVG/1.1/DTD/svg11.dtd">
<!-- Creator: CorelDRAW -->
<svg xmlns="http://www.w3.org/2000/svg" xml:space="preserve" width="6.82666in" height="6.82666in" style="shape-rendering:geometricPrecision; text-rendering:geometricPrecision; image-rendering:optimizeQuality; fill-rule:evenodd; clip-rule:evenodd"
viewBox="0 0 6.82666 6.82666"
 xmlns:xlink="http://www.w3.org/1999/xlink">
 <defs>
  <style type="text/css">
   <![CDATA[
    .fil2 {fill:none}
    .fil0 {fill:#424242}
    .fil1 {fill:#FFFFFE;fill-rule:nonzero}
   ]]>
  </style>
 </defs>
 <rect class="fil0" width="6.82666" height="6.82666"/>
 <g id="Layer_x0020_1">
  <metadata id="CorelCorpID_0Corel-Layer"/>
  <path class="fil1" d="M3.41333 1.87503c0.181102,0 0.346272,0.0592008 0.465425,0.165815 0.116087,0.10387 0.187425,0.250378 0.187425,0.429075 0,0.182846 -0.078374,0.402051 -0.203051,0.56611 -0.115689,0.15222 -0.272732,0.260606 -0.449799,0.260606 -0.177067,0 -0.33411,-0.108386 -0.449799,-0.260606 -0.124677,-0.164059 -0.203051,-0.383264 -0.203051,-0.56611 0,-0.178697 0.0713386,-0.325205 0.187425,-0.429075 0.119154,-0.106614 0.284323,-0.165815 0.465425,-0.165815z"/>
  <path class="fil1" d="M4.11104 4.58606c-0.178488,0.097878 -0.426079,0.152232 -0.697713,0.152232 -0.271634,0 -0.519224,-0.0543543 -0.697713,-0.152232 -0.187594,-0.10287 -0.30287,-0.253575 -0.30287,-0.442657 0,-0.191969 0.129335,-0.41815 0.335091,-0.584087 0.17574,-0.14172 0.40902,-0.24263 0.665492,-0.24263 0.256472,0 0.489752,0.100909 0.665492,0.24263 0.205756,0.165937 0.335091,0.392118 0.335091,0.584087 0,0.189083 -0.115276,0.339787 -0.30287,0.442657z"/>
  <polygon class="fil1" points="0.853327,3.25422 0.853327,1.75878 0.853327,1.59878 1.01333,1.59878 2.50877,1.59878 2.50877,1.91878 1.17333,1.91878 1.17333,3.25422 "/>
  <polygon class="fil1" points="5.97333,3.25422 5.97333,1.75878 5.97333,1.59878 5.81333,1.59878 4.31789,1.59878 4.31789,1.91878 5.65333,1.91878 5.65333,3.25422 "/>
  <polygon class="fil1" points="0.853327,3.57244 0.853327,5.06788 0.853327,5.22788 1.01333,5.22788 2.50877,5.22788 2.50877,4.90788 1.17333,4.90788 1.17333,3.57244 "/>
  <polygon class="fil1" points="5.97333,3.57244 5.97333,5.06788 5.97333,5.22788 5.81333,5.22788 4.31789,5.22788 4.31789,4.90788 5.65333,4.90788 5.65333,3.57244 "/>
 </g>
 <rect class="fil2" width="6.82666" height="6.82666"/>
</svg>
