<?xml version="1.0" encoding="UTF-8"?>
<!DOCTYPE svg PUBLIC "-//W3C//DTD SVG 1.1//EN" "http://www.w3.org/Graphics/SVG/1.1/DTD/svg11.dtd">
<!-- Creator: CorelDRAW -->
<svg xmlns="http://www.w3.org/2000/svg" xml:space="preserve" width="6.82666in" height="6.82666in" style="shape-rendering:geometricPrecision; text-rendering:geometricPrecision; image-rendering:optimizeQuality; fill-rule:evenodd; clip-rule:evenodd"
viewBox="0 0 6.82666 6.82666"
 xmlns:xlink="http://www.w3.org/1999/xlink">
 <defs>
  <style type="text/css">
   <![CDATA[
    .fil3 {fill:none}
    .fil0 {fill:#424242}
    .fil2 {fill:#FFFFFE}
    .fil1 {fill:#FFFFFE;fill-rule:nonzero}
   ]]>
  </style>
 </defs>
 <rect class="fil0" width="6.82666" height="6.82666"/>
 <g id="Layer_x0020_1">
  <metadata id="CorelCorpID_0Corel-Layer"/>
  <g id="_369220064">
   <path id="_369212792" class="fil1" d="M4.56875 1.41209l-0.0580079 0.100154 -1.09741 -0.633594 -1.09065 0.629689c-0.00219291,0.00147244 -0.00444094,0.00288583 -0.00676378,0.00422441l-0.0580079 -0.100472 0.0575551 0.100154 -1.09696 0.633323 0 1.26777 0 1.26777 1.0878 0.628035c0.00324409,0.00149606 0.00645669,0.00314173 0.00961024,0.0049685l-0.0580079 0.100472 0.0580079 -0.100154 1.09741 0.633594 1.09065 -0.629689c0.00219291,-0.00147244 0.00444094,-0.00288583 0.00676378,-0.00422441l0.0580079 0.100472 -0.0575551 -0.100154 1.09696 -0.633323 0 -1.26777 0 -1.26777 -1.0878 -0.628035c-0.00324409,-0.00149606 -0.00645669,-0.00314173 -0.00961024,-0.0049685l0.0580079 -0.100472zm-1.15542 0.181634c0.502465,0 0.957374,0.203673 1.28666,0.532953 0.32928,0.329283 0.532953,0.784193 0.532953,1.28666 0,0.502465 -0.203673,0.957374 -0.532953,1.28666 -0.329283,0.32928 -0.784193,0.532953 -1.28666,0.532953 -0.502465,0 -0.957374,-0.203673 -1.28666,-0.532953 -0.32928,-0.329283 -0.532953,-0.784193 -0.532953,-1.28666 0,-0.502465 0.203673,-0.957374 0.532953,-1.28666 0.329283,-0.32928 0.784193,-0.532953 1.28666,-0.532953z"/>
   <g>
    <path id="_369213152" class="fil2" d="M2.49592 4.0025c0.101693,-0.214134 0.349217,-0.415902 0.54711,-0.541346 -0.00452362,-0.0347598 -0.0041811,-0.0703976 0.00143307,-0.105902 -0.193445,-0.0405748 -0.388587,-0.0251969 -0.589047,0.0501339 -0.214213,0.0805039 -0.435531,0.229287 -0.668118,0.451008 -0.00683071,0.00652756 -0.0142717,0.0120276 -0.022126,0.0164961 0.0165669,0.0592835 0.0363031,0.11761 0.0590984,0.17472 0.104803,0.262571 0.274291,0.499327 0.498102,0.684327 0.020878,-0.288323 0.0787913,-0.529913 0.173547,-0.729437z"/>
    <path id="_369220496" class="fil1" d="M3.41333 3.04c0.103079,0 0.196413,0.0417913 0.26398,0.109354 0.067563,0.0675669 0.109354,0.160902 0.109354,0.26398 0,0.103079 -0.0417913,0.196413 -0.109354,0.26398 -0.0675669,0.067563 -0.160902,0.109354 -0.26398,0.109354 -0.103079,0 -0.196413,-0.0417913 -0.26398,-0.109354 -0.067563,-0.0675669 -0.109354,-0.160902 -0.109354,-0.26398 0,-0.103079 0.0417913,-0.196413 0.109354,-0.26398 0.0675669,-0.067563 0.160902,-0.109354 0.26398,-0.109354zm0.113146 0.260189c-0.0289449,-0.0289449 -0.0689528,-0.0468504 -0.113146,-0.0468504 -0.0441929,0 -0.0842008,0.0179055 -0.113146,0.0468504 -0.0289449,0.0289449 -0.0468504,0.0689528 -0.0468504,0.113146 0,0.0441929 0.0179055,0.0842008 0.0468504,0.113146 0.0289449,0.0289449 0.0689528,0.0468504 0.113146,0.0468504 0.0441929,0 0.0842008,-0.0179055 0.113146,-0.0468504 0.0289449,-0.0289449 0.0468504,-0.0689528 0.0468504,-0.113146 0,-0.0441929 -0.0179055,-0.0842008 -0.0468504,-0.113146z"/>
    <path id="_369220232" class="fil2" d="M4.02383 2.50996c-0.00894882,0.236886 -0.156772,0.519953 -0.28911,0.713303 0.017874,0.0301535 0.031622,0.0630354 0.0404724,0.097874 0.193756,-0.0390472 0.366996,-0.130177 0.521469,-0.278496 0.165067,-0.158496 0.309717,-0.382535 0.435945,-0.678043 0.00370079,-0.00869291 0.00836614,-0.0166811 0.0138228,-0.0238858 -0.0386181,-0.047937 -0.0797677,-0.0937441 -0.123248,-0.137224 -0.199906,-0.199909 -0.449063,-0.350579 -0.727713,-0.432256 0.0945866,0.273165 0.136701,0.518004 0.128362,0.738728z"/>
    <path id="_369220352" class="fil2" d="M3.31567 2.3274c0.142752,0.189256 0.207047,0.502055 0.226657,0.735539 0.0329055,0.0120748 0.0643386,0.028874 0.0932126,0.0502835 0.1255,-0.152697 0.202185,-0.332799 0.228189,-0.545362 0.0277835,-0.22715 -0.00167717,-0.492197 -0.0905709,-0.800992 -0.00262598,-0.00907874 -0.00405512,-0.0182165 -0.00438189,-0.027248 -0.0602205,-0.012752 -0.121059,-0.022252 -0.182232,-0.0284764 -0.28126,-0.028622 -0.569579,0.0120394 -0.837157,0.124815 0.245921,0.151949 0.433272,0.315098 0.566283,0.491441z"/>
    <path id="_369220592" class="fil2" d="M2.65144 2.63339c0.230228,0.0564764 0.47772,0.258287 0.640453,0.426858 0.0331339,-0.0114331 0.0681102,-0.0182795 0.10402,-0.0199291 0.000779528,-0.19765 -0.0535906,-0.385697 -0.167756,-0.566878 -0.122,-0.193606 -0.312311,-0.380417 -0.576339,-0.563583 -0.00776772,-0.00537402 -0.0146535,-0.0115512 -0.0206102,-0.0183504 -0.0547323,0.0281732 -0.10789,0.059252 -0.159236,0.0930827 -0.236079,0.155543 -0.433846,0.369248 -0.569972,0.625732 0.286618,-0.037626 0.534921,-0.029563 0.749441,0.0230669z"/>
    <path id="_369220160" class="fil2" d="M2.32999 3.29026c0.21413,-0.101709 0.533469,-0.101681 0.766114,-0.0738583 0.0184567,-0.0297992 0.0412441,-0.0572087 0.0680276,-0.0811772 -0.124287,-0.153681 -0.285252,-0.265071 -0.48822,-0.333358 -0.216898,-0.0729646 -0.482445,-0.0974961 -0.802819,-0.072622 -0.00941732,0.000744094 -0.0186575,0.00030315 -0.0275709,-0.00119685 -0.024622,0.0564173 -0.0461811,0.114094 -0.0645984,0.172764 -0.084689,0.269728 -0.102929,0.560327 -0.0463661,0.845138 0.19837,-0.210276 0.395913,-0.360925 0.595433,-0.455689z"/>
    <path id="_369219440" class="fil2" d="M3.07458 4.44967c-0.0564882,-0.230224 0.00785827,-0.543016 0.0819685,-0.765287 -0.0254724,-0.0240827 -0.0477244,-0.0519213 -0.0658071,-0.0829843 -0.175567,0.0907835 -0.317098,0.226012 -0.424866,0.411071 -0.115157,0.197752 -0.192673,0.452917 -0.232839,0.771736 -0.00116929,0.00937402 -0.00346063,0.0183346 -0.00672835,0.0267638 0.0503031,0.0354803 0.102457,0.0682165 0.156213,0.0980748 0.247146,0.13728 0.528114,0.213681 0.81848,0.215642 -0.166012,-0.236657 -0.273783,-0.460496 -0.326421,-0.675016z"/>
    <path id="_369219872" class="fil2" d="M3.82707 4.42208c-0.192236,-0.138705 -0.345972,-0.418606 -0.433602,-0.635906 -0.0350039,-0.00183071 -0.0699961,-0.00860236 -0.103902,-0.0205394 -0.0748504,0.182929 -0.0949803,0.377638 -0.0571024,0.588409 0.0404803,0.225232 0.146835,0.469787 0.322894,0.738602 0.00518504,0.00789764 0.00924803,0.0162087 0.0122244,0.0247441 0.0613031,-0.00558661 0.122236,-0.0144606 0.182524,-0.0265669 0.277181,-0.0556457 0.540661,-0.179575 0.763051,-0.36628 -0.279807,-0.0726181 -0.506961,-0.173224 -0.686087,-0.302465z"/>
    <path id="_369219800" class="fil2" d="M4.38062 3.91643c-0.23635,0.0182205 -0.534476,-0.0962402 -0.741701,-0.205583 -0.0279094,0.0212047 -0.059,0.038626 -0.0925984,0.0514055 0.0609646,0.188016 0.171319,0.349689 0.336339,0.486173 0.176346,0.145846 0.415465,0.263909 0.723476,0.355492 0.00905906,0.0026811 0.0175315,0.00640157 0.025311,0.0109961 0.0432047,-0.0438465 0.084,-0.0899685 0.12222,-0.138138 0.17572,-0.221469 0.296886,-0.486232 0.346142,-0.772398 -0.260547,0.125224 -0.498957,0.195079 -0.719189,0.212051z"/>
    <path id="_369219512" class="fil2" d="M4.47245 3.1544c-0.165783,0.169441 -0.465457,0.279783 -0.693382,0.334075 -0.00701969,0.0343425 -0.0189291,0.067937 -0.0357835,0.099685 0.169744,0.10126 0.359287,0.150157 0.57335,0.144087 0.228748,-0.00648819 0.486409,-0.0752402 0.778449,-0.209303 0.00857874,-0.00395276 0.0174016,-0.00673228 0.0262835,-0.00840551 0.0036063,-0.0614488 0.00390551,-0.123028 0.000913386,-0.184445 -0.013748,-0.282374 -0.097063,-0.561374 -0.248571,-0.809087 -0.113476,0.265874 -0.246783,0.475516 -0.40126,0.633394z"/>
   </g>
  </g>
 </g>
 <rect class="fil3" width="6.82666" height="6.82666"/>
</svg>
