<?xml version="1.0" encoding="UTF-8"?>
<!DOCTYPE svg PUBLIC "-//W3C//DTD SVG 1.1//EN" "http://www.w3.org/Graphics/SVG/1.1/DTD/svg11.dtd">
<!-- Creator: CorelDRAW -->
<svg xmlns="http://www.w3.org/2000/svg" xml:space="preserve" width="6.82666in" height="6.82666in" style="shape-rendering:geometricPrecision; text-rendering:geometricPrecision; image-rendering:optimizeQuality; fill-rule:evenodd; clip-rule:evenodd"
viewBox="0 0 6.82666 6.82666"
 xmlns:xlink="http://www.w3.org/1999/xlink">
 <defs>
  <style type="text/css">
   <![CDATA[
    .fil3 {fill:none}
    .fil0 {fill:#424242}
    .fil2 {fill:#FFFFFE}
    .fil1 {fill:#FFFFFE;fill-rule:nonzero}
   ]]>
  </style>
 </defs>
 <rect class="fil0" width="6.82666" height="6.82666"/>
 <g id="Layer_x0020_1">
  <metadata id="CorelCorpID_0Corel-Layer"/>
  <path class="fil1" d="M3.29568 1.26609l-0.063878 0.0132874 -0.10315 -0.49513 -0.0896654 0.482862c-0.00151181,0.0145984 -0.0079252,0.0287835 -0.0192165,0.039874 -0.0257638,0.025315 -0.067185,0.0249488 -0.0925,-0.000814961l0.000129921 -0.000133858 -0.354268 -0.360555 0.186311 0.45637c0.00591339,0.012685 0.00781496,0.0273543 0.00448425,0.0420591 -0.00798425,0.0352283 -0.0430276,0.057311 -0.0782559,0.0493228l4.33071e-005 -0.000192913 -0.493122 -0.111831 0.402913 0.282807c0.0121614,0.0074685 0.0219764,0.0189409 0.0272205,0.0333937 0.0123228,0.0339567 -0.00521654,0.0714843 -0.0391693,0.0838071l-0.0223189 -0.0614882 0.0222283 0.0613228 -0.475421 0.172571 0.49078 0.0200394c0.0146535,-0.000574803 0.0295866,0.00375984 0.0421614,0.0133425 0.0287244,0.0218976 0.0342598,0.0629528 0.0123622,0.0916772l-0.0520197 -0.0396575 0.0518701 0.0396063 -0.306669 0.40222 0.423339 -0.248256c0.0120787,-0.00857087 0.027126,-0.0131102 0.0430472,-0.0118307 0.0360039,0.0028937 0.0628543,0.0344331 0.0599606,0.0704409l-5.51181e-005 -7.87402e-006 -0.0404882 0.503764 0.222185 -0.438264c0.00562205,-0.0133268 0.0156693,-0.0248937 0.0294173,-0.0322441 0.0318543,-0.0170315 0.0714921,-0.00501181 0.0885236,0.0268425l-0.057685 0.0308386 0.0574882 -0.0306614 0.2385 0.446079 -0.0500748 -0.489295c-0.00249606,-0.0142677 -0.000299213,-0.0294528 0.00729921,-0.0430866 0.0175866,-0.0315512 0.0574331,-0.0428701 0.0889803,-0.0252835l-0.000106299 0.000188976 0.441693 0.246248 -0.306886 -0.384831c-0.0096063,-0.0105984 -0.015811,-0.0244055 -0.0167717,-0.0397835 -0.00225197,-0.0360512 0.0251457,-0.0671181 0.0611929,-0.069374l1.1811e-005 0.000125984 0.504453 -0.0316181 -0.466067 -0.157772c-0.0137717,-0.00374016 -0.0264213,-0.0119843 -0.0355276,-0.024378 -0.0213898,-0.0291063 -0.0151339,-0.0700512 0.0139724,-0.0914409l0.0387362 0.0527087 -0.0385787 -0.0526378 0.407213 -0.299276 -0.477772 0.119343c-0.0135039,0.00417717 -0.0284567,0.00402756 -0.042685,-0.0014252 -0.0337323,-0.0129213 -0.0506024,-0.050748 -0.0376811,-0.0844803l6.29921e-005 2.3622e-005 0.180783 -0.471969 -0.336709 0.357965c-0.00914173,0.0111929 -0.0220315,0.0194449 -0.0372835,0.022622 -0.0353622,0.00736614 -0.0700118,-0.0153307 -0.077378,-0.0506929l0.0640394 -0.0133425z"/>
  <path class="fil2" d="M1.39411 2.72329l0.854374 0c0.0242677,0 0.0463937,0.00914173 0.0631417,0.0241575l0.200122 0.14987 1.24171 0 0.187055 -0.152508 -0.000188976 -0.000232283c0.0175748,-0.0143307 0.038748,-0.0212953 0.0597913,-0.0212874l0.000511811 0 0.853862 0c0.100929,0 0.192622,0.0412283 0.259031,0.107638 0.0664094,0.0664055 0.107638,0.158094 0.107638,0.259028l0 0.30437 0.0794843 0c0.0522598,0 0.094626,0.0423661 0.094626,0.094626l0 1.65402c0,0.0522598 -0.0423661,0.094626 -0.094626,0.094626l-0.0794843 0 0 0.26213c0,0.100933 -0.0412283,0.192622 -0.107638,0.259035 -0.0664094,0.0664094 -0.158102,0.107634 -0.259031,0.107634l-3.46038 0c-0.100929,0 -0.192622,-0.0412244 -0.259031,-0.107634 -0.0664094,-0.0664134 -0.107634,-0.158102 -0.107634,-0.259035l0 -0.26213 -0.0794843 0c-0.0522598,0 -0.094626,-0.0423661 -0.094626,-0.094626l0 -1.65402c0,-0.0522598 0.0423661,-0.094626 0.094626,-0.094626l0.0794843 0 0 -0.30437c0,-0.100933 0.0412244,-0.192622 0.107634,-0.259028 0.0664094,-0.0664094 0.158102,-0.107638 0.259031,-0.107638zm3.22643 0.250437c0.0416063,0 0.0792835,0.0168701 0.106551,0.0441378 0.0272717,0.0272717 0.0441417,0.0649409 0.0441417,0.106547 0,0.0416063 -0.016874,0.0792835 -0.0441378,0.106551 -0.0272756,0.0272717 -0.0649488,0.0441417 -0.106555,0.0441417 -0.0416063,0 -0.0792756,-0.0168701 -0.106547,-0.0441417 -0.0272677,-0.0272677 -0.0441378,-0.0649449 -0.0441378,-0.106551 0,-0.0416063 0.0168701,-0.0792756 0.0441378,-0.106547 0.0272717,-0.0272677 0.0649488,-0.0441378 0.106547,-0.0441378zm0.0396496 0.111039c-0.0101417,-0.0101378 -0.0241614,-0.0164134 -0.0396496,-0.0164134 -0.0154843,0 -0.0295079,0.00627559 -0.0396457,0.0164134 -0.0101378,0.0101378 -0.0164134,0.0241614 -0.0164134,0.0396457 0,0.0154882 0.00627559,0.0295079 0.0164134,0.0396457 0.0101417,0.0101457 0.0241614,0.0164213 0.0396457,0.0164213 0.0154882,0 0.0295079,-0.00627559 0.0396496,-0.0164213 0.0101417,-0.0101378 0.0164173,-0.0241575 0.0164173,-0.0396457 0,-0.0154843 -0.00627559,-0.0295039 -0.0164173,-0.0396457zm-1.53589 0.285669c0.290157,0 0.552862,0.117622 0.74302,0.30778 0.190157,0.190157 0.30778,0.452862 0.30778,0.74302 0,0.290157 -0.117622,0.552862 -0.30778,0.743016 -0.190157,0.190157 -0.452862,0.307783 -0.74302,0.307783 -0.290157,0 -0.552862,-0.117626 -0.74302,-0.307783 -0.190154,-0.190154 -0.30778,-0.452858 -0.30778,-0.743016 0,-0.290157 0.117626,-0.552862 0.30778,-0.74302 0.190157,-0.190157 0.452862,-0.30778 0.74302,-0.30778zm0.609213 0.441587c-0.155898,-0.155902 -0.371295,-0.252335 -0.609213,-0.252335 -0.237921,0 -0.453315,0.0964331 -0.609213,0.252335 -0.155898,0.155898 -0.252335,0.371295 -0.252335,0.609213 0,0.237921 0.096437,0.453315 0.252335,0.609213 0.155898,0.155898 0.371291,0.252335 0.609213,0.252335 0.237917,0 0.453315,-0.096437 0.609213,-0.252335 0.155902,-0.155898 0.252335,-0.371291 0.252335,-0.609213 0,-0.237917 -0.0964331,-0.453315 -0.252335,-0.609213zm-0.609213 -0.100067c0.195854,0 0.373181,0.0793937 0.501531,0.207748 0.128354,0.12835 0.207748,0.305677 0.207748,0.501531 0,0.195858 -0.0793937,0.373181 -0.207748,0.501531 -0.12835,0.128354 -0.305677,0.207748 -0.501531,0.207748 -0.195858,0 -0.373177,-0.0793937 -0.501531,-0.207748 -0.128354,-0.12835 -0.207748,-0.305673 -0.207748,-0.501531 0,-0.195854 0.0793937,-0.373181 0.207748,-0.501531 0.128354,-0.128354 0.305673,-0.207748 0.501531,-0.207748zm0.43463 0.27465c-0.111224,-0.111228 -0.264894,-0.180024 -0.43463,-0.180024 -0.169736,0 -0.323406,0.0687953 -0.43463,0.180024 -0.111224,0.111224 -0.180024,0.264894 -0.180024,0.43463 0,0.169736 0.0687992,0.323406 0.180024,0.43463 0.111224,0.111224 0.264894,0.180024 0.43463,0.180024 0.169736,0 0.323406,-0.0687992 0.43463,-0.180024 0.111228,-0.111224 0.180024,-0.264894 0.180024,-0.43463 0,-0.169736 -0.0687953,-0.323406 -0.180024,-0.43463z"/>
  <path class="fil1" d="M1.9926 2.88715l-0.522319 0c-0.0522598,0 -0.094626,-0.0311929 -0.094626,-0.0696654l0 -0.25637c0,-0.0384724 0.0423661,-0.0696654 0.094626,-0.0696654l0.522319 0c0.0522598,0 0.094626,0.0311929 0.094626,0.0696654l0 0.25637c0,0.0384724 -0.0423661,0.0696654 -0.094626,0.0696654z"/>
  <path class="fil1" d="M3.63337 3.08795l-1.01733 0c-0.0480315,0.000476378 -0.0895354,-0.0355394 -0.0948898,-0.0842992l0.000177165 -0.000346457 -0.0549843 -0.500681 0.293772 -0.140661 -0.0126496 0.711291 0.346949 -0.559374 0.0340157 -0.0181457 0.378717 0.550791 -0.0327244 -0.674531 0.308413 0.125169 -0.054937 0.500248c-0.0021378,0.0503622 -0.0436417,0.0905394 -0.0945315,0.0905394z"/>
 </g>
 <rect class="fil3" width="6.82666" height="6.82666"/>
</svg>
