<?xml version="1.0" encoding="UTF-8"?>
<!DOCTYPE svg PUBLIC "-//W3C//DTD SVG 1.1//EN" "http://www.w3.org/Graphics/SVG/1.1/DTD/svg11.dtd">
<!-- Creator: CorelDRAW -->
<svg xmlns="http://www.w3.org/2000/svg" xml:space="preserve" width="6.82666in" height="6.82666in" style="shape-rendering:geometricPrecision; text-rendering:geometricPrecision; image-rendering:optimizeQuality; fill-rule:evenodd; clip-rule:evenodd"
viewBox="0 0 6.82666 6.82666"
 xmlns:xlink="http://www.w3.org/1999/xlink">
 <defs>
  <style type="text/css">
   <![CDATA[
    .fil3 {fill:none}
    .fil0 {fill:#424242}
    .fil2 {fill:#FFFFFE}
    .fil1 {fill:#FFFFFE;fill-rule:nonzero}
   ]]>
  </style>
 </defs>
 <rect class="fil0" width="6.82666" height="6.82666"/>
 <g id="Layer_x0020_1">
  <metadata id="CorelCorpID_0Corel-Layer"/>
  <path class="fil1" d="M4.97523 1.55578c0.281496,0 0.536358,0.11411 0.720846,0.298594 0.184484,0.184488 0.298594,0.43935 0.298594,0.72085 0,0.281492 -0.114114,0.536358 -0.298598,0.720843 -0.184484,0.184488 -0.439346,0.298598 -0.720843,0.298598 -0.281496,0 -0.536358,-0.11411 -0.720843,-0.298598 -0.184484,-0.184484 -0.298598,-0.43935 -0.298598,-0.720843 0,-0.2815 0.11411,-0.536362 0.298594,-0.72085 0.184488,-0.184484 0.43935,-0.298594 0.720846,-0.298594zm0.570012 0.449429c-0.14587,-0.145866 -0.347402,-0.236091 -0.570012,-0.236091 -0.22261,0 -0.424142,0.0902244 -0.570012,0.236091 -0.145866,0.14587 -0.236091,0.347402 -0.236091,0.570016 0,0.222606 0.0902283,0.424142 0.236094,0.570008 0.145862,0.145866 0.347398,0.236094 0.570008,0.236094 0.22261,0 0.424142,-0.0902244 0.570008,-0.236094 0.145866,-0.145866 0.236094,-0.347402 0.236094,-0.570008 0,-0.222614 -0.0902244,-0.424146 -0.236091,-0.570016z"/>
  <path class="fil2" d="M4.97523 2.57522l0 -0.738909c0.408091,0 0.738909,0.330819 0.738909,0.738909l-0.738909 0z"/>
  <path class="fil1" d="M5.0819 1.2811c0,-0.0589094 -0.0477598,-0.106669 -0.106669,-0.106669 -0.0589094,0 -0.106669,0.0477598 -0.106669,0.106669l0 0.347732c0,0.0589094 0.0477598,0.106669 0.106669,0.106669 0.0589094,0 0.106669,-0.0477598 0.106669,-0.106669l0 -0.347732z"/>
  <path class="fil1" d="M4.80137 1.1395c-0.0589094,0 -0.106669,0.0634016 -0.106669,0.141602 0,0.0782008 0.0477598,0.141602 0.106669,0.141602l0.347724 0c0.0589094,0 0.106669,-0.0634016 0.106669,-0.141602 0,-0.0782008 -0.0477598,-0.141602 -0.106669,-0.141602l-0.347724 0z"/>
  <path class="fil2" d="M1.36828 2.50967l0.819535 0c0.0232756,0 0.0444961,0.00876772 0.060563,0.0231732l0.191961 0.143756 1.19107 0 0.179425 -0.146287 -0.000181102 -0.000220472c0.0120945,-0.0098622 0.0259606,-0.0160906 0.0402835,-0.0188189 -0.00119685,0.0212283 -0.0018189,0.0425512 -0.0018189,0.0639528 0,0.299583 0.118039,0.584465 0.329839,0.796268 0.211803,0.211803 0.496681,0.329839 0.796268,0.329839 0.0783701,0 0.155728,-0.00809449 0.231043,-0.023815l0 1.15316c0,0.050126 -0.0406378,0.0907717 -0.0907677,0.0907717l-0.0762402 0 0 0.251437c0,0.096811 -0.0395472,0.184768 -0.103248,0.248465 -0.0637008,0.0637047 -0.151657,0.103252 -0.248469,0.103252l-3.31927 0c-0.096811,0 -0.184768,-0.0395472 -0.248469,-0.103252 -0.0637008,-0.0636969 -0.103248,-0.151654 -0.103248,-0.248465l0 -0.251437 -0.0762362 0c-0.0501299,0 -0.0907677,-0.0406457 -0.0907677,-0.0907717l0 -1.58657c0,-0.050126 0.0406378,-0.0907638 0.0907677,-0.0907638l0.0762362 0 0 -0.291957c0,-0.0968189 0.0395472,-0.184768 0.103248,-0.248469 0.0637008,-0.0636969 0.151657,-0.103244 0.248469,-0.103244zm1.65963 0.620752c0.278323,0 0.530319,0.112827 0.71272,0.295228 0.182398,0.182406 0.295228,0.434398 0.295228,0.71272 0,0.278323 -0.112831,0.530311 -0.295228,0.712713 -0.182402,0.182406 -0.434398,0.295232 -0.71272,0.295232 -0.278323,0 -0.530315,-0.112827 -0.712717,-0.295232 -0.182402,-0.182402 -0.295228,-0.43439 -0.295228,-0.712713 0,-0.278323 0.112827,-0.530315 0.295228,-0.71272 0.182402,-0.182402 0.434394,-0.295228 0.712717,-0.295228zm0.58437 0.423579c-0.149539,-0.149543 -0.356154,-0.242043 -0.58437,-0.242043 -0.228217,0 -0.434827,0.0925 -0.584366,0.242043 -0.149543,0.149539 -0.242043,0.356154 -0.242043,0.58437 0,0.22822 0.0925,0.434827 0.242043,0.58437 0.149539,0.149535 0.35615,0.242039 0.584366,0.242039 0.228217,0 0.434831,-0.0925039 0.58437,-0.242039 0.149543,-0.149543 0.242047,-0.35615 0.242047,-0.58437 0,-0.228217 -0.0925039,-0.434831 -0.242047,-0.58437zm-0.58437 -0.0959882c0.18787,0 0.357965,0.0761575 0.481083,0.19928 0.123118,0.123114 0.199276,0.293209 0.199276,0.481079 0,0.187866 -0.0761575,0.357965 -0.199276,0.481079 -0.123118,0.123118 -0.293213,0.199276 -0.481083,0.199276 -0.18787,0 -0.357957,-0.0761575 -0.481079,-0.199276 -0.123118,-0.123114 -0.199272,-0.293213 -0.199272,-0.481079 0,-0.18787 0.0761535,-0.357965 0.199272,-0.481079 0.123122,-0.123122 0.293209,-0.19928 0.481079,-0.19928zm0.416906 0.263453c-0.106689,-0.106693 -0.254091,-0.172685 -0.416906,-0.172685 -0.162815,0 -0.310217,0.0659921 -0.416906,0.172685 -0.106689,0.106689 -0.172681,0.254091 -0.172681,0.416906 0,0.162815 0.0659921,0.310217 0.172681,0.416902 0.106689,0.106689 0.254091,0.172685 0.416906,0.172685 0.162815,0 0.310217,-0.0659961 0.416906,-0.172685 0.106693,-0.106685 0.172689,-0.254087 0.172689,-0.416902 0,-0.162815 -0.0659961,-0.310217 -0.172689,-0.416906z"/>
  <path class="fil1" d="M1.94237 2.66685l-0.501024 0c-0.050122,0 -0.0907638,-0.0406417 -0.0907638,-0.0907677l0 -0.334016c0,-0.0501299 0.0406417,-0.0907677 0.0907638,-0.0907677l0.501024 0c0.0501299,0 0.0907677,0.0406378 0.0907677,0.0907677l0 0.334016c0,0.050126 -0.0406378,0.0907677 -0.0907677,0.0907677z"/>
  <path class="fil1" d="M3.51623 2.85946l-0.975839 0c-0.0460709,0.000456693 -0.0858819,-0.0340866 -0.0910197,-0.0808583l0.0902244 -0.00990551 -0.0900551 0.00957087 -0.0900433 -0.819945c-0.000937008,-0.00523622 -0.00143307,-0.0106378 -0.00143307,-0.0161417 0,-0.050126 0.0406378,-0.0907717 0.0907677,-0.0907717l1.15803 0c0.0033189,0 0.00666535,0.000173228 0.0100394,0.000547244 0.0498268,0.0054685 0.0857874,0.0502992 0.080315,0.10013l-0.00019685 -2.3622e-005 -0.0901102 0.820551c-0.00205512,0.0483071 -0.0418661,0.0868465 -0.0906811,0.0868465z"/>
  <path class="fil1" d="M2.53658 1.85142l0.982299 0 0 -0.160008c0,-0.0439055 -0.0180276,-0.0838937 -0.0470669,-0.112933 -0.0290433,-0.0290394 -0.0690276,-0.0470709 -0.112933,-0.0470709l-0.662299 0c-0.0439055,0 -0.0838898,0.0180315 -0.112933,0.0470709 -0.0290354,0.0290394 -0.0470669,0.0690276 -0.0470669,0.112933l0 0.160008zm1.07307 0.181535l-1.16384 0c-0.050126,0 -0.0907717,-0.0406417 -0.0907717,-0.0907717l0 -0.250772c0,-0.0940157 0.0384016,-0.179421 0.100256,-0.241283 0.0618661,-0.0618543 0.147268,-0.100256 0.241283,-0.100256l0.662299 0c0.0940157,0 0.179417,0.0384016 0.241283,0.100256 0.0618543,0.0618622 0.100252,0.147268 0.100252,0.241283l0 0.250772c0,0.0501299 -0.0406378,0.0907717 -0.0907638,0.0907717z"/>
  <path class="fil1" d="M3.30022 1.73335c0.0250591,0 0.045378,-0.0203189 0.045378,-0.0453819 0,-0.0250591 -0.0203189,-0.0453819 -0.045378,-0.0453819l-0.581122 0c-0.025063,0 -0.0453858,0.0203228 -0.0453858,0.0453819 0,0.025063 0.0203228,0.0453819 0.0453858,0.0453819l0.581122 0z"/>
 </g>
 <rect class="fil3" width="6.82666" height="6.82666"/>
</svg>
