<?xml version="1.0" encoding="UTF-8"?>
<!DOCTYPE svg PUBLIC "-//W3C//DTD SVG 1.1//EN" "http://www.w3.org/Graphics/SVG/1.1/DTD/svg11.dtd">
<!-- Creator: CorelDRAW -->
<svg xmlns="http://www.w3.org/2000/svg" xml:space="preserve" width="6.82666in" height="6.82666in" style="shape-rendering:geometricPrecision; text-rendering:geometricPrecision; image-rendering:optimizeQuality; fill-rule:evenodd; clip-rule:evenodd"
viewBox="0 0 6.82666 6.82666"
 xmlns:xlink="http://www.w3.org/1999/xlink">
 <defs>
  <style type="text/css">
   <![CDATA[
    .fil2 {fill:none}
    .fil0 {fill:#424242}
    .fil1 {fill:#FFFFFE;fill-rule:nonzero}
   ]]>
  </style>
 </defs>
 <rect class="fil0" width="6.82666" height="6.82666"/>
 <g id="Layer_x0020_1">
  <metadata id="CorelCorpID_0Corel-Layer"/>
  <g id="_369215000">
   <path id="_369216176" class="fil1" d="M1.44954 1.50717c0.203268,-0.0896063 0.421638,-0.130059 0.63848,-0.121547 0.148972,0.00584646 0.297232,0.0348346 0.439382,0.086874 -0.142575,0.253047 -0.216555,0.538705 -0.216555,0.830646 0,0.330969 0.0950669,0.65387 0.27739,0.930327 0.128512,0.19487 0.298417,0.354744 0.493354,0.478307 -0.219232,0.0533465 -0.447567,0.0544646 -0.66676,0.00351575 -0.27237,-0.0633071 -0.530551,-0.206559 -0.739583,-0.429315 -0.217598,-0.231874 -0.350902,-0.516591 -0.400394,-0.813094 -0.0508858,-0.304866 -0.0132205,-0.622437 0.112453,-0.907969l-0.000129921 -5.51181e-005c0.0123898,-0.0281457 0.0354646,-0.0482598 0.0623622,-0.057689z"/>
   <path id="_369215960" class="fil1" d="M3.45709 0.864311c0.279638,0.11385 0.518094,0.313228 0.685606,0.567228 0.163866,0.248469 0.259768,0.548709 0.259768,0.871606 0,0.322894 -0.0959016,0.623134 -0.259764,0.871602 -0.169016,0.25628 -0.41024,0.456957 -0.693126,0.570287l8.66142e-005 0.00026378c-0.0292362,0.0117126 -0.0605866,0.00956299 -0.0867874,-0.00332677 -0.27963,-0.113862 -0.518083,-0.313224 -0.685591,-0.567224 -0.163866,-0.248469 -0.259768,-0.548709 -0.259768,-0.871602 0,-0.322894 0.0959016,-0.623138 0.259768,-0.871606 0.169016,-0.256272 0.41024,-0.456957 0.693126,-0.570283l-8.26772e-005 -0.00026378c0.0292283,-0.0117087 0.0605709,-0.00956299 0.0867638,0.0033189z"/>
   <path id="_369215672" class="fil1" d="M4.73561 1.38572c0.217776,-0.0090315 0.43724,0.0313937 0.641528,0.121457 0.0268898,0.00943307 0.0499567,0.0295433 0.0623425,0.0576811l-0.000129921 5.51181e-005c0.125673,0.285531 0.163339,0.603102 0.112453,0.907969 -0.0494921,0.2965 -0.182791,0.581217 -0.400394,0.813098 -0.20961,0.22337 -0.468575,0.36678 -0.741665,0.429791 -0.218256,0.0503622 -0.445382,0.0492362 -0.663421,-0.00355512 0.19302,-0.122591 0.358512,-0.286315 0.485421,-0.478748 0.182323,-0.276457 0.277386,-0.599358 0.277386,-0.930327 0,-0.291224 -0.0736181,-0.576193 -0.215504,-0.82878 0.14274,-0.0528425 0.291902,-0.0824173 0.441984,-0.0886417z"/>
   <path id="_369215288" class="fil1" d="M2.9148 3.59197c-0.0195157,0.0193307 -0.0316063,0.0461417 -0.0316063,0.0757795 0,0.14913 0.0584921,0.284594 0.153055,0.383051 0.0955591,0.0994921 0.227697,0.161031 0.373744,0.161031 0.146047,0 0.278181,-0.0615433 0.373744,-0.161031 0.094563,-0.0984567 0.153055,-0.233925 0.153055,-0.383051 0,-0.0282323 -0.0109764,-0.0539016 -0.0288858,-0.0729843 -0.0997283,0.0824528 -0.209319,0.152874 -0.326783,0.20898l0.00110236 0.00335039 -0.0928937 0.0372165c-0.0552047,0.0221142 -0.116189,0.019185 -0.170138,-0.0050315 -0.14535,-0.065248 -0.281902,-0.147839 -0.404394,-0.247311z"/>
   <path id="_369215432" class="fil1" d="M3.52 4.16773c0,-0.0589094 -0.0477598,-0.106669 -0.106669,-0.106669 -0.0589094,0 -0.106669,0.0477598 -0.106669,0.106669l0 1.69894c0,0.0589094 0.0477598,0.106669 0.106669,0.106669 0.0589094,0 0.106669,-0.0477598 0.106669,-0.106669l0 -1.69894z"/>
   <path id="_369215024" class="fil1" d="M2.25698 4.60432c0.104724,-0.0602638 0.225811,-0.0869331 0.346575,-0.0781457 0.119016,0.00865748 0.238075,0.0517323 0.34111,0.130984 0.102894,0.0791496 0.174988,0.183063 0.21385,0.295764 0.0402165,0.116614 0.0449134,0.243063 0.0114685,0.361764l-0.1025 -0.028752 0.102669 0.0289291c-0.00843701,0.0299488 -0.0288622,0.0532874 -0.0546063,0.0662913 -0.104724,0.0602441 -0.225776,0.0869055 -0.346524,0.078122 -0.119012,-0.00866142 -0.238075,-0.0517362 -0.341106,-0.130988 -0.102894,-0.0791457 -0.174984,-0.183055 -0.21385,-0.29576 -0.0402165,-0.116614 -0.0449134,-0.243055 -0.0114724,-0.361768l0.1025 0.028752 -0.102669 -0.0289252c0.00843307,-0.0299291 0.0288307,-0.0532559 0.0545551,-0.0662677z"/>
   <path id="_369215240" class="fil1" d="M4.37439 4.05717c0.152961,-0.0111299 0.306244,0.0227953 0.438551,0.0994016 0.0256378,0.0130276 0.0459685,0.036311 0.0543819,0.0661732l-0.102669 0.0289291 0.1025 -0.028752c0.0421181,0.149492 0.0361614,0.308846 -0.014563,0.455925 -0.0490748,0.142303 -0.140098,0.273496 -0.27002,0.373433 -0.130059,0.100043 -0.28035,0.154417 -0.430591,0.165346 -0.152961,0.0111299 -0.306244,-0.0227953 -0.438551,-0.0994016 -0.0256378,-0.0130276 -0.0459685,-0.036311 -0.0543819,-0.0661732l0.102669 -0.0289291 -0.1025 0.028752c-0.0421181,-0.149488 -0.0361614,-0.308843 0.014563,-0.455929 0.0490787,-0.142295 0.140102,-0.2735 0.270024,-0.373429 0.130063,-0.100043 0.28035,-0.154417 0.430587,-0.165346z"/>
  </g>
 </g>
 <rect class="fil2" width="6.82666" height="6.82666"/>
</svg>
