<?xml version="1.0" encoding="UTF-8"?>
<!DOCTYPE svg PUBLIC "-//W3C//DTD SVG 1.1//EN" "http://www.w3.org/Graphics/SVG/1.1/DTD/svg11.dtd">
<!-- Creator: CorelDRAW -->
<svg xmlns="http://www.w3.org/2000/svg" xml:space="preserve" width="6.82666in" height="6.82666in" style="shape-rendering:geometricPrecision; text-rendering:geometricPrecision; image-rendering:optimizeQuality; fill-rule:evenodd; clip-rule:evenodd"
viewBox="0 0 6.82666 6.82666"
 xmlns:xlink="http://www.w3.org/1999/xlink">
 <defs>
  <style type="text/css">
   <![CDATA[
    .fil2 {fill:none}
    .fil0 {fill:#424242}
    .fil1 {fill:#FFFFFE;fill-rule:nonzero}
   ]]>
  </style>
 </defs>
 <rect class="fil0" width="6.82666" height="6.82666"/>
 <g id="Layer_x0020_1">
  <metadata id="CorelCorpID_0Corel-Layer"/>
  <path class="fil1" d="M0.962602 4.45737c-0.0706654,0 -0.127953,0.0477598 -0.127953,0.106669 0,0.0589094 0.0572874,0.106669 0.127953,0.106669l4.88832 0c0.0706654,0 0.127953,-0.0477598 0.127953,-0.106669 0,-0.0589094 -0.0572874,-0.106669 -0.127953,-0.106669l-4.88832 0z"/>
  <g id="_369216824">
   <path id="_369216392" class="fil1" d="M2.60994 4.50125l2.9205 0 0.337484 0c-0.390098,-0.293661 -0.692358,-0.641748 -0.922594,-0.990705 -0.318213,-0.482291 -0.49835,-0.96526 -0.582921,-1.30889 -0.000224409,-0.00137795 -0.000468504,-0.00275591 -0.000748031,-0.00413386 -0.0117087,-0.0577323 -0.0680118,-0.0950433 -0.125744,-0.0833346l8.66142e-005 0.000437008c-0.0607835,0.0125354 -0.0983307,0.087685 -0.161209,0.21363 -0.221618,0.443909 -0.86063,1.72358 -1.91769,2.17299l0.452839 0zm0.902008 -0.84587c0.34372,-0.437591 0.580783,-0.888335 0.714673,-1.15424 0.100606,0.313972 0.26339,0.692957 0.507232,1.0738 -0.0516417,0.0338268 -0.105791,0.0210551 -0.162626,-0.0121102 -0.0227953,-0.0132992 -0.0446142,-0.03 -0.0671496,-0.0472402 -0.0301969,-0.0231063 -0.0620709,-0.0474961 -0.0847283,-0.0543386 -0.00811811,-0.00244882 -0.0206378,0.00838976 -0.0427795,0.0506969 -0.0824055,0.157465 -0.134701,0.187102 -0.224,0.160134 -0.0248504,-0.00750787 -0.0448976,-0.0195709 -0.0695591,-0.0344134 -0.0212362,-0.0127795 -0.0473425,-0.0284921 -0.0812559,-0.0421496l-0.162476 0.180291c-0.00214961,0.00275197 -0.00461417,0.00540157 -0.00744488,0.00791732l-0.0010748 -0.00069685 -5.90551e-005 5.90551e-005 0.00092126 0.000598425c-0.00537008,0.00478346 -0.0112638,0.00887008 -0.0176457,0.0122795 -0.00216535,0.00120079 -0.00443701,0.00232283 -0.0068189,0.0033622l-3.54331e-005 -5.11811e-005 -0.000106299 5.11811e-005 -0.000125984 -0.000165354c-0.0472441,0.0205433 -0.100469,0.00621654 -0.15476,-0.0286969 -0.0337598,-0.0217047 -0.0720079,-0.0529921 -0.109531,-0.086752 -0.0102283,-0.00920866 -0.0204882,-0.0187087 -0.0306496,-0.0283268z"/>
   <path id="_369217088" class="fil1" d="M3.35565 3.42037c-0.140016,-0.134094 -0.28852,-0.289791 -0.41639,-0.439882 -0.14161,-0.166213 -0.256669,-0.323232 -0.303646,-0.431583l-0.0975 0.0420827 0.0978661 -0.0424291c-0.0234291,-0.0540472 -0.086248,-0.0788661 -0.140295,-0.055437 -0.0279134,0.0121024 -0.0480315,0.0347126 -0.0577323,0.0611929 -0.19176,0.408421 -0.351831,0.726315 -0.567673,1.02377 -0.216425,0.298248 -0.490433,0.577799 -0.911571,0.910898 -0.00478346,0.00377953 -0.00915354,0.00788976 -0.0131024,0.0122717l0.334209 0 0.670488 0 0.23089 -0.0981614c0.472142,-0.200732 0.863783,-0.578547 1.17446,-0.982724zm-0.272579 0.0382323l-0.00129528 -0.00125984c-0.0197638,0.0267756 -0.0489528,0.0648228 -0.0784724,0.0985512 -0.0235315,0.0268858 -0.0482874,0.052811 -0.0705394,0.0714016 -0.0370315,0.0309449 -0.0741654,0.0445354 -0.107835,0.0270197 -0.00627165,-0.00326772 -0.0119843,-0.00748031 -0.0170787,-0.0127126l-9.44882e-005 8.26772e-005c-0.00238189,-0.00245669 -0.00447244,-0.0050748 -0.00627953,-0.00781102l-0.0906732 -0.118488c-0.136618,0.0578898 -0.17765,0.0624331 -0.240543,-0.0697717 -0.00777165,-0.0163425 0.00296063,-0.0274843 -0.00194882,-0.025315 -0.0110945,0.00490551 -0.0299488,0.0291299 -0.0476299,0.0518543 -0.0169409,0.0217795 -0.0331496,0.0425984 -0.0508819,0.0568858 -0.0397717,0.0320236 -0.0783583,0.038189 -0.116673,-0.0060315 -0.00299213,-0.00345276 -0.0235551,-0.035563 -0.0441102,-0.0687874 0.118768,-0.192823 0.225051,-0.399024 0.33811,-0.63426 0.0624055,0.0928583 0.142031,0.195063 0.230465,0.298858 0.0958543,0.112508 0.202547,0.227783 0.308846,0.335319l-0.00336614 0.00446457z"/>
  </g>
 </g>
 <rect class="fil2" width="6.82666" height="6.82666"/>
</svg>
