<?xml version="1.0" encoding="UTF-8"?>
<!DOCTYPE svg PUBLIC "-//W3C//DTD SVG 1.1//EN" "http://www.w3.org/Graphics/SVG/1.1/DTD/svg11.dtd">
<!-- Creator: CorelDRAW -->
<svg xmlns="http://www.w3.org/2000/svg" xml:space="preserve" width="6.82666in" height="6.82666in" style="shape-rendering:geometricPrecision; text-rendering:geometricPrecision; image-rendering:optimizeQuality; fill-rule:evenodd; clip-rule:evenodd"
viewBox="0 0 6.82666 6.82666"
 xmlns:xlink="http://www.w3.org/1999/xlink">
 <defs>
  <style type="text/css">
   <![CDATA[
    .fil3 {fill:none}
    .fil0 {fill:#424242}
    .fil2 {fill:#FFFFFE}
    .fil1 {fill:#FFFFFE;fill-rule:nonzero}
   ]]>
  </style>
 </defs>
 <rect class="fil0" width="6.82666" height="6.82666"/>
 <g id="Layer_x0020_1">
  <metadata id="CorelCorpID_0Corel-Layer"/>
  <path class="fil1" d="M1.34616 1.90459l4.13435 0c0.127071,0 0.242524,0.0519094 0.326154,0.135539 0.083626,0.083626 0.135539,0.199079 0.135539,0.326154l0 2.4502c0,0.127075 -0.0519134,0.242528 -0.135539,0.326154 -0.0836299,0.0836299 -0.199083,0.135539 -0.326154,0.135539l-4.13435 0c-0.127071,0 -0.242524,-0.0519094 -0.326154,-0.135539 -0.083626,-0.083626 -0.135539,-0.199079 -0.135539,-0.326154l0 -2.4502c0,-0.127075 0.0519134,-0.242528 0.135539,-0.326154 0.0836299,-0.0836299 0.199083,-0.135539 0.326154,-0.135539zm4.13435 0.210744l-4.13435 0c-0.0689016,0 -0.131622,0.0282638 -0.177154,0.0737953 -0.0455276,0.0455315 -0.0737953,0.108248 -0.0737953,0.177154l0 2.4502c0,0.0689055 0.0282677,0.131622 0.0737953,0.177154 0.0455315,0.0455315 0.108252,0.0737953 0.177154,0.0737953l4.13435 0c0.0689016,0 0.131622,-0.0282638 0.177154,-0.0737953 0.0455276,-0.0455315 0.0737953,-0.108248 0.0737953,-0.177154l0 -2.4502c0,-0.0689055 -0.0282677,-0.131622 -0.0737953,-0.177154 -0.0455315,-0.0455315 -0.108252,-0.0737953 -0.177154,-0.0737953z"/>
  <path class="fil1" d="M4.12554 2.41595c0.324571,0 0.618429,0.131571 0.831142,0.34428 0.212713,0.212717 0.34428,0.506575 0.34428,0.831146 0,0.324571 -0.131567,0.618429 -0.34428,0.831138 -0.212713,0.212717 -0.506571,0.344283 -0.831142,0.344283 -0.324571,0 -0.618429,-0.131567 -0.831142,-0.344283 -0.212713,-0.212709 -0.34428,-0.506567 -0.34428,-0.831138 0,-0.324575 0.131567,-0.618429 0.34428,-0.831146 0.212713,-0.212713 0.506571,-0.34428 0.831142,-0.34428zm0.69585 0.479571c-0.178071,-0.178075 -0.424098,-0.28822 -0.69585,-0.28822 -0.271752,0 -0.51778,0.110142 -0.69585,0.28822 -0.178079,0.178075 -0.28822,0.424098 -0.28822,0.695854 0,0.271752 0.110142,0.51778 0.28822,0.69585 0.178071,0.178079 0.424098,0.28822 0.69585,0.28822 0.271752,0 0.51778,-0.110142 0.69585,-0.28822 0.178079,-0.178071 0.28822,-0.424098 0.28822,-0.69585 0,-0.271752 -0.110142,-0.51778 -0.28822,-0.695854z"/>
  <path class="fil1" d="M4.12554 2.95865c0.174709,0 0.332894,0.0708307 0.447394,0.185331 0.1145,0.1145 0.185331,0.272685 0.185331,0.447394 0,0.174709 -0.0708268,0.33289 -0.185331,0.44739 -0.1145,0.1145 -0.272685,0.185331 -0.447394,0.185331 -0.174709,0 -0.332894,-0.0708307 -0.447394,-0.185331 -0.114504,-0.1145 -0.185331,-0.272681 -0.185331,-0.44739 0,-0.174709 0.0708307,-0.332894 0.185331,-0.447394 0.1145,-0.1145 0.272685,-0.185331 0.447394,-0.185331zm0.312106 0.320618c-0.0798661,-0.0798661 -0.190217,-0.129268 -0.312106,-0.129268 -0.12189,0 -0.23224,0.0494016 -0.312106,0.129268 -0.0798661,0.0798661 -0.129268,0.190217 -0.129268,0.312106 0,0.12189 0.0494016,0.23224 0.129268,0.312102 0.0798661,0.0798661 0.190217,0.129268 0.312106,0.129268 0.12189,0 0.23224,-0.0494016 0.312106,-0.129268 0.0798661,-0.0798622 0.129268,-0.190213 0.129268,-0.312102 0,-0.12189 -0.0494016,-0.23224 -0.129268,-0.312106z"/>
  <path class="fil1" d="M3.2326 1.99049c0,0.0589094 0.0477598,0.106669 0.106669,0.106669 0.145921,0 1.42661,0 1.57253,0 0.0589094,0 0.106669,-0.0477598 0.106669,-0.106669l0 -0.0835118c0,-0.104409 -0.0426378,-0.199248 -0.111327,-0.267933 -0.068685,-0.068689 -0.163524,-0.111327 -0.267933,-0.111327l-1.02735 0c-0.104402,0 -0.199248,0.0426378 -0.267933,0.111327 -0.068689,0.068685 -0.111327,0.163524 -0.111327,0.267933l0 0.0835118z"/>
  <path class="fil1" d="M1.46894 1.64117l0.488457 0c0.0589094,0 0.106669,0.0477598 0.106669,0.106669l0 0.242654c0,0.0589094 -0.0477598,0.106669 -0.106669,0.106669l-0.488457 0c-0.0589094,0 -0.106669,-0.0477598 -0.106669,-0.106669l0 -0.242654c0,-0.0589094 0.0477598,-0.106669 0.106669,-0.106669z"/>
  <path class="fil2" d="M1.9574 2.09716l-0.488457 0 -0.148236 0c-0.069752,0 -0.133244,0.0286142 -0.179335,0.0747047 -0.0460906,0.0460906 -0.0747047,0.109583 -0.0747047,0.179335l0 0.326764 0.887591 0c0.125634,0 0.23978,0.0513228 0.322461,0.134004 0.0826811,0.0826811 0.134004,0.196827 0.134004,0.322465l0 0.913898c0,0.125638 -0.0513228,0.239783 -0.134004,0.322465 -0.0826772,0.0826811 -0.196823,0.134004 -0.322461,0.134004l-0.887591 0 0 0.326768c0,0.069752 0.0286142,0.133244 0.0747047,0.179335 0.0460906,0.0460906 0.109583,0.0747047 0.179335,0.0747047l4.18524 0c0.069752,0 0.133244,-0.0286142 0.179335,-0.0747047 0.0460906,-0.0460906 0.0747047,-0.109583 0.0747047,-0.179335l0 -2.48037c0,-0.069752 -0.0286142,-0.133244 -0.0747047,-0.179335 -0.0460906,-0.0460906 -0.109583,-0.0747047 -0.179335,-0.0747047l-0.593224 0c-0.000307087,3.93701e-006 -0.00061811,3.93701e-006 -0.000925197,3.93701e-006 -0.000307087,0 -0.00061811,0 -0.000925197,-3.93701e-006l-1.57068 0c-0.000307087,3.93701e-006 -0.00061811,3.93701e-006 -0.000925197,3.93701e-006 -0.000307087,0 -0.00061811,0 -0.000925197,-3.93701e-006l-1.38094 0zm1.24149 0.567571c0.237154,-0.237157 0.56478,-0.383843 0.926646,-0.383843 0.361866,0 0.689492,0.146689 0.926646,0.383843 0.237157,0.237157 0.383843,0.564783 0.383843,0.92665 0,0.361866 -0.146685,0.689492 -0.383843,0.926646 -0.237154,0.237157 -0.56478,0.383843 -0.926646,0.383843 -0.361866,0 -0.689492,-0.146685 -0.926646,-0.383843 -0.237157,-0.237154 -0.383843,-0.56478 -0.383843,-0.926646 0,-0.36187 0.146685,-0.689492 0.383843,-0.92665zm1.80965 -0.424665c0.0313425,-0.0313425 0.0746299,-0.0508031 0.122283,-0.0508031l0.381311 0c0.0476535,0 0.0909449,0.0194606 0.122287,0.0508031 0.0313425,0.0313425 0.0508031,0.0746299 0.0508031,0.122283 0,0.0476496 -0.0194567,0.090937 -0.0508031,0.122287 -0.0313425,0.0313425 -0.0746339,0.0508031 -0.122287,0.0508031l-0.381311 0c-0.0476535,0 -0.0909449,-0.0194606 -0.12228,-0.0508031 -0.0313425,-0.0313425 -0.0508031,-0.0746339 -0.0508031,-0.122287 0,-0.0476535 0.0194606,-0.090937 0.0507992,-0.122283zm0.383882 2.40726c0.0477953,0 0.0910669,0.019374 0.122386,0.0507008 0.0313268,0.0313189 0.0507008,0.0745945 0.0507008,0.122382 0,0.0477953 -0.019374,0.0910669 -0.0507008,0.122386 -0.0313189,0.0313268 -0.0745906,0.0507008 -0.122386,0.0507008 -0.0477874,0 -0.091063,-0.019374 -0.122382,-0.0507008 -0.0313268,-0.0313189 -0.0507008,-0.0745906 -0.0507008,-0.122386 0,-0.0477835 0.019374,-0.0910591 0.0506969,-0.122386 0.0313268,-0.0313228 0.0746024,-0.0506969 0.122386,-0.0506969z"/>
  <path class="fil2" d="M1.95426 2.8913l-0.887591 0 0 1.40016 0.887591 0c0.066752,0 0.127516,-0.0273858 0.171626,-0.0715 0.0441142,-0.0441142 0.0715,-0.104878 0.0715,-0.17163l0 -0.913898c0,-0.066752 -0.0273858,-0.127516 -0.0715,-0.17163 -0.0441142,-0.0441142 -0.104878,-0.0715 -0.171626,-0.0715z"/>
 </g>
 <rect class="fil3" width="6.82666" height="6.82666"/>
</svg>
